<svg xmlns="http://www.w3.org/2000/svg" viewBox="0 0 158.97 135.35"><defs><style>.cls-1{fill:#1b75bc;}.cls-2{fill:#5ba0ce;}.cls-3{fill:#cecece;}</style></defs><g id="Layer_2" data-name="Layer 2"><g id="Layer_1-2" data-name="Layer 1"><path class="cls-1" d="M129.45,97.66c1.42,3.54,22.84,16.63,23.47,10.79C151.68,120,142,129.34,131,133a50.58,50.58,0,0,1-15.51,2.37,95.49,95.49,0,0,1-15.4-1.26c-5-.76-9.85-1.77-14.54-2.77l-4.09-.87c-3-.63-5.94-1.29-8.89-2L70.73,128A116.89,116.89,0,0,1,52,121.67C39.1,115.9,34.65,106.78,26,96.19A103.69,103.69,0,0,0,.7,73L0,68.07c15.07-1.36,23.46-22.31,31.63-32.32C42,23.13,55.68,14,71,8.16A117.93,117.93,0,0,1,85.63,3.63,129.56,129.56,0,0,1,102.76.71,136.68,136.68,0,0,1,118.29,0a131.7,131.7,0,0,1,40.36,6.66c-6.35,14.53-11,30.32-22.32,41.67-5,5.88-10,13-2.07,15.52,5.29,1.71,10-4.08,15.31-2,4.57,1.81,6.89,7,7.91,11.09,2.9,11.86,2.83,24.46-12,20.89C141.36,92.88,125,86.55,129.45,97.66Z"/><path class="cls-2" d="M85.58,131.32l-4.09-.87c-3-.63-5.94-1.29-8.89-2L70.73,128q.55-4,1.06-8.08C76.45,82.7,78.58,44.7,71,8.16A117.93,117.93,0,0,1,85.63,3.63C87,10.1,88.1,16.65,89,23.24,93.71,59.27,90.49,95.46,85.58,131.32Z"/><path class="cls-2" d="M115.52,135.35a95.49,95.49,0,0,1-15.4-1.26q1.47-5.75,2.78-11.55c8.92-39.77,11.32-82.63-.14-121.83A136.68,136.68,0,0,1,118.29,0q2.1,7.59,3.55,15.37C129.31,55.46,125.19,96.09,115.52,135.35Z"/><path class="cls-3" d="M48.23,79.29a11.44,11.44,0,0,0,2.89.19c4.72-.39,8.2-4,10.17-7.51,3.81-6.78,4.52-18.92-3.31-24.2-5.8-3.91-15.3-2.42-19.91,2.2C28.93,59.15,33.65,76.76,48.23,79.29Z"/><path d="M57.57,65.49a17.2,17.2,0,0,0-.2-9A6.14,6.14,0,0,0,52.59,52,4.85,4.85,0,0,0,52,52,6.42,6.42,0,0,0,49,51.48c-4.05.3-6.86,3.9-8.22,7a11.48,11.48,0,0,0-.43,9.29A8.26,8.26,0,0,0,43,71.11c1,1.66,2.71,2.72,5.55,2.48l.21,0a4.84,4.84,0,0,0,2.92.26c2.43-.56,3.69-2.76,4.61-4.67a18.22,18.22,0,0,0,1.14-3.07C57.47,65.89,57.52,65.69,57.57,65.49Z"/><path class="cls-3" d="M54.58,57.34a2.18,2.18,0,0,0-1.76-1.24A3.43,3.43,0,0,0,49.38,58a2.58,2.58,0,0,0,.52,3.08l0,0a2.11,2.11,0,0,0,2.48,1C54.64,61.56,55.25,59.11,54.58,57.34Z"/></g></g></svg>