<svg xmlns="http://www.w3.org/2000/svg" viewBox="0 0 184.43 122.36"><defs><style>.cls-1{fill:#eab363;}.cls-2{fill:#598daa;}.cls-3{fill:#e2c950;}.cls-4{fill:#ffb43a;}.cls-5{fill:#cecece;}</style></defs><g id="Layer_2" data-name="Layer 2"><g id="Layer_1-2" data-name="Layer 1"><path class="cls-1" d="M83.43,111.4a19.39,19.39,0,0,0,9.72,8.82,29,29,0,0,0,7.52,1.75,58,58,0,0,0,40.64-10.69C134.75,102,129.33,92,123.93,82Z"/><path class="cls-1" d="M69.48,19.61c8-8.53,16.83-17.56,28.37-19.3,5.36-.8,10.82.07,16.11,1.21,10.92,2.35,21.56,5.83,32.18,9.3a3.57,3.57,0,0,1,2.15,1.35c.54.93.14,2.11-.28,3.11A314.79,314.79,0,0,1,129.2,53.16Z"/><path class="cls-1" d="M145.34,42.9a33.54,33.54,0,0,1,6.85-6.48c4.87-3.42,9.38-6.38,15.22-8,1.45-.39,17.27-1.59,17-.93-2.8,7.29-4,14.76-8.3,21.41a72.56,72.56,0,0,1-15,16.95c5.16.08,9.9,3.35,12.83,7.59s4.31,9.38,5.16,14.47,1.74,9.61,1.71,15l-5.55-1.56c-5.6-1.57-11.25-3.17-16.36-6-12.06-6.57-20.19-17.64-20.82-31.68C137.72,56.26,140.65,48.76,145.34,42.9Z"/><path class="cls-2" d="M149.45,70.12a46.94,46.94,0,0,1-4.06,5.69c-1,1.3-2.19,2.61-3.38,3.92-.51.56-1,1.13-1.56,1.69-1.36,1.44-2.75,2.86-4.13,4.23-.27.28-.55.55-.83.82-2.11,2.08-4.17,4-6,5.72-1.26,1.19-2.39,2.25-3.32,3.14l-1,1c-1,1-2,2-3.08,2.86a69.09,69.09,0,0,1-5.89,4.59c-.86.61-1.74,1.19-2.62,1.75-1.25.8-2.52,1.55-3.82,2.27-1.63.91-3.31,1.76-5,2.56s-3.45,1.54-5.22,2.23h0c-.81.32-1.61.62-2.43.91q-3.35,1.2-6.81,2.18c-1.24.35-2.5.69-3.77,1-.11,0-.23,0-.34.09q-2.84.69-5.67,1.2a83.45,83.45,0,0,1-12,1.29c-1.1,0-2.19,0-3.28,0s-2.38,0-3.57-.12q-.67,0-1.35-.09a68.37,68.37,0,0,1-14.84-2.74c-1.29-.39-2.58-.82-3.85-1.29a64.31,64.31,0,0,1-16.83-9.35A62.34,62.34,0,0,1,10.19,89.88C5.28,82.58-1,74.82.12,65.36,1.64,52.3,15.88,32.58,25.93,24.48A73.68,73.68,0,0,1,37.17,17c1-.53,1.95-1,2.95-1.52A73.17,73.17,0,0,1,55.28,10q1.88-.45,3.75-.78h0c.9-.16,1.8-.3,2.7-.43,1.35-.18,2.69-.32,4-.41,1.94-.13,3.88-.18,5.8-.12h0l1.27.05c.79.05,1.57.1,2.34.17s1.4.13,2.08.22h0a61.7,61.7,0,0,1,11.43,2.43l.35.11,1.5.5h0c1.44.5,2.84,1,4.24,1.63h0l1,.44,1.21.53c2.75,1.27,5.45,2.71,8.15,4.29,3.45,2,6.9,4.24,10.48,6.65l1.64,1.1a.91.91,0,0,1,.16.11c.54.36,1.07.73,1.58,1.1.94.67,1.86,1.35,2.75,2a83.34,83.34,0,0,1,8.55,7.63c1.46,1.48,2.87,3,4.25,4.64.78.9,1.55,1.83,2.32,2.78s1.38,1.73,2.07,2.62c.47.61,1.28,1.53,2.29,2.64.05.06.11.12.16.19h0c.88,1,1.88,2.06,2.92,3.23,3.37,3.76,7,8.06,7.21,10S151,67.58,149.45,70.12Z"/><path class="cls-3" d="M53.58,78.7c-.06.67-.13,1.33-.2,2-.13,1.25-.28,2.49-.43,3.74a155.48,155.48,0,0,1-3.09,17.12c-.37,1.56-.78,3.11-1.21,4.66-.09.34-.19.68-.29,1-.88,3-1.81,6.11-2.93,9.11-1.29-.39-2.58-.82-3.84-1.29.06-.15.11-.3.16-.44a147,147,0,0,0,8.57-57c-.47-9.29-1.83-18.76-5.25-27.45a45.45,45.45,0,0,0-6-10.87c-.62-.8-1.27-1.56-1.94-2.28,1-.53,1.95-1,2.95-1.52a42.69,42.69,0,0,1,5.4,7.9c.57,1.05,1.11,2.11,1.61,3.19.63,1.33,1.2,2.68,1.73,4.05h0a86.28,86.28,0,0,1,5.28,26.61c.08,1.61.13,3.21.15,4.82h0A157.41,157.41,0,0,1,53.58,78.7Z"/><path class="cls-3" d="M101.83,80.14c-.88,9.11-2.17,18.18-3.67,27.2-.34,2.06-.69,4.12-1.08,6.18q-3.35,1.2-6.81,2.18c0-.09,0-.19.06-.27,1.1-5.11,2-10.26,2.77-15.43,1.72-11,3.24-22.06,4-33.18a188.79,188.79,0,0,0-.22-32.34c-.83-7.86-2.42-15.82-6.29-22.71,1.44.5,2.84,1,4.24,1.63h0a56.29,56.29,0,0,1,5.5,14.71C104.25,45,103.49,63.08,101.83,80.14Z"/><path class="cls-3" d="M125.78,68a158.88,158.88,0,0,1-2.88,26.9c-.27,1.44-.54,2.89-.82,4.33a69.09,69.09,0,0,1-5.89,4.59c-.86.61-1.74,1.19-2.62,1.75.91-3.8,1.86-7.6,2.64-11.42a181.55,181.55,0,0,0,3.27-25.65,154.24,154.24,0,0,0-.7-24.69,126.73,126.73,0,0,0-3.1-18.47l1.64,1.1a.91.91,0,0,1,.16.11c.54.36,1.07.73,1.58,1.1a91.49,91.49,0,0,1,4.45,14.5A119.21,119.21,0,0,1,125.78,68Z"/><path class="cls-3" d="M142.73,66A135,135,0,0,1,142,79.73c-.51.56-1,1.13-1.56,1.69-1.36,1.44-2.75,2.86-4.13,4.23-.27.28-.55.55-.83.82.89-6.46,1.88-12.92,2.29-19.44a103.43,103.43,0,0,0-.85-22.31c.69.85,1.38,1.73,2.07,2.62.47.61,1.28,1.53,2.29,2.64.05.06.11.12.16.19h0A93.7,93.7,0,0,1,142.73,66Z"/><path class="cls-4" d="M71.18,52.08A39.73,39.73,0,0,1,93,48.49a2.68,2.68,0,0,1,1.61.58,2.72,2.72,0,0,1,.62,1.76,93.43,93.43,0,0,1-.63,24.09c-1.23,7.88-16,3.46-21.21,2.45Z"/><path class="cls-3" d="M75.13,89.46a147.08,147.08,0,0,1-5.7,27c-.31.94-.63,1.87-1,2.8-1.1,0-2.19,0-3.28,0s-2.38,0-3.57-.12c1.14-2.9,2.11-5.87,3-8.87,5-17.39,6.64-36,5.85-54.07a175.65,175.65,0,0,0-3.62-27.69c-.91-4.45-2-8.84-3.29-13.21-.62-2.18-1.21-4.35-1.79-6.53,1.35-.18,2.69-.32,4-.41A68,68,0,0,1,69,15.86a105.42,105.42,0,0,1,4.51,15.89A177.18,177.18,0,0,1,75.13,89.46Z"/><path class="cls-5" d="M28.62,81.58a12.34,12.34,0,0,0,3.12.2c5.11-.41,8.88-4.33,11-8.12,4.12-7.35,4.89-20.48-3.58-26.19-6.28-4.24-16.57-2.63-21.55,2.38C7.73,59.78,12.84,78.84,28.62,81.58Z"/><path d="M38.72,66.64a18.63,18.63,0,0,0-.22-9.72,6.63,6.63,0,0,0-5.16-4.85c-.2,0-.4-.06-.6-.08a7,7,0,0,0-3.33-.51C25,51.81,22,55.7,20.5,59A12.46,12.46,0,0,0,20,69.09a8.84,8.84,0,0,0,2.89,3.63c1.05,1.8,2.94,3,6,2.69l.22,0a5.25,5.25,0,0,0,3.16.28c2.63-.61,4-3,5-5a19.59,19.59,0,0,0,1.24-3.33C38.61,67.07,38.67,66.86,38.72,66.64Z"/><path class="cls-5" d="M35.49,57.82a2.4,2.4,0,0,0-1.92-1.34,3.69,3.69,0,0,0-3.71,2.06,2.79,2.79,0,0,0,.56,3.34l0,0a2.29,2.29,0,0,0,2.69,1C35.55,62.38,36.21,59.73,35.49,57.82Z"/></g></g></svg>