<svg xmlns="http://www.w3.org/2000/svg" viewBox="0 0 426.81 415.75"><defs><style>.cls-1{opacity:0.15;}.cls-2{fill:#829499;fill-rule:evenodd;}</style></defs><g id="Layer_2" data-name="Layer 2"><g id="bg1"><g class="cls-1"><path class="cls-2" d="M258,76.17c28.57,8.38,50.09,23.82,67,43.89,15-11.66,30.86-33.94,52.95-33.94,12.71,1.18,9.72,13.64,3.62,20.37C369.82,117,350,127.94,335.33,133.64c12.91,21.93,24.48,58.1,17.2,94.57,26.68,2.18,62.36-.33,72.4,18.11,6.15,11.28-3.67,16.77-16.74,15.83-21.55-1.54-42.86-13.32-58.38-20.81-10.21,32.77-28.06,57.92-52.94,76,9.92,11.78,28.49,23.92,34.39,40.28,4.44,12.32-1.31,26-15.84,21.27-18.4-6-22.66-36.89-31.68-52.5-23.25,13.21-55,24.25-92.31,19,.46,17.39,2,44.52-4.53,58.37-3.19,6.8-14,17-22.62,9.06-15.21-21.15,6.72-52.12,12.21-69.69-33.63-9.05-59.18-26.19-77.38-50.69-15.47,10.19-29.53,32.32-49.78,35.75-13-.29-13.61-15.38-7.24-23.08C52.91,292.08,75.38,288,89.16,278,76.75,254.93,67.3,217.52,76,184.32c-18.46-4-76.8-.09-76-26.7,14.74-27.13,63.53,3.34,80.55,9,11.52-28.9,28.73-52.12,52.94-68.33C122.05,82.73,100.13,69,95,49c-1.63-7.95,2.15-18.55,9-19.45,25.23,4.13,31.46,40,42.54,59.73,23.53-12.83,57.54-22.75,94.12-16.74,3.46-20.4,1.69-51.1,12.22-66.07C257.54,0,270.69-3.67,275.6,5.57,283.3,28.37,263.63,56.51,258,76.17Zm16.29-58.38c1-13.72-10.4-18.89-17.65-10-10.52,13-9.51,46.45-12.67,65.17,4.21.46,7.42,1.93,11.77,2.26C260.17,58,272.73,37.84,274.24,17.79ZM129,57.16c-4-7.45-8.37-15.54-15.44-20.53-12-9.27-16.74,5.15-13.52,15.1,6.39,15.56,22,29.42,33.5,42.12.89.75,1.66,2.87,3,1.73a42.87,42.87,0,0,1,7.61-4.93C141.49,84.82,132.69,63.8,129,57.16Zm49.78,22.17C28.58,121.33,45.85,350.64,219,343.16,418.39,321.53,381.64,34,178.76,79.33ZM366.1,91.55c-15,7.59-26.32,21-38.85,31.78,8,10.59,3.06,8.21,17.64,2,12.07-7.87,27.73-12.27,36.4-24.23C388.93,87.88,375,87.48,366.1,91.55ZM21.28,150.38C3.75,149.22-2.35,161,10,169.39c15,10.18,45.58,8.45,66.53,11.76,1.4-3.58,2.09-7.86,3.62-11.31C65.18,163.17,42.35,151.77,21.28,150.38Zm329,88.24C365.8,246,387,258.37,408.19,259.89c21.72,2.57,17.71-13.51,4.07-20.81-19-7.92-40.34-4.57-60.27-7.25C351.84,231.78,350.53,238.08,350.26,238.62ZM88.51,282.14c-13.27,7.93-34.58,15-44.15,25.26-4.27,4.77-4.28,14.19,2.66,16.42,15.44,1.77,38.32-25.18,49.83-34.51-1.66-2.21-3.71-5.25-5.41-7.56C90.85,280.39,89.44,281.88,88.51,282.14ZM305.92,368.5c5.43,8.49,20.74,12.4,23.53,1.35,2.73-19.4-22.85-39-35.3-50.22-2.64,2.16-5.81,3.62-8.43,5.83C293.59,339.17,296.27,355.71,305.92,368.5ZM180.08,345c-5.2,17.85-18.28,33.9-16.26,53.39.79,16,12.49,15.81,19,4.08,8.31-17.73,3.68-38.17,6.34-57,0,.19-7.9-1.45-8.57-1.66C180.16,343.78,180.28,344.62,180.08,345Z"/><path class="cls-2" d="M210.89,94.27C391.78,95.46,348.52,356,179.66,319.62,50.92,286.15,81.3,100.26,210.89,94.27ZM161.56,111c14,20.52,26.89,42.2,41.18,62.45,3.38-2.05,8.33-2.53,13.58-2.72,4.41-24.85,12.72-48.21,16.29-72.4C204.64,94.92,178.36,100.32,161.56,111Zm74.67-11.77c-6.29,23.28-13.28,45.86-17.2,71.5,3.59.79,7.44,1.32,10.41,2.72,6.33-23.83,12.76-47.57,19-71.5C244.37,101.06,241,99.5,236.23,99.24Zm48,46.61c1.88-1.31,15.32-8.49,15.38-10.86-10.88-14.24-31.33-26.58-47.51-31.67-8,22.34-12.7,47.94-19.92,71,1.95,1.68,4.38,2.87,6.34,4.53C253.38,168.09,268.64,156.71,284.2,145.85Zm-135.31-27.6c13.34,21.36,27.54,41.85,42.08,62,3-2,6.12-3.84,8.6-6.34-14-20.25-26.49-42-40.72-62C155.51,114,152.06,116,148.89,118.25Zm40.63,63.82c-13.71-18.9-31.85-45.06-43.34-62a111,111,0,0,0-40.73,55.21c23.09,1.75,45.45,10.4,68.23,14.39C188,192.25,180.38,191.35,189.52,182.07Zm111.87-43.91c-20.5,13.74-40.4,28.08-61.09,41.63,2.22,4,5.81,6.57,7.24,11.32,19.87-15,43.07-26.62,62-42.54C306.54,145.39,304.8,140.94,301.39,138.16Zm-52.94,55.66a22.39,22.39,0,0,1,1.81,10.86c25.38,4.49,48.83,10.9,74.66,14.94,3.05-27-3.24-51.39-14-67.43C290.56,166.54,267.61,178.3,248.45,193.82Zm-66.53,10.86C180.81,240.29,229.59,250,244.83,221,267.39,172.39,186.34,153,181.92,204.68Zm-77.38-28.05c-.89,4.08-2.48,7.47-3.17,11.76,26,4.94,51.2,10.66,78.74,14a34.9,34.9,0,0,1,2.27-8.6C155.34,189.18,131.66,181.19,104.54,176.63Zm-3.62,14c-6.13,26,.37,55,10,72.41C134.27,246.93,158,231.13,181,214.64c-1.05-2.57-.9-6.35-1.36-9.5C153.2,200.52,126.77,195.88,100.92,190.65ZM248,218.26c25.61,4.26,49.79,10,74.22,15.39.93-3.29,1.43-7,2.26-10.41-25-4.9-49.79-10-74.21-15.39A36.59,36.59,0,0,1,248,218.26Zm-67.42,17.65c3-2,6-4.3,9.16-6a40.42,40.42,0,0,1-8-12.09c-22.49,15.68-46.53,32.18-69,47.54,2.08,4.25,4.31,8.36,7.69,11.32C138.09,263.87,161,249,180.57,235.91Zm66.52-14.48c-2.1,3.06-5.94,6.68-6.79,9.5,14.61,20.38,27.26,42.74,42.09,62.9,17.19-14.63,31.51-32.14,38.46-57C297.14,230.8,272.28,226,247.09,221.43ZM191,232.29c-23.89,14.57-45.37,31.56-69.23,46.16,13.63,18.34,32.76,31.19,57.92,38,6.28-26.61,15.21-50.57,19.91-78.74A98.52,98.52,0,0,1,191,232.29Zm46.62,0c-1.61,2.47-4.68,3.47-6.79,5.43,13.77,20.92,26.79,42.59,40.72,63.35,3.17-1.5,6.28-3.08,8.15-5.88C266.06,273.8,252.29,252.58,237.59,232.29Zm-19.92,8.6c-6.07,26.5-12.57,52.59-19,78.74,29.32,2.29,52-5.9,70.14-16.3-13-22.22-27.29-44.14-41.18-64.71A51.05,51.05,0,0,1,217.67,240.89Zm-14.48-1.81c-6.27,26.76-13.67,52.39-21.27,77.83,4.07,1.52,9.44,1.72,14,2.72,7.08-25.2,13.73-50.84,18.1-78.74C209.78,240.93,206.73,239.76,203.19,239.08Z"/><path class="cls-2" d="M212.7,187.49c21.8-3.61,25.34,26.67,9.38,36.11C194.31,236.46,185.71,194.13,212.7,187.49Zm-12.22,13.12c-4.51,10.24.58,19.18,7.69,21.72,23.3,8.33,30.6-34.08,6.34-31.68A17.22,17.22,0,0,0,200.48,200.61Z"/><path class="cls-2" d="M105.75,135.88c.91-4.71,5.29-8.51,8.91-11.11C112.91,128.39,108,131.49,105.75,135.88Z"/><path class="cls-2" d="M301.87,140.72c-4.84,4.82-11.34,8.28-17.67,11.21C289.18,147.6,295.54,144.17,301.87,140.72Z"/><path class="cls-2" d="M320.51,224.55c-6.83.34-14-1.43-20.64-3.48C306.47,221.18,313.49,222.88,320.51,224.55Z"/><path class="cls-2" d="M263.89,7.18c1.21-.29.3.6-.18,1-11.15,8.39-9.45,24.38-13.91,36.32C251.42,31.65,251.7,14.75,263.89,7.18Z"/><path class="cls-2" d="M262.47,14.17c-1.74,4.53-4.71,9.07-5.43,14C256.72,23.2,259.6,17.48,262.47,14.17Z"/><path class="cls-2" d="M246.64,81.14c-48.54-8.23-89.38,7.3-122.64,33.94C150.48,86.63,205.78,69,246.64,81.14Z"/><path class="cls-2" d="M230.34,83.41c-12.29.21-29.56.66-40.27,3.62C199.42,82.3,217.23,81.37,230.34,83.41Z"/><path class="cls-2" d="M237.13,101.51c.58,5.1-1.68,11.28-3.17,15.84C232.91,113.54,236.05,106.18,237.13,101.51Z"/><path class="cls-2" d="M303.85,112.11c23.43,16.92,39.34,46.78,42.34,75.83C337.85,159.13,326.37,131.78,303.85,112.11Z"/><path class="cls-2" d="M102.61,139.11A145.71,145.71,0,0,0,85.08,247.22C73.56,213,81,168.16,102.61,139.11Z"/><path class="cls-2" d="M301.58,143.6c.55,2.17-5.33,4.49-6.89,5.38C296.61,146.76,299.4,145.52,301.58,143.6Z"/><path class="cls-2" d="M7.25,160.33C14.19,167,23.67,171.06,35.31,173,23.81,172.74,12.18,168.68,7.25,160.33Z"/><path class="cls-2" d="M228.08,178.89c-9.69-1.86-23.28-.69-30.77,3.62C203,176.9,219.18,174.42,228.08,178.89Z"/><path class="cls-2" d="M105,185.68c3.19.28,5.61,1.33,8.6,1.81C111.66,187.75,106.4,187.45,105,185.68Z"/><path class="cls-2" d="M347.1,195.18c1.87,1.22,2.46,5.89,1.32,7.69A64.28,64.28,0,0,1,347.1,195.18Z"/><path class="cls-2" d="M230.54,227.05c-.71,1.59-4.93,3.61-6.88,3.55C225.73,229.33,228.3,228.16,230.54,227.05Z"/><path class="cls-2" d="M88.52,232.89a173.27,173.27,0,0,1-2-21.53,76.27,76.27,0,0,0,3.94,34.5C90,241.52,89.19,237.22,88.52,232.89Z"/><path class="cls-2" d="M251.61,215.09c5.89,1.2,12.44,1.74,17.65,3.62C264.71,219.71,255.85,217.4,251.61,215.09Z"/><path class="cls-2" d="M211.34,235.45a43.11,43.11,0,0,0,28.58-13C235.56,231.06,220.85,236.64,211.34,235.45Z"/><path class="cls-2" d="M171.06,238.62c1.45-1,13.26-11.3,13.13-8.14C179.89,233.27,176.16,236.63,171.06,238.62Z"/><path class="cls-2" d="M205.45,241.34c.14,4.62-1.7,14-4.52,18.55C201.23,254.28,203.57,246.86,205.45,241.34Z"/><path class="cls-2" d="M339,241.79C330.16,278,306.54,303.21,277.86,321c6.55-8.14,17.5-12.47,24.55-20.58C319.31,284.36,331.59,263.83,339,241.79Z"/><path class="cls-2" d="M135.77,261.7c-4.73,4.62-9.55,9.16-16.3,11.77C123.68,268.32,129.77,265.06,135.77,261.7Z"/><path class="cls-2" d="M88.25,292.93c-.37,2.5-4.16,5.48-6.79,7.24C83,297,86,295.34,88.25,292.93Z"/><path class="cls-2" d="M306.9,289c.45-.28.87-1.21,1.47-.88-6.2,7-14,13.51-22.6,17.28C292.55,299.57,300.21,294.9,306.9,289Z"/><path class="cls-2" d="M73.14,306.36c-4.35,6-15.09,14-24.25,15.07C57.83,318,65.77,312.42,73.14,306.36Z"/><path class="cls-2" d="M130.79,312.84c22.45,14.75,48.81,27.15,87.79,24C186.27,341.82,144.79,329.4,130.79,312.84Z"/><path class="cls-2" d="M234.87,336.37c-1.41,1.15-4.24.88-6.79.9C229.68,336.3,232.26,336.32,234.87,336.37Z"/><path class="cls-2" d="M105.76,181.87c5.45-1,10,1,15,1.65A33.43,33.43,0,0,1,105.76,181.87Z"/><path class="cls-2" d="M196.39,306.24a27.53,27.53,0,0,1-2.58,10.6C193.49,313.27,195,309.46,196.39,306.24Z"/><path class="cls-2" d="M192.65,307.26a21.71,21.71,0,0,1-1.73,8.22C190.6,312.75,191.64,309.79,192.65,307.26Z"/><path class="cls-2" d="M188.26,161.69c3.14,1.84,6.14,7.74,8.6,11.77C192.56,171,191.41,165.33,188.26,161.69Z"/></g></g></g></svg>