<svg xmlns="http://www.w3.org/2000/svg" viewBox="0 0 132.63 132.85"><defs><style>.cls-1,.cls-2{fill:#db7166;}.cls-2{font-size:14px;font-family:GimpoBatang-KSCpc-EUC-H, GimpoBatang;}</style></defs><g id="Layer_2" data-name="Layer 2"><g id="popUp_contents"><path class="cls-1" d="M59.22,14.12h.1l-.1,0Z"/><path class="cls-1" d="M109.57,115.52c0-.11-1.15.29-1.19.22s.61-.46.71-.64c.34-.62-2.23.1-2.1-.43.09-.37,2.18-1.68,1.86-1.89l0,0-.31.28a61.35,61.35,0,0,1-6,4.79l-.21.15c-.65.39-1.48.59-2.09,1,.32.4.9.72.8,1.29,1.4-.54,4.32-1.9,4.11-2.15.93-.34.48-.08.43.1a5.63,5.63,0,0,0,1.12-.62c.32.33.45.35.53.78a2.87,2.87,0,0,0,.49-.17l.94-.76a1.19,1.19,0,0,0,.18-.15c.33-.29.67-1,1.27-1.54a6.93,6.93,0,0,1-1.24.22C108.72,116,109.53,115.65,109.57,115.52Zm-4.08,2.36c-2.34.78-.1-.88-1.72-.53,1.82-.92.48.39,2-.21a5,5,0,0,1-.71.6C105.24,117.77,106.5,117.28,105.49,117.88Z"/><path class="cls-1" d="M65.41,1.53c.33-.12,1.22-.29.22-.44C63.89,1,64.15,1.52,65.41,1.53Z"/><path class="cls-1" d="M91.76,126.08l.24-.21h0C91.83,126,91.77,126,91.76,126.08Z"/><path class="cls-1" d="M50.6,2.11l-.26.07h.06A.55.55,0,0,0,50.6,2.11Z"/><path class="cls-1" d="M14,101.17c-.18-.23-.38-.46-.57-.66l-.13-.19c-.88-1.39-1.72-2.81-2.49-4.27l-.18-.34c-1.3-1.24-1.55-3.25-2.25-4.3-.05-.11-.09-.23-.14-.35-.68-1.78-.74-3.71-1.74-5.21,0-.08,0-.15-.08-.22-.39-1.22-.74-2.47-1.06-3.73,0-.07,0-.14,0-.23a1.46,1.46,0,0,1-.07-.19c-.1,0-.25,0-.31.12a2.47,2.47,0,0,1-.12-1.32l.16.24c-.16-.71-.26-1.46-.36-2,0-.08,0-.15,0-.22-.14-.72-.26-1.44-.37-2.17,0-.07,0-.14,0-.22a10.16,10.16,0,0,0-.4-3.28c0-.09,0-.16,0-.24,0-.58-.1-1.17-.14-1.76,0-.07,0-.14,0-.21,0-1.06-.12-1.73-.12-3.27V66.9c0-1,0-2,0-3,0-.08,0-.15,0-.22a1.4,1.4,0,0,1-.09-1.51c0-.1.08-.25.12-.36.11-2.67,1.2-4.84,1.05-7.24,0-.15,0-.27.08-.39s0-.17,0-.23C4.87,52.18,6,50,6.18,48.27l.07-.21.12-.4c0-.07,0-.15.07-.23,2.14-3.86,3-8,5.29-12l.15-.26c.24-.42.49-.83.74-1.25l.13-.2c1.81-2.42,2.83-5.26,5-7l.14-.18q1.88-2.25,3.94-4.33c-.92.25-2.31.83-1.64.08a15.11,15.11,0,0,1-2.61,1.18,30.77,30.77,0,0,1-2.84,1.8c-.62.15,1.21-.75,1-.79a2.61,2.61,0,0,0-.86.28,64.77,64.77,0,0,0-4.33,6,1.37,1.37,0,0,0-.13.2c-1.33.39-.41,2.32-1.7,2.8L8.54,34c-.33.6-.66,1.21-1,1.82l-.2.37a1.34,1.34,0,0,0-.75,1.47c-.05.13-.11.26-.17.39l-.09.19a2.35,2.35,0,0,0-.1.22c-.09,2-2,2.89-1.94,4.55,0,.13-.09.26-.14.39L4,44l-.08.22c-.49,1.34-1.08,2.09-1.07,3.24l-.07.21a67.22,67.22,0,0,0-2.1,9.62c0,.14,0,.27-.05.41C.41,60.2.15,63.63,0,66.45v.21a68.1,68.1,0,0,0,.49,7.9,65.91,65.91,0,0,0,6.15,20.9l.18.38a2.44,2.44,0,0,1,.27.29l0,0,.05,0,.08.09a1.38,1.38,0,0,1,.56.73l.36.53L8,97.57A2.68,2.68,0,0,0,8.6,99a1.8,1.8,0,0,1,.08.21c0,.07.06.13.08.19s.11.25.16.37c.41.16.41.16.51,1a2.83,2.83,0,0,0,.2.28,2.65,2.65,0,0,0,.21.26c0,.06.08.12.13.21.63,1,1.29,2,2,3C12.05,102.53,14.13,103.73,14,101.17ZM4.38,81.88c-.09,1.63-1.47,1-1.88,2.29-.65-1.83.21-2.55,1.54-1.66-.08-.26-.46-.84-.25-.8C4,81.32,5.08,81.5,4.38,81.88Z"/><path class="cls-1" d="M95.25,122.4l-.43.14a62.4,62.4,0,0,1-12.08,4.65l-.25.07c-.67-.05-1.13.4-1.68.68,0,.07-.16.26,0,.23l.17-.06-.17.06a2.64,2.64,0,0,0-1.18.67c0,.13.74-.07,1.36-.23-1,.37-.63.47-.43.6,1.09-.33.67-.34,1-.52,1.42-.32-1.28.63-1.3.77.4-.12,1.3-.28,1.58-.38L82,129s0,0-.09.06c-.27.16-.83.48-1.28.77a5.7,5.7,0,0,1,.39.61c.3-.05.68-.14,1.16-.26-.68.26-.56.35-.93.55a1.42,1.42,0,0,0,.94.34,1.77,1.77,0,0,0,.76-.35l.4-.11c2-.51,3.86-1.12,5.72-1.8a6.05,6.05,0,0,1,1.53-1.7l-.35.13c0-.1-.58.07-.57,0,.79-.24.82-.33,1.43-.54l.12-.11c-.84.07-.52-.35-.68-.56,1.15-.32-.46.31.57,0,1.82-.59.67-.58,1.61-1l.16,0c.54-.58.75-1,.24-1.15l-1.21.41c-.08-.13,1.47-.58,1.39-.7.24-.07.4-.12.51-.14l1.19-.69C94.65,122.78,94.71,122.65,95.25,122.4Zm-11,5.75c1.39-.51.74,0,1.06,0C84,128.51,84.23,128.38,84.25,128.15Zm1.55,1c.33-.33-.56-.09,0-.47C86.41,128.49,87.2,128.71,85.8,129.12Zm1.65-2.48c-1.11.3-.28-.22,1-.57C88.94,126.09,87.52,126.5,87.45,126.64ZM92,124.37c1.47-.43.16.23,1.06,0,0,.1-1.28.47-1,.53-1.43.35.73-.46.52-.52s-2,.65-1.76.35C91.3,124.51,91.89,124.57,92,124.37Z"/><path class="cls-1" d="M79.31,128l-.41.09-.3.05c-.22.49.45.71,1.74,0A1.67,1.67,0,0,1,79.31,128Z"/><path class="cls-1" d="M66.4,2.82c.32-.29.84-.67,0-.83C65.41,2.18,65.06,2.58,66.4,2.82Z"/><path class="cls-1" d="M77.64,128.5c-1.09.22-1.15.13-1.16,0l-1.36.19c0,.24.69.36,1.38.21C76.8,128.81,77.1,128.68,77.64,128.5Z"/><path class="cls-1" d="M78.58,128.86c-2.17.82-1.15.06-3,.72.58,0,.28.4,2.42-.25C77.27,129.36,79,128.89,78.58,128.86Z"/><path class="cls-1" d="M95.41,122.24a1,1,0,0,0,.23.14l2.24-1.3a.72.72,0,0,1-.2-.09C96.93,121.42,96.18,121.84,95.41,122.24Z"/><path class="cls-1" d="M67.74,1.17c2.8,0,.84.54,2.47.93-.73,0-1-.12-.94-.27-.63.08-.3.31-1.07.37.92.13,1.24.31,1.43.51.74-.46,0-.35,1.5-1.12.2.06-.62.5-.26.51-.59.34-.65.29-1.12.55a.2.2,0,0,0,0,.19l.06.07c.15.11.47.09.55.25l-.13,0a2.82,2.82,0,0,0,.54.18c-.11.1-.06.23-.73.24a.41.41,0,0,1,0,.16l.26,0c.91.06,1.81.13,2.71.22l.22,0c2.06.78,4.07.53,6.45,1l.41.09c.89.2,1.78.42,2.66.66.59.07,1.17.14,1.24.29h-.24l1.16.35c.2-.13.35-.25.32-.32.88.3,1,.49.86.7.87.28,1.73.59,2.58.91.07-.16.22-.25.26-.38a2.3,2.3,0,0,1,.2.57,62.7,62.7,0,0,1,10.7,5.39l-.25-.46c1.38.31,1.9-1.29,3-1.89-.18-.12-.36-.25-.55-.36l-.19-.13A10.2,10.2,0,0,1,99.7,9.19h0v0a7.22,7.22,0,0,0-.93-.57.76.76,0,0,0,0,.63,1.66,1.66,0,0,1-.45-.83,3,3,0,0,0-.42-.15L97.49,8l-1.11-.57L96,7.27c-.66-.09-.74-.1-1-.4h0c-.25,0-.79-.35-1.32-.71l-1.25-.55c-.06,0-.09.11-.09.24l-.2-.37-1.38-.56c-.07.22.14.4.36.58l.18-.08c.64.89,1,1.48.77,1.45s-.34-.42-.55-.71l-.09.11a1.73,1.73,0,0,0-1.64,0c-.72-.14-1.56-.5-1.08-.6-.8-.14-2.55-.13-3.41-.25-1.66.07.33.35-1,.44-.92-.28-1.57-1.12-.17-1.37-.31-.23-2.56-.17-2.28-.49-1.57-.09-.55.24-2,.17s2.14-.66-.72-.72c.28-.21.9-.05,1.66,0,1.49-.28.38-1.06,1-1.46L81.36,2c-.55,0-1.38.05-1.22.12A12.56,12.56,0,0,0,77,1.52c.06-.13,1.83,0,1.58-.17L77,1.22a4,4,0,0,1-1.24-.14A2.85,2.85,0,0,1,74.37.71C73.31.58,72.25.47,71.17.4H71A1.37,1.37,0,0,1,70,.3c-.07,0-.11.08-.09.13C69.27.34,69.21.2,69.54.1c-.3-.13-.53-.18-.65.17H68.5c0,.08-.19.13-.69.15,0,.11.57.14.53.26.4,0,.28-.08.36-.13C70.06.78,67.45.91,67.74,1.17ZM95.52,9.11c-.31.05-.39.14-.31.26-1.59-.1-1.12.14-2.44.08A20.69,20.69,0,0,1,95.52,9.11Z"/><path class="cls-1" d="M76.65,130.57l0,0h0Z"/><path class="cls-1" d="M65.37.51l.4-.28-.87,0A2.39,2.39,0,0,0,65.37.51Z"/><path class="cls-1" d="M64.68,3.85A8.43,8.43,0,0,0,66.6,4a4.12,4.12,0,0,0-1.9-.34C65,3.79,64.88,3.83,64.68,3.85Z"/><path class="cls-1" d="M69.29,3.69h0l0,0Z"/><path class="cls-1" d="M25.6,18.68c1.07-.91,2.17-1.79,3.31-2.63l-.08-.12A30.93,30.93,0,0,0,25,18.48.72.72,0,0,1,25.6,18.68Z"/><path class="cls-1" d="M19.16,20.43a3.25,3.25,0,0,1,.7-.48C19.76,19.65,17.39,21.37,19.16,20.43Z"/><path class="cls-1" d="M44.81,7.42,45,7.3c-.28-.07-.44-.15-.3-.27h.77A24.29,24.29,0,0,1,51,5.58l.21,0a63.06,63.06,0,0,1,7.47-1.36C60,4,61.23,3.9,62.48,3.82A1.21,1.21,0,0,0,63,3.61c0-.16-.72-.21-1.35-.28,1,0,.74-.28.61-.5-1.14-.05-.75.13-1.17.18-1.43-.19,1.43-.21,1.49-.36-.41,0-1.31-.18-1.61-.18l-.1,0s0,0,.1,0c.91-.23,4.48-1,.1-1.36,1.11-.05.31-.39,2.35-.3-.61-.28-1.53-.44.22-.44l-.2-.08Q60.89.4,58.29.71T53,1.57s0,0,0,0h-.08c-.42.08-.83.18-1.25.27.33.22.05.48.12.72-1.19-.08.53-.16-.53-.26-1.91,0-.82.38-1.86.48-.49-.07,0-.25.16-.43l-1.24.34c-.13.47,0,.82.44,1l-.31.24,1.46,0c0,.16-1.59.07-1.55.23h-.21l-.66.51a4.85,4.85,0,0,1,.67,0c-.34.08-.71.17-1,.26l-.46.36a1.61,1.61,0,0,0,.59.17c0,.09-.39,0-.8,0l-.42.32a8.26,8.26,0,0,1,1.69-.18c1.38.22-2.14.27-.58.55-1.1-.06-1.49,0-1.17.16a2.05,2.05,0,0,1-.51-.09l-1.15.9A1.39,1.39,0,0,1,44.81,7.42ZM58.44,2.6c-1.48,0-.69-.26-1-.39C58.83,2.31,58.54,2.36,58.44,2.6ZM57.28.94c-.41.24.5.31-.19.51C56.5,1.41,55.82.86,57.28.94ZM54.92,3.06c1.14.09.18.33-1.14.24C53.32,3.09,54.8,3.18,54.92,3.06Zm-5.05.75c-1.53-.09-.07-.31-1-.39,0-.12,1.36,0,1.17-.17,1.47.15-.84.21-.67.36.32.13,2.11.05,1.78.28C50.56,3.91,50,3.63,49.87,3.81ZM47.93,5a12.82,12.82,0,0,1,1.35.27c.69,0,1.31-.21.31-.25,1.57-.12,1.5.49,1.09.58-1.51.11-1.7-.46-2.11-.09C47.19,5.44,48.06,5.15,47.93,5Z"/><path class="cls-1" d="M32.51,13.27a2.74,2.74,0,0,1,1.5-.64l.36-.22.89-.51.25-.14A5.49,5.49,0,0,1,36.86,11l.15-.13a3.19,3.19,0,0,1,.61-.18,4.43,4.43,0,0,0,1.13-.64l.38-.18c.81-.39,1.63-.76,2.45-1.11a1.71,1.71,0,0,1-.44-1c-1.36.63-4.15,2.26-3.84,2.63-.91.39-.5.06-.49-.17a3.84,3.84,0,0,0-1,.75c-.45-.47-.61-.5-.84-1.08a12.37,12.37,0,0,0-2.52,1.45c.72.17-.37,1.37-.2,1.82C32.24,13.28,32.35,13.29,32.51,13.27Z"/><path class="cls-1" d="M67.26,1C67,.87,68.6.49,66.2.52,67.17.75,65.85.91,67.26,1Z"/><path class="cls-1" d="M80.26,1.4s0,0,0,0h0Z"/><path class="cls-1" d="M89.43,4.39c-.14.09.2.25-.32.27a6.46,6.46,0,0,0,1.38.14Z"/><path class="cls-1" d="M123,39.38c.33-.25.16-1.21.89-.83-.21.25-.15,1.31-.68,1.27q.69,1.49,1.32,3a4.33,4.33,0,0,0,1.11-1c.5-.71-1.23-3.71-4.43-7.46a2.11,2.11,0,0,0-1.13-.42C121.12,35.7,122.09,37.52,123,39.38Z"/><path class="cls-1" d="M130.27,52.85c-.06-1.43-.82-3.54-3.44-7.49-.82-.69-1.25-.73-1.56-.55.13.36.27.7.39,1.06l.14.39c1.3,4.62,3.3,9.82,3.06,14.29,0,.14,0,.28,0,.42q.07.81.12,1.62l0,.4a1.4,1.4,0,0,1,.4.86c.07-.06.12,0,.12.21a2.16,2.16,0,0,1-.24.65,3.78,3.78,0,0,0-.18,1.86v.25c0,.26,0,.53,0,.8v.28c.84,1-.42,1.82-.13,3,0,.06,0,.13,0,.3s0,.39-.05.59,0,.28,0,.42c-1.11,1,.47,2.88-.45,3.75,0,.14,0,.28-.07.41.06,2.24-1.12,3.74-1,5,0,.12,0,.23-.08.35l-.09.35c0,.13-.07.27-.11.4a6.92,6.92,0,0,1-.52,2.59.75.75,0,0,0,.36-.23c-.28,1-.59,1.41-.85,1.42a20.1,20.1,0,0,0-1.28,3.25l-.15.38c-.75,1.86-1.58,3.69-2.5,5.47l-.19.35c-.13,1.4-1.39,2.23-2.17,3.82l-.21.34c-.5.79-1,1.56-1.54,2.33-.07.11-.15.22-.22.35.06,1.16-1.36.65-1.41,1.91l-.24.32q-1.57,2.06-3.32,4c-.09.1-.19.2-.28.31-1.26,1.49-2.46,2.32-3.61,3.59,2-.8.77.08,1,.26.45.41,2.1.3,3.2.4.57-.65,1.44-1.05,2.11-1.69a2.35,2.35,0,0,1-1.14-.55c1.14-.59,1.29-.79,2.48-1.33l.24-.29-.51.24.58-.33.23-.27c-.21,0-.66.12.24-.38-3,.63-.07-1.4-3.36-.73,2.4-.6,3.23-.27,3.94.13l0,0c.09-.11.17-.22.26-.32.57-2.12,3.17-3.12,3.56-5l.23-.34.44-.68a1.74,1.74,0,0,1,.11-.18c.27-1.9,2.2-2.82,2.88-5.12.08-.14.14-.27.2-.39.67-1.34,1.3-2.7,1.87-4.09a2.49,2.49,0,0,0,.11-.26c1-.23.1-2.16,1.16-3,0-.13.1-.26.14-.39l.27-.79c0-.13.09-.26.13-.39.07-.29.14-.57.2-.85-.85.45-1.61.46-2.1-1.28.91-.74,1.65,0,2.48-.33.8-3.41,1.53-6.72,2-10.13a.14.14,0,0,1-.16,0c-.35-.31-.32-3.25-.86-2.5.52-2.6.6-.89.91-1a1.42,1.42,0,0,0,.59-.36c.05-.51.1-1,.14-1.53,0-.07,0-.16,0-.23,0-.79,0-1.58,0-2.38h0c0-.15,0-.28,0-.4,0-.94,0-1.87-.08-2.81,0-.14,0-.27,0-.41v0c-.13.14-.32.72-.25-.38-1.2,2.8-1.42-.73-2.78,2.37.95-2.49,1.84-2.89,2.72-3.27.1,0,.13-.36.17-.72-.09-.9-.21-1.89-.31-2.76,0-.12,0-.25,0-.38l-.06-.44a1.54,1.54,0,0,1-.44,0c-1.07.68-1.25.74-.86.25a3.91,3.91,0,0,0-1.08.55c-1,.15-.19-.45.08-.91-.28.52.89.25,2.27-.08-.21-1.51-.47-3-.79-4.49l0-.09A.88.88,0,0,0,130.27,52.85Zm-15.52,54.71c-.59.22-.81.22-.8.08C114.88,107.23,115.14,107.33,114.75,107.56Zm15.51-34.95c0-.38.08-1,.18-1.67l.18.07C130.48,72.1,130.36,72.78,130.26,72.61Z"/><path class="cls-1" d="M72.28,129.52c.88-.28,1-.18,1-.06a4.4,4.4,0,0,0,1.12-.63l-.5.07-1.93.21-.1,0,0,0a62.78,62.78,0,0,1-13.09-.19l-.24,0a9.39,9.39,0,0,1-3.27-.49l-.4-.07c-1.77-.33-3.52-.73-5.23-1.2l-.4-.11a18.47,18.47,0,0,1-5.8-2l-.21-.08a62.81,62.81,0,0,1-12-6.32l-.35-.23c-1.12-1.31-3.22-1.74-3.93-2.92l-.2-.16-.32-.26-.19-.16c-2.33-1.18-3.33-3.78-5.39-5l-.16-.17c-.51-.54-1-1.09-1.52-1.66l-.25-.28c-1.27-.78-2.19-2.7-3-3.73l-.2-.23-.33-.46-.13-.18a7.93,7.93,0,0,0-1.22-2,5.3,5.3,0,0,1-1.25,4.47l.61.83a3.92,3.92,0,0,1,.25.32c0,.68,0,.68.5.64l.26.32c.5.64,1,1.26,1.55,1.88l.27.31c1.15.48,1.31,1.82,2.17,2.37l.16.17.15.15A2.89,2.89,0,0,1,19,113c.22,1.33,1.47.5,1.73,1.68l.31.28,1,1,.18.16a15.05,15.05,0,0,0,5,4l.34.25c1.1.79,2.22,1.55,3.36,2.27l.22.14c1.31.15,1.39.82,2.39,1.42l.22.13,1.07.59.36.19c.28.18,1,.09.72.37l.36.19a66,66,0,0,0,11.79,4.64l.23.07c.81.72,2.06-.11,3.12.8l.4.09c.87.19,1.74.37,2.61.53l.23,0c1.39.46,2.73.29,4.46.64l.41,0c.53.06,1.07.1,1.6.14,0-1-1.89-1.16-1.61-2.41,1.71.57,2.39,1.61,3.32,2.52a65.76,65.76,0,0,0,11.1-.37,1.28,1.28,0,0,0-.75,0c.7-.22,1-.23,1-.1l.13-.07c-.08-.09-.08-.22.11-.44h0c-1.2.14-.79-.39-2.11-.2.08-.13,0-.22,1-.55,0-.22-1.51.37-1.46.15a13.18,13.18,0,0,1,1.81-.32c1.5-.71,0-.38.29-.71-.45-.06-1.17.41-2.06.58.83-.34,0-.34,1.75-.87-.37-.08-.76,0,.08-.41a6.31,6.31,0,0,0-1.32.27c-1.11.5.64.1.41.37C70.8,130.44,71.21,130.19,72.28,129.52Zm-15,1.39c-1.15.61-1.2.28,0-.2Zm2.28-.95c-.84.22-.69,0-.46-.34C59.62,129.49,59.83,129.73,59.53,130Zm4,2c-1.14.21.83-.44-.66-.11a2.29,2.29,0,0,0,.74-.3C65.17,131,63.91,131.7,63.57,131.92Zm.78-2.3c1-.16,1,.06.89.45C64.13,130.45,64.25,129.91,64.35,129.62Zm1,1c-.86.36-.18-.19-.44-.19C65.43,130.28,66.06,130.18,65.33,130.63Zm2-.17c-.29-.1,1.19-.84.35-.66C69.22,129.21,67.88,130.3,67.37,130.46Z"/><path class="cls-1" d="M17.74,22.58c1.42-.72,1.35-.54,1.23-.17,2.63-1.54,1.19.07,4.16-1.71-.16-.3.4-.89,1.18-1.58-.52.14-2.49,1.51-2.52,1.43,1.13-1.05-.8-.63-1.18-.92-1.78,1-1.51,1.05-2.83,1.78-.19.19-.37.39-.55.59C17.37,22.17,18.29,21.8,17.74,22.58Z"/><path class="cls-1" d="M102.94,15.49a64.09,64.09,0,0,1,7.23,6l.16.16a56,56,0,0,1,5.1,5.65,2.09,2.09,0,0,1,.14.17c.32.4.63.82.94,1.23l.43-.35c.75-.66,1.36-1.46.87-3.42.29.22.44.24.54.17-1.17-1.46-2.62-2.73-3.79-4.07l-.29-.3-.87-.89-.29-.29a5.87,5.87,0,0,1-.76-.5c-2-1-4.22-2.42-4.6-1L103.87,14C103.71,14.54,103.17,14.81,102.94,15.49Z"/><path class="cls-1" d="M83.78,101.46l.36-.17c.63.56,1.13-.86,1.81-.91l.36-.19c1.06-.59,2.11-1.22,3.13-1.91l.34-.23c.69.39,1.2-1,1.66-1.19l.33-.26a41.76,41.76,0,0,0,7.13-7.12l-2.74-2.15a37.68,37.68,0,0,1-8,7.64l-.37.25a33.38,33.38,0,0,1-12.33,5.5c-.13,0-.28.06-.45.1a18.26,18.26,0,0,1-2.94.56l-.37.06-.67.08-.41,0a24,24,0,0,1-3.25.21l-.21,0h-.4c-1.55,1.08-2.38-.18-3.2-.09l-.41,0a37.79,37.79,0,0,1-5.57-.9l-.2-.05-.21-.06c-.83,1.95-1.24-1.4-1.58-.44l-.4-.11c-.86-.27-1.72-.57-2.56-.9l-.25-.1c-3.39-1-6.4-3.39-9.16-5.28l0,0c0,.9-.72,1-1.06,1.36l-.18.22c-.47.61-.91,1.16-.91,1.16a41.21,41.21,0,0,0,10.89,6.13l.21.11c3.11,2,7.13,1.52,10.35,2.32l.23,0q.91.07,1.83.12l.41,0a2.92,2.92,0,0,1,2.84,0l.41,0c1,0,2-.12,3-.24l.28-.1s0,0,0,.07l.76-.1.41-.06a1.71,1.71,0,0,1,.51-.15c.23-.25.35-.47-.22-.4.65-.23.63-.3,1.12-.49-1.19.31.59-.79-1.62.06,0-.22.92-.62,0-.47a15.16,15.16,0,0,0,2.43-1.29c-.35.07-1.33.54-2,.68.26-.16.32-.26.21-.31.58-.17,2-.57,1.5-.65,1-.21,1,0,1,.32-2.09.55,0,.33-2.14,1.07.4,0,1.47-.43,2.12-.6a1.83,1.83,0,0,1-.1,1.78,11.15,11.15,0,0,0,3.54-1l.38-.12.38-.13L80,103c.79,0,1.46,0,1.14-.4l.37-.16C82.3,102.12,83,101.8,83.78,101.46Zm-14.27,3.27c.21-.25.21-.26-.28-.23l1.16-.46c-.37.22-.24.21.48-.07C70.94,104.09,70.49,104.34,69.51,104.73Z"/><path class="cls-1" d="M73.31,107.16l.4-.07L74,107l.14-.12c-.22,0-.51.13-.82.23C73.32,107.15,73.32,107.15,73.31,107.16Z"/><path class="cls-1" d="M51.67,30.26l-.39.16q-.75.31-1.5.66l-.38.17c-2.75,1.55-4.6,3.14-7.09,4.3l-.33.26a40.54,40.54,0,0,0-7.28,7.24l2.74,2.14c.31-.4.64-.8,1-1.19l.22-.25c2.3-2.09,4-5,7.16-6.42l.2-.13q.43-.3.87-.57l.36-.22c.43-1,1.26.25,1.43-.84l.36-.21a38,38,0,0,1,7.44-3.09l.39-.11c.69.68,1.2-.74,1.93-.51l.4-.07.59-.13.24,0h0c.38-.36.8-.71,1.18-1.12,0-.06.49,0,.8,0l.83,0c-.57.18-.69.42-.76.67a9.33,9.33,0,0,1,1.08,0l.4,0a37,37,0,0,1,3.8-.18h.29c1.22.06,2.48-.77,3.31.27.21.08.41.17.61.23a1.4,1.4,0,0,0,1.24-.09l.24,0c.74.11,1.48.25,2.22.41l.41.08c.81.23.81.23,1.6.4l.4.13a37.67,37.67,0,0,1,12.8,6.54L92.59,36c-.86-.68-1.74-1.31-2.64-1.91l-.36-.23c-1.5-1.34-3.51-1.09-4.61-2.9a1.38,1.38,0,0,0-.25-.19.57.57,0,0,0-.62.09l-.21-.08q-.77-.35-1.56-.66L82.12,30l-.33,0-.32-.06c-.49,0-1.16.12-1.48-.57l-.32-.15L79,29l-.4-.12a41.32,41.32,0,0,0-15.81-1.35c0,.08-.2.13-.87.11l-.69.09a8,8,0,0,1,1.45.2c.29.21-.66.2-.23.43,1.3.1.72-.14,2,0,.69.47-2.33,0-2.36.22a5.5,5.5,0,0,0-1.3-.18c-.12-.17,1-.4,0-.56a42.37,42.37,0,0,0-7.16,1.79l-.38.14A5.44,5.44,0,0,1,51.67,30.26Zm9.84-.14c-1.54-.11.37-.65,1.9-.36C62.24,29.78,61.48,29.87,61.51,30.12Zm-1.3-1.2c1.18,0,.65-.24.65-.42,1.85.17-.24.43,1.48.64.13.14-1.46,0-2.05,0,.25-.05.93,0,.76-.16-.74.09-1.87-.11-1.78-.32C59.85,28.69,60.11,28.8,60.21,28.92Zm-2.52-.17c1.48,0,.68.28,1,.42C57.93,29.08,57.68,28.93,57.69,28.75Z"/><path class="cls-1" d="M77.45,124.15l.19.07a1.9,1.9,0,0,1,0-.19Z"/><path class="cls-1" d="M77.12,124l.3-.17a4.93,4.93,0,0,0-.53.08Z"/><path class="cls-1" d="M74.81,123c.86-.23.66.08,1.84-.3a8,8,0,0,1-1.56.59l.4.15.21-.13c1-.37.48,0,1.7-.43.11,0-.11.1-.35.18l.09.08c-.53.17-.7.15-1.27.33.17.13,1.29-.23,1.15,0l-.75.22.28.11c.15-.08.22-.14.12-.15.86-.22-.23.28.66.11l.24-.08a2.14,2.14,0,0,0-.77-2.27c-.1-.32-.19-.63-.27-.9l-.27-.91,3-3.76-4.81-.11-2.64-4-1,2.75-.19.52c-.19,1.27-.86,1.35-2.27,1.77l-1,.27-1.83.49,1.7,1.3c.39-.12.69-.19.57,0l-.39.16,0,0a4.19,4.19,0,0,1,.85.55l.27-.08-.24.1a4.64,4.64,0,0,1,1,1.16l0,.3-.2,4.24,1.49-1c-.06-.1,0-.25-.23-.27a2,2,0,0,1,.82-.13l1.88-1.3,1.62.62C74.87,123,74.92,123,74.81,123Zm.62-2.86c-1.36.43-.28,0-.62-.07l1.17-.41C76.41,119.64,75,120.08,75.43,120.1Zm2-2.64c-1.17.33.34-.38-.37-.32C79.22,116.41,77.45,117.26,77.4,117.46Zm-.46-1.37c-.84.45,1.55.22-1,1.51-1.2.46.87-.47-.52,0,.87-.48,1.64-1.48-.83-.72A12.88,12.88,0,0,1,76.94,116.09ZM72,114.67c.69-.2.61,0,1,0C71.63,115.2,71.48,115,72,114.67Zm2.21,3.88c-.28,0,.22-.37-.61-.06C74.14,118.12,76.74,117.67,74.22,118.55Z"/><path class="cls-1" d="M96.13,113.25l-.09-.31-.08-.28,2.45-3-3.92-.1-2.15-3.28-.64,1.85c-.06.16-.11.32-.18.5.66,1.63-1.43,1.21-2.37,1.83l-.23.1-1.66.45,2.08,1.59c.51,0,.23.34.58.39h0l0,0,.29.2c.4.64.4.64.16,1.18l0,.46c0,1.12-.12,2.45-.12,2.45l1.21-.84.4-.28a2.23,2.23,0,0,1,2.9-.85,3,3,0,0,1,1-.06,5.64,5.64,0,0,1-.61.21c.59.26,1.23.63,1.93,1C97.52,115,96.1,114.5,96.13,113.25Zm-5.67-2.79c.62-.15.9-.13,1.06,0a13.25,13.25,0,0,0-1.61.53C90,110.82,90.94,110.47,90.46,110.46Zm.12,1.6c-.4.32-.53-.06-1.36.26.93-.5,2-.69,2.65-1.08C93.75,110.78,89.54,112.15,90.58,112.06Z"/><path class="cls-1" d="M56.67,114.54c-1.34.16-3.27,1.08-4.5-.79l-.12-.18-1.47-2.25-.09.28a5.09,5.09,0,0,1-.31.7c-.54.38-.46,1-.59,1.73a6.22,6.22,0,0,1-.21.72l-.1.27-3.78,1,3.12,2.38-.19,3.92,2.72-1.89.26-.18c1.06-1.15,1.38,1.53,2.84.85l.5.16.57.22s-.2-.65-.42-1.42c0-.15-.1-.3-.14-.46C53.56,117,55.49,116,56.67,114.54Z"/><text class="cls-2" transform="translate(32.97 33.99) rotate(-35.42)">용</text><text class="cls-2" transform="translate(46.43 24.89) rotate(-15.75)">궁</text><text class="cls-2" transform="matrix(1, 0.04, -0.04, 1, 62.18, 20.95)">열</text><text class="cls-2" transform="matrix(0.92, 0.4, -0.4, 0.92, 78.01, 22.07)">차</text><path class="cls-1" d="M18.42,70.61a.8.8,0,0,1-.84-.61l-.18-1c0-.12,0-.23-.08-.25l-.17.06H17a.45.45,0,0,1-.45-.36A.42.42,0,0,1,17,68c1.12-.2,1.62-.3,4.63-.92.14,0,.21-.1.16-.38l-.1-.55c0-.13-.07-.14-.13-.14l-.12,0c-1.61.28-3.16.56-4.56.84h-.1a.46.46,0,0,1-.13-.9l2.77-.49c.8-.15,1-.17,1.47-.29a2.23,2.23,0,0,0,.45-.16l.15.07L21.4,65a1.24,1.24,0,0,1,.37-.14l.35,0h.26q.4,0,.48.54L23,67.09a.63.63,0,0,1-.59.67l-3.77.72.15.89c.05.24.09.32.24.32,1.07-.18,1.47-.27,2.23-.42l.23,0a1.5,1.5,0,0,0,.54-.22,2.08,2.08,0,0,1,.8-.33l.37,0,.58-.08a.54.54,0,0,1,.6.43.53.53,0,0,1-.08.4.41.41,0,0,1-.27.17l-2.93.56-.36.08c-.63.13-1.18.25-2.06.4ZM16,65a2.33,2.33,0,0,1-2.54-2,2.29,2.29,0,0,1,.55-2,3.23,3.23,0,0,1,1.86-1,4,4,0,0,1,.68-.06,2.44,2.44,0,0,1,2.6,2c.32,1.77-1.1,2.67-2.41,2.9A4.74,4.74,0,0,1,16,65ZM16.43,61A2,2,0,0,0,16,61a1.85,1.85,0,0,0-1.11.61,1.52,1.52,0,0,0-.28,1.24,1.46,1.46,0,0,0,1.54,1.22,1.72,1.72,0,0,0,.39,0A1.52,1.52,0,0,0,18,62.28,1.49,1.49,0,0,0,16.43,61Zm5.62,3.44a.45.45,0,0,1-.48-.38l-.15-.81-1.69.34h-.12a.45.45,0,0,1-.45-.4.5.5,0,0,1,.36-.6l1.73-.29L21,61l-1.63.33h-.11a.47.47,0,0,1-.46-.4.49.49,0,0,1,.37-.6L20.85,60l-.1-.54c0-.13-.11-.26-.21-.26h-.7c-.17,0-.35-.11-.37-.41a.43.43,0,0,1,.36-.47l1.22-.09a.82.82,0,0,1,.81.63l.88,4.95c.05.3-.24.52-.55.58Z"/><path class="cls-1" d="M21.09,58.37a.67.67,0,0,1,.64.54l.88,4.94c0,.22-.2.39-.44.43h-.12a.32.32,0,0,1-.36-.27l-.17-.94-1.82.37h-.09a.34.34,0,0,1-.33-.3.37.37,0,0,1,.27-.45l1.85-.32-.28-1.58-1.75.35h-.09a.33.33,0,0,1-.33-.29.37.37,0,0,1,.26-.46l1.78-.3-.11-.67c0-.17-.16-.35-.34-.35h-.71c-.11,0-.22-.07-.24-.29a.31.31,0,0,1,.25-.34l1.21-.09h0m-4.54,1.78A2.31,2.31,0,0,1,19,62.09c.28,1.56-.88,2.5-2.32,2.76a4.34,4.34,0,0,1-.71.06,2.23,2.23,0,0,1-2.42-1.85,2.49,2.49,0,0,1,2.31-2.85,3.77,3.77,0,0,1,.66-.06m-.38,4.06.41,0a1.66,1.66,0,0,0,1.52-1.92,1.61,1.61,0,0,0-1.67-1.4,2.15,2.15,0,0,0-.43,0,1.68,1.68,0,0,0-1.49,2,1.58,1.58,0,0,0,1.66,1.31m5.95.71h.25c.26,0,.34.21.36.43l.17,1.75c0,.3-.23.48-.49.53l-3.9.74.18,1c0,.21.09.43.36.43h.11c1.07-.2,1.45-.28,2.37-.47a1.51,1.51,0,0,0,.59-.24,1.92,1.92,0,0,1,.75-.3l.66-.1.28,0h.05a.39.39,0,0,1,.41.33.33.33,0,0,1-.24.43c-1.14.2-2,.38-2.94.56s-1.37.3-2.41.48l-.26,0A.69.69,0,0,1,17.7,70l-.18-1c0-.12,0-.29-.16-.34l-.24.06H17a.34.34,0,0,1-.33-.26c0-.13.05-.29.29-.33,1.11-.19,1.59-.29,4.64-.92.28-.07.29-.29.25-.52l-.1-.55c0-.18-.12-.24-.25-.24h-.15c-1.61.29-3.16.57-4.56.85h-.07a.35.35,0,0,1-.37-.25.35.35,0,0,1,.27-.41l2.76-.49c.79-.14.95-.17,1.47-.29a2.18,2.18,0,0,0,.53-.19,1.15,1.15,0,0,1,.38-.14,1.48,1.48,0,0,1,.33,0m-1-6.8H21l-1.22.09a.57.57,0,0,0-.48.61.51.51,0,0,0,.49.52h.7s.08.06.1.15l.07.41-1.53.27a.59.59,0,0,0-.48.59,2.71,2.71,0,0,0-2.13-.87h0a4.37,4.37,0,0,0-.72.06,3.41,3.41,0,0,0-1.93,1,2.44,2.44,0,0,0-.57,2.14,2.47,2.47,0,0,0,2.66,2,4.06,4.06,0,0,0,.76-.07,3,3,0,0,0,2.38-1.63.56.56,0,0,0,.47.25l.15,0,1.56-.31.12.69a.58.58,0,0,0,.61.47h.16c.37-.06.72-.34.65-.73L22,58.86a.93.93,0,0,0-.89-.74ZM16.17,64a1.34,1.34,0,0,1-1.42-1.11A1.4,1.4,0,0,1,15,61.71a1.7,1.7,0,0,1,1-.57,2.56,2.56,0,0,1,.39,0,1.37,1.37,0,0,1,1.43,1.19,1.42,1.42,0,0,1-1.32,1.63l-.37,0Zm3.11-2.54h.15l1.49-.3.19,1.07-1.61.28a.36.36,0,0,0-.18.07,2.61,2.61,0,0,0-.05-.48,3.18,3.18,0,0,0-.19-.66.64.64,0,0,0,.2,0Zm2.84,3.25a1.83,1.83,0,0,0-.37,0,1.54,1.54,0,0,0-.4.14l-.05,0-.05,0a2.15,2.15,0,0,1-.42.15c-.51.11-.66.14-1.41.27h-.05l-2.77.5A.58.58,0,0,0,16.75,67h.11c1.41-.29,2.95-.56,4.57-.85h.1s0,0,0,0a.1.1,0,0,0,0,0l.1.56c0,.2,0,.21-.07.22-3,.63-3.5.73-4.62.93a.52.52,0,0,0-.49.61.58.58,0,0,0,.57.47l.15,0,.08,0s0,.05,0,.08L17.46,70a.92.92,0,0,0,1,.72l.31,0c.88-.16,1.42-.28,2.06-.41l.35-.07c1-.21,1.89-.38,2.93-.56a.56.56,0,0,0,.35-.22.67.67,0,0,0,.1-.5.64.64,0,0,0-.66-.54h-.08l-.15,0-.15,0-.28,0-.37,0a2.13,2.13,0,0,0-.85.35,1.49,1.49,0,0,1-.5.2l-.22.05-2.14.41h-.07c-.05,0-.07,0-.11-.22l-.14-.77,3.65-.7a.74.74,0,0,0,.69-.81L23,65.34c-.06-.54-.36-.66-.61-.66Z"/><path class="cls-1" d="M36.67,67.46a.45.45,0,0,1-.49-.38l-1.79-10c0-.13-.11-.26-.21-.26h-.7c-.18,0-.35-.13-.37-.41a.42.42,0,0,1,.36-.47l1.22-.09a.82.82,0,0,1,.81.64L36.31,61a1,1,0,0,0,.4-.17,2.63,2.63,0,0,1,.79-.32l.33,0,.19,0,.21,0,.21,0h0a.57.57,0,0,1,.61.47.49.49,0,0,1-.35.61c-.85.15-1.47.27-2.25.44l.88,4.91c0,.31-.24.53-.54.59Zm-7.6-1.31a.53.53,0,0,1-.52-.44.59.59,0,0,1,.18-.5,10.64,10.64,0,0,0,2.61-4.63c0-.14,0-.18,0-.18l-.77.14-1.14.24L28.26,61h-.12a.47.47,0,0,1-.47-.4.49.49,0,0,1,0-.36A.39.39,0,0,1,28,60l2.68-.48a.94.94,0,0,0,.44-.17,1,1,0,0,1,.49-.2,3.17,3.17,0,0,1,.43-.06h0a.74.74,0,0,1,.61.28.62.62,0,0,1,.16.5A10.2,10.2,0,0,1,32,62.35l2.57,1.83a.58.58,0,0,1,.14.65.72.72,0,0,1-.62.43.48.48,0,0,1-.33-.13c-.32-.29-.64-.55-1-.82s-.78-.65-1.25-1.07A10.27,10.27,0,0,1,29.49,66,.64.64,0,0,1,29.07,66.15Zm.26-7.43a2.85,2.85,0,0,1-1-.18.56.56,0,0,1-.3-.39.49.49,0,0,1,.12-.41.45.45,0,0,1,.33-.16c.6.06.89.08,1.06.08h.11c.1,0,.19,0,1.41-.24l.19,0a.41.41,0,0,1,.45.34.5.5,0,0,1,0,.42.55.55,0,0,1-.35.24l-.47.1a9.51,9.51,0,0,1-1.11.19A3.29,3.29,0,0,1,29.33,58.72Z"/><path class="cls-1" d="M34.73,55.94a.67.67,0,0,1,.64.54l.84,4.7a1.31,1.31,0,0,0,.57-.22,2.44,2.44,0,0,1,.75-.29c.12,0,.28,0,.5-.07s.29,0,.44-.05h.05a.41.41,0,0,1,.42.37c0,.21,0,.43-.24.47-.9.16-1.53.28-2.37.46l.9,5c0,.23-.2.4-.45.44h-.11a.33.33,0,0,1-.37-.27L34.52,57c0-.18-.16-.36-.34-.36h-.71c-.11,0-.22-.08-.24-.29a.31.31,0,0,1,.25-.34l1.22-.09h0m-3.44,1.59a.3.3,0,0,1,.34.27.36.36,0,0,1-.3.48c-.59.11-1,.22-1.56.29-.15,0-.29,0-.44,0a2.43,2.43,0,0,1-.91-.18.4.4,0,0,1-.23-.29.38.38,0,0,1,.33-.43h0c.56.06.85.09,1,.09h.12a12.36,12.36,0,0,0,1.42-.24h.17m.81,1.73a.61.61,0,0,1,.61.63,10.7,10.7,0,0,1-.87,2.5l2.65,1.89c.36.37,0,.85-.4.85a.32.32,0,0,1-.24-.09c-.74-.66-1.4-1.15-2.33-2a10.71,10.71,0,0,1-2.11,2.84.52.52,0,0,1-.34.14.41.41,0,0,1-.4-.33.52.52,0,0,1,.15-.4,10.66,10.66,0,0,0,2.64-4.68c0-.11.06-.33-.11-.33H31.3l-.74.13-2.32.48h-.1a.35.35,0,0,1-.35-.31.35.35,0,0,1,.25-.44l2.68-.48a1.18,1.18,0,0,0,.5-.19.83.83,0,0,1,.43-.18,3.27,3.27,0,0,1,.41-.05h0m2.63-3.57h0l-1.22.09a.57.57,0,0,0-.48.61.51.51,0,0,0,.49.52h.7s.08.06.1.15l1.79,10a.57.57,0,0,0,.61.47h.16c.36-.07.71-.34.64-.73L36.62,62c.75-.15,1.35-.27,2.13-.41a.6.6,0,0,0,.44-.75.68.68,0,0,0-.67-.58h-.08l-.22,0a1.6,1.6,0,0,0-.23,0l-.17,0-.33,0a2.68,2.68,0,0,0-.84.33,1.33,1.33,0,0,1-.24.12l-.79-4.44a.93.93,0,0,0-.89-.74Zm-3.44,1.59a.82.82,0,0,0-.21,0c-1.2.21-1.31.23-1.39.23h-.11c-.16,0-.43,0-1-.09h-.05a.58.58,0,0,0-.43.21.66.66,0,0,0-.15.51.68.68,0,0,0,.39.49,2.81,2.81,0,0,0,1,.19,3.73,3.73,0,0,0,.47,0,9.51,9.51,0,0,0,1.11-.19l.47-.1a.65.65,0,0,0,.44-.3.64.64,0,0,0,.05-.49.55.55,0,0,0-.58-.45ZM32.1,59h-.05a3.82,3.82,0,0,0-.45.05,1.15,1.15,0,0,0-.53.23,1,1,0,0,1-.39.15L28,59.92a.53.53,0,0,0-.39.29.74.74,0,0,0-.07.44.59.59,0,0,0,.6.51l.14,0,1.19-.24,1.14-.23.6-.11a10.4,10.4,0,0,1-2.56,4.55.77.77,0,0,0-.23.63.67.67,0,0,0,.65.53.76.76,0,0,0,.5-.2,10.37,10.37,0,0,0,2-2.63c.41.37.78.67,1.13,1s.63.53,1,.83a.63.63,0,0,0,.41.15.86.86,0,0,0,.74-.5.69.69,0,0,0-.16-.77l-2.52-1.8a9.79,9.79,0,0,0,.8-2.38.72.72,0,0,0-.18-.6A.86.86,0,0,0,32.1,59Z"/><path class="cls-1" d="M51.75,64.77a.46.46,0,0,1-.49-.37l-1.78-10c0-.13-.11-.26-.22-.26h-.69a.39.39,0,0,1-.38-.41.44.44,0,0,1,.37-.47l1.21-.09a.81.81,0,0,1,.81.64l1.85,10.41c.06.3-.24.52-.54.58Zm-6.91-1.85a1.17,1.17,0,0,1-1.19-1l-.77-4.31c0-.13-.15-.32-.26-.34l-.43-.1a.37.37,0,0,1-.32-.41.46.46,0,0,1,.45-.42H43l.78-.14c.43-.07.55-.09,1.32-.25a1.51,1.51,0,0,0,.54-.25,2.12,2.12,0,0,1,.79-.32,7.86,7.86,0,0,1,1-.11h0a.54.54,0,0,1,.6.45.62.62,0,0,1-.08.45.38.38,0,0,1-.26.16c-1.56.28-1.9.35-3.07.59l-.52.11.32,1.8.7-.15.32-.07a2.81,2.81,0,0,0,.78-.31,2.25,2.25,0,0,1,.7-.27,3.24,3.24,0,0,1,.65-.06h.25a.54.54,0,0,1,.51.82A.46.46,0,0,1,48,59c-1.18.21-1.79.34-3.33.67l-.12,0,.32,1.79c0,.19.13.28.3.28l.14,0A10.94,10.94,0,0,0,49,60a.58.58,0,0,1,.4-.17.43.43,0,0,1,.4.25.49.49,0,0,1-.1.52A10.09,10.09,0,0,1,45,62.9Z"/><path class="cls-1" d="M49.82,53.25a.66.66,0,0,1,.63.54L52.31,64.2c0,.22-.2.39-.44.44h-.12a.33.33,0,0,1-.36-.28l-1.79-10c0-.18-.16-.36-.34-.36h-.71c-.1,0-.22-.08-.23-.29a.31.31,0,0,1,.25-.35l1.21-.09h0m-2.38,2.13a.41.41,0,0,1,.44.36c0,.21,0,.42-.24.46-1.82.32-2,.37-3.72.73l.36,2c.45-.08.59-.12,1.15-.24a2.48,2.48,0,0,0,.82-.34,2.6,2.6,0,0,1,.66-.25c.1,0,.46,0,.89-.07h0a.39.39,0,0,1,.41.35.38.38,0,0,1-.27.46c-1.24.22-1.85.36-3.57.73l.34,1.91a.4.4,0,0,0,.42.38.65.65,0,0,0,.17,0,11,11,0,0,0,3.77-1.78.48.48,0,0,1,.32-.14.32.32,0,0,1,.2.57A10,10,0,0,1,45,62.78l-.17,0a1.05,1.05,0,0,1-1.07-.93L43,57.57a.58.58,0,0,0-.37-.44l-.42-.1c-.37-.07-.23-.59.1-.59h0l.69,0c1.25-.23,1-.17,2.12-.39a2.35,2.35,0,0,0,.59-.27,1.81,1.81,0,0,1,.75-.31,7.06,7.06,0,0,1,.93-.1h0M49.82,53h-.06l-1.21.1a.54.54,0,0,0-.48.6.5.5,0,0,0,.48.53h.7s.09.06.1.15l1.79,10a.58.58,0,0,0,.61.48l.16,0a.7.7,0,0,0,.65-.73L50.7,53.75a.94.94,0,0,0-.88-.75Zm-2.38,2.13h0a9.14,9.14,0,0,0-1,.1,2.21,2.21,0,0,0-.84.35,1.46,1.46,0,0,1-.5.23l-1.31.25-.81.14-.63,0a.58.58,0,0,0-.58.54.5.5,0,0,0,.42.55l.42.09a.41.41,0,0,1,.17.25l.77,4.3a1.31,1.31,0,0,0,1.31,1.13l.22,0a10.4,10.4,0,0,0,4.75-2.34.61.61,0,0,0,.12-.66.56.56,0,0,0-.51-.33.74.74,0,0,0-.49.21,10.74,10.74,0,0,1-3.67,1.72l-.1,0c-.09,0-.15,0-.17-.18l-.3-1.67c1.56-.34,2.14-.46,3.32-.67a.58.58,0,0,0,.4-.3.67.67,0,0,0-.58-1l-.3,0a4,4,0,0,0-.69.06,2.33,2.33,0,0,0-.72.28,2.32,2.32,0,0,1-.73.3l-.33.07-.57.13-.28-1.56.41-.08c1.15-.24,1.5-.32,3.06-.59a.53.53,0,0,0,.34-.22.69.69,0,0,0,.1-.54.66.66,0,0,0-.68-.56Z"/><path class="cls-1" d="M60.47,63.29A.51.51,0,0,1,60,62.9a.58.58,0,0,1,.22-.54A10.57,10.57,0,0,0,62.73,59c.11-.23.09-.29.08-.3l-.7-.12a.46.46,0,0,1,.1-.89l1.4,0a.72.72,0,0,1,.54.28.59.59,0,0,1,.11.47,3.1,3.1,0,0,1-.17.47l-.1.23c0,.11-.1.21-.15.32L67.22,61a.57.57,0,0,1,.39.64.62.62,0,0,1-.57.5.58.58,0,0,1-.18,0c-1-.44-1.79-.89-2.6-1.33l-.86-.46a14,14,0,0,1-2.51,2.81A.71.71,0,0,1,60.47,63.29Zm-1.09-4.36a.48.48,0,0,1-.42-.26.52.52,0,0,1,0-.55,6.81,6.81,0,0,0,.75-1.93,12.9,12.9,0,0,1-2.56.66h-.11a.51.51,0,0,1-.5-.44.52.52,0,0,1,.06-.35.45.45,0,0,1,.31-.2,11.65,11.65,0,0,0,3-.79A8.25,8.25,0,0,0,60,54s0-.14-.11-.14l-.49.1-.32.06L58,54.21l-1.14.24h-.12a.47.47,0,0,1-.47-.41.47.47,0,0,1,0-.35.39.39,0,0,1,.3-.23L59,53a.8.8,0,0,0,.43-.17,1.07,1.07,0,0,1,.5-.2,2.21,2.21,0,0,1,.43-.05h0a.78.78,0,0,1,.77.77,12.78,12.78,0,0,1-.07,1.67l1.7-.28-.39-2.18c0-.13-.13-.27-.26-.28l-.41,0a.38.38,0,0,1-.37-.4.41.41,0,0,1,.41-.43l1,0a.78.78,0,0,1,.75.65l.88,5a.38.38,0,0,1-.07.31.73.73,0,0,1-.47.28h-.14a.44.44,0,0,1-.47-.38l-.28-1.53-1.75.37h-.1a.33.33,0,0,1-.17,0,7.79,7.79,0,0,1-1,2.54.66.66,0,0,1-.44.31Zm6.76-.49a.45.45,0,0,1-.48-.38l-1.14-6.38c0-.13-.11-.26-.21-.26h-.7a.38.38,0,0,1-.37-.41.42.42,0,0,1,.36-.47l1.22-.09a.81.81,0,0,1,.8.64l1.21,6.75c0,.31-.24.53-.55.58Z"/><path class="cls-1" d="M64.86,50.57a.67.67,0,0,1,.64.54l1.2,6.75c0,.23-.2.4-.44.44h-.12a.33.33,0,0,1-.36-.27l-1.14-6.38c0-.18-.15-.36-.33-.36H63.6c-.11,0-.22-.08-.24-.29a.32.32,0,0,1,.25-.35l1.21-.09h0m-2.1,1a.64.64,0,0,1,.58.55l.89,5c0,.23-.2.4-.44.44h-.12a.32.32,0,0,1-.35-.27L63,55.58l-1.88.4h-.08a.31.31,0,0,1-.25-.14,8.06,8.06,0,0,1-1,2.7.58.58,0,0,1-.37.25h-.06a.38.38,0,0,1-.29-.61A7.64,7.64,0,0,0,59.91,56a10.68,10.68,0,0,1-2.77.76h-.08a.36.36,0,0,1-.37-.33A.32.32,0,0,1,57,56a10.89,10.89,0,0,0,3.11-.83,7.24,7.24,0,0,0,.06-1.2.25.25,0,0,0-.23-.25h0l-.32.06-.5.1c-.68.13-1.54.32-2.22.46h-.1a.35.35,0,0,1-.35-.31.35.35,0,0,1,.25-.44L59,53.17a1.16,1.16,0,0,0,.5-.2.83.83,0,0,1,.43-.18,3.27,3.27,0,0,1,.41,0h0a.66.66,0,0,1,.62.65,12.7,12.7,0,0,1-.1,1.83l.08,0,1.91-.32-.41-2.3a.47.47,0,0,0-.37-.39l-.41,0c-.35,0-.35-.57,0-.59l1,0h0m-.55,6.32h0l1.4,0a.54.54,0,0,1,.53.6,5.62,5.62,0,0,1-.26.68,4.11,4.11,0,0,1-.21.42l3.5,1.54A.46.46,0,0,1,67,62a.31.31,0,0,1-.13,0c-1.34-.6-2.46-1.26-3.55-1.83A13.57,13.57,0,0,1,60.81,63a.56.56,0,0,1-.34.13.38.38,0,0,1-.39-.29.46.46,0,0,1,.18-.41,10.94,10.94,0,0,0,2.59-3.36c.13-.3.15-.48-.08-.51l-.64-.1c-.31-.07-.23-.63.08-.63m2.65-7.54h0l-1.22.09a.57.57,0,0,0-.48.61.51.51,0,0,0,.49.53h.7s.08.06.1.15l1.14,6.38a.56.56,0,0,0,.6.48h.16c.37-.07.72-.34.65-.73l-1.2-6.75a.94.94,0,0,0-.89-.75Zm-2.1,1h0l-1,0a.54.54,0,0,0-.53.56.51.51,0,0,0,.5.53l.41,0a.24.24,0,0,1,.13.18l.37,2.06-1.41.23q.06-.72.06-1.53a.91.91,0,0,0-.87-.89,3.4,3.4,0,0,0-.49.06,1.06,1.06,0,0,0-.53.22.87.87,0,0,1-.39.15l-2.38.43a.53.53,0,0,0-.39.29.72.72,0,0,0-.07.44.59.59,0,0,0,.6.51l.14,0L58,54.34l1.09-.23.32-.06.18,0,.25,0a5.74,5.74,0,0,1,0,1,11.41,11.41,0,0,1-2.93.76.59.59,0,0,0-.39.26.66.66,0,0,0,.55,1h.13a16.53,16.53,0,0,0,2.36-.57,7.4,7.4,0,0,1-.67,1.66.63.63,0,0,0,0,.67.6.6,0,0,0,.53.32h.11a.77.77,0,0,0,.52-.35,7.82,7.82,0,0,0,1-2.46h.08l.14,0,1.61-.34.25,1.4a.58.58,0,0,0,.2.35l-1.05,0h0a.54.54,0,0,0-.52.52.54.54,0,0,0,.39.61l.6.09s0,.09-.06.16a10.29,10.29,0,0,1-2.52,3.27.71.71,0,0,0-.26.66.63.63,0,0,0,.63.49.76.76,0,0,0,.5-.19,13.68,13.68,0,0,0,2.47-2.73l.76.4c.81.44,1.65.9,2.6,1.33a.69.69,0,0,0,.24.05.74.74,0,0,0,.69-.59.68.68,0,0,0-.46-.78L64,59.47l.1-.2L64.2,59a2.13,2.13,0,0,0,.18-.49.69.69,0,0,0-.13-.58,1.07,1.07,0,0,0-.31-.25.8.8,0,0,0,.45-.3.57.57,0,0,0,.09-.4l-.89-5a.89.89,0,0,0-.83-.75Z"/><path class="cls-1" d="M82.32,59.48a.45.45,0,0,1-.46-.39l-.33-1.37q-.16-.67-.33-1.38c0-.14-.16-.33-.26-.35l-.44-.1a.42.42,0,0,1-.32-.48.44.44,0,0,1,.45-.35,7.83,7.83,0,0,1,1.17,0l1-.18c.67-.12,1.16-.23,1.78-.38l.4-.09a1.77,1.77,0,0,0,.49-.19,1.21,1.21,0,0,1,.43-.17,1,1,0,0,1,.28,0l.32,0a.63.63,0,0,1,.49.58l.39,3a.65.65,0,0,1-.58.71l-3.89.69a.56.56,0,0,1-.46.39Zm.46-1.31L86,57.59a.17.17,0,0,0,.13-.07.45.45,0,0,0,0-.32l-.31-1.76c0-.15-.08-.16-.15-.16h-.11L85,55.4c-.92.16-1.67.29-2.65.5Zm-2.46-3.68a.64.64,0,0,1-.53-.3.51.51,0,0,1,0-.52,6.84,6.84,0,0,0,1-3.7c0-.13,0-.13-.07-.13-.86.15-1.5.28-2.11.41l-1.37.28h-.12a.47.47,0,0,1-.47-.4.52.52,0,0,1,.08-.41.41.41,0,0,1,.28-.18L79.94,49a.94.94,0,0,0,.43-.17,1.7,1.7,0,0,1,.92-.26h0a.78.78,0,0,1,.78.77,9,9,0,0,1-1.21,4.82.66.66,0,0,1-.44.29Zm5.74-.85a.46.46,0,0,1-.49-.38l-.38-2.14-2.5.49h-.11a.48.48,0,0,1-.46-.42.59.59,0,0,1,.08-.42.43.43,0,0,1,.28-.18L85,50.16l-.37-2.07c0-.12-.11-.25-.21-.25h-.7c-.17,0-.35-.1-.37-.4a.43.43,0,0,1,.36-.48L85,46.86a.81.81,0,0,1,.8.64l1,5.54a.38.38,0,0,1-.07.31.68.68,0,0,1-.47.27Z"/><path class="cls-1" d="M85,47a.68.68,0,0,1,.64.53l1,5.54c0,.23-.2.4-.44.44h-.12a.32.32,0,0,1-.36-.27L85.29,51l-2.62.51h-.09a.36.36,0,0,1-.34-.31.38.38,0,0,1,.27-.46l2.65-.46-.39-2.19c0-.18-.15-.36-.33-.36h-.71c-.11,0-.22-.08-.24-.29a.3.3,0,0,1,.25-.34L85,47h0m-3.66,1.74a.64.64,0,0,1,.61.64,8.87,8.87,0,0,1-1.18,4.75.57.57,0,0,1-.36.24h-.08a.45.45,0,0,1-.44-.63,6.89,6.89,0,0,0,1-3.76c0-.09,0-.26-.19-.26h0c-1.43.25-2.32.48-3.45.69h-.1a.35.35,0,0,1-.35-.3.37.37,0,0,1,.26-.45L80,49.15a1,1,0,0,0,.49-.2,1.57,1.57,0,0,1,.85-.22h0m4.84,5.47a1.84,1.84,0,0,1,.31,0c.24,0,.34.28.38.47l.38,3a.52.52,0,0,1-.48.57l-4,.7a.46.46,0,0,1-.38.38h-.1a.31.31,0,0,1-.33-.28c-.22-.94-.45-1.82-.67-2.76a.58.58,0,0,0-.36-.44l-.43-.1a.29.29,0,0,1-.22-.34.31.31,0,0,1,.32-.25h0a7.31,7.31,0,0,1,1.12,0c.36,0,.71-.11,1.08-.18.64-.11,1.14-.23,1.76-.38l.4-.09a1.7,1.7,0,0,0,.53-.21,1.37,1.37,0,0,1,.38-.15l.26,0m-3.49,4.11L86,57.72c.29,0,.3-.31.25-.54L86,55.42c0-.2-.13-.26-.27-.26h-.13l-.57.1c-.93.17-1.72.31-2.77.53l.45,2.51M85,46.74h0l-1.22.09a.56.56,0,0,0-.48.6.5.5,0,0,0,.49.53h.69s.09.06.11.16l.34,1.94-2.41.41a.54.54,0,0,0-.33.2c0-.42.06-.86.06-1.3a.89.89,0,0,0-.86-.89h0a1.69,1.69,0,0,0-1,.27.85.85,0,0,1-.4.16L77,49.43a.51.51,0,0,0-.35.22.69.69,0,0,0-.11.51.6.6,0,0,0,.6.51l.14,0,1.37-.27c.61-.13,1.23-.26,2-.41v0a6.57,6.57,0,0,1-1,3.62.64.64,0,0,0,0,.64.78.78,0,0,0,.64.36h.12a.76.76,0,0,0,.53-.35A7.8,7.8,0,0,0,82,51.35a.6.6,0,0,0,.55.39h.14l2.37-.47.36,2a.57.57,0,0,0,.61.48h.16a.82.82,0,0,0,.55-.33.48.48,0,0,0,.09-.4l-1-5.54a.93.93,0,0,0-.89-.74ZM86.17,54l-.31,0a1.61,1.61,0,0,0-.45.18,1.37,1.37,0,0,1-.46.18l-.41.1c-.62.15-1.11.26-1.74.37l-1,.18c-.09,0-.28,0-1.13,0h0a.56.56,0,0,0-.58.47.55.55,0,0,0,.42.62l.42.09a.34.34,0,0,1,.17.25c.12.48.23.94.34,1.39s.22.91.33,1.38a.57.57,0,0,0,.58.47h.14a.7.7,0,0,0,.53-.41l3.82-.68a.76.76,0,0,0,.68-.85l-.38-3C87,54.25,86.8,54,86.5,54a2.06,2.06,0,0,0-.33,0Zm-3.65,2c.92-.2,1.65-.33,2.49-.48l.6-.1h.09s0,0,0,.06L86,57.22c0,.18,0,.23,0,.23l-.05,0L82.88,58l-.36-2Z"/><path class="cls-1" d="M98.08,56.52a.46.46,0,0,1-.49-.38l-.7-4-4.63.91-.11,0a.49.49,0,0,1-.47-.43.48.48,0,0,1,.07-.33.46.46,0,0,1,.32-.18c1.27-.23,6.6-1.22,8.19-1.53a1.72,1.72,0,0,0,.54-.24,2.09,2.09,0,0,1,.79-.33l.35,0,.16,0a1.66,1.66,0,0,1,.22,0l.21,0h0a.58.58,0,0,1,.62.49.5.5,0,0,1-.34.63c-1,.18-2.85.52-4.76.89l.7,4a.38.38,0,0,1-.07.31.68.68,0,0,1-.47.27Zm-4.75-5.58a.49.49,0,0,1-.51-.38.51.51,0,0,1,.23-.52,8.62,8.62,0,0,0,3.06-3.42c.09-.2.09-.27.07-.29l-.76-.19a.33.33,0,0,1-.28-.37.47.47,0,0,1,.43-.45l1.42,0a.72.72,0,0,1,.52.27.59.59,0,0,1,.11.49,3.1,3.1,0,0,1-.17.47l-.1.22a4.62,4.62,0,0,1-.33.67c1.27.3,2.79.65,3.71.85a.53.53,0,0,1,.45.58.65.65,0,0,1-.58.6l-.12,0L98.81,49c-.82-.23-1.57-.45-2.34-.69a11.57,11.57,0,0,1-2.74,2.51A.7.7,0,0,1,93.33,50.94Z"/><path class="cls-1" d="M95.57,45.45h0l1.39,0a.53.53,0,0,1,.52.6,4.7,4.7,0,0,1-.26.68c-.12.26-.26.53-.41.79l3.87.9c.64.14.3.92-.1.92h-.08c-1.55-.46-2.8-.8-4.1-1.2a11.37,11.37,0,0,1-2.76,2.54.59.59,0,0,1-.34.12.38.38,0,0,1-.38-.28.37.37,0,0,1,.18-.39,8.88,8.88,0,0,0,3.1-3.47c.13-.3.14-.45-.08-.51L95.45,46c-.31,0-.18-.57.12-.57m7,4.63a.43.43,0,0,1,.42.39c0,.22,0,.45-.23.49l-4.89.91.73,4.07c0,.23-.2.4-.44.44h-.12a.33.33,0,0,1-.37-.27L97,52.05c-1.92.36-3.79.73-4.76.93h-.08a.36.36,0,0,1-.34-.32.31.31,0,0,1,.28-.37c1.33-.24,6.65-1.22,8.19-1.52a1.63,1.63,0,0,0,.59-.27,2,2,0,0,1,.75-.31l.5-.06.43,0h.06m-7-4.88a.58.58,0,0,0-.55.56.45.45,0,0,0,.39.51l.64.14a.46.46,0,0,1-.06.16,8.49,8.49,0,0,1-3,3.37.65.65,0,0,0-.29.64.63.63,0,0,0,.63.49.86.86,0,0,0,.48-.16,11.88,11.88,0,0,0,2.71-2.46l2.26.66,1.67.49a.44.44,0,0,0,.16,0,.77.77,0,0,0,.7-.7.64.64,0,0,0-.55-.72c-.8-.18-2.28-.51-3.54-.82.1-.19.19-.36.26-.53l.09-.22a2.37,2.37,0,0,0,.18-.5.66.66,0,0,0-.14-.58.76.76,0,0,0-.61-.32l-1.39,0Zm7,4.63h-.08l-.22,0-.24,0-.15,0-.34.05a2,2,0,0,0-.85.35,1.84,1.84,0,0,1-.5.22c-1.58.31-6.92,1.3-8.19,1.52a.58.58,0,0,0-.39.24.54.54,0,0,0-.09.43.61.61,0,0,0,.59.52l.14,0,4.5-.88.68,3.82a.57.57,0,0,0,.61.48h.16a.86.86,0,0,0,.55-.33.48.48,0,0,0,.09-.4l-.68-3.83c1.87-.36,3.67-.69,4.64-.86a.62.62,0,0,0,.44-.78.69.69,0,0,0-.67-.6Z"/><path class="cls-1" d="M110.61,54.18a.79.79,0,0,1-.84-.62l-.16-.89a1.16,1.16,0,0,0-.06-.22l-.18.07-.12,0a.46.46,0,0,1-.45-.37.41.41,0,0,1,.39-.47c1.13-.2,1.9-.35,4.87-1,.18,0,.21-.1.17-.31l-.08-.44c0-.13-.07-.14-.13-.14l-.12,0c-1.61.28-3.4.6-4.8.89H109a.46.46,0,0,1-.13-.91l3-.53c.79-.14,1-.17,1.47-.29a2,2,0,0,0,.45-.16L114,49l0-.12a1.51,1.51,0,0,1,.36-.13l.35,0h.26c.28,0,.43.27.48.53l.13,1.58a.63.63,0,0,1-.59.66l-4,.77.13.7c0,.24.08.32.24.32,1.15-.19,1.78-.32,2.7-.51a1.5,1.5,0,0,0,.54-.22,2,2,0,0,1,.79-.33l.67-.09.28,0c.41,0,.57.22.6.42a.47.47,0,0,1-.34.58c-1.14.2-2,.37-2.94.56l-.16,0c-.75.16-1.52.32-2.49.49Zm-4-4.54a.48.48,0,0,1-.46-.42.43.43,0,0,1,.38-.52l4.67-.86.92-.16,2.6-.5a1.9,1.9,0,0,0,.55-.25,2,2,0,0,1,.78-.33l.33,0,.19,0,.21,0,.22,0h0a.57.57,0,0,1,.61.49.69.69,0,0,1,0,.38.38.38,0,0,1-.3.25c-2.24.4-8.5,1.59-10.56,2Zm2.62-2.23a.79.79,0,0,1-.84-.63l-.13-.72c0-.13,0-.16-.07-.18l-.17.06h-.12a.44.44,0,0,1-.44-.37.42.42,0,0,1,.39-.48c1.06-.18,1.89-.33,5-1,.14,0,.21-.1.16-.38l-.06-.29c0-.14-.07-.15-.14-.15h-.11c-1.68.3-3.51.62-4.92.92h-.1a.46.46,0,0,1-.49-.36.47.47,0,0,1,.36-.55l3-.54c.93-.17,1-.18,1.53-.3a1.31,1.31,0,0,0,.48-.19l.1,0a1.28,1.28,0,0,1,.33-.11,1.46,1.46,0,0,1,.34,0h.25a.61.61,0,0,1,.5.56l.12,1.5a.65.65,0,0,1-.59.68l-4.14.78.11.62c0,.19.06.21.17.21h.14c.87-.16,1.07-.19,1.77-.34l.54-.11a1,1,0,0,0,.49-.22,2.58,2.58,0,0,1,.84-.34l.33,0,.18,0,.22,0,.21,0h0a.55.55,0,0,1,.6.44.51.51,0,0,1,0,.35.38.38,0,0,1-.3.22c-1.1.2-1.74.33-2.65.51l-1,.22-1.55.29Z"/><path class="cls-1" d="M113.3,42.26h.25c.24,0,.34.28.38.46l.11,1.49a.51.51,0,0,1-.48.54l-4.26.81.13.74c0,.19.07.32.29.32l.16,0c.88-.16,1.07-.19,1.78-.34l.53-.11a1.25,1.25,0,0,0,.59-.26,2,2,0,0,1,.75-.3l.5-.06c.14,0,.29,0,.44-.06h0a.4.4,0,0,1,.42.34.35.35,0,0,1-.25.43c-1.11.2-1.74.32-2.65.51L111,47l-1.55.29-.26,0a.68.68,0,0,1-.72-.52l-.12-.72c0-.12,0-.22-.14-.27l-.25,0h-.1a.32.32,0,0,1-.32-.26c0-.13,0-.29.29-.33,1.11-.2,1.94-.35,5-1,.28-.06.29-.29.25-.52l0-.3c0-.18-.13-.25-.27-.25l-.14,0c-1.63.29-3.48.62-4.91.92h-.08a.36.36,0,0,1-.37-.26.35.35,0,0,1,.27-.41l3-.54c.94-.16,1-.18,1.53-.29a2,2,0,0,0,.53-.21,1.8,1.8,0,0,1,.38-.14,1.42,1.42,0,0,1,.32,0M117,46.61a.43.43,0,0,1,.43.39c0,.21,0,.45-.24.49-2.15.38-8.44,1.57-10.56,2h-.09a.36.36,0,0,1-.34-.31.31.31,0,0,1,.28-.38l4.67-.85.93-.17,2.6-.5a1.87,1.87,0,0,0,.58-.26,1.75,1.75,0,0,1,.75-.31c.12,0,.28,0,.5-.07s.29,0,.44,0H117m-2.43,2.19h.25c.23,0,.33.25.37.43l.12,1.57c.05.3-.22.48-.48.53l-4.14.79.15.83c0,.2.08.42.35.42h.12c1.07-.19,1.69-.31,2.61-.5a1.66,1.66,0,0,0,.59-.25,1.85,1.85,0,0,1,.75-.3l.65-.09.28,0h.06a.39.39,0,0,1,.41.32c0,.2,0,.4-.25.43l-2.93.56c-.8.17-1.62.34-2.65.53l-.26,0a.67.67,0,0,1-.72-.51l-.16-.89c0-.12,0-.31-.13-.31h0l-.25.06h-.1a.33.33,0,0,1-.32-.26c0-.13,0-.28.29-.32,1.11-.2,1.83-.34,4.88-1,.28-.06.3-.23.26-.46l-.07-.43c0-.18-.13-.24-.26-.24h-.14c-1.61.29-3.41.61-4.81.9H109a.35.35,0,0,1-.37-.25.34.34,0,0,1,.27-.4l3-.54c.8-.14.95-.17,1.48-.29a2.24,2.24,0,0,0,.52-.19,1.57,1.57,0,0,1,.38-.14,1.55,1.55,0,0,1,.33,0M113.3,42l-.36,0a1.44,1.44,0,0,0-.37.13l-.07,0a1.55,1.55,0,0,1-.48.19c-.52.12-.6.13-1.52.3l-3,.53a.59.59,0,0,0,.15,1.17h.11c1.43-.3,3.25-.63,4.86-.92h.16s0,0,0,0l0,.3c0,.2,0,.21-.06.23-3.09.64-3.93.78-5,1a.54.54,0,0,0-.48.63.56.56,0,0,0,.56.46H108l.09,0v0l.13.75a.92.92,0,0,0,1,.72l.31,0,1.55-.29,1-.22c.91-.18,1.54-.31,2.64-.5a.54.54,0,0,0,.39-.29.64.64,0,0,0,.06-.43.65.65,0,0,0-.66-.55h-.08l-.22,0-.23,0-.17,0-.33,0a2.74,2.74,0,0,0-.84.33l-.06,0a1,1,0,0,1-.44.2l-.29.05-.25,0c-.71.15-.9.19-1.77.34l-.12,0s0-.08,0-.12l-.09-.49,4-.76a.77.77,0,0,0,.69-.83l-.12-1.47a.73.73,0,0,0-.6-.69ZM117,46.36H117l-.23,0a1.6,1.6,0,0,0-.23,0l-.17,0-.33,0a2.29,2.29,0,0,0-.85.35,1.46,1.46,0,0,1-.5.23l-2.59.5-.92.16-1.22.22-3.45.64a.56.56,0,0,0-.49.66.62.62,0,0,0,.59.52h.14c2.06-.43,8.32-1.62,10.55-2a.52.52,0,0,0,.4-.32.89.89,0,0,0,0-.46.68.68,0,0,0-.67-.59Zm-2.43,2.19a1.9,1.9,0,0,0-.37,0,1.54,1.54,0,0,0-.4.14l0,0a2.12,2.12,0,0,1-.47.17c-.52.12-.67.14-1.46.28l-3,.54a.58.58,0,0,0,.15,1.15h.11c1.41-.29,3.22-.61,4.81-.89h.1s0,0,0,0a.1.1,0,0,0,0,0l.08.44c0,.1,0,.13,0,.14h0l-.09,0c-3,.61-3.74.76-4.86,1a.53.53,0,0,0-.49.61.56.56,0,0,0,.56.47l.16,0h.07s0,0,0,.07l.15.89a.93.93,0,0,0,1,.71l.31,0c1-.17,1.74-.33,2.49-.49l.16,0c1-.2,1.83-.37,2.93-.56a.59.59,0,0,0,.45-.72.64.64,0,0,0-.66-.53h-.08l-.16,0-.14,0-.26,0-.39.06a2.21,2.21,0,0,0-.85.35,1.49,1.49,0,0,1-.5.2c-.92.19-1.54.31-2.61.5h-.07s-.07,0-.11-.22l-.1-.58,3.89-.74a.75.75,0,0,0,.69-.82l-.13-1.55c-.07-.41-.31-.66-.61-.66Z"/><path class="cls-1" d="M22.59,90.07a.85.85,0,0,1-.87-.67l-.22-1.28c0-.13-.15-.32-.26-.34l-.43-.1a.45.45,0,0,1-.32-.47.44.44,0,0,1,.43-.37l1,0a.69.69,0,0,1,.72.53l.24,1.36c.05.28.1.36.25.36.72-.12,1-.19,1.39-.26l1.06-.22a1.19,1.19,0,0,0,.49-.21,2,2,0,0,1,.84-.36l.35,0,.16,0,.22,0,.21,0h0a.56.56,0,0,1,.61.46.48.48,0,0,1-.34.6c-1.16.21-2,.38-2.88.56l-.11,0c-.71.15-1.33.28-2.29.46Zm3.91-3.22a.45.45,0,0,1-.49-.37l-.32-1.77a35.17,35.17,0,0,1-7.32,2.13h-.12a.47.47,0,0,1-.48-.41.53.53,0,0,1,.06-.35.41.41,0,0,1,.3-.21c.56-.1,1.83-.35,2.83-.61l-.18-1h0a2.33,2.33,0,0,1-2.48-1.9,2.48,2.48,0,0,1,2.26-2.82,4.32,4.32,0,0,1,.62,0,2.33,2.33,0,0,1,.77,4.57l.16.93c1.16-.35,2.44-.75,3.46-1.17l-.84-4.7c0-.12-.11-.25-.21-.25h-.7c-.18,0-.35-.13-.37-.41a.44.44,0,0,1,.36-.48L25,77.91a.83.83,0,0,1,.81.64l.7,4a1.16,1.16,0,0,0,.41-.17,2.38,2.38,0,0,1,.79-.31l.41-.05.32,0,.21,0h0a.56.56,0,0,1,.61.48.66.66,0,0,1,0,.37.43.43,0,0,1-.3.24c-.86.15-1.47.27-2.25.43l.5,2.81c.05.31-.24.53-.55.59ZM21,80.41a1.65,1.65,0,0,0-1.63,1.77,1.4,1.4,0,0,0,1.44,1.19l.36,0A1.47,1.47,0,0,0,21,80.41Z"/><path class="cls-1" d="M25,78a.68.68,0,0,1,.64.53l.73,4.1a1.27,1.27,0,0,0,.57-.21,2.36,2.36,0,0,1,.76-.3l.49-.06c.15,0,.3,0,.44,0h.06a.43.43,0,0,1,.42.38c0,.2,0,.43-.24.46-.91.16-1.54.29-2.38.46l.53,2.94c0,.22-.21.39-.45.44H26.5a.34.34,0,0,1-.37-.28l-.34-1.92a33.43,33.43,0,0,1-7.45,2.18h-.09a.34.34,0,0,1-.36-.3.35.35,0,0,1,.26-.42c.64-.11,2-.37,3-.63l-.21-1.22h-.14a2.2,2.2,0,0,1-2.35-1.79,2.33,2.33,0,0,1,2.15-2.67,3.05,3.05,0,0,1,.6-.06A2.21,2.21,0,0,1,21.78,84L22,85.17c1.28-.39,2.63-.8,3.69-1.25l-.85-4.8c0-.17-.16-.36-.34-.36h-.71c-.11,0-.22-.08-.24-.29a.3.3,0,0,1,.25-.34L25,78h0m-4.2,5.45.38,0A1.59,1.59,0,0,0,21,80.29l-.37,0a1.59,1.59,0,0,0-1.38,1.89,1.51,1.51,0,0,0,1.56,1.28M20.92,87h0l1,0c.31,0,.54.15.59.43l.25,1.35c0,.22.09.46.37.46h.1c.8-.14,1.08-.2,1.61-.31l.76-.16a1.25,1.25,0,0,0,.59-.26,1.69,1.69,0,0,1,.75-.31l.5-.07c.14,0,.29,0,.43,0H28a.42.42,0,0,1,.42.36c0,.21,0,.42-.24.46-1.22.21-2.08.39-3,.58l-2.29.46-.25,0a.73.73,0,0,1-.75-.57l-.21-1.27a.58.58,0,0,0-.37-.44l-.42-.1a.33.33,0,0,1-.23-.35.32.32,0,0,1,.31-.24M25,77.79H25l-1.22.09a.56.56,0,0,0-.48.6.51.51,0,0,0,.49.53h.7s.08.06.1.16l.82,4.59c-1,.39-2.14.76-3.22,1.09l-.12-.69a2.45,2.45,0,0,0-.91-4.78,3.47,3.47,0,0,0-.64.06,2.59,2.59,0,0,0-2.36,3,2.42,2.42,0,0,0,2.53,2l.14.78c-1,.25-2.18.48-2.71.58a.53.53,0,0,0-.39.27.58.58,0,0,0-.07.43.59.59,0,0,0,.6.51h.14a35.07,35.07,0,0,0,7.21-2.08l.29,1.62a.58.58,0,0,0,.61.48l.16,0a.68.68,0,0,0,.64-.73l-.48-2.69c.72-.15,1.32-.27,2.13-.41a.5.5,0,0,0,.39-.31.73.73,0,0,0,.05-.44.66.66,0,0,0-.66-.59h-.09l-.21,0-.24,0h-.08l-.42.06a2.94,2.94,0,0,0-.84.32.89.89,0,0,1-.24.13l-.68-3.84a.93.93,0,0,0-.89-.74Zm-4.2,5.45a1.28,1.28,0,0,1-1.32-1.08,1.34,1.34,0,0,1,1.19-1.59l.32,0a1.34,1.34,0,0,1,.15,2.67l-.34,0Zm.08,3.48a.56.56,0,0,0-.55.45.57.57,0,0,0,.42.63l.42.1a.38.38,0,0,1,.17.24l.22,1.28a1,1,0,0,0,1,.77,1.6,1.6,0,0,0,.3,0c1-.18,1.59-.31,2.29-.46l.12,0c.88-.18,1.71-.35,2.87-.56a.59.59,0,0,0,.44-.74.66.66,0,0,0-.66-.57h-.08l-.22,0a2,2,0,0,0-.24,0h-.14l-.35.05a2.28,2.28,0,0,0-.86.35l0,0a.9.9,0,0,1-.44.19l-.77.17-.29.06L23.21,89h-.06s-.08,0-.13-.25l-.24-1.36a.81.81,0,0,0-.83-.63l-1,0Z"/><path class="cls-1" d="M34.27,86.75a.48.48,0,0,1-.46-.42.43.43,0,0,1,.38-.52l3.22-.6-.15-.81c0-.12-.12-.25-.22-.25h-.37a.38.38,0,0,1-.39-.35.47.47,0,0,1,.35-.5l1.09-.18h.13c.4,0,.46.37.49.52L38.58,85l1.91-.36-.13-1.21a.27.27,0,0,0-.23-.23l-.29,0a.42.42,0,0,1-.32-.47.37.37,0,0,1,.15-.27l-1.45.3-1.54.3a1.24,1.24,0,0,1-.27,0,.84.84,0,0,1-.86-.67L35.31,81c0-.22-.07-.25-.08-.26l-.18.06h-.11a.46.46,0,0,1-.45-.39.41.41,0,0,1,.38-.49c1.12-.2,2.26-.4,5.29-1,.14,0,.21-.11.16-.4l-.16-.85c0-.15-.08-.16-.15-.16h-.1c-1.54.27-3.65.65-5.1,1H34.7a.45.45,0,0,1-.48-.36.61.61,0,0,1,.08-.4.46.46,0,0,1,.28-.17l3-.54c.94-.16,1.25-.22,1.77-.34a1.46,1.46,0,0,0,.49-.19,1.42,1.42,0,0,1,.42-.17l.29,0,.32,0c.29,0,.44.31.49.58L41.58,79a.63.63,0,0,1-.58.7l-4.43.85.21,1.19c0,.28.1.36.25.36,1-.17,1.5-.28,2.21-.43l.54-.11a1.07,1.07,0,0,0,.5-.21,2.1,2.1,0,0,1,.83-.36l.41,0,.32,0,.21,0h0a.56.56,0,0,1,.61.47.47.47,0,0,1-.34.59c-.81.15-1.53.28-2.21.42l.94-.07c.46,0,.47.3.48.53l.15,1.61.69-.13a1.51,1.51,0,0,0,.54-.25,2.08,2.08,0,0,1,.8-.33l.32,0,.19,0,.22,0,.21,0h0a.57.57,0,0,1,.61.48.5.5,0,0,1-.34.64c-2.21.39-8.47,1.58-10.56,2Z"/><path class="cls-1" d="M40.55,76.44h.3c.24,0,.35.29.39.48L41.46,79a.53.53,0,0,1-.48.57l-4.56.87.23,1.31c0,.22.1.46.37.46h.11c.88-.15,1.43-.26,2.13-.41l.54-.11a1.3,1.3,0,0,0,.59-.27,1.85,1.85,0,0,1,.75-.3c.12,0,.28,0,.5-.07s.29,0,.43,0h.06a.42.42,0,0,1,.42.36.36.36,0,0,1-.25.45l-2.95.56-1,.22-1.67.33-.25,0a.72.72,0,0,1-.74-.57L35.43,81c0-.12,0-.29-.15-.34l-.25,0h-.09a.34.34,0,0,1-.33-.29c0-.14,0-.3.28-.35,1.11-.19,2.25-.4,5.3-1,.28-.06.29-.3.25-.54l-.15-.85c0-.2-.13-.27-.28-.27l-.13,0c-1.63.29-3.66.65-5.1,1H34.7a.32.32,0,0,1-.36-.25.36.36,0,0,1,.26-.43l3-.53c.93-.17,1.25-.23,1.77-.34a1.78,1.78,0,0,0,.52-.21,1.21,1.21,0,0,1,.38-.15,1.06,1.06,0,0,1,.27,0m.53,6c.29,0,.32.13.34.41l.16,1.76.83-.16a1.65,1.65,0,0,0,.58-.27,1.92,1.92,0,0,1,.75-.3l.5-.07.44,0h0a.43.43,0,0,1,.43.39c0,.21,0,.45-.24.48-2.15.39-8.44,1.58-10.56,2h-.09a.36.36,0,0,1-.34-.32.31.31,0,0,1,.28-.37l3.35-.62-.18-.94c0-.17-.17-.34-.34-.34h-.37c-.37,0-.33-.55,0-.6l1.09-.19h.11c.24,0,.32.16.37.43l.26,1.49,2.15-.41-.15-1.33a.37.37,0,0,0-.33-.33l-.3,0a.28.28,0,0,1,.06-.56h0l1.16-.09h0m-.53-6.21-.31,0a1.3,1.3,0,0,0-.44.17,1.49,1.49,0,0,1-.48.19c-.51.12-.83.17-1.76.34l-3,.53a.58.58,0,0,0-.36.23.65.65,0,0,0-.1.49.56.56,0,0,0,.6.46h.12c1.46-.31,3.57-.68,5.11-1H40a.32.32,0,0,1,0,.06l.15.85c0,.24,0,.24-.06.26-3,.64-4.16.84-5.27,1a.55.55,0,0,0-.5.64.6.6,0,0,0,.58.49l.14,0,.09,0s0,.06,0,.09l.25,1.39a1,1,0,0,0,1,.77l.3,0,1.53-.29.14,0,1-.22h0a.64.64,0,0,0,0,.07.56.56,0,0,0,.39.61l.35,0a.12.12,0,0,1,.1.11l.13,1.1-1.67.31-.23-1.24c0-.15-.11-.63-.61-.63l-.16,0-1.08.18a.58.58,0,0,0-.45.63.49.49,0,0,0,.51.47H37s.08.06.11.15l.13.68-3.11.58a.62.62,0,0,0-.39.23.62.62,0,0,0,.5,1h.14c2.09-.44,8.34-1.63,10.55-2a.62.62,0,0,0,.44-.78.67.67,0,0,0-.67-.59h-.08l-.21,0a1,1,0,0,0-.24,0l-.17,0-.33,0a2.05,2.05,0,0,0-.85.35,1.57,1.57,0,0,1-.5.23l-.55.1-.13-1.48a.61.61,0,0,0-.26-.56l.94-.17a.59.59,0,0,0,.44-.74.66.66,0,0,0-.66-.57h-.08l-.22,0-.24,0h-.08l-.42.06a2.24,2.24,0,0,0-.84.34l0,0a.86.86,0,0,1-.44.2l-.3.06-.24,0L37.09,82H37s-.07,0-.12-.25l-.19-1.07L41,79.83a.78.78,0,0,0,.69-.85l-.23-2.07c-.07-.42-.3-.68-.61-.71Z"/><path class="cls-1" d="M57.8,84.06a.45.45,0,0,1-.48-.37l-1.79-10c0-.12-.11-.25-.21-.25h-.7c-.18,0-.35-.1-.37-.4a.43.43,0,0,1,.36-.48l1.21-.09a.81.81,0,0,1,.81.64L57.51,78a1.09,1.09,0,0,0,.4-.17,2.54,2.54,0,0,1,.79-.31l.33,0,.18,0,.22,0,.21,0h0a.58.58,0,0,1,.61.48.66.66,0,0,1,0,.37.42.42,0,0,1-.31.24c-.85.15-1.47.27-2.25.43l.82,4.56c0,.3-.24.53-.55.58ZM52,82.32a2.23,2.23,0,0,1-2.38-1.82,2.37,2.37,0,0,1,2.21-2.71,3.55,3.55,0,0,1,.64-.06,2.23,2.23,0,0,1,2.37,1.84,2.37,2.37,0,0,1-2.22,2.69A3.34,3.34,0,0,1,52,82.32Zm.33-3.65a2.09,2.09,0,0,0-.34,0,1.26,1.26,0,0,0-1.18,1.56,1.24,1.24,0,0,0,1.3,1.12h0a2.07,2.07,0,0,0,.35,0,1.32,1.32,0,0,0,1.19-1.6A1.25,1.25,0,0,0,52.37,78.67Zm-4.11-.76a.49.49,0,0,1-.47-.42.42.42,0,0,1,.07-.33.46.46,0,0,1,.31-.19c1.34-.24,3.1-.58,4.3-.82a1.71,1.71,0,0,0,.54-.24,1.94,1.94,0,0,1,.79-.33l.34,0,.17,0a1.46,1.46,0,0,1,.22,0,1.52,1.52,0,0,0,.21,0h0a.57.57,0,0,1,.61.49.68.68,0,0,1,0,.38.43.43,0,0,1-.31.26c-2.14.38-4.57.87-6.65,1.3Zm2.28-2.53a3.16,3.16,0,0,1-1-.19.44.44,0,0,1-.29-.32.46.46,0,0,1,.12-.4.46.46,0,0,1,.35-.17l.48,0c.19,0,.39,0,.55,0h.12l.48-.08,1.17-.21h.19a.4.4,0,0,1,.45.32.44.44,0,0,1,0,.39.51.51,0,0,1-.36.23l-.43.1-.74.15-.65.09Z"/><path class="cls-1" d="M55.87,72.54a.68.68,0,0,1,.64.54l.9,5.06a1.47,1.47,0,0,0,.57-.21,2.28,2.28,0,0,1,.75-.3l.5-.06c.14,0,.29,0,.44,0h0a.42.42,0,0,1,.42.38c0,.2,0,.43-.24.46-.9.16-1.53.29-2.37.46l.83,4.68c0,.23-.2.39-.44.44H57.8a.33.33,0,0,1-.36-.27l-1.79-10c0-.18-.16-.36-.34-.36H54.6c-.11,0-.22-.08-.23-.29a.3.3,0,0,1,.25-.34l1.21-.09h0M52.66,74.2c.29,0,.31.16.34.25s0,.39-.31.45-.78.18-1.16.25l-.64.08a2,2,0,0,1-.35,0,3,3,0,0,1-1-.19.32.32,0,0,1-.21-.22.39.39,0,0,1,.35-.43h0l.45,0a4,4,0,0,0,.57.05h.13a4.39,4.39,0,0,0,.54-.08l1.12-.2.17,0m2.15,1.38a.44.44,0,0,1,.43.39c0,.22,0,.46-.24.49-2.15.39-4.53.87-6.66,1.31h-.08a.36.36,0,0,1-.34-.32.31.31,0,0,1,.28-.37c1.33-.24,3.09-.58,4.29-.81a1.65,1.65,0,0,0,.58-.27,2.12,2.12,0,0,1,.76-.31l.49-.06.44,0h.05m-2.3,2.27a2.11,2.11,0,0,1,2.24,1.74,2.26,2.26,0,0,1-2.11,2.55,3,3,0,0,1-.6,0,2.12,2.12,0,0,1-2.26-1.71,2.26,2.26,0,0,1,2.11-2.57,3.34,3.34,0,0,1,.62-.06m-.36,3.66a2.31,2.31,0,0,0,.37,0,1.43,1.43,0,0,0,1.29-1.74,1.37,1.37,0,0,0-1.44-1.19,2.19,2.19,0,0,0-.36,0,1.41,1.41,0,0,0-1.29,1.71,1.36,1.36,0,0,0,1.43,1.22m3.72-9.22h-.06l-1.21.09a.54.54,0,0,0-.48.6.5.5,0,0,0,.48.53h.7s.09.06.11.15l1.78,10a.58.58,0,0,0,.61.48l.16,0c.37-.06.72-.34.65-.72L57.82,79c.74-.15,1.33-.27,2.13-.41a.53.53,0,0,0,.39-.31.73.73,0,0,0,0-.44.67.67,0,0,0-.67-.59h-.08l-.22,0-.23,0-.17,0-.33,0a2.59,2.59,0,0,0-.84.32.89.89,0,0,1-.24.13L56.75,73a.92.92,0,0,0-.88-.75ZM52.66,74l-.2,0-1.14.2a4.7,4.7,0,0,1-.5.08H50.7c-.16,0-.35,0-.54,0l-.46,0h0a.58.58,0,0,0-.48.22.62.62,0,0,0-.15.5.58.58,0,0,0,.38.41,3.14,3.14,0,0,0,1.09.21,2.34,2.34,0,0,0,.38,0c.2,0,.46,0,.66-.09l.73-.15.43-.09a.65.65,0,0,0,.45-.3.58.58,0,0,0,.05-.47.54.54,0,0,0-.58-.43Zm2.15,1.38h-.07l-.22,0-.24,0-.15,0-.35,0a2,2,0,0,0-.85.35,1.51,1.51,0,0,1-.49.22c-1.2.24-3,.58-4.29.82a.56.56,0,0,0-.39.23.54.54,0,0,0-.09.43.61.61,0,0,0,.59.52h.14c2.08-.44,4.5-.93,6.65-1.31a.52.52,0,0,0,.39-.33.75.75,0,0,0,0-.45.68.68,0,0,0-.67-.6Zm-2.3,2.27a3.88,3.88,0,0,0-.67.06,2.51,2.51,0,0,0-2.31,2.86A2.38,2.38,0,0,0,52,82.44a3.63,3.63,0,0,0,.65,0A2.49,2.49,0,0,0,55,79.55a2.35,2.35,0,0,0-2.49-2Zm-.36,3.66a1.1,1.1,0,0,1-1.18-1,1.16,1.16,0,0,1,1.08-1.41l.32,0a1.14,1.14,0,0,1,1.2,1,1.2,1.2,0,0,1-1.09,1.45,1.84,1.84,0,0,1-.33,0Z"/><path class="cls-1" d="M66.61,82.3a.5.5,0,0,1-.45-.3.47.47,0,0,1,.1-.51,7.3,7.3,0,0,0,1.66-3c.07-.29,0-.31,0-.32L67.38,78a.37.37,0,0,1-.2-.44.42.42,0,0,1,.41-.38l1,.15a.79.79,0,0,1,.51.33.49.49,0,0,1,.1.39c-.08.32-.16.62-.26.91l1.25.7a.45.45,0,0,1,.25.48,6.17,6.17,0,0,0,1.07-2.5c0-.24,0-.3-.07-.34l-.5-.18a.36.36,0,0,1-.16-.43.45.45,0,0,1,.42-.33l1,.13a.83.83,0,0,1,.53.34.49.49,0,0,1,.08.38,8.71,8.71,0,0,1-.33,1.24c.45.25.89.47,1.29.67s.73.36,1,.53a.47.47,0,0,1,.23.56.66.66,0,0,1-.58.5.37.37,0,0,1-.23-.07l-2.08-1.32a9.25,9.25,0,0,1-1.55,2.24.54.54,0,0,1-.39.17.55.55,0,0,1-.49-.31.45.45,0,0,1,.09-.49l.24-.28a.38.38,0,0,1-.42,0l-1-.78A8.94,8.94,0,0,1,67,82.13.53.53,0,0,1,66.61,82.3Zm0-5.65a2.42,2.42,0,0,1-2.62-2,2.37,2.37,0,0,1,.55-2,3.26,3.26,0,0,1,1.87-1,3.63,3.63,0,0,1,.65,0,2.49,2.49,0,0,1,2.62,2.09,2.58,2.58,0,0,1-2.38,3A4,4,0,0,1,66.56,76.65Zm.33-4.17a1.69,1.69,0,0,0-.38,0,1.62,1.62,0,0,0-1.4,1.91,1.56,1.56,0,0,0,1.61,1.27h0l.36,0a1.56,1.56,0,0,0,1.38-1.84A1.54,1.54,0,0,0,66.89,72.48Zm5.69,3.8a.45.45,0,0,1-.48-.37l-.2-1.1-1.69.33-.12,0a.45.45,0,0,1-.45-.4.57.57,0,0,1,0-.34.42.42,0,0,1,.33-.26l1.72-.3-.23-1.32-1.62.32h-.12a.45.45,0,0,1-.45-.39.63.63,0,0,1,.08-.43.45.45,0,0,1,.28-.18l1.66-.28-.13-.73c0-.12-.11-.26-.21-.26h-.7c-.18,0-.35-.12-.37-.41a.42.42,0,0,1,.36-.47l1.22-.09a.81.81,0,0,1,.8.64l1,5.42a.43.43,0,0,1-.07.31.79.79,0,0,1-.47.27Z"/><path class="cls-1" d="M71.54,69.75a.67.67,0,0,1,.64.54l1,5.42c0,.23-.21.39-.45.44h-.12a.34.34,0,0,1-.36-.27L72,74.66,70.18,75h-.09a.34.34,0,0,1-.33-.29.38.38,0,0,1,.27-.46L71.88,74l-.28-1.57-1.75.35h-.09a.34.34,0,0,1-.33-.3.37.37,0,0,1,.26-.45l1.79-.31-.16-.85c0-.18-.16-.36-.33-.36h-.71c-.11,0-.22-.08-.24-.29a.32.32,0,0,1,.25-.35l1.21-.09h0M67,71.65a2.35,2.35,0,0,1,2.49,2,2.45,2.45,0,0,1-2.27,2.83,3.88,3.88,0,0,1-.67.06,2.33,2.33,0,0,1-2.5-1.92,2.54,2.54,0,0,1,2.32-2.9,3.44,3.44,0,0,1,.63-.06m-.29,4.18a1.87,1.87,0,0,0,1.86-2,1.66,1.66,0,0,0-1.69-1.45l-.4,0A1.74,1.74,0,0,0,65,74.45a1.67,1.67,0,0,0,1.73,1.38m4.52.69h0l1,.13c.28,0,.55.34.49.57a6.68,6.68,0,0,1-.35,1.33c.91.52,1.78.88,2.4,1.24.42.25,0,.84-.29.84a.3.3,0,0,1-.16,0l-2.2-1.41a9.55,9.55,0,0,1-1.59,2.35.43.43,0,0,1-.3.13.37.37,0,0,1-.31-.6,6.91,6.91,0,0,0,1.74-3.36c0-.15.07-.37-.15-.47L71,77c-.23-.15,0-.52.21-.52m-3.65.82h.06l1,.15c.28,0,.55.33.49.56a9.73,9.73,0,0,1-.28,1c.63.34.9.49,1.34.75s.07.8-.26.8a.37.37,0,0,1-.17,0l-1.16-.88A8.52,8.52,0,0,1,66.9,82a.41.41,0,0,1-.29.13.36.36,0,0,1-.26-.6,7.32,7.32,0,0,0,1.69-3c0-.16.08-.41-.14-.47l-.49-.14c-.18-.06-.16-.58.18-.58m4-7.84h-.06l-1.21.1a.54.54,0,0,0-.48.6.52.52,0,0,0,.49.53H71s.09.06.11.15l.11.61-1.54.26a.56.56,0,0,0-.36.23.67.67,0,0,0-.12.34A2.74,2.74,0,0,0,67,71.4h0a3.79,3.79,0,0,0-.67.06,3.32,3.32,0,0,0-1.94,1,2.5,2.5,0,0,0-.59,2.16,2.6,2.6,0,0,0,2.75,2.12,3.49,3.49,0,0,0,.71-.07A3,3,0,0,0,69.62,75a.58.58,0,0,0,.47.24.39.39,0,0,0,.15,0L71.8,75l.18,1a.56.56,0,0,0,.6.48l.17,0a.85.85,0,0,0,.55-.32.48.48,0,0,0,.09-.4l-1-5.42a.94.94,0,0,0-.89-.75Zm-4.82,6.08a1.44,1.44,0,0,1-1.49-1.18,1.49,1.49,0,0,1,1.31-1.76l.35,0a1.4,1.4,0,0,1,1.44,1.24,1.44,1.44,0,0,1-1.28,1.7,1.84,1.84,0,0,1-.33,0Zm3-2.58.15,0,1.49-.3.19,1.08L70,74a.55.55,0,0,0-.18.06,2.92,2.92,0,0,0,0-.5,2.44,2.44,0,0,0-.19-.63.69.69,0,0,0,.2,0Zm1.48,3.27a.58.58,0,0,0-.54.43.47.47,0,0,0,.19.55l0,0,.51.18a.93.93,0,0,1,0,.14v.08a5.92,5.92,0,0,1-.88,2.17.65.65,0,0,0-.26-.26l-1.16-.65c.08-.24.15-.51.23-.82a.6.6,0,0,0-.11-.49.88.88,0,0,0-.6-.38l-1-.15h-.09a.54.54,0,0,0-.53.49.49.49,0,0,0,.28.58l.49.14s0,0,0,.17a7.14,7.14,0,0,1-1.63,2.93.59.59,0,0,0-.12.65.62.62,0,0,0,.56.37.64.64,0,0,0,.47-.21,9,9,0,0,0,1.59-2.14l.92.69a.88.88,0,0,0,.2.09l0,0a.56.56,0,0,0-.11.63.66.66,0,0,0,.6.39.68.68,0,0,0,.48-.21,9.38,9.38,0,0,0,1.51-2.15l2,1.25a.53.53,0,0,0,.3.09.79.79,0,0,0,.7-.6.6.6,0,0,0-.28-.7c-.3-.18-.66-.35-1-.54s-.77-.38-1.19-.61a7.43,7.43,0,0,0,.3-1.17.59.59,0,0,0-.1-.46,1,1,0,0,0-.6-.4l-1-.12Z"/><path class="cls-1" d="M83.12,79.79a.45.45,0,0,1-.49-.38l-.57-3.22a.4.4,0,0,0-.23-.3l-.31-.07a.37.37,0,0,1-.32-.41.41.41,0,0,1,.41-.43l.79,0a.68.68,0,0,1,.73.53l.16.9L87,75.66l-.09-.49c0-.13-.15-.32-.26-.34l-.45-.08a.37.37,0,0,1-.31-.41.42.42,0,0,1,.42-.39c.3,0,.57,0,.85,0h.12a.78.78,0,0,1,.73.65l.59,3.3a.64.64,0,0,1-.58.71l-4.22.73a.66.66,0,0,1-.5.4Zm.54-1.3,3.47-.63c.11,0,.14-.07.15-.11a.65.65,0,0,0,0-.28l-.16-.92-3.68.68Zm-4.43-3.88a.49.49,0,0,1-.47-.42.42.42,0,0,1,.07-.33.44.44,0,0,1,.31-.19c.77-.13,2.71-.49,4.57-.84l1.21-.21,2.42-.47a1.83,1.83,0,0,0,.54-.25,2,2,0,0,1,.79-.32,2.73,2.73,0,0,1,.38,0l.13,0,.23,0,.2,0h0a.56.56,0,0,1,.61.49.5.5,0,0,1-.33.63c-2.2.39-8.45,1.58-10.56,2Zm1.25-1.94a.44.44,0,0,1-.45-.34.55.55,0,0,1,.23-.54,7.6,7.6,0,0,0,3-2.85.7.7,0,0,0,.1-.3l-.76-.18a.32.32,0,0,1-.27-.37.46.46,0,0,1,.42-.45l1.42,0a.69.69,0,0,1,.53.28.56.56,0,0,1,.12.47,2,2,0,0,1-.28.72c-.1.17-.19.32-.29.47,1.28.25,2.56.48,3.45.61a.53.53,0,0,1,.51.56.6.6,0,0,1-.54.57c-1.63-.35-2.86-.66-4-1a10.28,10.28,0,0,1-2.69,2.14A.88.88,0,0,1,80.48,72.67Z"/><path class="cls-1" d="M82.74,67.77h0l1.39,0a.54.54,0,0,1,.53.6,1.84,1.84,0,0,1-.26.68l-.4.61c1.23.25,2.64.51,3.65.65.65.1.39.88,0,.88H87.6c-1.58-.34-2.81-.65-4-1a10.08,10.08,0,0,1-2.71,2.17.7.7,0,0,1-.39.12.31.31,0,0,1-.33-.24.41.41,0,0,1,.18-.4,7.75,7.75,0,0,0,3-2.91c.13-.3.17-.44-.05-.5l-.7-.15c-.31,0-.18-.57.12-.57m7,3.81a.43.43,0,0,1,.42.39c0,.21,0,.45-.24.49-2.15.38-8.43,1.57-10.56,2h-.08a.37.37,0,0,1-.35-.31.32.32,0,0,1,.28-.38L84,72.91l.92-.17,2.42-.47A2.06,2.06,0,0,0,88,72a1.81,1.81,0,0,1,.75-.31l.5-.07c.14,0,.29,0,.43,0h.06m-3.42,2.49h0l.94.05a.66.66,0,0,1,.62.54l.59,3.3a.53.53,0,0,1-.48.57l-4.3.74a.48.48,0,0,1-.43.38h-.11a.33.33,0,0,1-.37-.27l-.57-3.22a.49.49,0,0,0-.32-.4l-.31-.07c-.31,0-.31-.58.07-.59l.79,0a.54.54,0,0,1,.59.42l.19,1,3.91-.76L87,75.15a.55.55,0,0,0-.36-.44l-.45-.08c-.33-.06-.23-.56.09-.56m-2.71,4.57L87.15,78c.29,0,.3-.31.25-.54l-.18-1-3.93.73.27,1.51m-.82-11.12a.58.58,0,0,0-.55.56.46.46,0,0,0,.4.51l.62.13s0,.09-.07.17a7.52,7.52,0,0,1-3,2.8.64.64,0,0,0-.28.66.55.55,0,0,0,.57.44,1,1,0,0,0,.51-.15,10.56,10.56,0,0,0,2.68-2.11c1.17.3,2.37.6,3.87.93h.12a.7.7,0,0,0,.66-.68.64.64,0,0,0-.61-.69c-.85-.13-2-.34-3.27-.58.07-.1.13-.2.2-.32a2,2,0,0,0,.28-.69v-.06a.67.67,0,0,0-.14-.58.83.83,0,0,0-.62-.32l-1.4,0Zm7,3.81h-.08l-.21,0a1.9,1.9,0,0,0-.25,0H89l-.38,0a2.06,2.06,0,0,0-.84.35,1.46,1.46,0,0,1-.5.23l-2.42.46-.92.17-.28,0-4.57.84a.61.61,0,0,0-.4.24.56.56,0,0,0-.08.42.6.6,0,0,0,.59.52h.14c2.1-.44,8.35-1.63,10.55-2a.62.62,0,0,0,.44-.78.68.68,0,0,0-.67-.59Zm-3.42,2.49a.55.55,0,0,0-.54.51.48.48,0,0,0,.41.54l.45.08a.46.46,0,0,1,.16.24l.06.38-3.42.66-.14-.77a.8.8,0,0,0-.84-.63l-.8,0a.54.54,0,0,0-.54.54.53.53,0,0,0,.46.55l.28.06a.26.26,0,0,1,.12.2l.58,3.23a.57.57,0,0,0,.61.47h.16a.8.8,0,0,0,.57-.41L88,78.77a.76.76,0,0,0,.68-.85l-.58-3.3a.94.94,0,0,0-.86-.75h-.12l-.82,0Zm-2.69,3.51L87,76.69l.14.8a.48.48,0,0,1,0,.22s0,0,0,0l-3.35.61-.18-1Z"/><path class="cls-1" d="M103.4,75.94a.46.46,0,0,1-.49-.37l-1.79-10c0-.13-.1-.26-.21-.26h-.7c-.17,0-.35-.12-.37-.41a.43.43,0,0,1,.36-.47l1.22-.09a.82.82,0,0,1,.81.64l1.85,10.4c.06.31-.24.53-.54.59Zm-7-2.13a.94.94,0,0,1-1-.73l-.81-4.52a.47.47,0,0,0-.27-.34l-.43-.1a.45.45,0,0,1-.32-.46.44.44,0,0,1,.46-.37l1,0a.68.68,0,0,1,.72.53l.79,4.46a.32.32,0,0,0,.33.3l.11,0a10.8,10.8,0,0,0,3.65-1.72.59.59,0,0,1,.4-.18.43.43,0,0,1,.4.26.47.47,0,0,1-.1.52c-.73.85-3,1.86-4.65,2.32A1.09,1.09,0,0,1,96.4,73.81Z"/><path class="cls-1" d="M101.47,64.42a.67.67,0,0,1,.63.54L104,75.37c0,.22-.2.39-.44.43l-.12,0a.35.35,0,0,1-.37-.28l-1.78-10c0-.18-.16-.36-.34-.36h-.71c-.1,0-.22-.08-.23-.29a.31.31,0,0,1,.24-.35l1.22-.09h0m-7.42,3,1,0a.53.53,0,0,1,.59.42l.8,4.46a.43.43,0,0,0,.45.4l.15,0A10.66,10.66,0,0,0,100.69,71a.48.48,0,0,1,.32-.14c.27,0,.44.3.2.57a11.75,11.75,0,0,1-4.59,2.28.75.75,0,0,1-.22,0,.82.82,0,0,1-.86-.62l-.81-4.52a.58.58,0,0,0-.36-.44l-.43-.1a.3.3,0,0,1,.11-.59m7.42-3.24h-.06l-1.21.09a.55.55,0,0,0-.48.61.5.5,0,0,0,.48.53h.7s.09.06.1.15l1.79,10a.58.58,0,0,0,.61.48l.16,0a.68.68,0,0,0,.64-.73l-1.85-10.41a.92.92,0,0,0-.88-.74Zm-7.42,3a.57.57,0,0,0-.58.45.59.59,0,0,0,.43.64l.41.09c.06,0,.16.14.18.24l.8,4.52a1.05,1.05,0,0,0,1.11.83,1.2,1.2,0,0,0,.28,0c1.46-.4,3.89-1.39,4.72-2.36a.61.61,0,0,0,.13-.66.57.57,0,0,0-.52-.32.74.74,0,0,0-.49.21,10.54,10.54,0,0,1-3.59,1.69h-.08c-.12,0-.18,0-.21-.19l-.79-4.46a.8.8,0,0,0-.84-.63l-1,0Z"/><path class="cls-1" d="M118.11,73.32a.46.46,0,0,1-.49-.38l-1.79-10c0-.13-.1-.26-.21-.26h-.7c-.18,0-.35-.13-.37-.41a.43.43,0,0,1,.36-.47l1.22-.09a.82.82,0,0,1,.81.63l.68,3.86A1.16,1.16,0,0,0,118,66a2.49,2.49,0,0,1,.79-.32l.36,0,.15,0,.22,0,.21,0h0a.56.56,0,0,1,.61.47.66.66,0,0,1,0,.37.4.4,0,0,1-.3.24c-.86.15-1.47.27-2.25.44l1,5.63c.06.31-.24.53-.54.59Zm-6.75-2.18a1.23,1.23,0,0,1-1.14-1l-.72-4.05c0-.14-.16-.33-.27-.35l-.43-.09a.38.38,0,0,1-.32-.42.46.46,0,0,1,.45-.42h.69l.81-.14,1.23-.23a1.71,1.71,0,0,0,.54-.25,2.09,2.09,0,0,1,.79-.33,7.29,7.29,0,0,1,1-.1h0a.55.55,0,0,1,.6.47.57.57,0,0,1-.08.47.39.39,0,0,1-.25.17c-1.53.27-1.84.33-2.94.56l-.59.13.72,4.07a.32.32,0,0,0,.33.3l.11,0a9.84,9.84,0,0,0,3.49-1.69.59.59,0,0,1,.41-.18.45.45,0,0,1,.4.25.49.49,0,0,1-.11.52,10.77,10.77,0,0,1-4.51,2.29Z"/><path class="cls-1" d="M116.17,61.8a.67.67,0,0,1,.64.54l.71,4a1.26,1.26,0,0,0,.57-.22,2.41,2.41,0,0,1,.76-.29l.49-.07c.15,0,.3,0,.44,0h0a.43.43,0,0,1,.43.37c0,.21,0,.43-.24.47-.91.16-1.54.28-2.38.46l1,5.75c0,.23-.2.4-.44.44h-.12a.34.34,0,0,1-.37-.27l-1.78-10c0-.18-.16-.36-.34-.36h-.71c-.11,0-.22-.08-.23-.3a.3.3,0,0,1,.24-.34l1.22-.09h0M114,63.9a.42.42,0,0,1,.44.38c0,.21,0,.45-.23.48-1.82.33-1.92.36-3.66.72l.75,4.19a.43.43,0,0,0,.45.4l.15,0a10,10,0,0,0,3.54-1.72.49.49,0,0,1,.32-.15.32.32,0,0,1,.2.57A10.71,10.71,0,0,1,111.5,71h-.14a1.09,1.09,0,0,1-1-.88l-.72-4c0-.17-.19-.42-.37-.45l-.42-.1c-.37-.07-.23-.59.1-.59h0l.69,0c1.25-.22,1-.16,2.06-.38a1.63,1.63,0,0,0,.59-.27A1.85,1.85,0,0,1,113,64a7.37,7.37,0,0,1,.94-.11h0m2.18-2.35h0l-1.21.09a.55.55,0,0,0-.48.61.5.5,0,0,0,.48.53h.7s.09.06.1.15l1.79,10a.57.57,0,0,0,.61.47h.16a.68.68,0,0,0,.64-.73l-1-5.52,2.13-.41a.5.5,0,0,0,.39-.31.72.72,0,0,0,0-.44.66.66,0,0,0-.67-.58h-.07l-.22,0-.24,0h-.14l-.36,0a2.8,2.8,0,0,0-.84.33,1.33,1.33,0,0,1-.24.12l-.66-3.72a.92.92,0,0,0-.89-.74ZM114,63.65h0a7.25,7.25,0,0,0-1,.11,2.19,2.19,0,0,0-.86.35,1.6,1.6,0,0,1-.49.23l-1.23.23-.83.14-.63,0a.6.6,0,0,0-.58.54.5.5,0,0,0,.42.55l.42.09a.4.4,0,0,1,.17.25l.72,4a1.36,1.36,0,0,0,1.27,1.09l.2,0a11,11,0,0,0,4.58-2.32.61.61,0,0,0,.12-.66.56.56,0,0,0-.51-.33.74.74,0,0,0-.49.21,9.48,9.48,0,0,1-3.44,1.67h-.08c-.12,0-.18-.06-.2-.19l-.71-4,.48-.1c1.08-.22,1.41-.29,2.93-.56a.47.47,0,0,0,.33-.22.7.7,0,0,0,.11-.56.68.68,0,0,0-.69-.58Z"/></g></g></svg>