<svg xmlns="http://www.w3.org/2000/svg" xmlns:xlink="http://www.w3.org/1999/xlink" viewBox="0 0 425.65 264.09"><defs><style>.cls-1{fill:none;}.cls-2{isolation:isolate;}.cls-3{opacity:0.7;}.cls-4{fill:#aae0f2;}.cls-5{clip-path:url(#clip-path);}.cls-6{fill:url(#_ÂÁ_Ï_ÌÌ_È_ËÂÌÚ_5);}.cls-7{fill:url(#_ÂÁ_Ï_ÌÌ_È_ËÂÌÚ_5-2);}.cls-8{fill:url(#_ÂÁ_Ï_ÌÌ_È_ËÂÌÚ_5-3);}.cls-9{fill:url(#_ÂÁ_Ï_ÌÌ_È_ËÂÌÚ_5-4);}.cls-10{fill:url(#_ÂÁ_Ï_ÌÌ_È_ËÂÌÚ_5-5);}.cls-11{fill:url(#_ÂÁ_Ï_ÌÌ_È_ËÂÌÚ_5-6);}.cls-12{fill:url(#_ÂÁ_Ï_ÌÌ_È_ËÂÌÚ_5-7);}.cls-13{fill:url(#_ÂÁ_Ï_ÌÌ_È_ËÂÌÚ_5-8);}.cls-14{fill:url(#_ÂÁ_Ï_ÌÌ_È_ËÂÌÚ_5-9);}.cls-15{fill:url(#_ÂÁ_Ï_ÌÌ_È_ËÂÌÚ_5-10);}.cls-16{fill:url(#_ÂÁ_Ï_ÌÌ_È_ËÂÌÚ_5-11);}.cls-17{fill:url(#_ÂÁ_Ï_ÌÌ_È_ËÂÌÚ_5-12);}.cls-18{fill:url(#_ÂÁ_Ï_ÌÌ_È_ËÂÌÚ_5-13);}.cls-19{fill:url(#_ÂÁ_Ï_ÌÌ_È_ËÂÌÚ_5-14);}.cls-20{fill:url(#_ÂÁ_Ï_ÌÌ_È_ËÂÌÚ_5-15);}.cls-21{fill:url(#_ÂÁ_Ï_ÌÌ_È_ËÂÌÚ_52);}.cls-22,.cls-29,.cls-30,.cls-31,.cls-32,.cls-33,.cls-34,.cls-37,.cls-44,.cls-45,.cls-46,.cls-47,.cls-48,.cls-49{mix-blend-mode:screen;}.cls-22{fill:url(#_ÂÁ_Ï_ÌÌ_È_ËÂÌÚ_16);}.cls-23{fill:url(#_ÂÁ_Ï_ÌÌ_È_ËÂÌÚ_52-2);}.cls-24{fill:url(#_ÂÁ_Ï_ÌÌ_È_ËÂÌÚ_5-16);}.cls-25{fill:url(#_ÂÁ_Ï_ÌÌ_È_ËÂÌÚ_5-17);}.cls-26{fill:url(#_ÂÁ_Ï_ÌÌ_È_ËÂÌÚ_5-18);}.cls-27{fill:url(#_ÂÁ_Ï_ÌÌ_È_ËÂÌÚ_5-19);}.cls-28{fill:url(#_ÂÁ_Ï_ÌÌ_È_ËÂÌÚ_5-20);}.cls-29{fill:url(#_ÂÁ_Ï_ÌÌ_È_ËÂÌÚ_13);}.cls-30{fill:url(#_ÂÁ_Ï_ÌÌ_È_ËÂÌÚ_13-2);}.cls-31{fill:url(#_ÂÁ_Ï_ÌÌ_È_ËÂÌÚ_13-3);}.cls-32{fill:url(#_ÂÁ_Ï_ÌÌ_È_ËÂÌÚ_13-4);}.cls-33{fill:url(#_ÂÁ_Ï_ÌÌ_È_ËÂÌÚ_13-5);}.cls-34{fill:url(#_ÂÁ_Ï_ÌÌ_È_ËÂÌÚ_13-6);}.cls-35{fill:#efffe8;}.cls-36{fill:url(#_ÂÁ_Ï_ÌÌ_È_ËÂÌÚ_52-3);}.cls-37{fill:url(#_ÂÁ_Ï_ÌÌ_È_ËÂÌÚ_16-2);}.cls-38{fill:url(#_ÂÁ_Ï_ÌÌ_È_ËÂÌÚ_52-4);}.cls-39{fill:url(#_ÂÁ_Ï_ÌÌ_È_ËÂÌÚ_5-21);}.cls-40{fill:url(#_ÂÁ_Ï_ÌÌ_È_ËÂÌÚ_5-22);}.cls-41{fill:url(#_ÂÁ_Ï_ÌÌ_È_ËÂÌÚ_5-23);}.cls-42{fill:url(#_ÂÁ_Ï_ÌÌ_È_ËÂÌÚ_5-24);}.cls-43{fill:url(#_ÂÁ_Ï_ÌÌ_È_ËÂÌÚ_5-25);}.cls-44{fill:url(#_ÂÁ_Ï_ÌÌ_È_ËÂÌÚ_13-7);}.cls-45{fill:url(#_ÂÁ_Ï_ÌÌ_È_ËÂÌÚ_13-8);}.cls-46{fill:url(#_ÂÁ_Ï_ÌÌ_È_ËÂÌÚ_13-9);}.cls-47{fill:url(#_ÂÁ_Ï_ÌÌ_È_ËÂÌÚ_13-10);}.cls-48{fill:url(#_ÂÁ_Ï_ÌÌ_È_ËÂÌÚ_13-11);}.cls-49{fill:url(#_ÂÁ_Ï_ÌÌ_È_ËÂÌÚ_13-12);}</style><clipPath id="clip-path" transform="translate(10.01 -6.1)"><rect class="cls-1" width="390" height="261.93"/></clipPath><linearGradient id="_ÂÁ_Ï_ÌÌ_È_ËÂÌÚ_5" x1="194.93" y1="173.93" x2="194.93" y2="347.94" gradientUnits="userSpaceOnUse"><stop offset="0" stop-color="#aae0f2"/><stop offset="1" stop-color="#425985"/></linearGradient><linearGradient id="_ÂÁ_Ï_ÌÌ_È_ËÂÌÚ_5-2" x1="203.71" y1="153.61" x2="203.71" y2="336.05" xlink:href="#_ÂÁ_Ï_ÌÌ_È_ËÂÌÚ_5"/><linearGradient id="_ÂÁ_Ï_ÌÌ_È_ËÂÌÚ_5-3" x1="242.74" y1="155.01" x2="242.74" y2="334.18" xlink:href="#_ÂÁ_Ï_ÌÌ_È_ËÂÌÚ_5"/><linearGradient id="_ÂÁ_Ï_ÌÌ_È_ËÂÌÚ_5-4" x1="148.34" y1="154.8" x2="148.34" y2="334.18" xlink:href="#_ÂÁ_Ï_ÌÌ_È_ËÂÌÚ_5"/><linearGradient id="_ÂÁ_Ï_ÌÌ_È_ËÂÌÚ_5-5" x1="159.62" y1="154.97" x2="159.62" y2="333.93" xlink:href="#_ÂÁ_Ï_ÌÌ_È_ËÂÌÚ_5"/><linearGradient id="_ÂÁ_Ï_ÌÌ_È_ËÂÌÚ_5-6" x1="175.77" y1="153.87" x2="175.77" y2="335.66" xlink:href="#_ÂÁ_Ï_ÌÌ_È_ËÂÌÚ_5"/><linearGradient id="_ÂÁ_Ï_ÌÌ_È_ËÂÌÚ_5-7" x1="273.29" y1="154.01" x2="273.29" y2="335.24" xlink:href="#_ÂÁ_Ï_ÌÌ_È_ËÂÌÚ_5"/><linearGradient id="_ÂÁ_Ï_ÌÌ_È_ËÂÌÚ_5-8" x1="383.25" y1="154.63" x2="383.25" y2="333.84" xlink:href="#_ÂÁ_Ï_ÌÌ_È_ËÂÌÚ_5"/><linearGradient id="_ÂÁ_Ï_ÌÌ_È_ËÂÌÚ_5-9" x1="259.96" y1="153.04" x2="259.96" y2="336.3" xlink:href="#_ÂÁ_Ï_ÌÌ_È_ËÂÌÚ_5"/><linearGradient id="_ÂÁ_Ï_ÌÌ_È_ËÂÌÚ_5-10" x1="330.44" y1="155.34" x2="330.44" y2="334.7" xlink:href="#_ÂÁ_Ï_ÌÌ_È_ËÂÌÚ_5"/><linearGradient id="_ÂÁ_Ï_ÌÌ_È_ËÂÌÚ_5-11" x1="187.04" y1="153.69" x2="187.04" y2="335.9" xlink:href="#_ÂÁ_Ï_ÌÌ_È_ËÂÌÚ_5"/><linearGradient id="_ÂÁ_Ï_ÌÌ_È_ËÂÌÚ_5-12" x1="31.89" y1="150.82" x2="31.89" y2="339.09" xlink:href="#_ÂÁ_Ï_ÌÌ_È_ËÂÌÚ_5"/><linearGradient id="_ÂÁ_Ï_ÌÌ_È_ËÂÌÚ_5-13" x1="42.7" y1="152.53" x2="42.7" y2="337.03" xlink:href="#_ÂÁ_Ï_ÌÌ_È_ËÂÌÚ_5"/><linearGradient id="_ÂÁ_Ï_ÌÌ_È_ËÂÌÚ_5-14" x1="25.85" y1="154.35" x2="25.85" y2="335.28" xlink:href="#_ÂÁ_Ï_ÌÌ_È_ËÂÌÚ_5"/><linearGradient id="_ÂÁ_Ï_ÌÌ_È_ËÂÌÚ_5-15" x1="95.68" y1="157.49" x2="96.34" y2="294.75" xlink:href="#_ÂÁ_Ï_ÌÌ_È_ËÂÌÚ_5"/><linearGradient id="_ÂÁ_Ï_ÌÌ_È_ËÂÌÚ_52" x1="-398.46" y1="476.25" x2="-438.68" y2="560.2" gradientTransform="translate(609.66 -207.79) rotate(9.72)" gradientUnits="userSpaceOnUse"><stop offset="0" stop-color="#54719c"/><stop offset="1" stop-color="#132547"/></linearGradient><linearGradient id="_ÂÁ_Ï_ÌÌ_È_ËÂÌÚ_16" x1="-377.09" y1="423.82" x2="-436.78" y2="519.98" gradientTransform="translate(609.66 -207.79) rotate(9.72)" gradientUnits="userSpaceOnUse"><stop offset="0" stop-color="#445b91"/><stop offset="1"/></linearGradient><linearGradient id="_ÂÁ_Ï_ÌÌ_È_ËÂÌÚ_52-2" x1="-379.97" y1="461.24" x2="-454.71" y2="547.5" xlink:href="#_ÂÁ_Ï_ÌÌ_È_ËÂÌÚ_52"/><linearGradient id="_ÂÁ_Ï_ÌÌ_È_ËÂÌÚ_5-16" x1="-380.04" y1="457.11" x2="-425.26" y2="544.26" gradientTransform="translate(609.66 -207.79) rotate(9.72)" xlink:href="#_ÂÁ_Ï_ÌÌ_È_ËÂÌÚ_5"/><linearGradient id="_ÂÁ_Ï_ÌÌ_È_ËÂÌÚ_5-17" x1="-356.42" y1="445.72" x2="-428.69" y2="532.04" gradientTransform="translate(609.66 -207.79) rotate(9.72)" xlink:href="#_ÂÁ_Ï_ÌÌ_È_ËÂÌÚ_5"/><linearGradient id="_ÂÁ_Ï_ÌÌ_È_ËÂÌÚ_5-18" x1="-361.31" y1="441.81" x2="-433.45" y2="527.96" gradientTransform="translate(609.66 -207.79) rotate(9.72)" xlink:href="#_ÂÁ_Ï_ÌÌ_È_ËÂÌÚ_5"/><linearGradient id="_ÂÁ_Ï_ÌÌ_È_ËÂÌÚ_5-19" x1="-346.95" y1="453.65" x2="-419.22" y2="539.97" gradientTransform="translate(609.66 -207.79) rotate(9.72)" xlink:href="#_ÂÁ_Ï_ÌÌ_È_ËÂÌÚ_5"/><linearGradient id="_ÂÁ_Ï_ÌÌ_È_ËÂÌÚ_5-20" x1="-363.81" y1="438.22" x2="-383.22" y2="467.47" gradientTransform="translate(609.66 -207.79) rotate(9.72)" xlink:href="#_ÂÁ_Ï_ÌÌ_È_ËÂÌÚ_5"/><linearGradient id="_ÂÁ_Ï_ÌÌ_È_ËÂÌÚ_13" x1="-371.4" y1="454.77" x2="-389.04" y2="496.74" gradientTransform="translate(609.66 -207.79) rotate(9.72)" gradientUnits="userSpaceOnUse"><stop offset="0" stop-color="#9fafd6"/><stop offset="1"/></linearGradient><linearGradient id="_ÂÁ_Ï_ÌÌ_È_ËÂÌÚ_13-2" x1="-393.55" y1="461.66" x2="-409.14" y2="503.05" xlink:href="#_ÂÁ_Ï_ÌÌ_È_ËÂÌÚ_13"/><linearGradient id="_ÂÁ_Ï_ÌÌ_È_ËÂÌÚ_13-3" x1="-409.91" y1="466.58" x2="-424.06" y2="501.97" xlink:href="#_ÂÁ_Ï_ÌÌ_È_ËÂÌÚ_13"/><linearGradient id="_ÂÁ_Ï_ÌÌ_È_ËÂÌÚ_13-4" x1="-371.14" y1="458.94" x2="-391.69" y2="518.77" xlink:href="#_ÂÁ_Ï_ÌÌ_È_ËÂÌÚ_13"/><linearGradient id="_ÂÁ_Ï_ÌÌ_È_ËÂÌÚ_13-5" x1="-387.41" y1="454.16" x2="-407.66" y2="513.12" xlink:href="#_ÂÁ_Ï_ÌÌ_È_ËÂÌÚ_13"/><linearGradient id="_ÂÁ_Ï_ÌÌ_È_ËÂÌÚ_13-6" x1="-397.35" y1="448.34" x2="-418.6" y2="510.2" xlink:href="#_ÂÁ_Ï_ÌÌ_È_ËÂÌÚ_13"/><linearGradient id="_ÂÁ_Ï_ÌÌ_È_ËÂÌÚ_52-3" x1="1833.8" y1="107.08" x2="1803.63" y2="170.08" gradientTransform="matrix(-0.99, 0.17, 0.17, 0.99, 1851.89, -207.79)" xlink:href="#_ÂÁ_Ï_ÌÌ_È_ËÂÌÚ_52"/><linearGradient id="_ÂÁ_Ï_ÌÌ_È_ËÂÌÚ_16-2" x1="1849.8" y1="67.82" x2="1805.11" y2="139.79" gradientTransform="matrix(-0.99, 0.17, 0.17, 0.99, 1851.89, -207.79)" xlink:href="#_ÂÁ_Ï_ÌÌ_È_ËÂÌÚ_16"/><linearGradient id="_ÂÁ_Ï_ÌÌ_È_ËÂÌÚ_52-4" x1="1847.68" y1="95.83" x2="1791.62" y2="160.54" gradientTransform="matrix(-0.99, 0.17, 0.17, 0.99, 1851.89, -207.79)" xlink:href="#_ÂÁ_Ï_ÌÌ_È_ËÂÌÚ_52"/><linearGradient id="_ÂÁ_Ï_ÌÌ_È_ËÂÌÚ_5-21" x1="1847.63" y1="92.71" x2="1813.7" y2="158.11" gradientTransform="matrix(-0.99, 0.17, 0.17, 0.99, 1851.89, -207.79)" xlink:href="#_ÂÁ_Ï_ÌÌ_È_ËÂÌÚ_5"/><linearGradient id="_ÂÁ_Ï_ÌÌ_È_ËÂÌÚ_5-22" x1="1865.35" y1="84.18" x2="1811.13" y2="148.94" gradientTransform="matrix(-0.99, 0.17, 0.17, 0.99, 1851.89, -207.79)" xlink:href="#_ÂÁ_Ï_ÌÌ_È_ËÂÌÚ_5"/><linearGradient id="_ÂÁ_Ï_ÌÌ_È_ËÂÌÚ_5-23" x1="1861.67" y1="81.24" x2="1807.56" y2="145.88" gradientTransform="matrix(-0.99, 0.17, 0.17, 0.99, 1851.89, -207.79)" xlink:href="#_ÂÁ_Ï_ÌÌ_È_ËÂÌÚ_5"/><linearGradient id="_ÂÁ_Ï_ÌÌ_È_ËÂÌÚ_5-24" x1="1872.45" y1="90.13" x2="1818.23" y2="154.88" gradientTransform="matrix(-0.99, 0.17, 0.17, 0.99, 1851.89, -207.79)" xlink:href="#_ÂÁ_Ï_ÌÌ_È_ËÂÌÚ_5"/><linearGradient id="_ÂÁ_Ï_ÌÌ_È_ËÂÌÚ_5-25" x1="1859.8" y1="78.55" x2="1845.24" y2="100.5" gradientTransform="matrix(-0.99, 0.17, 0.17, 0.99, 1851.89, -207.79)" xlink:href="#_ÂÁ_Ï_ÌÌ_È_ËÂÌÚ_5"/><linearGradient id="_ÂÁ_Ï_ÌÌ_È_ËÂÌÚ_13-7" x1="1854.1" y1="90.93" x2="1840.84" y2="122.47" gradientTransform="matrix(-0.99, 0.17, 0.17, 0.99, 1851.89, -207.79)" xlink:href="#_ÂÁ_Ï_ÌÌ_È_ËÂÌÚ_13"/><linearGradient id="_ÂÁ_Ï_ÌÌ_È_ËÂÌÚ_13-8" x1="1837.34" y1="96.47" x2="1825.91" y2="126.82" gradientTransform="matrix(-0.99, 0.17, 0.17, 0.99, 1851.89, -207.79)" xlink:href="#_ÂÁ_Ï_ÌÌ_È_ËÂÌÚ_13"/><linearGradient id="_ÂÁ_Ï_ÌÌ_È_ËÂÌÚ_13-9" x1="1825.2" y1="99.89" x2="1814.61" y2="126.36" gradientTransform="matrix(-0.99, 0.17, 0.17, 0.99, 1851.89, -207.79)" xlink:href="#_ÂÁ_Ï_ÌÌ_È_ËÂÌÚ_13"/><linearGradient id="_ÂÁ_Ï_ÌÌ_È_ËÂÌÚ_13-10" x1="1854.3" y1="94.1" x2="1838.88" y2="138.98" gradientTransform="matrix(-0.99, 0.17, 0.17, 0.99, 1851.89, -207.79)" xlink:href="#_ÂÁ_Ï_ÌÌ_È_ËÂÌÚ_13"/><linearGradient id="_ÂÁ_Ï_ÌÌ_È_ËÂÌÚ_13-11" x1="1842.1" y1="90.55" x2="1826.92" y2="134.72" gradientTransform="matrix(-0.99, 0.17, 0.17, 0.99, 1851.89, -207.79)" xlink:href="#_ÂÁ_Ï_ÌÌ_È_ËÂÌÚ_13"/><linearGradient id="_ÂÁ_Ï_ÌÌ_È_ËÂÌÚ_13-12" x1="1834.64" y1="86.15" x2="1818.7" y2="132.55" gradientTransform="matrix(-0.99, 0.17, 0.17, 0.99, 1851.89, -207.79)" xlink:href="#_ÂÁ_Ï_ÌÌ_È_ËÂÌÚ_13"/></defs><g class="cls-2"><g id="Layer_2" data-name="Layer 2"><g id="bg1"><g class="cls-3"><path class="cls-4" d="M254.58,66c-1-1-3.49,0-2.63,1.58C253,69.24,256.12,67.77,254.58,66Z" transform="translate(10.01 -6.1)"/><path class="cls-4" d="M369.2,30.71a2.09,2.09,0,0,0-1.09,2.43c-3.76-2.08-9.33.46-8.15,5.23,1.82,7.08,14.11,2.65,9.7-3.83C372.84,34.85,372.15,29.71,369.2,30.71Z" transform="translate(10.01 -6.1)"/><path class="cls-4" d="M44.12,73.17a1.51,1.51,0,0,0,0,3A1.51,1.51,0,0,0,44.12,73.17Z" transform="translate(10.01 -6.1)"/><path class="cls-4" d="M35.57,68.83c-.84-3.17-5.8-1.82-4.89,1.35S36.47,72,35.57,68.83Z" transform="translate(10.01 -6.1)"/><path class="cls-4" d="M322.16,21.29c-4.57.86-5.46,9.49,0,9.26C326.3,30.21,327.17,20.42,322.16,21.29Z" transform="translate(10.01 -6.1)"/><path class="cls-4" d="M337.8,36.82a1.72,1.72,0,0,0-.06,3.32C341,40.9,340.82,36.39,337.8,36.82Z" transform="translate(10.01 -6.1)"/><path class="cls-4" d="M359,6.24c-2.21,1.47,1.47,3.8,2.29,1.62C361.63,6.69,360,5.72,359,6.24Z" transform="translate(10.01 -6.1)"/><g class="cls-5"><path class="cls-6" d="M375.13,191.13c4,.09,7.92.27,11.88.4,2.88-.25,5.65-1.21,8.46.29,1.43.51,3.53.82,4.32,2.92.5,12-1.57,24.29-2,36.35-.22,3.21-1.15,34.4-1.22,34.4-135-6.34-269.95,13.79-404.95-.64A372.31,372.31,0,0,0-9,222.07c.28-4.82-3.16-17.17,1.32-19.1,28.31-14.6,23.45-.11,42.76-.54,36.3-4.44,72.5,1.2,108.49,6.91,7,.19,14.28-1.6,21.14.68,14.32,2.06,29,2.17,43.39,2.84,16.82.39,33.68-.23,50.38-3,15.56-2.19,30.66-8.58,46.18-10.64,12.76-1.54,25.66.45,38.37-1.83C353.76,195.45,364.32,190.48,375.13,191.13Z" transform="translate(10.01 -6.1)"/><path class="cls-7" d="M415.34,245.09c-38.29-6.15-77.32-5.72-115.91-4.69,28.89-3.9,57.69-10.15,86.81-10,8-.21,16,1.67,24,2,7.31-7-20.11-7-22.92-7.33.2-3.8-7.26-4.68-9.66-5.06-2-.13-4.12.24-5,3.17-.26.84,0,1.8.78,1.83-22.19.67-44.15,5.35-66.2,8.3q-43.69,1-87.39,1.3c2.88-3.61-7.78-2.65-8.12,0-102.91,1.23,45.24,3.29,69.76,2-44.64,5.09-89.49,6.09-134.3,4.93,3.15-2.62-3.24-2.21-4.45-2.25-.87.06-1,1.89-.07,2.16-50.35-.79-100.63-4.21-150.88-8,36.92,7,79.71,7.91,118.68,10.29-1.7.45-7.28.09-7.3,2.44,4.1,6.38,12.75,2.35,17.82,1.47,2.3-1.63-1.77-3.24-2.89-3.62q34.82,1.29,69.58,1.25c26.62,3,53.35,1.28,80-1.19,19.33.46,38.94-1.82,58.38-1.43.44,3.54,8.76,1.84,10.71,0q31,.35,61.94,3.17C400.68,245.67,418.09,249.41,415.34,245.09Z" transform="translate(10.01 -6.1)"/><path class="cls-8" d="M244.28,231.87c-.88-.79-4.7-.45-2.73,1.27C242.3,233.33,245.26,233.41,244.28,231.87Z" transform="translate(10.01 -6.1)"/><path class="cls-9" d="M154.41,221.25c-1-.83-15.32-1.07-12.19,1.91,3.82,1.54,8.71,2.93,12.36-.07A1.23,1.23,0,0,0,154.41,221.25Z" transform="translate(10.01 -6.1)"/><path class="cls-10" d="M161.61,225.47A29.55,29.55,0,0,1,158,225c-.68-.23-.94,1.19-.29,1.5C158.62,227.23,163.09,227.74,161.61,225.47Z" transform="translate(10.01 -6.1)"/><path class="cls-11" d="M302.67,217.08c-13.11,1.22-26.15,3.93-39.27,5.15,9-4.74-14.14-3.81-4.78.52a247.1,247.1,0,0,1-105-9.18c-34.56-7.35-69.81-9.09-104.8-7.36-.6,0-.61,1.37,0,1.37,50.31-2.07,100,7.06,149.32,18,25.79,2.92,51.7.82,77.38-2.53C278.46,222.08,307.35,220.73,302.67,217.08Z" transform="translate(10.01 -6.1)"/><path class="cls-12" d="M275.18,214.38a5.64,5.64,0,0,0-3.95,1.34c-.62,1.71,1.45,1,2.16.69C273.94,216.16,276.28,215.22,275.18,214.38Z" transform="translate(10.01 -6.1)"/><path class="cls-13" d="M384.58,209.14c-.81-1.64-3.9-1.46-2.18.74C383.05,210.25,384.87,210.59,384.58,209.14Z" transform="translate(10.01 -6.1)"/><path class="cls-14" d="M314.2,258.22c-8.08-5.82-18.22-4.4-27.19-5.78-9.21-.85-18.43-1.78-27.66-2.13-5.34-1.51-55.72,5.48-53.78,11.8,17.69,2.43,36.19-4.92,54.31-2.59C266.25,258.5,318.13,268.62,314.2,258.22Z" transform="translate(10.01 -6.1)"/><path class="cls-15" d="M332,253.85c-.63-.92-4.41-2-2.95.18C329.78,254.51,332.74,255.87,332,253.85Z" transform="translate(10.01 -6.1)"/><path class="cls-16" d="M189.14,255.35c-1.42.42-4.69-2.14-4.73.8C185,261.48,191.56,257.36,189.14,255.35Z" transform="translate(10.01 -6.1)"/><path class="cls-17" d="M36,240.92c-1.41-1.63-9.73-2.54-8.23,1.34C28.65,243.52,37.92,244,36,240.92Z" transform="translate(10.01 -6.1)"/><path class="cls-18" d="M44.43,248.91c-.68-.69-4.22-1.09-3.53.75S45.41,251.23,44.43,248.91Z" transform="translate(10.01 -6.1)"/><path class="cls-19" d="M28,243.14c-1-1.29-5.87-.87-4.06,1.55C25,245.52,29.1,245.52,28,243.14Z" transform="translate(10.01 -6.1)"/><path class="cls-20" d="M131.21,227.06c11-.72,31.81,9.1,8.9,13.25-5.58,1.36-11.71.33-17.42.86a70.51,70.51,0,0,1-13.37,1.45c-9.71.92-18.43-4.61-27.83-1.57-7.12,2.17-14,2.71-21,.07-2.4-2.07-26.14-6.91-16.58-10.35,11.3-3.52,23.6-5.27,35.48-6.13C96.69,225.12,113.84,227.35,131.21,227.06Z" transform="translate(10.01 -6.1)"/><path class="cls-21" d="M163.23,208.19c-13.8,13.39-31.56,33.53-52.71,24.52-4.29-2-31.19-9.45-26.81-15.31,8.59-13.25,19.67-26.09,34.21-32.82,11.76-2.24,23.83,3.65,35.29,6A28.75,28.75,0,0,1,163.23,208.19Z" transform="translate(10.01 -6.1)"/><path class="cls-22" d="M110.15,192.35c-2,4.1,4.95,5.39,8,5.26a48.9,48.9,0,0,0,24.76-6.78c-2.95-5.39-11.1-5-16.49-6.17C119.33,183.11,113.6,186.06,110.15,192.35Z" transform="translate(10.01 -6.1)"/><path class="cls-23" d="M145.31,195.18a76,76,0,0,0-20.92-6.4c2.78,1.1,19.28,5,15.4,9.15-9.08,3.58-14-.92-19.18-7.58,2.2,5.61,4.88,15.72-3.42,17.31-4.46,1.59-4.15-8-5.46-10.77a36.58,36.58,0,0,1-4,10.79c-6.54,1.47-11.46.34-8.31-7.39-5.57,5.46-11.64,11.11-15.64,17.76,4.6,5.51,11.94,8.75,19,10,2.86-10.93,13.15-12.27,10.41,1.19,4.25-10.87,26.62-17.32,14.25.95,7-12.13,26.41-17.88,15.58-6.25C158.33,210.76,169.88,207.63,145.31,195.18Z" transform="translate(10.01 -6.1)"/><path class="cls-24" d="M164.91,208.68a3.69,3.69,0,0,1-2.36,1.3s0,0,0,0c-1.54.16-3-.77-4.6-1.18-5.06.5-9.15,5.19-14,6.91-5.48,2.54-11.58-4.52-16.57-.52-11.07,8.37-9.89-1.94-18.84.84-2.09,1.08-8.24,1.9-3.69-2-1.13-.58-2.71-1-1.5-2.54,1.79-2.78,4-6.79,7.5-6.79a24.73,24.73,0,0,1,6.32,1.4c.79-.22,1.35-1,2-1.47,11.15-10.91,7.08-7.52,20.82-5.08,4.76-1.7,6.75-8.19,11.79-9.94,4.51-.85,11.05,4.47,12.62,8.42a5.85,5.85,0,0,1-1.38,4.71C163.84,204.41,166.62,206.64,164.91,208.68Z" transform="translate(10.01 -6.1)"/><path class="cls-25" d="M139.46,215.86l.53.32c-3.13-.62-6.17-2-9.34-2.35-4.45.44-7.67,6.4-12.51,4.36C128.44,218.48,123.85,207.2,139.46,215.86Z" transform="translate(10.01 -6.1)"/><path class="cls-26" d="M150.13,200.48c-9.62,9-5.24,11.48-19.34,7.23-4.95-1.47-7.3.95-10.77,3.74-4.93,1.21-10.61-2.23-14.12,3.69,7.28-.07,5.19-2.63,11.71,2.84-3-1.61-5.66-3.61-9-1.95-2.16,1.1-8.21,1.87-3.69-2-2.43-.93-2.27-1.6-.84-3.58,0,2.07,1.56,2.26,2.6.56a4.73,4.73,0,0,1,3.85-1.4c2.46-.08,4.77,2.32,7.17,1.58,11.24-11.68,10.41-3,21.64-2.43,8-3.31,9.26-19.11,21.19-6.73C157.24,201.54,153.08,198.06,150.13,200.48Z" transform="translate(10.01 -6.1)"/><path class="cls-27" d="M162.54,210c-1.54.16-3-.77-4.6-1.18-5.06.5-9.15,5.19-14,6.91C150.5,210.85,153.88,205.18,162.54,210Z" transform="translate(10.01 -6.1)"/><path class="cls-28" d="M112.68,210.88c-2.42-.44-4.31,1.56-6.34,2.55,4.17-4.27,6.11-4.24,11.34-1.61A42.34,42.34,0,0,0,112.68,210.88Zm42-10.82c2.62.55,5.42,2.18,7.48,2.68-11.11-6.41-11.78-4.88-19,4.82-1.32,1.44-2.86,2.45-4.86,1.86-6.15-3.57-12-4.64-17.08,1.44,9.06-8.55,15.62,1.81,21.09-1.77,2.77-2.42,4.95-5.54,7.66-8.06A5,5,0,0,1,154.73,200.06Z" transform="translate(10.01 -6.1)"/><path class="cls-29" d="M153.09,189.88a5.84,5.84,0,0,0-5.5,4.44c-.18,1.07,1.5.77,2.08.64,4-.72,7.76,2.46,11.72,3.12C167.9,198,155.28,189.24,153.09,189.88Z" transform="translate(10.01 -6.1)"/><path class="cls-30" d="M127.26,200.83c1.31,1.75,13.86,3.09,9.76-.91C134.78,198.58,125.14,195.21,127.26,200.83Z" transform="translate(10.01 -6.1)"/><path class="cls-31" d="M108,207c-.06,1.67,7,3,7.64,1C116.28,204.52,108.83,204.14,108,207Z" transform="translate(10.01 -6.1)"/><path class="cls-32" d="M148.87,206.4a17.13,17.13,0,0,1,8.87-1.56c7.57-.92-3.3-4.94-5.76-4C150.31,200.86,145.62,205.82,148.87,206.4Z" transform="translate(10.01 -6.1)"/><path class="cls-33" d="M127.48,209.6c2.52,1.36,6.08,2,8.73,1C135.63,208.64,126.25,206.36,127.48,209.6Z" transform="translate(10.01 -6.1)"/><path class="cls-34" d="M115.39,212.5c.88-1.18,3,.31,3.23,1.46C118,215.1,115,213.8,115.39,212.5Z" transform="translate(10.01 -6.1)"/><path class="cls-35" d="M154.41,190.47c-.58-.43-2.18-.51-1.89.57C153,192.55,156.17,191.75,154.41,190.47Z" transform="translate(10.01 -6.1)"/><path class="cls-35" d="M155.19,201.47c-.12-.49-1.4-.84-1.22-.11C154.14,201.75,155.19,202.06,155.19,201.47Z" transform="translate(10.01 -6.1)"/><path class="cls-35" d="M131.47,198.58c-.23-.3-1-.51-1.12,0S131.74,199.22,131.47,198.58Z" transform="translate(10.01 -6.1)"/><path class="cls-35" d="M130.51,208.17c-.29-.32-1,.08-.54.4C130.2,208.68,130.74,208.47,130.51,208.17Z" transform="translate(10.01 -6.1)"/><path class="cls-35" d="M111.07,205.13a.32.32,0,0,0-.18-.1s-.24-.06-.33,0h0C109.57,205.53,111.54,206.15,111.07,205.13Z" transform="translate(10.01 -6.1)"/><path class="cls-35" d="M125.34,185.55c-.37-1.22-4.25-1.16-3.11,0C122.93,185.37,125.44,186.47,125.34,185.55Z" transform="translate(10.01 -6.1)"/><path class="cls-36" d="M42.52,217.9c10.35,10,23.67,25.16,39.54,18.39,3.4-1.59,23.15-6.87,20.11-11.49-6.44-9.93-14.76-19.57-25.67-24.61-8.82-1.68-17.87,2.73-26.47,4.5A21.5,21.5,0,0,0,42.52,217.9Z" transform="translate(10.01 -6.1)"/><path class="cls-37" d="M82.34,206c1.42,8.16-21.19,1.9-24.59-1.13,2.22-4,8.33-3.73,12.38-4.63C75.31,199.05,79.87,201.38,82.34,206Z" transform="translate(10.01 -6.1)"/><path class="cls-38" d="M56,208.14a56.77,56.77,0,0,1,15.7-4.8c-2.21.91-14.32,3.61-11.56,6.86,6.51,2.74,10.72-.81,14.39-5.69-1.65,4.22-3.66,11.8,2.57,13,3.43,1.08,3-5.94,4.09-8.08a27.31,27.31,0,0,0,3,8.1c4.82,1.15,8.64.14,6.23-5.55,4.19,4.1,8.74,8.34,11.74,13.33-3.45,4.13-9,6.56-14.22,7.5-2.15-8.2-9.87-9.2-7.81.89-3.17-8.22-19.94-12.84-10.7.72-4.57-8.43-20-13.84-11.68-4.69C46.25,220.12,37.73,217.12,56,208.14Z" transform="translate(10.01 -6.1)"/><path class="cls-39" d="M41.25,218.27a2.79,2.79,0,0,0,1.78,1h0c1.94.11,4-1.9,5.85-.22,4.9,3,9.76,6.63,15.58,3.66,1.71-.63,3.49-.85,4.93.47,8.08,6.24,7.5-1.41,14.14.63,1.57.81,6.18,1.42,2.77-1.48.83-.4,2-.85,1.13-1.91-1.35-2.08-3-5.1-5.63-5.09-2.2-.27-4.63,2.16-6.22-.06-8.17-8.08-5.47-5.66-15.61-3.81-3.58-1.27-5.07-6.14-8.85-7.46-3.63-.51-8.08,3.2-9.47,6.32a4.39,4.39,0,0,0,1,3.53C42.06,215.06,40,216.74,41.25,218.27Z" transform="translate(10.01 -6.1)"/><path class="cls-40" d="M60.35,223.66l-.4.23c2.34-.47,4.63-1.48,7-1.76,3.34.33,5.76,4.8,9.39,3.27C68.6,225.46,71.74,217.2,60.35,223.66Z" transform="translate(10.01 -6.1)"/><path class="cls-41" d="M52.34,212.11c2.58,2.08,4.18,5.36,7,7.08,4,.06,8.59-3.39,12.6-1.26,4.58,5.78,9.47-.8,13.57,5.18-5.26-.1-4.15-1.84-8.78,2.13,2.24-1.2,4.24-2.71,6.79-1.46,1.62.83,6.16,1.41,2.77-1.48,1.82-.7,1.7-1.21.63-2.69,0,1.56-1.17,1.7-2,.42A3.56,3.56,0,0,0,82.09,219c-1.85-.06-3.58,1.74-5.38,1.18-8-8.55-8-2.38-16.24-1.81-6.22-2.88-7.07-14.23-15.89-5.06C47,212.91,50.14,210.3,52.34,212.11Z" transform="translate(10.01 -6.1)"/><path class="cls-42" d="M43,219.24c1.16.12,2.28-.57,3.46-.88,3.79.37,6.86,3.89,10.47,5.18C52.31,220,49.22,215.63,43,219.24Z" transform="translate(10.01 -6.1)"/><path class="cls-43" d="M76.68,220.62c3.68-2,5.63-1.9,8.51,1.21C82.65,219.73,79.73,219.57,76.68,220.62Zm-24.25-8.09c2,1.89,3.67,4.23,5.74,6,4.2,2.63,9.2-5,15.82,1.33-3.66-4.52-8.33-3.75-12.81-1.07-1.5.43-2.66-.33-3.64-1.4-5.26-7.21-6.13-8.42-14.26-3.62C45.76,213.26,49.81,210.19,52.43,212.53Z" transform="translate(10.01 -6.1)"/><path class="cls-44" d="M50.13,204.16a4.39,4.39,0,0,1,4.12,3.34c.13.8-1.13.57-1.56.47-3-.54-5.82,1.85-8.79,2.34C39.09,210.07,48.41,203.75,50.13,204.16Z" transform="translate(10.01 -6.1)"/><path class="cls-45" d="M69.5,212.38c-1.9,1.13-6.55,2.27-8,.28C61.94,210.59,71.52,208.13,69.5,212.38Z" transform="translate(10.01 -6.1)"/><path class="cls-46" d="M84,217c-.06,1.28-5.18,2.25-5.73.71C77.85,215.12,83.23,214.85,84,217Z" transform="translate(10.01 -6.1)"/><path class="cls-47" d="M53.29,216.56a12.79,12.79,0,0,0-6.65-1.17c-5.68-.7,2.47-3.71,4.31-3C52.21,212.4,55.72,216.12,53.29,216.56Z" transform="translate(10.01 -6.1)"/><path class="cls-48" d="M69.34,219a8.75,8.75,0,0,1-6.55.78C63.28,218.24,70.16,216.5,69.34,219Z" transform="translate(10.01 -6.1)"/><path class="cls-49" d="M78.41,221.13c-.66-.88-2.27.24-2.42,1.1C76.48,223.08,78.74,222.11,78.41,221.13Z" transform="translate(10.01 -6.1)"/><path class="cls-35" d="M49.13,204.6c.76-.62,2.15.14,1,.88C49.46,206.06,48.06,205.25,49.13,204.6Z" transform="translate(10.01 -6.1)"/><path class="cls-35" d="M48.54,212.85c.09-.36,1.06-.63.92-.07C49.34,213.07,48.55,213.3,48.54,212.85Z" transform="translate(10.01 -6.1)"/><path class="cls-35" d="M66.34,210.69c.28-.49,1.31-.08.62.3C66.73,211.06,66.18,211.06,66.34,210.69Z" transform="translate(10.01 -6.1)"/><path class="cls-35" d="M67.06,217.89c.22-.24.75.05.4.3C67.29,218.26,66.89,218.11,67.06,217.89Z" transform="translate(10.01 -6.1)"/><path class="cls-35" d="M81.64,215.92c.29.37.9-.25.39-.4-.06,0-.21,0-.25,0A.24.24,0,0,0,81.64,215.92Z" transform="translate(10.01 -6.1)"/><path class="cls-35" d="M70.94,200.92c.28-.9,3.12-.92,2.33,0C72.71,200.77,71,201.61,70.94,200.92Z" transform="translate(10.01 -6.1)"/><path class="cls-4" d="M311,189.54c-9.14-2.08-10.43,13.37-1.86,12.41C314.87,200.13,318.23,191.78,311,189.54Z" transform="translate(10.01 -6.1)"/><path class="cls-4" d="M248,170.2c-1.77-1.8-4.56,1-2.75,2.75S249.84,172,248,170.2Z" transform="translate(10.01 -6.1)"/><path class="cls-4" d="M258.75,162.56c-1.27-3.94-7.19-1.65-5.22,2.1C255.06,167.39,259.57,165.59,258.75,162.56Z" transform="translate(10.01 -6.1)"/><path class="cls-4" d="M191.68,119c-2.2-3.58-7.41-1.67-5.22,2.46C188.07,124.52,193.42,122.22,191.68,119Z" transform="translate(10.01 -6.1)"/><path class="cls-4" d="M187.4,101.16c-2.43-3.78-8.77-2.54-7.64,2.53C181.17,109.08,190.17,106.41,187.4,101.16Z" transform="translate(10.01 -6.1)"/><path class="cls-4" d="M173,113.67a1.46,1.46,0,0,0,0,2.91A1.46,1.46,0,0,0,173,113.67Z" transform="translate(10.01 -6.1)"/><path class="cls-4" d="M187.33,166.91c-7.69-3.63-11.89,9.44-3.42,9C187.62,175.34,192.32,168.94,187.33,166.91Z" transform="translate(10.01 -6.1)"/><path class="cls-4" d="M192.28,149.28c-.22-2.37-3-1.36-2.5.69A1.3,1.3,0,0,0,192.28,149.28Z" transform="translate(10.01 -6.1)"/><path class="cls-4" d="M100.51,92.8c-3.29-6.15-11.68.55-8.18,5.76C95.58,104.14,104.23,97.71,100.51,92.8Z" transform="translate(10.01 -6.1)"/><path class="cls-4" d="M108.74,97.43c-.33-3-4.33-1.22-3.15,1.25C106.39,100.66,109.37,99.43,108.74,97.43Z" transform="translate(10.01 -6.1)"/><path class="cls-4" d="M37.92,84.24c-4.26-4.63-13.2.48-10.55,6.56,1.38,3.8,7.22,4.52,8.91.59C38.22,89.81,39.67,86.41,37.92,84.24Z" transform="translate(10.01 -6.1)"/></g></g></g></g></g></svg>