<svg xmlns="http://www.w3.org/2000/svg" xmlns:xlink="http://www.w3.org/1999/xlink" viewBox="0 0 120.82 143.89"><defs><style>.cls-1{fill:#868686;}.cls-2,.cls-5{fill:#1d1d1b;}.cls-2{opacity:0.2;}.cls-3{fill:#575756;}.cls-4{fill:#1c1c1c;}.cls-6{fill:#d8ae78;}.cls-7{fill:#c39056;}.cls-8{fill:#bc8854;}.cls-36,.cls-9{fill:#fff;}.cls-10{fill:#3c3c3b;}.cls-11{fill:#0064af;}.cls-12{fill:#009ee2;}.cls-13{fill:#7ccdf3;}.cls-14{fill:#683b11;}.cls-15{fill:#e3e3e2;}.cls-16{fill:#35192f;}.cls-17{fill:#00709d;}.cls-18{fill:#6fc5d0;}.cls-19{fill:#4ab6bc;}.cls-20{fill:#e5e5e5;}.cls-21{fill:#b26e20;}.cls-22{fill:#c08440;}.cls-23{fill:#422918;}.cls-24{fill:#9c9b9b;}.cls-25{fill:#c6c6c5;}.cls-26{fill:#ececec;}.cls-27{fill:url(#linear-gradient);}.cls-28{fill:url(#linear-gradient-2);}.cls-29{fill:#382013;}.cls-30{fill:#925f36;}.cls-31{fill:#b37022;}.cls-32{fill:url(#linear-gradient-3);}.cls-33{fill:url(#linear-gradient-4);}.cls-34{fill:url(#linear-gradient-5);}.cls-35{fill:#cae8f7;}.cls-36{opacity:0.6;}</style><linearGradient id="linear-gradient" x1="96.09" y1="73.25" x2="111.95" y2="68.72" gradientUnits="userSpaceOnUse"><stop offset="0.08" stop-color="#6f6f6e"/><stop offset="1" stop-color="#ececec"/></linearGradient><linearGradient id="linear-gradient-2" x1="96.39" y1="72.59" x2="103.98" y2="64.55" gradientUnits="userSpaceOnUse"><stop offset="0" stop-color="#c3c3c3"/><stop offset="1" stop-color="#f2f2f2"/><stop offset="1" stop-color="#ececec"/></linearGradient><linearGradient id="linear-gradient-3" x1="8.49" y1="62.12" x2="12.8" y2="62.12" gradientUnits="userSpaceOnUse"><stop offset="0" stop-color="#190f35"/><stop offset="0.5" stop-color="#2d2e82"/><stop offset="1" stop-color="#130b2c"/></linearGradient><linearGradient id="linear-gradient-4" x1="12.96" y1="16.12" x2="12.96" y2="51.45" gradientUnits="userSpaceOnUse"><stop offset="0" stop-color="#0b3254"/><stop offset="0.5" stop-color="#1d70b7"/><stop offset="1" stop-color="#0e375c"/></linearGradient><linearGradient id="linear-gradient-5" x1="7.15" y1="28.79" x2="11.71" y2="46.72" gradientUnits="userSpaceOnUse"><stop offset="0" stop-color="#3c3c3b"/><stop offset="0.5" stop-color="#868686"/><stop offset="1" stop-color="#575756"/></linearGradient></defs><g id="Layer_2" data-name="Layer 2"><g id="popUp_contents"><path class="cls-1" d="M37.91,56.3C35.59,45.06,36.34,27,36.35,26.81l.59,0c0,.18-.74,18.17,1.56,29.33Z"/><path class="cls-2" d="M99.07,138.24c1.93,7.54-86.66,7.54-84.72,0C12.42,130.7,101,130.7,99.07,138.24Z"/><path class="cls-3" d="M90.61,51.55a19.88,19.88,0,0,1,.66,6.8L86,54Z"/><path class="cls-3" d="M46.67,23.84,51.42,11.5s-4.64-2-5.77-5C49.5,4.36,53.12,2.21,54.48.4,58.67.85,68.53,1.64,73.74,1l8.83,7.93-8.95,4.3,1.47,14.73Z"/><path class="cls-4" d="M75.41,4.17,73.57,5.25,72.42,2.46c-.94,20.26-14.62,9.46-23.73,16.12l-2,5.26,28.42,4.08L73.62,13.19l8.6-4.13C75.55,9,75.41,4.17,75.41,4.17Z"/><path class="cls-4" d="M47,5.75l-1.35.76c1.13,3,5.77,5,5.77,5L54,3.41Z"/><path class="cls-5" d="M75.52,28.36,46.15,24.15,51,11.69c-1.16-.54-4.94-2.63-5.77-5.35C48.79,4.31,52.87,2,54.31,0c5,.54,14.39,1.26,19.55.57L83.24,9,74,13.42ZM47.18,23.54l27.49,3.94L73.22,13,81.9,8.8,73.61,1.35c-5,.62-14.15-.05-19-.56-1.5,1.84-5.14,4-8.53,5.88,1.47,2.84,5.45,4.45,5.78,4.63Z"/><path class="cls-6" d="M38.28,58.73S34,40.6,42.13,29.28c.23-3.25,3.7-11.78,18.81-11,19.78,0,21.25,24,18.8,42.63l-32.51,9.4Z"/><path class="cls-7" d="M64.79,46.21c.37,10.77-29.37,10.77-29,0C35.42,35.44,65.16,35.44,64.79,46.21Z"/><path class="cls-8" d="M59.58,30.86l1.53-8.09c-4.72-3-9,5.32-11.44.9A5.77,5.77,0,0,0,47,21.45a12.25,12.25,0,0,0-3.54,3.86l1.74,4.25Z"/><path class="cls-5" d="M47.09,70.71c0-.09-9.21-11.78-9.17-11.9s-4.23-18.32,3.85-29.67c-.6-10.51,23.85-16.53,33-5.14,7.16,6.45,6.67,25.17,5.34,37.17ZM38.63,58.56l8.74,11.29,32-9.26C80.69,48.87,81.09,30.7,74.2,24.5c-8.71-10.9-32.52-5.18-31.7,4.91C34.75,40,38.33,57.28,38.63,58.56Z"/><path class="cls-5" d="M49.16,26.11c-1.25,4.84-7.43,3.17-6.07-1.64S50.52,21.3,49.16,26.11Z"/><path class="cls-5" d="M63.88,26c.09,5.14-9.3,5.14-9.21,0C54.58,20.86,64,20.86,63.88,26Z"/><path class="cls-9" d="M63.73,26.75c.09,5.14-9.08,5.14-9,0C54.66,21.61,63.82,21.61,63.73,26.75Z"/><path class="cls-9" d="M48.88,26.93c-1.25,4.84-7.43,3.17-6.07-1.64S50.24,22.12,48.88,26.93Z"/><path class="cls-5" d="M58.29,26.47a1.19,1.19,0,0,1-2.37,0A1.19,1.19,0,0,1,58.29,26.47Z"/><path class="cls-5" d="M45.83,25.75a1.19,1.19,0,0,1-2.37,0A1.19,1.19,0,0,1,45.83,25.75Z"/><path class="cls-10" d="M39,27.34c-.43-.14-2.68.39-2.63-.47s2.21-.33,2.63-.47Z"/><path class="cls-11" d="M40.72,23.34H40v7C43.22,31.33,43.35,23.39,40.72,23.34Z"/><path class="cls-12" d="M41.92,26.85c0,4.57-3.82,4.57-3.79,0S42,22.29,41.92,26.85Z"/><path class="cls-13" d="M41.92,26.85c0-4.35-3.28-4.35-3.26,0S41.94,31.21,41.92,26.85Z"/><path class="cls-14" d="M59.13,19.64c.31,1-4.27,2.06-4.43,1C54.39,19.69,59,18.61,59.13,19.64Z"/><path class="cls-14" d="M51.08,20.72c-.87.59-3.22-3.48-2.27-3.94S52,20.26,51.08,20.72Z"/><polygon class="cls-5" points="73.28 13.4 72.72 3.91 74.06 13.06 73.28 13.4"/><polygon class="cls-5" points="73.07 7.59 74.59 5.3 73.2 8.76 73.07 7.59"/><polygon class="cls-5" points="50.97 11.5 54.54 2.12 51.83 11.33 50.97 11.5"/><path class="cls-9" d="M36.24,60s-11.17,4.83-14.49,7.4c-1.14-3.25-1.48-7.89-7.25-10.84C6.91,59.52-1.36,69.94,10.19,87c5.44,2.61,21.52.34,27.64-13.25Z"/><path class="cls-15" d="M22.2,82.36C16.25,81.9,13.45,70.79,13.54,57,6.25,60.41-.87,70.66,10.19,87c5.44,2.61,21.52.34,27.64-13.25l-.33-2.88C32.14,76.9,26,82.66,22.2,82.36Z"/><path class="cls-3" d="M16.54,74.24c2.72-9.51.34-14.38-2-17.67C6.91,59.52-1.36,69.94,10.19,87,10.19,87,13.82,83.76,16.54,74.24Z"/><path class="cls-7" d="M9.74,73.53s2.19,4.45,4.46,6c0,0,3.54-8.08,3.17-12.46C16,69.75,12.46,73.75,9.74,73.53Z"/><path class="cls-5" d="M15.48,88.36a13,13,0,0,1-5.54-1c-9.4-15.12-7.7-24.81,4.58-31.17C20.12,59,20.77,63,21.94,66.8c4.11-2.82,13.77-7,14.62-7.33l1.65,14.38C34.76,82.38,24.54,88.5,15.48,88.36Zm-5-1.61c8.43,2.85,21.85-1.62,27-13L35.93,60.56c-2.35,1-11.42,5-14.37,7.46-1.5-4.2-1.51-8-7.08-11C2.35,62.52,2.5,75.26,10.45,86.75Z"/><path class="cls-5" d="M10.51,87.25l-.63-.41c.08-.12,7.7-12.12,7.19-21.48l.75,0C18.34,74.92,10.83,86.75,10.51,87.25Z"/><path class="cls-9" d="M70.75,129.93s-.6,4.46.15,7c3.78,2.49,12.16,3.32,19.64,1.13.83-3.85-2-6-4.91-5.36l-4.23-1.51L81,128.88Z"/><path class="cls-16" d="M85.63,132.73c-2.32.2-5.83.92-7.36,3.3a18.46,18.46,0,0,1-7.74-2.14A12.3,12.3,0,0,0,70.9,137c3.78,2.49,12.16,3.32,19.64,1.13C91.37,134.24,88.5,132.12,85.63,132.73Z"/><path class="cls-9" d="M40.78,130.39A7.43,7.43,0,0,1,43,137.18c-7.4,1.66-17.6,1.59-22.66-1.66.53-3.47,5-5.89,8.61-3.85a7.42,7.42,0,0,0,2.87-1.36l.23-2.64,8.76.53Z"/><path class="cls-16" d="M31.71,135c-2.22-5.91-10.52-4.76-11.4.57,5.06,3.25,15.26,3.32,22.66,1.66a8.56,8.56,0,0,0-.31-3.81A31.54,31.54,0,0,1,31.71,135Z"/><path class="cls-5" d="M81.6,139.72c-4.71,0-8.71-1-11-2.53-.84-2.82-.21-7.13-.16-7.6l10.92-1.12.39,2.47,3.93,1.4c3.57-.71,6.22,2.5,5.2,6A32.46,32.46,0,0,1,81.6,139.72Zm-10.37-3c3.5,2.22,11.47,3.21,19,1.07a3.75,3.75,0,0,0-4.61-4.67l-4.53-1.63-.36-2.2-9.62,1A20.86,20.86,0,0,0,71.23,136.72Z"/><path class="cls-5" d="M33,138.63c-5.11,0-9.92-.82-13.09-2.93.34-4,5.63-6.47,9.08-4.42a7,7,0,0,0,2.44-1.17l.24-2.84,9.48.57v2.37a8.12,8.12,0,0,1,2.15,7.28A46.57,46.57,0,0,1,33,138.63Zm-12.27-3.29c5,3,14.88,3,21.89,1.53.39-4.32-1.93-6.05-2.22-6.3v-2l-8-.49-.21,2.44a7.51,7.51,0,0,1-3.3,1.56C26,130.17,21.37,132,20.73,135.34Z"/><path class="cls-9" d="M26.73,105.17c-2.87,8.91-2.72,15.74,2.38,22.2L29,130.31a23,23,0,0,0,13.59,1.36l.22-3.17s5.55-3.29,6.57-8.5,11.22-5.77,13.26.46A19.41,19.41,0,0,0,69.77,130l.11,2.72s5.33,2.6,13.26-1.13l-.34-2.27s10.76-5.44,2.83-25.94L46.78,98Z"/><path class="cls-15" d="M69.66,124.76c1.63-1.81,13.16-3.62,18.59-4.38.68-3.95.31-9.46-2.62-17L46.78,98l-20,7.14c-2,6.22-2.53,11.44-.93,16.22a32.07,32.07,0,0,0,13.82,2.32c3.58.6,1.6,4.27-1.41,5a15.38,15.38,0,0,1-.3,3.41,21.71,21.71,0,0,0,4.68-.47l.22-3.17s5.55-3.29,6.57-8.5,11.22-5.77,13.26.46A19.41,19.41,0,0,0,69.77,130l.11,2.72a11.41,11.41,0,0,0,3.89.85,5.77,5.77,0,0,1,1.1-3C71,129.29,67.78,126.84,69.66,124.76Z"/><path class="cls-5" d="M74.75,134a11.6,11.6,0,0,1-5.23-1l-.11-2.75c-6.31-2.91-5.95-14.6-14.27-13.85-7.1.2-4.88,9-12,12.39L42.94,132a23.22,23.22,0,0,1-14.33-1.44l.12-3c-4.79-6.1-5.45-13-2.3-22.61l20.31-7.23L85.9,103c7.4,18.56-1.08,25.63-2.7,26.47l.35,2.3A20.35,20.35,0,0,1,74.75,134Zm-4.5-1.52c1,.4,5.79,1.95,12.47-1.1l-.33-2.26c.61-.32,10.35-5.32,3-25.39L46.82,98.41l-19.79,7c-3,9.38-2.25,15.89,2.46,21.78l-.11,2.83a23,23,0,0,0,12.85,1.29l.22-3.08c7.47-3.49,4.69-12.32,12.65-12.7,9.11-.73,8.45,11.23,15,14.18Z"/><polygon class="cls-17" points="55.5 121.36 38.28 120.46 47.01 92.25 55.5 121.36"/><path class="cls-5" d="M69.85,129.67s7.4,1.66,13.29-1.06c-.61,1.47-7.78,3.55-13,1.7Z"/><path class="cls-5" d="M29.11,127.37s5,2.9,13.55,1.51l.44-.78A31.52,31.52,0,0,1,29.11,127.37Z"/><path class="cls-18" d="M49.38,64.28,37.26,52.55a39.67,39.67,0,0,1-7.58,6.35,64.74,64.74,0,0,0,1.69,7.64S24,80.25,25.71,94.41C23.79,104.6,21.41,116,21.41,116c5.32,6.12,22.2,6.68,22.2,6.68C46.23,108.23,49.26,79,49.38,64.28Z"/><path class="cls-19" d="M42.25,84.33C38.84,85.06,31,87.1,31,87.1l1.88,8.77s12.23,1.38,10.67,8.43c-.84,3.74-2.16,14.84-2.75,18.23,1.71.16,2.8.19,2.8.19C45.43,111.39,49,85.55,48.86,74.3,46.69,79,44,83.94,42.25,84.33Z"/><path class="cls-9" d="M49.38,64.28,37.26,52.55s-.46.51-1.23,1.27L49.19,68.07Z"/><polygon class="cls-16" points="36.58 53.31 35.48 54.33 49.09 68.93 49.18 67.18 36.58 53.31"/><path class="cls-5" d="M43.93,123.11c-1.15,0-17.32-.57-22.93-7,.1-.48,2.37-11.41,4.33-21.76C23.75,81.05,30.22,68,31,66.5a59.88,59.88,0,0,1-1.69-7.81C32.84,56.74,37,52.31,37,52.3l.26-.28L49.77,64.13C49.64,79,46.57,108.46,43.93,123.11Zm-22.12-7.18c4.87,5.33,19.1,6.28,21.47,6.4C45.88,108,48.88,79,49,64.43L37.28,53.09a39.14,39.14,0,0,1-7.21,6,67.94,67.94,0,0,0,1.71,7.49c-.2.36-7.31,13.7-5.7,27.77C24.38,103.68,22.1,114.44,21.81,115.93Z"/><path class="cls-5" d="M44.12,69.84c-.31-.35-7.55-8.83-9.81-14.72l.7-.27c2.21,5.77,9.6,14.42,9.67,14.51Z"/><path class="cls-9" d="M84.27,51.7s11.33,4.84,17.37,15.56a43.23,43.23,0,0,1,9.51,5c1.32,8,3.36,17.3-13.52,24.88C79.64,90.48,80.19,73.9,84.27,51.7Z"/><path class="cls-15" d="M91.74,56.23a40.2,40.2,0,0,0-7.47-4.53L81.66,71.19C81,89.57,95,99.71,100.2,95.88,83.21,73.19,88,61.06,91.74,56.23Z"/><path class="cls-3" d="M95.37,81.27c-3.74,7.59.17,14.44,2.26,15.85,16.88-7.58,14.84-16.87,13.52-24.88C103.6,70.7,99.11,73.68,95.37,81.27Z"/><path class="cls-5" d="M97.72,97.5c-8.8-2.35-17.58-12.83-16.43-26.34l2.67-20A40.28,40.28,0,0,1,101.9,67,43,43,0,0,1,111.5,72C112.93,80.67,114.84,89.76,97.72,97.5ZM84.57,52.26c-2.93,18.54-6.52,36.64,13,44.49,16.35-7.46,14.58-16.16,13.25-24.29a44.58,44.58,0,0,0-9.43-4.9C96.25,58.3,86.71,53.26,84.57,52.26Z"/><path class="cls-18" d="M45.61,98.22,44.25,66.05S74.3,50.65,80.49,44.91c2.12,1.51,2,2,2,2s6,3.32,8.15,4.68c-4.53,7.1-6.64,19.33-2.26,23.71l2.11,14.8s5.14,9.52,3.32,26.58C85.48,121.78,57.39,123,51,123Z"/><polygon class="cls-19" points="56.54 88.35 58.57 72.53 59.83 87.57 56.54 88.35"/><path class="cls-19" d="M90.46,90.06l-2.11-14.8C84,70.88,86.08,58.65,90.61,51.55c-1.21-.78-3.72-2.2-5.63-3.28a8.06,8.06,0,0,1-.25,6.88c-3,5.64.78,21.92-13.94,30.54l.78,8.61s21.81,4.18,14.5,25.14a27.69,27.69,0,0,0,7.71-2.8C95.6,99.58,90.46,90.06,90.46,90.06Z"/><path class="cls-9" d="M81.35,45.56c-.23-.19-.51-.41-.86-.65C74.3,50.65,44.25,66.05,44.25,66.05l.12,3C53.3,65.37,71.76,56.77,81.35,45.56Z"/><path class="cls-16" d="M44.65,69.73l-.17-1.45c.26-.11,26.13-10.53,36.29-23.19l1.16.94C71.53,59,45.74,69.3,44.65,69.73Z"/><path class="cls-5" d="M45.08,76.64l-.23-.71c.27-.09,26.6-8.62,37.27-29.23l.67.34C72,67.93,45.35,76.56,45.08,76.64Z"/><path class="cls-5" d="M51,123.36h-.3L45.23,98.23l-1.37-32.4c.72-.4,30.27-15.47,36.6-21.4a7,7,0,0,1,2.33,2.2c1.08.6,6.36,3.51,8.34,4.81-4.65,7.07-6.87,19.34-2.43,23.65L90.82,90c.43.72,5.12,10.87,3.32,26.92C85.58,122.28,56.48,123.34,51,123.36ZM46,98.17l5.37,24.44c6,0,33.64-1.17,42.08-6.19,1.72-16.62-3.25-26.08-3.3-26.18S88,75.6,88,75.44C83.7,71,85.61,59,90.1,51.67,87.45,50,82.46,47.3,82,47.05l.07-.21a5.2,5.2,0,0,0-1.55-1.45c-6.39,5.65-33,19.4-35.89,20.89ZM82.09,46.88Z"/><path class="cls-16" d="M88.89,79.09c-7.43,4.75-49.84,12.06-63.08,5.55a39.81,39.81,0,0,0-.1,9.77c17.15,8.36,44.58,4.3,64.75-4.35Z"/><path class="cls-5" d="M48.6,99.18c-8.77.14-19.78-1.67-23.24-4.57a40.9,40.9,0,0,1,.14-10.52c13.83,6.56,53.61.07,63.69-5.56l1.68,11.76A104.36,104.36,0,0,1,48.6,99.18Zm-22.54-5c16.57,8.43,47.06,3.31,64-4.36L88.6,79.65c-10,5.3-48.7,11.41-62.48,5.54A40,40,0,0,0,26.06,94.2Z"/><path class="cls-20" d="M46,94.08c-15.19-.56-21-2.59-21.22-4.8a.76.76,0,0,1,1-.26c-.66,1.09,20.89,8.3,64.78-3.66C73.36,93.14,55.38,93.55,46,94.08Z"/><path class="cls-21" d="M35.57,45.14c5.3,7.64,21.48,8.06,27.18,1L46.51,40.76Z"/><path class="cls-5" d="M51,51.47C45.08,51.18,38,50.4,35,45L46.5,40.36l16.88,5.57C60.77,49.43,56.1,51.45,51,51.47ZM36.12,45.32c5.27,6.8,20.32,7.35,26,1L46.53,41.15Z"/><path class="cls-9" d="M35.94,48.38c-.26,5.36-1.51,26.32,3.36,38.32,1.7,3.74,3.74,5.33,3-2.37s-2.61-32.06.22-39L36,47.06Z"/><path class="cls-15" d="M42.47,45.36,36,47.06c0,.73-.1,1.66-.13,2.43A3.53,3.53,0,0,1,39.42,53c-.73,9.4,2.58,27.69.69,35.26,1.46,2.45,2.81,2.57,2.14-3.93C41.46,76.62,39.64,52.27,42.47,45.36Z"/><path class="cls-5" d="M41.65,90.18c-9.26-10.17-5.77-35.54-6-43.41l7.45-2c-3.25,7.06-1.32,30.51-.49,39.48C43.06,89.33,42.62,90,41.65,90.18ZM36.32,48.4c0,6.92-2.39,30.95,5.33,41,.87-9.13-3.09-34.26.23-43.52l-5.5,1.44Z"/><path class="cls-9" d="M63.43,46.87a204.52,204.52,0,0,1,1.66,23.18c.08,11.71-1.36,14.5-2.34,17.67s-2.64,5.06-2.57-1.58-1.51-33.68-3.92-40.33Z"/><path class="cls-15" d="M65.09,70.05a204.52,204.52,0,0,0-1.66-23.18l-7.17-1.06a26.46,26.46,0,0,1,.88,3.47c2.1.41,5.12.83,5.3,3.59.46,7.13,2.68,32-2.26,34,0,5.81,1.62,4,2.57.89S65.17,81.76,65.09,70.05Z"/><path class="cls-5" d="M61,91c-.76-.08-1.24-.68-1.23-4.86,0-7.39-1.48-34.07-4.12-40.78l8.07,1.19C64.51,49.18,68.11,87.28,61,91ZM56.8,46.27c3.11,9.59,3.14,35.92,4.26,44,5.6-5,3.1-38.64,2-43Z"/><path class="cls-22" d="M48.86,29c-13-1.06-21.27,10.67-12.92,19.4,2.34-.45,8.76-2,11-4.15C51.2,47.1,61,49.44,64.56,48.76,69.17,42,71.73,29.81,48.86,29Z"/><path class="cls-21" d="M58.93,30.45c11.33,7.14,4,18.53-6.48,14.21-3.05-1.17-6.05-2.27-5.87-9.18-1.71,2.14-1.79,4.86-2.14,6.3-.23.94-5.92,4.46-10.36,4.49a7.39,7.39,0,0,0,1.86,2.11c2.34-.45,8.76-2,11-4.15C51.2,47.1,61,49.44,64.56,48.76,68.33,43.2,70.73,34,58.93,30.45Z"/><path class="cls-7" d="M111.53,75c-2.72-.3-3.93,2.94-3.93,2.94a13.61,13.61,0,0,0-6.85-3.92c-3.5,2.59-7.42,9.61-6.92,14.38C109.73,100.45,120.86,80.47,111.53,75Z"/><path class="cls-23" d="M120.46,68.64l-20-5.68C95.14,66.5,92.05,70.13,89.93,76c-11.27-2.79-20.78,3.09-20.78,3.09l-.28.91s11.93,5.51,14.64,6.72c6.42-2,15.71-1.58,19.33-.3,5.14,2.3,3.86-8.63,18-16.61Z"/><path class="cls-24" d="M119.89,69s-10,6-13.42,14.11C105.85,84.66,105,86,103,85.53s-10.8-2.79-19.33,0L69.88,79.34,71,74.66s10.34-4.91,17.9-1c1.2-7.93,10.79-12.31,10.79-12.31l18.52,4.49Z"/><path class="cls-25" d="M78.68,76.77l-7-2.42-.7.31-1.1,4.68,13.79,6.19,1.28-5Z"/><path class="cls-26" d="M103.86,81.89c.46-8.5,11-15.63,14.33-16L99.67,61.37s-9.59,4.38-10.79,12.31c-7.56-3.93-17.9,1-17.9,1l14,5.87C89.25,79.74,100.07,78.21,103.86,81.89Z"/><path class="cls-27" d="M118.19,65.86,99.67,61.37s-9.59,4.38-10.79,12.31c-.24-.44,10.11,3.33,15,8.21C104.32,73.39,114.85,66.26,118.19,65.86Z"/><path class="cls-5" d="M63.08,49.25c-4.23,0-12.1-2-16.15-4.55-2.87,2.48-10.06,3.87-11.08,4.08-20-26.16,47.65-27.67,28.93.32A8.52,8.52,0,0,1,63.08,49.25Zm-16.24-5.5c4.26,3,13.91,5.21,17.5,4.67C81.81,23.29,18.6,22.85,36,48,37.52,47.67,44.66,46.19,46.84,43.75Z"/><path class="cls-6" d="M114.7,82.14c.6-9.58-7.23-8.66-7.44-2-5.06-1-10.4,7.14-4.42,11.88C110.68,92.93,114.92,85.93,114.7,82.14Z"/><path class="cls-7" d="M114.7,82.14c-.22-4.22-.58-7.48-4-7.07a7.8,7.8,0,0,1,2.24,8.2c-.23-2-2.85-3.7-5.46-3.36,2.06.79,2.51,4.94,1.83,6.15-.59,1.06-7.59,5.15-8.93.31C100.86,99.66,116.52,87.22,114.7,82.14Z"/><path class="cls-5" d="M104.17,92.52a18.33,18.33,0,0,1-10.56-3.78l.45-.6c14.71,11.35,26.26-6.58,17.43-12.73-3.63.36-3.83,3.19-3.81,5.22-3-.82-7.26,2.42-7,5.64l-.75,0c-.31-3.33,3.7-6.82,6.94-6.53.43-2.14.59-4.81,4.69-5.12,3.09.35,3.28,3.64,3.5,7.45A10.87,10.87,0,0,1,104.17,92.52Z"/><path class="cls-28" d="M88.88,73.68s-.83-12.1,8.42-15.83c1.93.69,13.18,3.66,13.18,3.66s-9.18,9.31-7.66,19.66C97.64,76.27,88.88,73.68,88.88,73.68Z"/><path class="cls-5" d="M46.54,44.35C45.42,41.1,45.1,34.16,49,29.4l.58.47C45.42,35,46.53,42,47.25,44.11Z"/><path class="cls-29" d="M46.74,34.71s-3.93-1.81-3.47-5.81c4-1.43,9.06-1.66,11,1A13,13,0,0,1,46.74,34.71Z"/><path class="cls-30" d="M70.45,30.3c.1.94-5.25.94-5.15,0C65.2,29.35,70.55,29.35,70.45,30.3Z"/><path class="cls-5" d="M107.25,80.56s3.53,0,3.8,4.93c.69-2,.3-5.36-3.62-5.58Z"/><path class="cls-5" d="M101.58,89.33a3.05,3.05,0,0,1-1.64-3.15l.38-.46.36.45A6.3,6.3,0,0,0,101.58,89.33Z"/><path class="cls-5" d="M97.36,97.38c-.23-.25-5.56-6.18-3.56-12.15l.71.23c-1.86,5.56,3.35,11.35,3.4,11.41Z"/><path class="cls-31" d="M53.91,35.11a.62.62,0,0,1-1.24,0A.62.62,0,0,1,53.91,35.11Z"/><path class="cls-31" d="M40.15,35.28a.62.62,0,0,1-1.24,0A.62.62,0,0,1,40.15,35.28Z"/><path class="cls-31" d="M43.15,37.6a.62.62,0,0,1-1.24,0A.62.62,0,0,1,43.15,37.6Z"/><path class="cls-31" d="M41,40.94a.62.62,0,0,1-1.24,0A.62.62,0,0,1,41,40.94Z"/><path class="cls-31" d="M37.72,38.91a.63.63,0,0,1-1.25,0A.63.63,0,0,1,37.72,38.91Z"/><path class="cls-31" d="M51.2,38.11a.63.63,0,0,1-1.25,0A.63.63,0,0,1,51.2,38.11Z"/><path class="cls-31" d="M53.86,41.62a.63.63,0,0,1-1.25,0A.63.63,0,0,1,53.86,41.62Z"/><path class="cls-31" d="M56.69,38.34a.63.63,0,0,1-1.25,0A.63.63,0,0,1,56.69,38.34Z"/><path class="cls-5" d="M43.26,29.22a3.08,3.08,0,0,1-.49-1.75,3,3,0,0,0,.86,1.47Z"/><path class="cls-5" d="M59.8,30.66s2.46-.73,3.35-1.95a4.17,4.17,0,0,1-2.8,2.15Z"/><rect class="cls-5" x="47.03" y="117.59" width="0.75" height="6.59" transform="translate(-76.78 158.79) rotate(-85.57)"/><path class="cls-5" d="M21.44,67.4a30.81,30.81,0,0,1,1,6.92c.71-2.16-.19-7.13-.19-7.13Z"/><path class="cls-5" d="M14,79.83c-2.2-1-5-6.21-5.16-6.43l.66-.35s2.84,5.18,4.81,6.1Z"/><path class="cls-26" d="M53.12,122a.76.76,0,0,1-.72-1c2.86-9.43-1.46-26.42-1.5-26.59a.75.75,0,0,1,.54-.91C52.6,91.94,57.65,114.5,53.12,122Z"/><path class="cls-26" d="M57.17,113.67a.75.75,0,0,1-.74-.68c-.32-6.86-6.12-18.39-4.54-19.13C52.41,91.28,59.86,113.61,57.17,113.67Z"/><path class="cls-20" d="M50.14,105.52c-5.28-1.17-.94-11,1.52-13.2C51.81,94,55.23,104.68,50.14,105.52Zm.74-9.65c-1,2.44-2.84,7-.82,8.15C52.18,103.42,51.23,99.05,50.88,95.87Z"/><path class="cls-20" d="M57.86,103.41c-4-.66-6.65-7.79-6.49-11.24C52.46,92.76,65.15,101.2,57.86,103.41Zm-4.61-8.14c1,2.48,2.76,7,5,6.48C59.4,99.85,55.7,97.33,53.25,95.27Z"/><path class="cls-3" d="M46,95.72c-2.11-.22,1.14-3.66,1.28-4.41a.75.75,0,0,1,1.29.76C48.23,92.45,46.78,95.89,46,95.72Z"/><path class="cls-1" d="M47.91,95.72c-2.11-.22,1.14-3.66,1.28-4.41a.75.75,0,0,1,1.29.76C50.1,92.45,48.65,95.89,47.91,95.72Z"/><path class="cls-3" d="M49.89,95.72c-2.11-.22,1.14-3.66,1.28-4.41a.75.75,0,0,1,1.3.76C52.08,92.45,50.63,95.89,49.89,95.72Z"/><path class="cls-1" d="M52.27,95.38c-2.11-.22,1.14-3.66,1.28-4.41a.75.75,0,0,1,1.29.76C54.46,92.11,53,95.55,52.27,95.38Z"/><path class="cls-3" d="M54.42,95.21c-2.11-.22,1.14-3.66,1.28-4.41a.75.75,0,0,1,1.3.76C56.61,91.94,55.16,95.38,54.42,95.21Z"/><path class="cls-1" d="M56.52,95.15c-2.11-.22,1.14-3.66,1.28-4.41a.75.75,0,0,1,1.29.76C58.71,91.89,57.26,95.33,56.52,95.15Z"/><path class="cls-32" d="M10.65,76.4a2.16,2.16,0,0,1-2.16-2.16V47.85H12.8V74.24A2.16,2.16,0,0,1,10.65,76.4Z"/><path class="cls-33" d="M12.91,17.5H8.38v2.56c-5,5.48-5,21.68,0,27.15v2.57C24.38,54.3,25.1,19,12.91,17.5Z"/><path class="cls-34" d="M16.76,33.64C16.7,54.77.06,54.76,0,33.64S16.7,12.51,16.76,33.64Z"/><path class="cls-35" d="M16.76,33.64c0-7.82-2.88-14.34-6.72-15.82-8.71,2.6-8.71,29,0,31.64C13.88,48,16.76,41.46,16.76,33.64Z"/><path class="cls-36" d="M9,26.49c-.95,4.76-4.23,4.08-3.21-.67S10,21.74,9,26.49Z"/><path class="cls-36" d="M39.94,25.2c-.22,1.14-1,1-.73-.15S40.19,24.07,39.94,25.2Z"/><path class="cls-36" d="M8.12,33.71C8.39,37,5.06,37.24,4.85,34S7.9,30.42,8.12,33.71Z"/><path class="cls-6" d="M16.54,60.09c4.93-1.35,4.36-8.63-2.65-7.86-6.41-1.51-16-.6-12.76,10.27.08,7.48,2.8,11,9,10.88S19,66.28,16.54,60.09Z"/><path class="cls-7" d="M19.71,55.63c-.62-4.5-4.89-2.77-7.72-3.76,6.68,3.81.12,10.37-2.48,10.86,9.93,0,4.21,11.8-5,9.19,7.46,5,16-2.9,12-11.83A4.07,4.07,0,0,0,19.71,55.63Z"/><path class="cls-5" d="M9.92,73.75c-6.82-.1-9-4.07-9.16-11.19C-.39,58.69,0,55.74,1.81,53.78c1.86-3.38,18.67-3.73,18.27,1.81a4.35,4.35,0,0,1-3,4.74C19.33,66.19,16.66,73.83,9.92,73.75ZM9.12,52C2.89,51.9-.75,55.67,1.49,62.4c.06,4.06.87,7,2.6,8.65C11.6,77.25,20.41,68.41,16,59.81c.61-.19,3.49-.48,3.32-4.14C18.78,51.33,12.36,52.82,9.12,52Z"/><path class="cls-5" d="M11.37,62.67c5.72-1.06,6.81-9.09,1.93-10.56C19.81,51.77,17.9,63.84,11.37,62.67Z"/><path class="cls-5" d="M.72,60.33s.56,2,4.41,3.09a5.55,5.55,0,0,1-4-1.36Z"/><path class="cls-5" d="M91.62,56l-.71-.22c.27-.89-.38-3.3-.65-4.15l.71-.23C91.08,51.78,92,54.77,91.62,56Z"/></g></g></svg>