<svg xmlns="http://www.w3.org/2000/svg" viewBox="0 0 153.3 54.2"><defs><style>.cls-1{fill:#94c0ff;}.cls-2,.cls-4{fill:#fff;}.cls-3{opacity:0.1;}.cls-4{font-size:25.53px;font-family:YANGJIN;letter-spacing:-0.01em;}.cls-5{fill:#ff0;}</style></defs><g id="Layer_2" data-name="Layer 2"><g id="popUp_contents"><g id="ok_button"><path class="cls-1" d="M139.39,45.41,15.21,52a12.34,12.34,0,0,1-13-12.31V14.56A12.33,12.33,0,0,1,14.56,2.23H138.74a12.33,12.33,0,0,1,12.33,12.33V33.11A12.32,12.32,0,0,1,139.39,45.41Z"/><path class="cls-2" d="M138.74,2.23a12.33,12.33,0,0,1,12.33,12.33V33.11a12.32,12.32,0,0,1-11.68,12.3L15.21,52h-.66A12.33,12.33,0,0,1,2.23,39.64V14.56A12.33,12.33,0,0,1,14.56,2.23H138.74m0-2.23H14.56A14.57,14.57,0,0,0,0,14.56V39.64A14.57,14.57,0,0,0,14.55,54.2l.77,0,124.19-6.54A14.55,14.55,0,0,0,153.3,33.11V14.56A14.57,14.57,0,0,0,138.74,0Z"/><path class="cls-3" d="M102.21,31.28c-40,0-75.67-8.57-98.81-21.94a12.32,12.32,0,0,0-1.17,5.22V39.64A12.34,12.34,0,0,0,15.21,52l124.18-6.54A12.32,12.32,0,0,0,151.07,33.1V26.77A259.37,259.37,0,0,1,102.21,31.28Z"/></g><text class="cls-4" transform="translate(68.64 34.04)">힌 트</text><path class="cls-5" d="M43.3,37.36H30.42L30,31.78a12,12,0,0,1-6-10.16C24,15.16,29.76,9.9,36.86,9.9s12.87,5.26,12.87,11.72a12,12,0,0,1-6,10.16Z"/><path class="cls-5" d="M40.66,39.64h-7.6a.85.85,0,1,1,0-1.7h7.6a.85.85,0,1,1,0,1.7Z"/><path class="cls-5" d="M39.37,42h-5a.85.85,0,1,1,0-1.7h5a.85.85,0,1,1,0,1.7Z"/><path class="cls-5" d="M38.07,44.3H35.65a.85.85,0,1,1,0-1.7h2.42a.85.85,0,1,1,0,1.7Z"/></g></g></svg>