<svg xmlns="http://www.w3.org/2000/svg" viewBox="0 0 54.67 54.67"><defs><style>.cls-1{fill:#7cc1b9;}.cls-2{fill:#fff;}.cls-3{opacity:0.1;}</style></defs><g id="Layer_2" data-name="Layer 2"><g id="popUp_contents"><g id="next_button"><circle class="cls-1" cx="27.33" cy="27.33" r="24.93"/><path class="cls-2" d="M27.33,2.4A24.94,24.94,0,1,1,2.4,27.33,24.94,24.94,0,0,1,27.33,2.4m0-2.4A27.34,27.34,0,1,0,54.67,27.33,27.36,27.36,0,0,0,27.33,0Z"/><path class="cls-3" d="M37.24,36.4c-15.51,0-28.64-7.57-33.16-18A24.92,24.92,0,1,0,51.29,34.19,44.87,44.87,0,0,1,37.24,36.4Z"/><path class="cls-2" d="M31.63,15.54l-4.29,5.54L22.66,16.4a4.5,4.5,0,0,0-6.37,0l-2,2a4.5,4.5,0,0,0,.43,6.75l5.92,4.59-3,3.83a4.51,4.51,0,0,0,.38,6h0a4.5,4.5,0,0,0,6.37,0l3.87-3.86,4.5,3.49a4.52,4.52,0,0,0,6-.38h0a4.51,4.51,0,0,0,0-6.38l-3.6-3.59,5.32-5.32a4.5,4.5,0,0,0,0-6.37l-2-2A4.5,4.5,0,0,0,31.63,15.54Z"/></g></g></g></svg>