<svg xmlns="http://www.w3.org/2000/svg" viewBox="0 0 54.67 54.67"><defs><style>.cls-1{fill:#ea75a5;}.cls-2{fill:#fff;}.cls-3{opacity:0.1;}.cls-4{fill:#f2f2f2;}</style></defs><g id="Layer_2" data-name="Layer 2"><g id="icon"><g id="info_button"><circle class="cls-1" cx="27.33" cy="27.33" r="24.93"/><path class="cls-2" d="M27.33,2.4A24.94,24.94,0,1,1,2.4,27.33,24.94,24.94,0,0,1,27.33,2.4m0-2.4A27.34,27.34,0,1,0,54.67,27.33,27.36,27.36,0,0,0,27.33,0Z"/><path class="cls-3" d="M37.24,36.4c-15.51,0-28.64-7.57-33.16-18A24.92,24.92,0,1,0,51.29,34.19,44.87,44.87,0,0,1,37.24,36.4Z"/><path class="cls-4" d="M27.33,10.54a16.8,16.8,0,1,0,16.8,16.79A16.79,16.79,0,0,0,27.33,10.54Zm0,29.2A12.41,12.41,0,1,1,39.74,27.33,12.4,12.4,0,0,1,27.33,39.74Z"/><path class="cls-4" d="M27.33,36.63h0a2.2,2.2,0,0,1-2.2-2.2V25.7a2.21,2.21,0,0,1,2.2-2.21h0a2.21,2.21,0,0,1,2.21,2.21v8.73A2.2,2.2,0,0,1,27.33,36.63Z"/><circle class="cls-4" cx="27.33" cy="20.24" r="2.21"/></g></g></g></svg>