<svg xmlns="http://www.w3.org/2000/svg" viewBox="0 0 70.21 70.21"><defs><style>.cls-1{fill:#3fa9f5;}.cls-2{fill:#fff;}.cls-3{opacity:0.1;}.cls-4{fill:#f2f2f2;}</style></defs><g id="Layer_2" data-name="Layer 2"><g id="icon"><g id="next_button"><circle class="cls-1" cx="35.11" cy="35.11" r="32.02"/><path class="cls-2" d="M35.11,3.08a32,32,0,1,1-32,32,32,32,0,0,1,32-32m0-3.08a35.11,35.11,0,1,0,35.1,35.11A35.15,35.15,0,0,0,35.11,0Z"/><path class="cls-3" d="M47.83,46.75C27.91,46.75,11.05,37,5.25,23.61a32,32,0,1,0,60.62,20.3A57.7,57.7,0,0,1,47.83,46.75Z"/><path class="cls-4" d="M53.52,32.9,38.09,22.58c-1.47-1-3.31.24-3.31,2.21V28.1H21.64c-3.34,0-6.05,3.13-6.05,7h0c0,3.87,2.71,7,6.05,7H34.78v3.31c0,2,1.84,3.19,3.31,2.21L53.52,37.31A2.76,2.76,0,0,0,53.52,32.9Z"/></g></g></g></svg>