<svg xmlns="http://www.w3.org/2000/svg" xmlns:xlink="http://www.w3.org/1999/xlink" viewBox="0 0 465.03 273.45"><defs><style>.cls-1{fill:none;}.cls-2{isolation:isolate;}.cls-3{opacity:0.7;}.cls-4{fill:#aae0f2;}.cls-5{clip-path:url(#clip-path);}.cls-6{fill:url(#_ÂÁ_Ï_ÌÌ_È_ËÂÌÚ_5);}.cls-7{fill:url(#_ÂÁ_Ï_ÌÌ_È_ËÂÌÚ_5-2);}.cls-8{fill:url(#_ÂÁ_Ï_ÌÌ_È_ËÂÌÚ_5-3);}.cls-9{fill:url(#_ÂÁ_Ï_ÌÌ_È_ËÂÌÚ_5-4);}.cls-10{fill:url(#_ÂÁ_Ï_ÌÌ_È_ËÂÌÚ_5-5);}.cls-11{fill:url(#_ÂÁ_Ï_ÌÌ_È_ËÂÌÚ_5-6);}.cls-12{fill:url(#_ÂÁ_Ï_ÌÌ_È_ËÂÌÚ_5-7);}.cls-13{fill:url(#_ÂÁ_Ï_ÌÌ_È_ËÂÌÚ_5-8);}.cls-14{fill:url(#_ÂÁ_Ï_ÌÌ_È_ËÂÌÚ_5-9);}.cls-15{fill:url(#_ÂÁ_Ï_ÌÌ_È_ËÂÌÚ_5-10);}.cls-16{fill:url(#_ÂÁ_Ï_ÌÌ_È_ËÂÌÚ_5-11);}.cls-17{fill:url(#_ÂÁ_Ï_ÌÌ_È_ËÂÌÚ_5-12);}.cls-18{fill:url(#_ÂÁ_Ï_ÌÌ_È_ËÂÌÚ_5-13);}.cls-19{fill:url(#_ÂÁ_Ï_ÌÌ_È_ËÂÌÚ_5-14);}.cls-20{fill:url(#_ÂÁ_Ï_ÌÌ_È_ËÂÌÚ_5-15);}.cls-21{fill:url(#_ÂÁ_Ï_ÌÌ_È_ËÂÌÚ_208);}.cls-22{fill:url(#_ÂÁ_Ï_ÌÌ_È_ËÂÌÚ_208-2);}.cls-23{fill:url(#_ÂÁ_Ï_ÌÌ_È_ËÂÌÚ_208-3);}.cls-109,.cls-112,.cls-115,.cls-118,.cls-125,.cls-126,.cls-127,.cls-128,.cls-129,.cls-130,.cls-132,.cls-139,.cls-140,.cls-141,.cls-142,.cls-143,.cls-144,.cls-24,.cls-25,.cls-26,.cls-27,.cls-28,.cls-29,.cls-30,.cls-31,.cls-32,.cls-33,.cls-34,.cls-35,.cls-36,.cls-37,.cls-38,.cls-84,.cls-85,.cls-86,.cls-88,.cls-94,.cls-98{mix-blend-mode:screen;}.cls-24{fill:url(#_ÂÁ_Ï_ÌÌ_È_ËÂÌÚ_23);}.cls-25{fill:url(#_ÂÁ_Ï_ÌÌ_È_ËÂÌÚ_23-2);}.cls-26{fill:url(#_ÂÁ_Ï_ÌÌ_È_ËÂÌÚ_23-3);}.cls-27{fill:url(#_ÂÁ_Ï_ÌÌ_È_ËÂÌÚ_23-4);}.cls-28{fill:url(#_ÂÁ_Ï_ÌÌ_È_ËÂÌÚ_23-5);}.cls-29{fill:url(#_ÂÁ_Ï_ÌÌ_È_ËÂÌÚ_23-6);}.cls-30{fill:url(#_ÂÁ_Ï_ÌÌ_È_ËÂÌÚ_23-7);}.cls-31{fill:url(#_ÂÁ_Ï_ÌÌ_È_ËÂÌÚ_23-8);}.cls-32{fill:url(#_ÂÁ_Ï_ÌÌ_È_ËÂÌÚ_23-9);}.cls-33{fill:url(#_ÂÁ_Ï_ÌÌ_È_ËÂÌÚ_23-10);}.cls-34{fill:url(#_ÂÁ_Ï_ÌÌ_È_ËÂÌÚ_23-11);}.cls-35{fill:url(#_ÂÁ_Ï_ÌÌ_È_ËÂÌÚ_23-12);}.cls-36{fill:url(#_ÂÁ_Ï_ÌÌ_È_ËÂÌÚ_23-13);}.cls-37{fill:url(#_ÂÁ_Ï_ÌÌ_È_ËÂÌÚ_23-14);}.cls-38{fill:url(#_ÂÁ_Ï_ÌÌ_È_ËÂÌÚ_23-15);}.cls-39{fill:url(#_ÂÁ_Ï_ÌÌ_È_ËÂÌÚ_208-4);}.cls-40{fill:url(#_ÂÁ_Ï_ÌÌ_È_ËÂÌÚ_208-5);}.cls-41{fill:url(#_ÂÁ_Ï_ÌÌ_È_ËÂÌÚ_208-6);}.cls-42{fill:url(#_ÂÁ_Ï_ÌÌ_È_ËÂÌÚ_208-7);}.cls-43{fill:url(#_ÂÁ_Ï_ÌÌ_È_ËÂÌÚ_208-8);}.cls-44{fill:url(#_ÂÁ_Ï_ÌÌ_È_ËÂÌÚ_208-9);}.cls-45{fill:url(#_ÂÁ_Ï_ÌÌ_È_ËÂÌÚ_208-10);}.cls-46{fill:url(#_ÂÁ_Ï_ÌÌ_È_ËÂÌÚ_208-11);}.cls-47{fill:url(#_ÂÁ_Ï_ÌÌ_È_ËÂÌÚ_208-12);}.cls-48{fill:url(#_ÂÁ_Ï_ÌÌ_È_ËÂÌÚ_208-13);}.cls-49{fill:url(#_ÂÁ_Ï_ÌÌ_È_ËÂÌÚ_208-14);}.cls-50{fill:url(#_ÂÁ_Ï_ÌÌ_È_ËÂÌÚ_208-15);}.cls-51{fill:url(#_ÂÁ_Ï_ÌÌ_È_ËÂÌÚ_208-16);}.cls-52{fill:url(#_ÂÁ_Ï_ÌÌ_È_ËÂÌÚ_208-17);}.cls-53{fill:url(#_ÂÁ_Ï_ÌÌ_È_ËÂÌÚ_208-18);}.cls-54{fill:url(#_ÂÁ_Ï_ÌÌ_È_ËÂÌÚ_208-19);}.cls-55{fill:url(#_ÂÁ_Ï_ÌÌ_È_ËÂÌÚ_208-20);}.cls-56{fill:url(#_ÂÁ_Ï_ÌÌ_È_ËÂÌÚ_208-21);}.cls-57{fill:url(#_ÂÁ_Ï_ÌÌ_È_ËÂÌÚ_208-22);}.cls-58{fill:url(#_ÂÁ_Ï_ÌÌ_È_ËÂÌÚ_208-23);}.cls-59{fill:url(#_ÂÁ_Ï_ÌÌ_È_ËÂÌÚ_208-24);}.cls-60{fill:url(#_ÂÁ_Ï_ÌÌ_È_ËÂÌÚ_208-25);}.cls-61{fill:url(#_ÂÁ_Ï_ÌÌ_È_ËÂÌÚ_208-26);}.cls-62{fill:url(#_ÂÁ_Ï_ÌÌ_È_ËÂÌÚ_208-27);}.cls-63{fill:url(#_ÂÁ_Ï_ÌÌ_È_ËÂÌÚ_208-28);}.cls-64{fill:url(#_ÂÁ_Ï_ÌÌ_È_ËÂÌÚ_208-29);}.cls-65{fill:url(#_ÂÁ_Ï_ÌÌ_È_ËÂÌÚ_208-30);}.cls-66{fill:url(#_ÂÁ_Ï_ÌÌ_È_ËÂÌÚ_208-31);}.cls-67{fill:url(#_ÂÁ_Ï_ÌÌ_È_ËÂÌÚ_208-32);}.cls-68{fill:url(#_ÂÁ_Ï_ÌÌ_È_ËÂÌÚ_208-33);}.cls-69{fill:url(#_ÂÁ_Ï_ÌÌ_È_ËÂÌÚ_208-34);}.cls-70{fill:url(#_ÂÁ_Ï_ÌÌ_È_ËÂÌÚ_208-35);}.cls-71{fill:url(#_ÂÁ_Ï_ÌÌ_È_ËÂÌÚ_208-36);}.cls-72{fill:url(#_ÂÁ_Ï_ÌÌ_È_ËÂÌÚ_208-37);}.cls-73{fill:url(#_ÂÁ_Ï_ÌÌ_È_ËÂÌÚ_208-38);}.cls-74{fill:url(#_ÂÁ_Ï_ÌÌ_È_ËÂÌÚ_208-39);}.cls-75{fill:url(#_ÂÁ_Ï_ÌÌ_È_ËÂÌÚ_208-40);}.cls-76{fill:url(#_ÂÁ_Ï_ÌÌ_È_ËÂÌÚ_208-41);}.cls-77{fill:url(#_ÂÁ_Ï_ÌÌ_È_ËÂÌÚ_208-42);}.cls-78{fill:url(#_ÂÁ_Ï_ÌÌ_È_ËÂÌÚ_208-43);}.cls-79{fill:url(#_ÂÁ_Ï_ÌÌ_È_ËÂÌÚ_208-44);}.cls-80{fill:url(#_ÂÁ_Ï_ÌÌ_È_ËÂÌÚ_208-45);}.cls-81{fill:url(#_ÂÁ_Ï_ÌÌ_È_ËÂÌÚ_208-46);}.cls-82{fill:url(#_ÂÁ_Ï_ÌÌ_È_ËÂÌÚ_208-47);}.cls-83{fill:url(#_ÂÁ_Ï_ÌÌ_È_ËÂÌÚ_208-48);}.cls-84{fill:url(#_ÂÁ_Ï_ÌÌ_È_ËÂÌÚ_23-16);}.cls-85{fill:url(#_ÂÁ_Ï_ÌÌ_È_ËÂÌÚ_23-17);}.cls-86{fill:url(#_ÂÁ_Ï_ÌÌ_È_ËÂÌÚ_23-18);}.cls-87{fill:url(#_ÂÁ_Ï_ÌÌ_È_ËÂÌÚ_39);}.cls-88{fill:url(#_ÂÁ_Ï_ÌÌ_È_ËÂÌÚ_37);}.cls-89{fill:url(#_ÂÁ_Ï_ÌÌ_È_ËÂÌÚ_39-2);}.cls-90{fill:url(#_ÂÁ_Ï_ÌÌ_È_ËÂÌÚ_39-3);}.cls-91{fill:url(#_ÂÁ_Ï_ÌÌ_È_ËÂÌÚ_39-4);}.cls-92{fill:url(#_ÂÁ_Ï_ÌÌ_È_ËÂÌÚ_39-5);}.cls-93{fill:url(#_ÂÁ_Ï_ÌÌ_È_ËÂÌÚ_39-6);}.cls-94{fill:url(#_ÂÁ_Ï_ÌÌ_È_ËÂÌÚ_37-2);}.cls-95{fill:url(#_ÂÁ_Ï_ÌÌ_È_ËÂÌÚ_39-7);}.cls-96{fill:url(#_ÂÁ_Ï_ÌÌ_È_ËÂÌÚ_39-8);}.cls-97{fill:url(#_ÂÁ_Ï_ÌÌ_È_ËÂÌÚ_39-9);}.cls-98{fill:url(#_ÂÁ_Ï_ÌÌ_È_ËÂÌÚ_37-3);}.cls-99{fill:url(#_ÂÁ_Ï_ÌÌ_È_ËÂÌÚ_39-10);}.cls-100{fill:url(#_ÂÁ_Ï_ÌÌ_È_ËÂÌÚ_39-11);}.cls-101{fill:url(#_ÂÁ_Ï_ÌÌ_È_ËÂÌÚ_39-12);}.cls-102{fill:url(#_ÂÁ_Ï_ÌÌ_È_ËÂÌÚ_39-13);}.cls-103{fill:url(#_ÂÁ_Ï_ÌÌ_È_ËÂÌÚ_39-14);}.cls-104{fill:url(#_ÂÁ_Ï_ÌÌ_È_ËÂÌÚ_39-15);}.cls-105{fill:url(#_ÂÁ_Ï_ÌÌ_È_ËÂÌÚ_39-16);}.cls-106{fill:url(#_ÂÁ_Ï_ÌÌ_È_ËÂÌÚ_39-17);}.cls-107{fill:url(#_ÂÁ_Ï_ÌÌ_È_ËÂÌÚ_39-18);}.cls-108{fill:url(#_ÂÁ_Ï_ÌÌ_È_ËÂÌÚ_39-19);}.cls-109{fill:url(#_ÂÁ_Ï_ÌÌ_È_ËÂÌÚ_37-4);}.cls-110{fill:url(#_ÂÁ_Ï_ÌÌ_È_ËÂÌÚ_39-20);}.cls-111{fill:url(#_ÂÁ_Ï_ÌÌ_È_ËÂÌÚ_39-21);}.cls-112{fill:url(#_ÂÁ_Ï_ÌÌ_È_ËÂÌÚ_37-5);}.cls-113{fill:url(#_ÂÁ_Ï_ÌÌ_È_ËÂÌÚ_39-22);}.cls-114{fill:url(#_ÂÁ_Ï_ÌÌ_È_ËÂÌÚ_39-23);}.cls-115{fill:url(#_ÂÁ_Ï_ÌÌ_È_ËÂÌÚ_37-6);}.cls-116{fill:#efffe8;}.cls-117{fill:url(#_ÂÁ_Ï_ÌÌ_È_ËÂÌÚ_52);}.cls-118{fill:url(#_ÂÁ_Ï_ÌÌ_È_ËÂÌÚ_16);}.cls-119{fill:url(#_ÂÁ_Ï_ÌÌ_È_ËÂÌÚ_52-2);}.cls-120{fill:url(#_ÂÁ_Ï_ÌÌ_È_ËÂÌÚ_5-16);}.cls-121{fill:url(#_ÂÁ_Ï_ÌÌ_È_ËÂÌÚ_5-17);}.cls-122{fill:url(#_ÂÁ_Ï_ÌÌ_È_ËÂÌÚ_5-18);}.cls-123{fill:url(#_ÂÁ_Ï_ÌÌ_È_ËÂÌÚ_5-19);}.cls-124{fill:url(#_ÂÁ_Ï_ÌÌ_È_ËÂÌÚ_5-20);}.cls-125{fill:url(#_ÂÁ_Ï_ÌÌ_È_ËÂÌÚ_13);}.cls-126{fill:url(#_ÂÁ_Ï_ÌÌ_È_ËÂÌÚ_13-2);}.cls-127{fill:url(#_ÂÁ_Ï_ÌÌ_È_ËÂÌÚ_13-3);}.cls-128{fill:url(#_ÂÁ_Ï_ÌÌ_È_ËÂÌÚ_13-4);}.cls-129{fill:url(#_ÂÁ_Ï_ÌÌ_È_ËÂÌÚ_13-5);}.cls-130{fill:url(#_ÂÁ_Ï_ÌÌ_È_ËÂÌÚ_13-6);}.cls-131{fill:url(#_ÂÁ_Ï_ÌÌ_È_ËÂÌÚ_52-3);}.cls-132{fill:url(#_ÂÁ_Ï_ÌÌ_È_ËÂÌÚ_16-2);}.cls-133{fill:url(#_ÂÁ_Ï_ÌÌ_È_ËÂÌÚ_52-4);}.cls-134{fill:url(#_ÂÁ_Ï_ÌÌ_È_ËÂÌÚ_5-21);}.cls-135{fill:url(#_ÂÁ_Ï_ÌÌ_È_ËÂÌÚ_5-22);}.cls-136{fill:url(#_ÂÁ_Ï_ÌÌ_È_ËÂÌÚ_5-23);}.cls-137{fill:url(#_ÂÁ_Ï_ÌÌ_È_ËÂÌÚ_5-24);}.cls-138{fill:url(#_ÂÁ_Ï_ÌÌ_È_ËÂÌÚ_5-25);}.cls-139{fill:url(#_ÂÁ_Ï_ÌÌ_È_ËÂÌÚ_13-7);}.cls-140{fill:url(#_ÂÁ_Ï_ÌÌ_È_ËÂÌÚ_13-8);}.cls-141{fill:url(#_ÂÁ_Ï_ÌÌ_È_ËÂÌÚ_13-9);}.cls-142{fill:url(#_ÂÁ_Ï_ÌÌ_È_ËÂÌÚ_13-10);}.cls-143{fill:url(#_ÂÁ_Ï_ÌÌ_È_ËÂÌÚ_13-11);}.cls-144{fill:url(#_ÂÁ_Ï_ÌÌ_È_ËÂÌÚ_13-12);}</style><clipPath id="clip-path" transform="translate(26.14)"><rect class="cls-1" y="48" width="390" height="193.54"/></clipPath><linearGradient id="_ÂÁ_Ï_ÌÌ_È_ËÂÌÚ_5" x1="198.01" y1="164.32" x2="198.01" y2="361.61" gradientUnits="userSpaceOnUse"><stop offset="0" stop-color="#aae0f2"/><stop offset="1" stop-color="#425985"/></linearGradient><linearGradient id="_ÂÁ_Ï_ÌÌ_È_ËÂÌÚ_5-2" x1="207.37" y1="140.67" x2="207.37" y2="348.62" xlink:href="#_ÂÁ_Ï_ÌÌ_È_ËÂÌÚ_5"/><linearGradient id="_ÂÁ_Ï_ÌÌ_È_ËÂÌÚ_5-3" x1="250.05" y1="142.18" x2="250.05" y2="346.8" xlink:href="#_ÂÁ_Ï_ÌÌ_È_ËÂÌÚ_5"/><linearGradient id="_ÂÁ_Ï_ÌÌ_È_ËÂÌÚ_5-4" x1="146.83" y1="145.12" x2="146.83" y2="341.54" xlink:href="#_ÂÁ_Ï_ÌÌ_È_ËÂÌÚ_5"/><linearGradient id="_ÂÁ_Ï_ÌÌ_È_ËÂÌÚ_5-5" x1="159.22" y1="143.15" x2="159.22" y2="345.16" xlink:href="#_ÂÁ_Ï_ÌÌ_È_ËÂÌÚ_5"/><linearGradient id="_ÂÁ_Ï_ÌÌ_È_ËÂÌÚ_5-6" x1="176.8" y1="141.45" x2="176.8" y2="347.76" xlink:href="#_ÂÁ_Ï_ÌÌ_È_ËÂÌÚ_5"/><linearGradient id="_ÂÁ_Ï_ÌÌ_È_ËÂÌÚ_5-7" x1="283.43" y1="141.94" x2="283.43" y2="346.62" xlink:href="#_ÂÁ_Ï_ÌÌ_È_ËÂÌÚ_5"/><linearGradient id="_ÂÁ_Ï_ÌÌ_È_ËÂÌÚ_5-8" x1="403.55" y1="142.83" x2="403.55" y2="344.52" xlink:href="#_ÂÁ_Ï_ÌÌ_È_ËÂÌÚ_5"/><linearGradient id="_ÂÁ_Ï_ÌÌ_È_ËÂÌÚ_5-9" x1="268.82" y1="140.63" x2="268.82" y2="348.58" xlink:href="#_ÂÁ_Ï_ÌÌ_È_ËÂÌÚ_5"/><linearGradient id="_ÂÁ_Ï_ÌÌ_È_ËÂÌÚ_5-10" x1="345.87" y1="143.13" x2="345.87" y2="346.66" xlink:href="#_ÂÁ_Ï_ÌÌ_È_ËÂÌÚ_5"/><linearGradient id="_ÂÁ_Ï_ÌÌ_È_ËÂÌÚ_5-11" x1="189.17" y1="142.07" x2="189.17" y2="347.37" xlink:href="#_ÂÁ_Ï_ÌÌ_È_ËÂÌÚ_5"/><linearGradient id="_ÂÁ_Ï_ÌÌ_È_ËÂÌÚ_5-12" x1="19.68" y1="136.94" x2="19.68" y2="352.77" xlink:href="#_ÂÁ_Ï_ÌÌ_È_ËÂÌÚ_5"/><linearGradient id="_ÂÁ_Ï_ÌÌ_È_ËÂÌÚ_5-13" x1="31.51" y1="141.19" x2="31.51" y2="348.16" xlink:href="#_ÂÁ_Ï_ÌÌ_È_ËÂÌÚ_5"/><linearGradient id="_ÂÁ_Ï_ÌÌ_È_ËÂÌÚ_5-14" x1="13.08" y1="141.99" x2="13.08" y2="347.33" xlink:href="#_ÂÁ_Ï_ÌÌ_È_ËÂÌÚ_5"/><linearGradient id="_ÂÁ_Ï_ÌÌ_È_ËÂÌÚ_5-15" x1="95.68" y1="138.6" x2="96.33" y2="272.08" xlink:href="#_ÂÁ_Ï_ÌÌ_È_ËÂÌÚ_5"/><radialGradient id="_ÂÁ_Ï_ÌÌ_È_ËÂÌÚ_208" cx="41.09" cy="72.69" r="202.91" gradientTransform="translate(-0.07 -8.69) scale(1.01 1.04)" gradientUnits="userSpaceOnUse"><stop offset="0.01" stop-color="#e48125"/><stop offset="0.99" stop-color="#9e1137"/></radialGradient><radialGradient id="_ÂÁ_Ï_ÌÌ_È_ËÂÌÚ_208-2" cx="35.68" cy="79.18" r="114.86" xlink:href="#_ÂÁ_Ï_ÌÌ_È_ËÂÌÚ_208"/><radialGradient id="_ÂÁ_Ï_ÌÌ_È_ËÂÌÚ_208-3" cx="35.67" cy="79.12" r="115.08" xlink:href="#_ÂÁ_Ï_ÌÌ_È_ËÂÌÚ_208"/><linearGradient id="_ÂÁ_Ï_ÌÌ_È_ËÂÌÚ_23" x1="-32.12" y1="54.37" x2="48.42" y2="166.31" gradientUnits="userSpaceOnUse"><stop offset="0" stop-color="#fce8b3"/><stop offset="1"/></linearGradient><linearGradient id="_ÂÁ_Ï_ÌÌ_È_ËÂÌÚ_23-2" x1="-17.27" y1="40.55" x2="65.94" y2="156.21" xlink:href="#_ÂÁ_Ï_ÌÌ_È_ËÂÌÚ_23"/><linearGradient id="_ÂÁ_Ï_ÌÌ_È_ËÂÌÚ_23-3" x1="-4.78" y1="33.82" x2="76.18" y2="146.36" xlink:href="#_ÂÁ_Ï_ÌÌ_È_ËÂÌÚ_23"/><linearGradient id="_ÂÁ_Ï_ÌÌ_È_ËÂÌÚ_23-4" x1="6.29" y1="29.4" x2="83.67" y2="136.96" xlink:href="#_ÂÁ_Ï_ÌÌ_È_ËÂÌÚ_23"/><linearGradient id="_ÂÁ_Ï_ÌÌ_È_ËÂÌÚ_23-5" x1="14.72" y1="23.49" x2="92.27" y2="131.29" xlink:href="#_ÂÁ_Ï_ÌÌ_È_ËÂÌÚ_23"/><linearGradient id="_ÂÁ_Ï_ÌÌ_È_ËÂÌÚ_23-6" x1="23.83" y1="15.44" x2="102.35" y2="124.58" xlink:href="#_ÂÁ_Ï_ÌÌ_È_ËÂÌÚ_23"/><linearGradient id="_ÂÁ_Ï_ÌÌ_È_ËÂÌÚ_23-7" x1="27.69" y1="13.56" x2="105.8" y2="122.14" xlink:href="#_ÂÁ_Ï_ÌÌ_È_ËÂÌÚ_23"/><linearGradient id="_ÂÁ_Ï_ÌÌ_È_ËÂÌÚ_23-8" x1="28.35" y1="11.4" x2="107.57" y2="121.51" xlink:href="#_ÂÁ_Ï_ÌÌ_È_ËÂÌÚ_23"/><linearGradient id="_ÂÁ_Ï_ÌÌ_È_ËÂÌÚ_23-9" x1="-18.93" y1="49.09" x2="57.91" y2="155.9" xlink:href="#_ÂÁ_Ï_ÌÌ_È_ËÂÌÚ_23"/><linearGradient id="_ÂÁ_Ï_ÌÌ_È_ËÂÌÚ_23-10" x1="-35.9" y1="57.98" x2="43.94" y2="168.97" xlink:href="#_ÂÁ_Ï_ÌÌ_È_ËÂÌÚ_23"/><linearGradient id="_ÂÁ_Ï_ÌÌ_È_ËÂÌÚ_23-11" x1="-31.92" y1="57.17" x2="46.68" y2="166.41" xlink:href="#_ÂÁ_Ï_ÌÌ_È_ËÂÌÚ_23"/><linearGradient id="_ÂÁ_Ï_ÌÌ_È_ËÂÌÚ_23-12" x1="-27.2" y1="51.8" x2="52.49" y2="162.56" xlink:href="#_ÂÁ_Ï_ÌÌ_È_ËÂÌÚ_23"/><linearGradient id="_ÂÁ_Ï_ÌÌ_È_ËÂÌÚ_23-13" x1="47.75" y1="68.12" x2="63.21" y2="145.11" xlink:href="#_ÂÁ_Ï_ÌÌ_È_ËÂÌÚ_23"/><linearGradient id="_ÂÁ_Ï_ÌÌ_È_ËÂÌÚ_23-14" x1="59.65" y1="64.31" x2="75.52" y2="143.32" xlink:href="#_ÂÁ_Ï_ÌÌ_È_ËÂÌÚ_23"/><linearGradient id="_ÂÁ_Ï_ÌÌ_È_ËÂÌÚ_23-15" x1="69.62" y1="63.67" x2="85.09" y2="140.73" xlink:href="#_ÂÁ_Ï_ÌÌ_È_ËÂÌÚ_23"/><radialGradient id="_ÂÁ_Ï_ÌÌ_È_ËÂÌÚ_208-4" cx="35.06" cy="81.59" r="113.37" xlink:href="#_ÂÁ_Ï_ÌÌ_È_ËÂÌÚ_208"/><radialGradient id="_ÂÁ_Ï_ÌÌ_È_ËÂÌÚ_208-5" cx="35.66" cy="79.17" r="114.96" xlink:href="#_ÂÁ_Ï_ÌÌ_È_ËÂÌÚ_208"/><radialGradient id="_ÂÁ_Ï_ÌÌ_È_ËÂÌÚ_208-6" cx="35.66" cy="79.17" r="114.96" xlink:href="#_ÂÁ_Ï_ÌÌ_È_ËÂÌÚ_208"/><radialGradient id="_ÂÁ_Ï_ÌÌ_È_ËÂÌÚ_208-7" cx="34.78" cy="82.52" r="112.65" xlink:href="#_ÂÁ_Ï_ÌÌ_È_ËÂÌÚ_208"/><radialGradient id="_ÂÁ_Ï_ÌÌ_È_ËÂÌÚ_208-8" cx="36.1" cy="77.97" r="115.74" xlink:href="#_ÂÁ_Ï_ÌÌ_È_ËÂÌÚ_208"/><radialGradient id="_ÂÁ_Ï_ÌÌ_È_ËÂÌÚ_208-9" cx="35.73" cy="77.66" r="116.26" xlink:href="#_ÂÁ_Ï_ÌÌ_È_ËÂÌÚ_208"/><radialGradient id="_ÂÁ_Ï_ÌÌ_È_ËÂÌÚ_208-10" cx="35.02" cy="79.66" r="114.94" xlink:href="#_ÂÁ_Ï_ÌÌ_È_ËÂÌÚ_208"/><radialGradient id="_ÂÁ_Ï_ÌÌ_È_ËÂÌÚ_208-11" cx="35.06" cy="79.64" r="115.01" xlink:href="#_ÂÁ_Ï_ÌÌ_È_ËÂÌÚ_208"/><radialGradient id="_ÂÁ_Ï_ÌÌ_È_ËÂÌÚ_208-12" cx="35.67" cy="79.17" r="114.95" xlink:href="#_ÂÁ_Ï_ÌÌ_È_ËÂÌÚ_208"/><radialGradient id="_ÂÁ_Ï_ÌÌ_È_ËÂÌÚ_208-13" cx="35.67" cy="79.17" r="114.95" xlink:href="#_ÂÁ_Ï_ÌÌ_È_ËÂÌÚ_208"/><radialGradient id="_ÂÁ_Ï_ÌÌ_È_ËÂÌÚ_208-14" cx="35.01" cy="79.56" r="115.27" xlink:href="#_ÂÁ_Ï_ÌÌ_È_ËÂÌÚ_208"/><radialGradient id="_ÂÁ_Ï_ÌÌ_È_ËÂÌÚ_208-15" cx="35.31" cy="79.63" r="114.76" xlink:href="#_ÂÁ_Ï_ÌÌ_È_ËÂÌÚ_208"/><radialGradient id="_ÂÁ_Ï_ÌÌ_È_ËÂÌÚ_208-16" cx="35.31" cy="78.52" r="115.95" xlink:href="#_ÂÁ_Ï_ÌÌ_È_ËÂÌÚ_208"/><radialGradient id="_ÂÁ_Ï_ÌÌ_È_ËÂÌÚ_208-17" cx="36.69" cy="79.28" r="113.84" xlink:href="#_ÂÁ_Ï_ÌÌ_È_ËÂÌÚ_208"/><radialGradient id="_ÂÁ_Ï_ÌÌ_È_ËÂÌÚ_208-18" cx="35.44" cy="79.42" r="114.91" xlink:href="#_ÂÁ_Ï_ÌÌ_È_ËÂÌÚ_208"/><radialGradient id="_ÂÁ_Ï_ÌÌ_È_ËÂÌÚ_208-19" cx="35.65" cy="78.32" r="116.36" xlink:href="#_ÂÁ_Ï_ÌÌ_È_ËÂÌÚ_208"/><radialGradient id="_ÂÁ_Ï_ÌÌ_È_ËÂÌÚ_208-20" cx="35.98" cy="79.67" r="114.06" xlink:href="#_ÂÁ_Ï_ÌÌ_È_ËÂÌÚ_208"/><radialGradient id="_ÂÁ_Ï_ÌÌ_È_ËÂÌÚ_208-21" cx="35.66" cy="79.17" r="114.96" xlink:href="#_ÂÁ_Ï_ÌÌ_È_ËÂÌÚ_208"/><radialGradient id="_ÂÁ_Ï_ÌÌ_È_ËÂÌÚ_208-22" cx="35.5" cy="79.01" r="115.26" xlink:href="#_ÂÁ_Ï_ÌÌ_È_ËÂÌÚ_208"/><radialGradient id="_ÂÁ_Ï_ÌÌ_È_ËÂÌÚ_208-23" cx="35.47" cy="79.68" r="114.62" xlink:href="#_ÂÁ_Ï_ÌÌ_È_ËÂÌÚ_208"/><radialGradient id="_ÂÁ_Ï_ÌÌ_È_ËÂÌÚ_208-24" cx="35.66" cy="79.16" r="114.97" xlink:href="#_ÂÁ_Ï_ÌÌ_È_ËÂÌÚ_208"/><radialGradient id="_ÂÁ_Ï_ÌÌ_È_ËÂÌÚ_208-25" cx="35.67" cy="79.17" r="114.95" xlink:href="#_ÂÁ_Ï_ÌÌ_È_ËÂÌÚ_208"/><radialGradient id="_ÂÁ_Ï_ÌÌ_È_ËÂÌÚ_208-26" cx="35.66" cy="79.17" r="114.95" xlink:href="#_ÂÁ_Ï_ÌÌ_È_ËÂÌÚ_208"/><radialGradient id="_ÂÁ_Ï_ÌÌ_È_ËÂÌÚ_208-27" cx="35.66" cy="79.17" r="114.96" xlink:href="#_ÂÁ_Ï_ÌÌ_È_ËÂÌÚ_208"/><radialGradient id="_ÂÁ_Ï_ÌÌ_È_ËÂÌÚ_208-28" cx="35.66" cy="78.71" r="116.72" xlink:href="#_ÂÁ_Ï_ÌÌ_È_ËÂÌÚ_208"/><radialGradient id="_ÂÁ_Ï_ÌÌ_È_ËÂÌÚ_208-29" cx="35.68" cy="79.09" r="115.25" xlink:href="#_ÂÁ_Ï_ÌÌ_È_ËÂÌÚ_208"/><radialGradient id="_ÂÁ_Ï_ÌÌ_È_ËÂÌÚ_208-30" cx="35.68" cy="78.83" r="116.44" xlink:href="#_ÂÁ_Ï_ÌÌ_È_ËÂÌÚ_208"/><radialGradient id="_ÂÁ_Ï_ÌÌ_È_ËÂÌÚ_208-31" cx="35.62" cy="79.3" r="114.41" xlink:href="#_ÂÁ_Ï_ÌÌ_È_ËÂÌÚ_208"/><radialGradient id="_ÂÁ_Ï_ÌÌ_È_ËÂÌÚ_208-32" cx="35.67" cy="79.42" r="113.72" xlink:href="#_ÂÁ_Ï_ÌÌ_È_ËÂÌÚ_208"/><radialGradient id="_ÂÁ_Ï_ÌÌ_È_ËÂÌÚ_208-33" cx="35.83" cy="79.12" r="114.94" xlink:href="#_ÂÁ_Ï_ÌÌ_È_ËÂÌÚ_208"/><radialGradient id="_ÂÁ_Ï_ÌÌ_È_ËÂÌÚ_208-34" cx="35.7" cy="78.75" r="115.97" xlink:href="#_ÂÁ_Ï_ÌÌ_È_ËÂÌÚ_208"/><radialGradient id="_ÂÁ_Ï_ÌÌ_È_ËÂÌÚ_208-35" cx="35.62" cy="79.26" r="114.75" xlink:href="#_ÂÁ_Ï_ÌÌ_È_ËÂÌÚ_208"/><radialGradient id="_ÂÁ_Ï_ÌÌ_È_ËÂÌÚ_208-36" cx="35.65" cy="80.65" r="111.49" xlink:href="#_ÂÁ_Ï_ÌÌ_È_ËÂÌÚ_208"/><radialGradient id="_ÂÁ_Ï_ÌÌ_È_ËÂÌÚ_208-37" cx="35.93" cy="79.17" r="114.63" xlink:href="#_ÂÁ_Ï_ÌÌ_È_ËÂÌÚ_208"/><radialGradient id="_ÂÁ_Ï_ÌÌ_È_ËÂÌÚ_208-38" cx="35.58" cy="78.93" r="115.58" xlink:href="#_ÂÁ_Ï_ÌÌ_È_ËÂÌÚ_208"/><radialGradient id="_ÂÁ_Ï_ÌÌ_È_ËÂÌÚ_208-39" cx="34.74" cy="81.58" r="110.55" xlink:href="#_ÂÁ_Ï_ÌÌ_È_ËÂÌÚ_208"/><radialGradient id="_ÂÁ_Ï_ÌÌ_È_ËÂÌÚ_208-40" cx="35.47" cy="78.81" r="115.88" xlink:href="#_ÂÁ_Ï_ÌÌ_È_ËÂÌÚ_208"/><radialGradient id="_ÂÁ_Ï_ÌÌ_È_ËÂÌÚ_208-41" cx="35.96" cy="79.04" r="114.56" xlink:href="#_ÂÁ_Ï_ÌÌ_È_ËÂÌÚ_208"/><radialGradient id="_ÂÁ_Ï_ÌÌ_È_ËÂÌÚ_208-42" cx="35.7" cy="80" r="113.66" xlink:href="#_ÂÁ_Ï_ÌÌ_È_ËÂÌÚ_208"/><radialGradient id="_ÂÁ_Ï_ÌÌ_È_ËÂÌÚ_208-43" cx="35.65" cy="80.19" r="110.34" xlink:href="#_ÂÁ_Ï_ÌÌ_È_ËÂÌÚ_208"/><radialGradient id="_ÂÁ_Ï_ÌÌ_È_ËÂÌÚ_208-44" cx="35.58" cy="79.32" r="114.42" xlink:href="#_ÂÁ_Ï_ÌÌ_È_ËÂÌÚ_208"/><radialGradient id="_ÂÁ_Ï_ÌÌ_È_ËÂÌÚ_208-45" cx="35.66" cy="79.22" r="114.56" xlink:href="#_ÂÁ_Ï_ÌÌ_È_ËÂÌÚ_208"/><radialGradient id="_ÂÁ_Ï_ÌÌ_È_ËÂÌÚ_208-46" cx="35.59" cy="79.94" r="111.67" xlink:href="#_ÂÁ_Ï_ÌÌ_È_ËÂÌÚ_208"/><radialGradient id="_ÂÁ_Ï_ÌÌ_È_ËÂÌÚ_208-47" cx="35.02" cy="79.84" r="115.07" xlink:href="#_ÂÁ_Ï_ÌÌ_È_ËÂÌÚ_208"/><radialGradient id="_ÂÁ_Ï_ÌÌ_È_ËÂÌÚ_208-48" cx="35.67" cy="79.17" r="114.95" xlink:href="#_ÂÁ_Ï_ÌÌ_È_ËÂÌÚ_208"/><linearGradient id="_ÂÁ_Ï_ÌÌ_È_ËÂÌÚ_23-16" x1="-14.88" y1="45.5" x2="51.57" y2="113.16" xlink:href="#_ÂÁ_Ï_ÌÌ_È_ËÂÌÚ_23"/><linearGradient id="_ÂÁ_Ï_ÌÌ_È_ËÂÌÚ_23-17" x1="-29.86" y1="60.35" x2="36.96" y2="128.39" xlink:href="#_ÂÁ_Ï_ÌÌ_È_ËÂÌÚ_23"/><linearGradient id="_ÂÁ_Ï_ÌÌ_È_ËÂÌÚ_23-18" x1="-1.06" y1="32.95" x2="65.12" y2="100.33" xlink:href="#_ÂÁ_Ï_ÌÌ_È_ËÂÌÚ_23"/><linearGradient id="_ÂÁ_Ï_ÌÌ_È_ËÂÌÚ_39" x1="3905.92" y1="46.03" x2="3877.33" y2="131.27" gradientTransform="matrix(-1, 0.02, 0.02, 1, 3975.5, -29.38)" gradientUnits="userSpaceOnUse"><stop offset="0.01" stop-color="#53cfba"/><stop offset="0.99" stop-color="#056785"/></linearGradient><linearGradient id="_ÂÁ_Ï_ÌÌ_È_ËÂÌÚ_37" x1="3909.25" y1="57.86" x2="3886.45" y2="95.81" gradientTransform="matrix(-1, 0.02, 0.02, 1, 3975.5, -29.38)" gradientUnits="userSpaceOnUse"><stop offset="0" stop-color="#9ea87d"/><stop offset="1"/></linearGradient><linearGradient id="_ÂÁ_Ï_ÌÌ_È_ËÂÌÚ_39-2" x1="3863.66" y1="81.22" x2="3863.89" y2="107.7" xlink:href="#_ÂÁ_Ï_ÌÌ_È_ËÂÌÚ_39"/><linearGradient id="_ÂÁ_Ï_ÌÌ_È_ËÂÌÚ_39-3" x1="3947.65" y1="70.77" x2="3884.65" y2="107.96" xlink:href="#_ÂÁ_Ï_ÌÌ_È_ËÂÌÚ_39"/><linearGradient id="_ÂÁ_Ï_ÌÌ_È_ËÂÌÚ_39-4" x1="3900.11" y1="123.45" x2="3891.26" y2="81.59" xlink:href="#_ÂÁ_Ï_ÌÌ_È_ËÂÌÚ_39"/><linearGradient id="_ÂÁ_Ï_ÌÌ_È_ËÂÌÚ_39-5" x1="3910.37" y1="98.17" x2="3863.56" y2="156.17" xlink:href="#_ÂÁ_Ï_ÌÌ_È_ËÂÌÚ_39"/><linearGradient id="_ÂÁ_Ï_ÌÌ_È_ËÂÌÚ_39-6" x1="3931.39" y1="123.66" x2="3869.12" y2="132.64" xlink:href="#_ÂÁ_Ï_ÌÌ_È_ËÂÌÚ_39"/><linearGradient id="_ÂÁ_Ï_ÌÌ_È_ËÂÌÚ_37-2" x1="3898.9" y1="96.17" x2="3883.23" y2="141.09" xlink:href="#_ÂÁ_Ï_ÌÌ_È_ËÂÌÚ_37"/><linearGradient id="_ÂÁ_Ï_ÌÌ_È_ËÂÌÚ_39-7" x1="3876.88" y1="157.01" x2="3891.01" y2="119.33" xlink:href="#_ÂÁ_Ï_ÌÌ_È_ËÂÌÚ_39"/><linearGradient id="_ÂÁ_Ï_ÌÌ_È_ËÂÌÚ_39-8" x1="3774.23" y1="100.67" x2="3819.91" y2="130.17" xlink:href="#_ÂÁ_Ï_ÌÌ_È_ËÂÌÚ_39"/><linearGradient id="_ÂÁ_Ï_ÌÌ_È_ËÂÌÚ_39-9" x1="3763.15" y1="91.08" x2="3816.03" y2="133.26" xlink:href="#_ÂÁ_Ï_ÌÌ_È_ËÂÌÚ_39"/><linearGradient id="_ÂÁ_Ï_ÌÌ_È_ËÂÌÚ_37-3" x1="3790.14" y1="83.8" x2="3792.64" y2="123.72" xlink:href="#_ÂÁ_Ï_ÌÌ_È_ËÂÌÚ_37"/><linearGradient id="_ÂÁ_Ï_ÌÌ_È_ËÂÌÚ_39-10" x1="3813.09" y1="131.71" x2="3797.37" y2="108.25" xlink:href="#_ÂÁ_Ï_ÌÌ_È_ËÂÌÚ_39"/><linearGradient id="_ÂÁ_Ï_ÌÌ_È_ËÂÌÚ_39-11" x1="3796.17" y1="69.48" x2="3842.8" y2="131.22" xlink:href="#_ÂÁ_Ï_ÌÌ_È_ËÂÌÚ_39"/><linearGradient id="_ÂÁ_Ï_ÌÌ_È_ËÂÌÚ_39-12" x1="3781.57" y1="56.8" x2="3846.08" y2="124" xlink:href="#_ÂÁ_Ï_ÌÌ_È_ËÂÌÚ_39"/><linearGradient id="_ÂÁ_Ï_ÌÌ_È_ËÂÌÚ_39-13" x1="3773.38" y1="63.58" x2="3839.77" y2="132.75" xlink:href="#_ÂÁ_Ï_ÌÌ_È_ËÂÌÚ_39"/><linearGradient id="_ÂÁ_Ï_ÌÌ_È_ËÂÌÚ_39-14" x1="3770.66" y1="67.07" x2="3836.52" y2="135.68" xlink:href="#_ÂÁ_Ï_ÌÌ_È_ËÂÌÚ_39"/><linearGradient id="_ÂÁ_Ï_ÌÌ_È_ËÂÌÚ_39-15" x1="3829.09" y1="54.98" x2="3874.82" y2="138.47" xlink:href="#_ÂÁ_Ï_ÌÌ_È_ËÂÌÚ_39"/><linearGradient id="_ÂÁ_Ï_ÌÌ_È_ËÂÌÚ_39-16" x1="3776.27" y1="40.54" x2="3914.72" y2="86.54" xlink:href="#_ÂÁ_Ï_ÌÌ_È_ËÂÌÚ_39"/><linearGradient id="_ÂÁ_Ï_ÌÌ_È_ËÂÌÚ_39-17" x1="3771.8" y1="54.4" x2="3910.22" y2="100.39" xlink:href="#_ÂÁ_Ï_ÌÌ_È_ËÂÌÚ_39"/><linearGradient id="_ÂÁ_Ï_ÌÌ_È_ËÂÌÚ_39-18" x1="3745.86" y1="75.54" x2="3884.44" y2="121.59" xlink:href="#_ÂÁ_Ï_ÌÌ_È_ËÂÌÚ_39"/><linearGradient id="_ÂÁ_Ï_ÌÌ_È_ËÂÌÚ_39-19" x1="3840.16" y1="77.51" x2="3876.76" y2="154.16" xlink:href="#_ÂÁ_Ï_ÌÌ_È_ËÂÌÚ_39"/><linearGradient id="_ÂÁ_Ï_ÌÌ_È_ËÂÌÚ_37-4" x1="3840.41" y1="5.62" x2="3831.08" y2="103.39" xlink:href="#_ÂÁ_Ï_ÌÌ_È_ËÂÌÚ_37"/><linearGradient id="_ÂÁ_Ï_ÌÌ_È_ËÂÌÚ_39-20" x1="3823.27" y1="80.48" x2="3872.26" y2="142.99" xlink:href="#_ÂÁ_Ï_ÌÌ_È_ËÂÌÚ_39"/><linearGradient id="_ÂÁ_Ï_ÌÌ_È_ËÂÌÚ_39-21" x1="3811.05" y1="91.61" x2="3859.32" y2="153.2" xlink:href="#_ÂÁ_Ï_ÌÌ_È_ËÂÌÚ_39"/><linearGradient id="_ÂÁ_Ï_ÌÌ_È_ËÂÌÚ_37-5" x1="3877.48" y1="43.6" x2="3840.63" y2="116.4" xlink:href="#_ÂÁ_Ï_ÌÌ_È_ËÂÌÚ_37"/><linearGradient id="_ÂÁ_Ï_ÌÌ_È_ËÂÌÚ_39-22" x1="3863.12" y1="133.17" x2="3857.84" y2="87.97" xlink:href="#_ÂÁ_Ï_ÌÌ_È_ËÂÌÚ_39"/><linearGradient id="_ÂÁ_Ï_ÌÌ_È_ËÂÌÚ_39-23" x1="3901.1" y1="165.04" x2="3869.29" y2="144.26" xlink:href="#_ÂÁ_Ï_ÌÌ_È_ËÂÌÚ_39"/><linearGradient id="_ÂÁ_Ï_ÌÌ_È_ËÂÌÚ_37-6" x1="3803.95" y1="44.63" x2="3803.73" y2="106.75" xlink:href="#_ÂÁ_Ï_ÌÌ_È_ËÂÌÚ_37"/><linearGradient id="_ÂÁ_Ï_ÌÌ_È_ËÂÌÚ_52" x1="-388.58" y1="550.88" x2="-429.64" y2="636.59" gradientTransform="translate(614.67 -308.95) rotate(9.72)" gradientUnits="userSpaceOnUse"><stop offset="0" stop-color="#54719c"/><stop offset="1" stop-color="#132547"/></linearGradient><linearGradient id="_ÂÁ_Ï_ÌÌ_È_ËÂÌÚ_16" x1="-367.23" y1="497.57" x2="-427.55" y2="594.72" gradientTransform="translate(614.67 -308.95) rotate(9.72)" gradientUnits="userSpaceOnUse"><stop offset="0" stop-color="#445b91"/><stop offset="1"/></linearGradient><linearGradient id="_ÂÁ_Ï_ÌÌ_È_ËÂÌÚ_52-2" x1="-369.99" y1="535.96" x2="-445.57" y2="623.19" xlink:href="#_ÂÁ_Ï_ÌÌ_È_ËÂÌÚ_52"/><linearGradient id="_ÂÁ_Ï_ÌÌ_È_ËÂÌÚ_5-16" x1="-369.93" y1="531.36" x2="-416.04" y2="620.22" gradientTransform="translate(614.67 -308.95) rotate(9.72)" xlink:href="#_ÂÁ_Ï_ÌÌ_È_ËÂÌÚ_5"/><linearGradient id="_ÂÁ_Ï_ÌÌ_È_ËÂÌÚ_5-17" x1="-346.26" y1="520.59" x2="-419.19" y2="607.7" gradientTransform="translate(614.67 -308.95) rotate(9.72)" xlink:href="#_ÂÁ_Ï_ÌÌ_È_ËÂÌÚ_5"/><linearGradient id="_ÂÁ_Ï_ÌÌ_È_ËÂÌÚ_5-18" x1="-351.16" y1="516.17" x2="-424.21" y2="603.42" gradientTransform="translate(614.67 -308.95) rotate(9.72)" xlink:href="#_ÂÁ_Ï_ÌÌ_È_ËÂÌÚ_5"/><linearGradient id="_ÂÁ_Ï_ÌÌ_È_ËÂÌÚ_5-19" x1="-336.65" y1="528.28" x2="-409.91" y2="615.79" gradientTransform="translate(614.67 -308.95) rotate(9.72)" xlink:href="#_ÂÁ_Ï_ÌÌ_È_ËÂÌÚ_5"/><linearGradient id="_ÂÁ_Ï_ÌÌ_È_ËÂÌÚ_5-20" x1="-353.67" y1="512.56" x2="-373.33" y2="542.17" gradientTransform="translate(614.67 -308.95) rotate(9.72)" xlink:href="#_ÂÁ_Ï_ÌÌ_È_ËÂÌÚ_5"/><linearGradient id="_ÂÁ_Ï_ÌÌ_È_ËÂÌÚ_13" x1="-361.5" y1="528.78" x2="-379.47" y2="571.55" gradientTransform="translate(614.67 -308.95) rotate(9.72)" gradientUnits="userSpaceOnUse"><stop offset="0" stop-color="#9fafd6"/><stop offset="1"/></linearGradient><linearGradient id="_ÂÁ_Ï_ÌÌ_È_ËÂÌÚ_13-2" x1="-384" y1="536.49" x2="-399.45" y2="577.5" xlink:href="#_ÂÁ_Ï_ÌÌ_È_ËÂÌÚ_13"/><linearGradient id="_ÂÁ_Ï_ÌÌ_È_ËÂÌÚ_13-3" x1="-400.18" y1="541.15" x2="-414.54" y2="577.06" xlink:href="#_ÂÁ_Ï_ÌÌ_È_ËÂÌÚ_13"/><linearGradient id="_ÂÁ_Ï_ÌÌ_È_ËÂÌÚ_13-4" x1="-361.2" y1="533.27" x2="-382.15" y2="594.26" xlink:href="#_ÂÁ_Ï_ÌÌ_È_ËÂÌÚ_13"/><linearGradient id="_ÂÁ_Ï_ÌÌ_È_ËÂÌÚ_13-5" x1="-377.59" y1="528.94" x2="-397.99" y2="588.33" xlink:href="#_ÂÁ_Ï_ÌÌ_È_ËÂÌÚ_13"/><linearGradient id="_ÂÁ_Ï_ÌÌ_È_ËÂÌÚ_13-6" x1="-387.13" y1="521.88" x2="-409.1" y2="585.82" xlink:href="#_ÂÁ_Ï_ÌÌ_È_ËÂÌÚ_13"/><linearGradient id="_ÂÁ_Ï_ÌÌ_È_ËÂÌÚ_52-3" x1="3016.11" y1="-22.19" x2="2985.29" y2="42.14" gradientTransform="matrix(-0.99, 0.17, 0.17, 0.99, 3041.15, -308.95)" xlink:href="#_ÂÁ_Ï_ÌÌ_È_ËÂÌÚ_52"/><linearGradient id="_ÂÁ_Ï_ÌÌ_È_ËÂÌÚ_16-2" x1="3032.06" y1="-62.07" x2="2986.97" y2="10.55" gradientTransform="matrix(-0.99, 0.17, 0.17, 0.99, 3041.15, -308.95)" xlink:href="#_ÂÁ_Ï_ÌÌ_È_ËÂÌÚ_16"/><linearGradient id="_ÂÁ_Ï_ÌÌ_È_ËÂÌÚ_52-4" x1="3030.06" y1="-33.38" x2="2973.35" y2="32.06" gradientTransform="matrix(-0.99, 0.17, 0.17, 0.99, 3041.15, -308.95)" xlink:href="#_ÂÁ_Ï_ÌÌ_È_ËÂÌÚ_52"/><linearGradient id="_ÂÁ_Ï_ÌÌ_È_ËÂÌÚ_5-21" x1="3030.1" y1="-36.83" x2="2995.54" y2="29.78" gradientTransform="matrix(-0.99, 0.17, 0.17, 0.99, 3041.15, -308.95)" xlink:href="#_ÂÁ_Ï_ÌÌ_È_ËÂÌÚ_5"/><linearGradient id="_ÂÁ_Ï_ÌÌ_È_ËÂÌÚ_5-22" x1="3047.86" y1="-44.91" x2="2993.15" y2="20.44" gradientTransform="matrix(-0.99, 0.17, 0.17, 0.99, 3041.15, -308.95)" xlink:href="#_ÂÁ_Ï_ÌÌ_È_ËÂÌÚ_5"/><linearGradient id="_ÂÁ_Ï_ÌÌ_È_ËÂÌÚ_5-23" x1="3044.17" y1="-48.21" x2="2989.41" y2="17.2" gradientTransform="matrix(-0.99, 0.17, 0.17, 0.99, 3041.15, -308.95)" xlink:href="#_ÂÁ_Ï_ÌÌ_È_ËÂÌÚ_5"/><linearGradient id="_ÂÁ_Ï_ÌÌ_È_ËÂÌÚ_5-24" x1="3055.06" y1="-39.15" x2="3000.1" y2="26.5" gradientTransform="matrix(-0.99, 0.17, 0.17, 0.99, 3041.15, -308.95)" xlink:href="#_ÂÁ_Ï_ÌÌ_È_ËÂÌÚ_5"/><linearGradient id="_ÂÁ_Ï_ÌÌ_È_ËÂÌÚ_5-25" x1="3042.29" y1="-50.94" x2="3027.55" y2="-28.72" gradientTransform="matrix(-0.99, 0.17, 0.17, 0.99, 3041.15, -308.95)" xlink:href="#_ÂÁ_Ï_ÌÌ_È_ËÂÌÚ_5"/><linearGradient id="_ÂÁ_Ï_ÌÌ_È_ËÂÌÚ_13-7" x1="3036.43" y1="-38.77" x2="3022.94" y2="-6.68" gradientTransform="matrix(-0.99, 0.17, 0.17, 0.99, 3041.15, -308.95)" xlink:href="#_ÂÁ_Ï_ÌÌ_È_ËÂÌÚ_13"/><linearGradient id="_ÂÁ_Ï_ÌÌ_È_ËÂÌÚ_13-8" x1="3019.56" y1="-32.97" x2="3007.98" y2="-2.22" gradientTransform="matrix(-0.99, 0.17, 0.17, 0.99, 3041.15, -308.95)" xlink:href="#_ÂÁ_Ï_ÌÌ_È_ËÂÌÚ_13"/><linearGradient id="_ÂÁ_Ï_ÌÌ_È_ËÂÌÚ_13-9" x1="3007.41" y1="-29.49" x2="2996.63" y2="-2.55" gradientTransform="matrix(-0.99, 0.17, 0.17, 0.99, 3041.15, -308.95)" xlink:href="#_ÂÁ_Ï_ÌÌ_È_ËÂÌÚ_13"/><linearGradient id="_ÂÁ_Ï_ÌÌ_È_ËÂÌÚ_13-10" x1="3036.65" y1="-35.4" x2="3020.94" y2="10.36" gradientTransform="matrix(-0.99, 0.17, 0.17, 0.99, 3041.15, -308.95)" xlink:href="#_ÂÁ_Ï_ÌÌ_È_ËÂÌÚ_13"/><linearGradient id="_ÂÁ_Ï_ÌÌ_È_ËÂÌÚ_13-11" x1="3024.36" y1="-38.6" x2="3009.07" y2="5.89" gradientTransform="matrix(-0.99, 0.17, 0.17, 0.99, 3041.15, -308.95)" xlink:href="#_ÂÁ_Ï_ÌÌ_È_ËÂÌÚ_13"/><linearGradient id="_ÂÁ_Ï_ÌÌ_È_ËÂÌÚ_13-12" x1="3017.2" y1="-43.95" x2="3000.72" y2="4.03" gradientTransform="matrix(-0.99, 0.17, 0.17, 0.99, 3041.15, -308.95)" xlink:href="#_ÂÁ_Ï_ÌÌ_È_ËÂÌÚ_13"/></defs><g class="cls-2"><g id="Layer_2" data-name="Layer 2"><g id="bg2"><g class="cls-3"><path class="cls-4" d="M254.58,44.77c-1-1-3.49,0-2.63,1.59C253,48,256.12,46.54,254.58,44.77Z" transform="translate(26.14)"/><path class="cls-4" d="M369.2,38.77a2.09,2.09,0,0,0-1.09,2.42c-3.76-2.08-9.33.47-8.15,5.24,1.82,7.08,14.11,2.65,9.7-3.84C372.81,43,372.12,37.72,369.2,38.77Z" transform="translate(26.14)"/><path class="cls-4" d="M44.12,51.93a1.51,1.51,0,0,0,0,3A1.51,1.51,0,0,0,44.12,51.93Z" transform="translate(26.14)"/><path class="cls-4" d="M35.57,47.59c-.84-3.17-5.8-1.82-4.89,1.35S36.47,50.76,35.57,47.59Z" transform="translate(26.14)"/><path class="cls-4" d="M322.16.05c-4.57.86-5.46,9.49,0,9.26C326.3,9,327.17-.82,322.16.05Z" transform="translate(26.14)"/><path class="cls-4" d="M337.64,35.24a1.72,1.72,0,0,0-.06,3.32C340.76,39.4,340.64,34.73,337.64,35.24Z" transform="translate(26.14)"/><path class="cls-4" d="M372.47,11.87c-1.8,1.15.39,3.27,1.85,2.24S373.75,11.16,372.47,11.87Z" transform="translate(26.14)"/><g class="cls-5"><path class="cls-6" d="M394.69,183.73c38.41-.33,25.62-.76,24.76,45.35-.24,3.64-1.26,39-1.34,39-147.53-7.2-294.93,15.66-442.42-.72a436.83,436.83,0,0,0-.7-48.55c.4-6-3.61-18.65,1.45-21.68,13.08-8,26.4-9.84,38.86-.85,34.08-1.2,68.41-3.08,102.38,4.28a130.29,130.29,0,0,0,37.74,3.48c37,4.2,74.71,7.12,111.8.89,17-2.48,33.51-9.73,50.46-12.07,13.94-1.75,28,.51,41.92-2.08C371.33,188.63,382.87,183,394.69,183.73Z" transform="translate(26.14)"/><path class="cls-7" d="M438.62,245c-41.84-7-84.48-6.49-126.64-5.33,31.56-4.41,63-11.51,94.85-11.31,8.77-.23,17.49,1.9,26.22,2.25,7.57-8.16-21.71-7.84-25.05-8.32-.16-4.6-7.63-5.14-10.55-5.74-2.14-1.1-8,3.45-4.62,5.68-24.16.77-48.08,6-72.07,9.4-31.91.81-63.83,1.24-95.74,1.49,3.15-4.1-8.5-3-8.87,0-110.45,1.39,48.66,3.73,76.21,2.22-48.76,5.78-97.77,6.91-146.72,5.59,4.61-3.13-9.08-3.92-4.94-.1-55-.9-109.95-4.78-164.85-9.06,40.35,7.94,87.1,9,129.67,11.69-2.26.67-7.37-.19-8,2.76,4.47,7.24,13.92,2.67,19.47,1.67,2.5-1.85-1.94-3.68-3.16-4.1,54.52.35,109,6.21,163.39.06,21.11.53,42.54-2.06,63.78-1.63.94,4.13,9.23,2.1,11.7.06q33.87.38,67.67,3.59C422.81,245.59,441.29,250,438.62,245Z" transform="translate(26.14)"/><path class="cls-8" d="M251.73,230c-1-.95-5-.48-3,1.43C249.56,231.62,252.8,231.72,251.73,230Z" transform="translate(26.14)"/><path class="cls-9" d="M153.54,217.92c-1.33-.91-16.41-1.35-13.33,2.16C142.31,221.89,156.08,223.66,153.54,217.92Z" transform="translate(26.14)"/><path class="cls-10" d="M161.41,222.7c-1.33-.29-2.64-.11-3.95-.57C154,224.18,163.65,226.16,161.41,222.7Z" transform="translate(26.14)"/><path class="cls-11" d="M315.52,213.18c-14.32,1.38-28.57,4.46-42.91,5.85,9.6-5.4-15.28-4.35-5.21.58-38.5,4.94-77.26,1.83-114.74-10.42-37.75-8.34-76.27-10.31-114.49-8.35-.67,0-.67,1.55,0,1.56,55-2.35,109.25,8,163.13,20.44,28.18,3.31,56.49.93,84.55-2.88C289.49,218.68,319.82,217.63,315.52,213.18Z" transform="translate(26.14)"/><path class="cls-12" d="M285.49,210.12c-1.15,0-5.46.53-4.11,2.73C282.3,213.13,286.81,211.57,285.49,210.12Z" transform="translate(26.14)"/><path class="cls-13" d="M405,204.16c-.79-1.87-4.26-1.56-2.38.85C403.34,205.43,405.33,205.81,405,204.16Z" transform="translate(26.14)"/><path class="cls-14" d="M328.11,259.88c-8.82-6.61-19.9-5-29.7-6.56-10.07-1-20.14-2-30.22-2.42-8.05-1.1-57.78,5.08-58.76,13.39,19.58,2.73,39.51-5.58,59.34-2.94C276.75,260,330.83,272,328.11,259.88Z" transform="translate(26.14)"/><path class="cls-15" d="M347.59,254.91c-.74-1.08-4.72-2.24-3.23.2C345.13,255.66,348.37,257.2,347.59,254.91Z" transform="translate(26.14)"/><path class="cls-16" d="M191.48,256.62c-1.55.47-5.12-2.43-5.17.91C186.71,263.21,194.07,259.39,191.48,256.62Z" transform="translate(26.14)"/><path class="cls-17" d="M24.12,240.24c-1.65-1.82-10.46-3-9,1.52C16.26,243.17,26.1,243.84,24.12,240.24Z" transform="translate(26.14)"/><path class="cls-18" d="M33.38,249.3a3.63,3.63,0,0,0-3.66-.27C28,251.78,34.77,252.64,33.38,249.3Z" transform="translate(26.14)"/><path class="cls-19" d="M15.42,242.76c-1.13-1.46-6.42-1-4.44,1.76C12.11,245.46,16.63,245.46,15.42,242.76Z" transform="translate(26.14)"/><path class="cls-20" d="M131.21,205.83c11-.81,31.66,9.21,8.9,13.24-10.17,1-20.56,1.2-30.79,2.32-9.71.91-18.43-4.62-27.83-1.58-7.12,2.18-14,2.72-21,.07-2.5-2.13-26-6.78-16.58-10.35C72.19,199.57,102,205.87,131.21,205.83Z" transform="translate(26.14)"/><path class="cls-21" d="M111.18,133c-.09,1.72-1.7,1.7-2.9,1.39-10.32-.79-10.19,14.28-6.84,20.88,8.23,14.22,9.92,18.35-8.48,19.3-8.51-5.61,9.6-23.18-13.1-34.1C48.73,127.85,59.78,161,49.94,160.15c-4.13-.24-5.81-3.59-3.61-7.29,1.7-3.48-.91-6.51-4.09-3.75-2.2,1.25-3.19,4.42-5.37,5.5-3.73-.59-8.19-3.1-8.6-7.48,7.56-9.71,25.2-3.17,22.84-11.47-6.89-6.45-18-2.22-23.9,3.74-1,1.19-2,2.69-3.36,2.67-3.32-.68-8.06-5-5.39-8.63,1.44-1.5,4.44-.83,5.07-3.29-.66-5.62-10.65-.19-12.53-5.93-1.25-4,1.46-10.64,5.57-11.68,3.39-.51,3.52,5.56,6.88,5.07,2.92-.8.05-2.91-.95-4.06-1.06-3.29,3.93-4.8,6.29-4.4a1.68,1.68,0,0,1,1.3,1.22,21,21,0,0,0,9.17,12.18c2.87,1.93,11.71,3.3,10.82-2.21-5.89-9.24-18.73-10-27.1-16.21-5-1.67.13-8.4,3.09-9.52,1.75.3,4,5.25,5.07,1.16.55-3.9-6.65-5.35-3.74-9.61,2-3.44,6-5.67,9.64-5.22,1.85,2.1,1.93,5.23,2.32,7.92.77,3.86,6.44,4.83,3.62-.06-1-1.41-2.65-3.77,0-4.32,3.28-1.24,10.78-1,9.45,4.15C49.27,94.71,48.15,105,55.62,108h0c3.23,2,10.65,4.47,10.55-1.87,0-4.13-4.63-5.81-5.45-9.62-.94-4.21,6.86-6.94,9.19-3.94,1,1.64-.36,3.62.11,5.36.78,2.32,2.83.88,2.43-1.14,0-2.93-1.66-5.28-2.75-7.73,3.76-5.52,17.63-.93,15.38,6.61-2.21,2.87-5.79,6.61-.14,8.08,2.17-1,1.25-5.44,4.47-5.28,11.87,2.3,3.5,8.25,0,14.08-3.12,5.69-4.64,19,3.53,20.37,1.18-2.19.22-4.76.82-7.11.81-3.74,3.71-6.49,4.4-10.28,0-2.58,1.77-4.55,4.14-3.12,11.24,7.76,1.9,7.27-.65,12.71C104.16,129.23,111.56,118.32,111.18,133Z" transform="translate(26.14)"/><path class="cls-22" d="M48.64,159.83l.09.07-.08,0Zm40.21-15.64c-4.79-11.94-20.95-15.78-30.47-7.74-4.82,5-4.42,22.25-8.44,23.7,5.71,1.28,5.52-15.77,9.59-19.31,10.51-8.11,30.68.72,32.39,14.68C92.54,151.5,90.79,147.65,88.85,144.19ZM110,126a2.17,2.17,0,0,0-.32-.44c-.93,2,.52,8.88-3.16,6.79-4.9-.42-8.4,6.56-10.09,10.7-2.66,9.09,8.64,15.16,8.28,24.16-.24,6.33-7.89,4.94-11.75,7.36,18.41-1,16.71-5.07,8.48-19.3-3.36-6.6-3.47-21.68,6.84-20.88C113,135.83,111.22,128.34,110,126ZM94.09,103.61c-1.09,1.53-3.78-.75-4.25,1.47C87.9,113,82.58,120.57,86,129c3.06,8.46,10.57,5.57,7.76-3.17-.58,2.35.37,4.91-.81,7.1-8.16-1.33-6.66-14.69-3.53-20.37,1.41-3.69,6.32-6,6.11-10.06A2.88,2.88,0,0,0,94.09,103.61ZM82.64,94.39c-2.6-1-2.23,1.6-3,3.37-1,1.81-3,3.75-1.34,5.88,2.16,2.22,7.78,3.4,7.81-1.12-.75,2.39-3.35.73-4.11-.76-1.09-3.34,3.87-4.67,3.35-8A14.67,14.67,0,0,1,82.64,94.39Zm-9.34-.11a5.54,5.54,0,0,0-2-2.22c1.37,1.6,2,10.3-1.24,5.9-.47-1.74.91-3.73-.1-5.36-.16,2.62-2.93,5.84-.61,8.07C73.53,103.16,75.52,97.49,73.3,94.28ZM46.12,147.14c-2.59-1.65-7.36.06-9.16,2.48-1.18,1.53.94,3.78-.09,5,2.8-1.43,5.85-9.24,9.6-5.65A3.75,3.75,0,0,0,46.12,147.14ZM48,131.87c-6.35-3.21-16-3.76-21.65,1.16-2.11,2.48-.24,8-4.2,8.4,3.53,2.49,5.22-3.51,8.07-4.75,6.22-3.7,14.92-6.86,20.91-1A8.06,8.06,0,0,0,48,131.87Zm3.36,5.29.13,0a2.7,2.7,0,0,0,0-.28A1.58,1.58,0,0,1,51.34,137.16Zm-26.15-9.53c-.61-11.43-7.88,1.37-13.36-2.15,2.67,3.85,11.06-.64,11.7,4.67A2.66,2.66,0,0,0,25.19,127.63Zm-.71-13a16.15,16.15,0,0,1-2-1c1,1.14,3.87,3.25.95,4-3.36.49-3.49-5.58-6.88-5.07,3.27.72,2.91,4.56,5.18,6.22C24.17,119.56,27.6,116.27,24.48,114.59Zm26.46,4.9c-3.54-9.16-14.41-9.93-21.5-14.37-1.84-1.34-2-4.94-4-5.68-1.11.8-1.3,2.45-2.2,3.33-1.78.6-1.85-1.26-2.09-2.54-2.41,5.11,16.73,10.44,20.42,13,12.05,4.79,11.22,15.1-2.29,9.37C42.47,125,52.63,125.83,50.94,119.49ZM31.56,89c-1.36-1.46-3,1.2-4.5.43,1,2.36,4.57,3.3,4.08,6.3C32.5,94.34,32.09,90.91,31.56,89Zm13,.3A6.46,6.46,0,0,0,41.47,86c.32,1.79,4.06,5.06,1.32,6.26-5.09-.94-2.74-8.09-5.62-11.21.69,2.45-.08,4.69-.45,7.1C36.5,92.77,46.33,96.06,44.53,89.34Zm7.84-2.15c-3.18,2.26-5.48,1.87-4.26,7-1.24,8-.59,11.13,7.51,13.85-8.93-3.83-4.86-14.27-3-21.21C52.56,86.94,52.47,87.07,52.37,87.19Zm49.51,37.44c1.12-2.51,3.9-3,5.45-4.93-2.32.55-4.86-1.55-6.16,1.23-3.31,5.38-.56,7.22,4.48,4.67C104.79,125.91,100.77,126.9,101.88,124.63Z" transform="translate(26.14)"/><path class="cls-23" d="M70.76,134c-3.06-3.79-8.72-1.06-12.54-3.29-3-2.49-1.29-8.69,2.76-8.45,2.7.78,4.11,4.45,6.68,5,.33-2.62-2.1-5.91-.61-8.72,1.5-3.06,7.14-2.08,7.77,1.15-.42,3.18-1.39,6.37-1.16,9.63,1.75-.86,1.62-3.41,3-4.77,2.34-3.75,7.84-2.42,7.43,2.33.27,1.56-.46,3.24-2.21,2.92a19,19,0,0,0-4.56,2,16.83,16.83,0,0,1,1.29,4.69c-2.88,1.13-5.52-.63-7.86-2.06C71,134.5,70.84,134.05,70.76,134Z" transform="translate(26.14)"/><path class="cls-24" d="M11.92,123.79c2.19,1.54,3.45-2.92,4.77-4.18,2.62-2.5.45-7.82-2.86-4.65C12.35,117.28,10.39,121.16,11.92,123.79Z" transform="translate(26.14)"/><path class="cls-25" d="M23.36,97.39c-3.91,5.52,3,1.41,2.51-1.43-1.41-.45-2.8,1.63-3.47,2.76Z" transform="translate(26.14)"/><path class="cls-26" d="M32.56,84.79c9.37-6.64-3.17-2.26-4.65,1.3C25.83,90.3,31.47,85.76,32.56,84.79Z" transform="translate(26.14)"/><path class="cls-27" d="M44.38,86.37c1.68.09,6.46,2.8,6.25-.23C49.81,83.84,39.45,84.23,44.38,86.37Z" transform="translate(26.14)"/><path class="cls-28" d="M61.93,94c-1.1,2.76,6.32.67,6.72-.86C68.57,90.16,63.1,92.22,61.93,94Z" transform="translate(26.14)"/><path class="cls-29" d="M72.15,89.67c2.5,1.19,14.56,5,11.1.65-2.79-2.37-8.31-3.85-11.61-2C70.84,88.74,71.05,89.15,72.15,89.67Z" transform="translate(26.14)"/><path class="cls-30" d="M87.9,101.5c1.65.38,4.27,1.69,5.7.45.66-2.42-3.35-3.75-5.07-2.62C87.91,99.67,86.87,101,87.9,101.5Z" transform="translate(26.14)"/><path class="cls-31" d="M104.51,118.25c2.51.89,1.88-1.86,1-3-2-3.44-9.48-4-3.9,1A8.43,8.43,0,0,0,104.51,118.25Z" transform="translate(26.14)"/><path class="cls-32" d="M24,112.36c1.37-.61,2.85-1,4.18-1.73,1.05-1-.73-1.22-1.32-1.15C25.64,109.23,20.62,112.74,24,112.36Z" transform="translate(26.14)"/><path class="cls-33" d="M20.18,138.2c.75-1.07,1.77-4,.14-4.75C17.32,132.85,18,137.58,20.18,138.2Z" transform="translate(26.14)"/><path class="cls-34" d="M31.48,145.15c.89-.89,5.4-2.48,3-.06-5.23,2.7-3,2.92-.89,6.8-1.73,1.13-3.87-2.37-4.55-3.9C29.23,146.7,30.42,145.83,31.48,145.15Z" transform="translate(26.14)"/><path class="cls-35" d="M46.17,157c-.06,1.32,2.29,2.87,2.67,1.17-1.13-1.61-.47-3.61-.83-5.42C47.32,150.75,45.94,156.34,46.17,157Z" transform="translate(26.14)"/><path class="cls-36" d="M57.73,130.2c2.1,1.23,4.5-5,4.15-6.82C59.7,119.13,54.62,127.11,57.73,130.2Z" transform="translate(26.14)"/><path class="cls-37" d="M66.91,119.38c.9,2.41,8.79,2.61,7.38-.92C72.76,116.25,67,115.91,66.91,119.38Z" transform="translate(26.14)"/><path class="cls-38" d="M79.82,123.74c.59,1.79,1.6,5.16,3.83,5,.82-1.88.31-5.27-1.78-6.07C81,122.35,79.68,122.54,79.82,123.74Z" transform="translate(26.14)"/><path class="cls-39" d="M104.89,167.73a.88.88,0,0,0-1.68.53C103.5,169.49,105.43,169,104.89,167.73Z" transform="translate(26.14)"/><path class="cls-40" d="M101.65,160.1c-1.53.42-.91,2.89.63,2.47A1.28,1.28,0,0,0,101.65,160.1Z" transform="translate(26.14)"/><path class="cls-41" d="M101.25,165.13c-.7.19-.41,1.32.29,1.13S102,164.93,101.25,165.13Z" transform="translate(26.14)"/><path class="cls-42" d="M101.63,156.09a1.45,1.45,0,0,0-2.26-.31C97.36,158.51,102.91,159.27,101.63,156.09Z" transform="translate(26.14)"/><path class="cls-43" d="M98.38,170c-.63-.39-1.21.64-.58,1S99,170.41,98.38,170Z" transform="translate(26.14)"/><path class="cls-44" d="M95.81,166.43c-.49-.54-1.21.46-.58.82C95.7,167.6,96.35,166.72,95.81,166.43Z" transform="translate(26.14)"/><path class="cls-45" d="M99.14,164.07c-.58-1.07-2.19-.11-1.58,1S99.75,165.12,99.14,164.07Z" transform="translate(26.14)"/><path class="cls-46" d="M96,145c-.67-1.22-2.49-.12-1.8,1.08S96.68,146.21,96,145Z" transform="translate(26.14)"/><path class="cls-47" d="M97.59,138.44a.58.58,0,0,0,.29,1.13A.58.58,0,0,0,97.59,138.44Z" transform="translate(26.14)"/><path class="cls-48" d="M94.69,141.12a.43.43,0,0,0,.21.83A.43.43,0,0,0,94.69,141.12Z" transform="translate(26.14)"/><path class="cls-49" d="M101.38,133c-.57-1-2.1-.1-1.52.92S102,134,101.38,133Z" transform="translate(26.14)"/><path class="cls-50" d="M85.22,137.25c-.47-.86-1.8-.09-1.32.77A.76.76,0,0,0,85.22,137.25Z" transform="translate(26.14)"/><path class="cls-51" d="M88.64,141.24c-.49-.47-1.42.31-.75.79C88.33,142.29,89.07,141.7,88.64,141.24Z" transform="translate(26.14)"/><path class="cls-52" d="M84.46,133.73c-.64-.31-.62.88,0,.79C84.72,134.43,84.69,133.88,84.46,133.73Z" transform="translate(26.14)"/><path class="cls-53" d="M91.53,136.73c-.21-.64-1,.1-.45.4a.2.2,0,0,0,.39-.11A.32.32,0,0,0,91.53,136.73Z" transform="translate(26.14)"/><path class="cls-54" d="M50.64,142.51c-.54-.32-1.25.52-.63.92S51.27,142.93,50.64,142.51Z" transform="translate(26.14)"/><path class="cls-55" d="M50.82,145.35c-.4-.22-.92.61-.49.85S51.2,145.6,50.82,145.35Z" transform="translate(26.14)"/><path class="cls-56" d="M53.34,140.09a.57.57,0,0,0,.28,1.1C54.3,141,54,139.9,53.34,140.09Z" transform="translate(26.14)"/><path class="cls-57" d="M47.41,143.93c-.46-.67-1.23.11-.85.71S47.9,144.55,47.41,143.93Z" transform="translate(26.14)"/><path class="cls-58" d="M83.28,110.53c-.52-1.4-2.74-.57-2.32.86C81.45,113.15,83.85,112.09,83.28,110.53Z" transform="translate(26.14)"/><path class="cls-59" d="M79,113.27c-.48.13-.29.9.19.77S79.5,113.14,79,113.27Z" transform="translate(26.14)"/><path class="cls-60" d="M78.86,108.84a.43.43,0,0,0,.21.83A.43.43,0,0,0,78.86,108.84Z" transform="translate(26.14)"/><path class="cls-61" d="M75.36,113c-.55.15-.33,1.05.23.9A.47.47,0,0,0,75.36,113Z" transform="translate(26.14)"/><path class="cls-62" d="M84.42,110.06c-.49.14-.29.94.21.8A.41.41,0,0,0,84.42,110.06Z" transform="translate(26.14)"/><path class="cls-63" d="M37.57,104a.5.5,0,0,0-.63.58C37.26,105.57,38.64,104.24,37.57,104Z" transform="translate(26.14)"/><path class="cls-64" d="M42.09,104.18c-.43-.23-.9.52-.45.78S42.49,104.45,42.09,104.18Z" transform="translate(26.14)"/><path class="cls-65" d="M38,100.76c-.38-.29-1,.42-.57.7C37.83,102,38.55,101.13,38,100.76Z" transform="translate(26.14)"/><path class="cls-66" d="M34.52,100.76c-1.52,0-1.45,2.38.08,2.06C36.08,102.77,36.06,100.49,34.52,100.76Z" transform="translate(26.14)"/><path class="cls-67" d="M37.39,96.53c-.48-.44-1,.43-.48.74S37.82,96.85,37.39,96.53Z" transform="translate(26.14)"/><path class="cls-68" d="M47,107.89c-.62-.46-1.15.7-.47,1S47.56,108.21,47,107.89Z" transform="translate(26.14)"/><path class="cls-69" d="M30,121.78c-.53-.55-1.42.29-.87.86S30.55,122.33,30,121.78Z" transform="translate(26.14)"/><path class="cls-70" d="M31.23,125.43c-.72-.39-1.59,1-.84,1.45S31.9,125.89,31.23,125.43Z" transform="translate(26.14)"/><path class="cls-71" d="M33.32,124.61c-.23-.63-1.29-.43-1.11.3S33.41,125.26,33.32,124.61Z" transform="translate(26.14)"/><path class="cls-72" d="M58.23,115.47c-.45-.41-1,.34-.42.59C58.08,116.16,58.51,115.68,58.23,115.47Z" transform="translate(26.14)"/><path class="cls-73" d="M60,114c-.42-.59-1,.15-.69.66S60.48,114.55,60,114Z" transform="translate(26.14)"/><path class="cls-74" d="M56.58,113.5c-.15-.1-.4-.2-.54-.06h0C54.73,114.55,57.61,114.9,56.58,113.5Z" transform="translate(26.14)"/><path class="cls-75" d="M72.31,105.54c-.82-1-1.77,1-.72,1.34C72.28,107.06,72.68,106.07,72.31,105.54Z" transform="translate(26.14)"/><path class="cls-76" d="M74.26,104.68c-.55-.82-1.76.36-.62.48h.06s.23.3.24.26C74.33,105.92,74.66,104.92,74.26,104.68Z" transform="translate(26.14)"/><path class="cls-77" d="M74.7,107.69a.62.62,0,0,0-1.19.32C73.72,108.8,74.81,108.43,74.7,107.69Z" transform="translate(26.14)"/><path class="cls-78" d="M41,98.92c-.28-.47-1.41-.51-1.19.25C39.3,100.67,41.79,100.21,41,98.92Z" transform="translate(26.14)"/><path class="cls-79" d="M44.75,96.57c-.74-1.34-2.75-.13-2,1.2S45.5,97.9,44.75,96.57Z" transform="translate(26.14)"/><path class="cls-80" d="M37.14,92.3c-.24-.47-1.27-.27-.88.34A.48.48,0,1,0,37.14,92.3Z" transform="translate(26.14)"/><path class="cls-81" d="M31.33,101c-.23-.13-.59-.06-.52.28S31.7,101.28,31.33,101Z" transform="translate(26.14)"/><path class="cls-82" d="M97.73,124.88c-.39-.58-1.35-.09-1,.57S98.34,125.6,97.73,124.88Z" transform="translate(26.14)"/><path class="cls-83" d="M97.05,129.71c-.39.11-.23.74.16.63S97.45,129.6,97.05,129.71Z" transform="translate(26.14)"/><path class="cls-84" d="M35.15,102.83c2.54,2.46,6.29,3.2,9.41,4.67,6.36,1.32-3.5-14.09-7.09-13.63C33.61,93.55,33.19,100.48,35.15,102.83Z" transform="translate(26.14)"/><path class="cls-85" d="M31.47,127.19c1.83.81,4.16-.07,5.84-1.15-.83-3.08-6.35-10.68-8.55-4.85C28.7,123.36,29.41,126.17,31.47,127.19Z" transform="translate(26.14)"/><path class="cls-86" d="M70.56,111.37c.61,5.06,6.41,3.07,8.24,0C79.23,102.53,68.2,100.3,70.56,111.37Z" transform="translate(26.14)"/><path class="cls-87" d="M64.44,127.25c3.21,19.8,16.16,36.78,30.23,49.62,8.26,6.45,18.58,12.54,29.06,10.89,4.33-1.54,3.64-6.89.56-9.52-4.45-4.88-9.82-8.79-13.85-14.06a33,33,0,0,1-5.65-27.48c.69-2.85,1.76-5.9.73-8.63C98.31,115.61,61.4,101.77,64.44,127.25Z" transform="translate(26.14)"/><path class="cls-88" d="M64.8,120.08c2.67,7.29,12.72,8.51,19.08,11.21,5.62,2.6,16.4-1.08,14.93-8.68C93.23,114.55,68.51,106.8,64.8,120.08Z" transform="translate(26.14)"/><path class="cls-89" d="M102.47,179.34c5,5.13,20.15,14.73,24.39,4.68-1.36-8.77-12-12.66-16.42-19.84C107.85,169.24,104.68,174.17,102.47,179.34Z" transform="translate(26.14)"/><path class="cls-90" d="M69.88,134.83c8.11,6.92,18.88,9.27,29.19,11.41-11.25-.57-22.81-2.89-32.27-9a67.37,67.37,0,0,0,6.5,13.63,43.86,43.86,0,0,0,31.1-.58,33.51,33.51,0,0,1-.44-8.19c-14.12-.58-29.3-4-39.52-14.82.1.84.23,1.7.38,2.56A63.06,63.06,0,0,0,69.88,134.83Z" transform="translate(26.14)"/><path class="cls-91" d="M95.42,131.7c-5.79-1.17-29.32-6.28-26.62-14.2,5-5.73,15.11-1.55,20.92.7C97.23,120.54,114.21,134.24,95.42,131.7Z" transform="translate(26.14)"/><path class="cls-92" d="M76.31,171.37c6.28,8.24,14.75,13.68,24.12,17,3.41,1.09,30.94,9.56,26.48,1-9.49-6.07-20.59-12.9-23.36-25.09-.81-3-1.43-5.07-4.67-6.83C89.69,151.86,65.3,156.75,76.31,171.37Z" transform="translate(26.14)"/><path class="cls-93" d="M76.31,171.37c6.59,11.8,22.57,9.86,31.55,2.29a27.2,27.2,0,0,1-2.07-3.33A29.43,29.43,0,0,1,88,174.25c6.06-1.11,13.25-3.2,15.61-9.74a1.17,1.17,0,0,0,0-.2C97.13,172.58,85.59,171.76,76.31,171.37Z" transform="translate(26.14)"/><path class="cls-94" d="M73.83,163.67c3.35,7.39,12.21,3,18.21,5.67a41.79,41.79,0,0,1,12.5,5.4c.67.44,1.66.84,2.14.19,1.18-3.31-2.33-6-2.75-9.21-1-3.48-1.3-6.27-5.05-8.24C92.45,153.91,74.43,153.78,73.83,163.67Z" transform="translate(26.14)"/><path class="cls-95" d="M82.81,166.92c-15.51-2-2.87-12,6-10.69,9.28-.52,18.68,7,4.57,10.39A32.84,32.84,0,0,1,82.81,166.92Z" transform="translate(26.14)"/><path class="cls-96" d="M134.32,191.3c20.64,6.55,65.08-24.05,60.25-48-2.87-4.22-13.07-2.14-17.32-1.08-10.79.87-17.63,9.56-22.6,18.65C151.24,168.75,131.78,184.93,134.32,191.3Z" transform="translate(26.14)"/><path class="cls-97" d="M163.59,166.88c10,12.29,27.09-.74,30.23-13-7.44,4.64-17.85,7.77-25.78,2.75,1.72,6.44,12,5.81,17.46,5.55-6.12,3.26-14.14,5.15-20.18.8C164.72,164.17,162.57,165.42,163.59,166.88Z" transform="translate(26.14)"/><path class="cls-98" d="M179.23,154.67c.94,3.16,2,6.46,4.25,8.77,6.89-3.6,13.26-11.79,11.09-20.14C187.21,136.43,174.13,143.2,179.23,154.67Z" transform="translate(26.14)"/><path class="cls-99" d="M193.1,149.56c-4,2.65-23.48,4.11-25.49-1-.06-1.41,1.46-2.33,2.8-2.88C175.55,143,198.52,136.77,193.1,149.56Z" transform="translate(26.14)"/><path class="cls-100" d="M132.86,193.33c23.42-2.77,49.12-46.8,48.87-69.55-34.85-50.45-43,31.63-51,56.63C130.21,185,124.31,194,132.86,193.33Z" transform="translate(26.14)"/><path class="cls-101" d="M152.6,120.28c10,3.82,19.52,9.86,26.62,18.19.36-1.1.7-2.21,1-3.33-5.07-7.56-13-12.28-20.59-16.73,7.54.83,14.06,5.48,19.83,10.57A33,33,0,0,0,156,114.78C155,116.87,154.31,118.82,152.6,120.28Z" transform="translate(26.14)"/><path class="cls-102" d="M149.24,144.27a175.74,175.74,0,0,1,17.88,20.15c1.39-2.17,2.69-4.4,3.9-6.66-2.8-3.19-5.72-6.26-8.73-9.22a71.88,71.88,0,0,1,9.77,7.23q1.41-2.7,2.64-5.46a71,71,0,0,0-22.94-12.63C150.81,139.94,150.17,142,149.24,144.27Z" transform="translate(26.14)"/><path class="cls-103" d="M131.16,185.23a54,54,0,0,0,1.7,8.1c11.93-.89,19.78-11.08,27.4-19.35-6.76-3.59-14.32-8.25-17.92-15.5-4.84,6.42-9.46,14.05-11.57,21.91a0,0,0,0,0,0,0A20.65,20.65,0,0,0,131.16,185.23Z" transform="translate(26.14)"/><path class="cls-104" d="M113.14,106.1c1.29,5.47,5.88,8.27,8.77,12.64,6.69,10.24,8.74,23.15,10.52,35.1.7,20.69,2.9,22.89,16,5.58,8.31-12.61,12.15-27.86,13.48-42.91,2.1-16.32-3.19-46.1-24.61-41.39C125.25,78.75,110.21,91.73,113.14,106.1Z" transform="translate(26.14)"/><path class="cls-105" d="M119,115.11a31.21,31.21,0,0,1,2.93,3.63c5.64-15.84,19.6-31.08,37.05-29-.21-.51-.41-1-.64-1.54C142.73,83.33,122.55,99.6,119,115.11Z" transform="translate(26.14)"/><path class="cls-106" d="M124.78,123.76a57.18,57.18,0,0,1,3.09,8.06,60.4,60.4,0,0,1,34-15.31,66.62,66.62,0,0,0,0-15.46C146.57,100.37,131.52,109.55,124.78,123.76Z" transform="translate(26.14)"/><path class="cls-107" d="M130.38,141.7c.84,4.19,1.55,8,2.05,12.14q7.9,3,16,5.58a74.21,74.21,0,0,0,8-16.4,56.79,56.79,0,0,0-19.27-4.94c7.24-.62,14.46-1.74,21.63-2.84.13-.55.27-1.09.39-1.64a83.13,83.13,0,0,0-27.53.34A66.6,66.6,0,0,0,130.38,141.7Z" transform="translate(26.14)"/><path class="cls-108" d="M106,148.51c4.86,5.58,11.15,11.06,12.94,18.47,3.53,14.42,2.55,44.65,18.12,13.43,7-15.2,7.34-31.37,5.79-47.69,0-8.78-3.53-16-13.23-13.83a41.49,41.49,0,0,0-27.81,16.81C97.88,141.08,102.46,144.63,106,148.51Z" transform="translate(26.14)"/><path class="cls-109" d="M122.36,84.58c17.83-12.44,21.75,10,24.79,23.69,2.7,10.43,1.57,22,4.53,32.17,8.49-6.72,8.38-20.15,8.84-30.47C161.89,85.27,143.62,60.48,122.36,84.58Z" transform="translate(26.14)"/><path class="cls-110" d="M108.93,151.82c4.12,4.38,8.55,9.27,10,15.16,7.45,1.56,15.09,1.05,22.58.07a94.58,94.58,0,0,0,2.08-19.78c-6.43,5.33-15.15,6.45-23.37,7.37,9-1.9,17.6-6.5,23.24-14-.1-1.84-.22-3.68-.38-5.51C136,147,122.19,153.73,108.93,151.82Z" transform="translate(26.14)"/><path class="cls-111" d="M121.23,180.39c1.19,18.35,7.56,17.7,15.78,0A47.49,47.49,0,0,1,121.23,180.39Z" transform="translate(26.14)"/><path class="cls-112" d="M109.23,142c21.91.54,17.18-11.71,30.07,19.33,3.39-9.09,8.16-40.27-4.31-42.71C122.88,119.75,113.11,130.66,109.23,142Z" transform="translate(26.14)"/><path class="cls-113" d="M136.07,121.28c4.7,8.44-28.82,27.07-32.9,16.84C104.13,129.25,128.15,116.32,136.07,121.28Z" transform="translate(26.14)"/><path class="cls-114" d="M100.43,188.39a78.35,78.35,0,0,0,10.43,2.89,20.16,20.16,0,0,0,4.09-10.1,49.31,49.31,0,0,1-4-3.72C109.69,182.41,105,186.52,100.43,188.39Z" transform="translate(26.14)"/><path class="cls-115" d="M176.53,138.73c-1.34,3-3.16,6-6,7.59a70.12,70.12,0,0,1-1.1-32.61c4.07.48,7,3.94,9.18,7.3C182.25,126.23,178.29,133.35,176.53,138.73Z" transform="translate(26.14)"/><path class="cls-116" d="M139.8,75.21c.56-.72,3.36-.2,1.84.68C141.11,76,139.43,76.18,139.8,75.21Z" transform="translate(26.14)"/><path class="cls-116" d="M137.22,121.75c1-2.23,2.46,2,.7,2.45C136.94,124.08,137.24,122.48,137.22,121.75Z" transform="translate(26.14)"/><path class="cls-116" d="M69.25,114.5c2.17-1.4,2.62.3.56,1.42C68.47,117,68.06,115.12,69.25,114.5Z" transform="translate(26.14)"/><path class="cls-116" d="M121.16,137.94c.22-.35,1.74-.75,1.1,0C122,138,121.11,138.55,121.16,137.94Z" transform="translate(26.14)"/><path class="cls-116" d="M78.4,157.88c.76-1,5.1-1.93,1.53-.18C79.58,157.86,78.44,158.54,78.4,157.88Z" transform="translate(26.14)"/><path class="cls-116" d="M97.73,165.59a6.07,6.07,0,0,0,1.33-.77C100.52,164.75,97.22,166.76,97.73,165.59Z" transform="translate(26.14)"/><path class="cls-116" d="M174.88,115.66c2.12.92,5.21,5.78.72,1.64C175.41,116.91,174.14,115.77,174.88,115.66Z" transform="translate(26.14)"/><path class="cls-116" d="M192.22,142.2c.54-.68,1.49.62,1.74,1.14C194.25,145.27,191.91,143.22,192.22,142.2Z" transform="translate(26.14)"/><path class="cls-116" d="M183,152.27c.32-.1,1.18-.3,1.31.1S182.59,152.73,183,152.27Z" transform="translate(26.14)"/><path class="cls-117" d="M165.34,182.58c-13.89,13.94-31.77,34.92-53.06,25.53-4.69-2.31-30.84-9.36-27-15.94C94,178.38,105.1,165,119.74,158c11.83-2.34,24,3.8,35.52,6.24A30.24,30.24,0,0,1,165.34,182.58Z" transform="translate(26.14)"/><path class="cls-118" d="M111.91,166.08c-1.67,11.39,28.27,2.62,33-1.57-3-5.62-11.18-5.18-16.6-6.43C121.33,156.42,115.23,159.65,111.91,166.08Z" transform="translate(26.14)"/><path class="cls-119" d="M147.3,169a74.4,74.4,0,0,0-21.06-6.67c3.13,1.41,19,4.77,15.5,9.53-8.49,3.84-14.56-1.23-19.3-7.9,2.21,5.85,4.92,16.38-3.44,18-4.61,1.5-4.11-8.25-5.49-11.22a38.67,38.67,0,0,1-4,11.24c-6.46,1.6-11.58.2-8.35-7.69-5.62,5.68-11.73,11.57-15.75,18.49,4.63,5.73,12,9.11,19.08,10.41,2.88-11.38,13.24-12.77,10.48,1.24,4.25-11.41,26.75-17.83,14.35,1C135,194.24,156.2,186,145,199,160.33,185.67,171.76,181.51,147.3,169Z" transform="translate(26.14)"/><path class="cls-120" d="M167,183.09a3.73,3.73,0,0,1-2.38,1.36h0c-2.6.14-5.41-2.65-7.85-.31-6.58,4.15-13.09,9.2-20.9,5.08-2.29-.88-4.69-1.18-6.62.65-10.67,8.62-10.13-1.91-19,.88-2.1,1.12-8.29,2-3.71-2.06-1.13-.55-2.72-1.17-1.52-2.65,1.81-2.89,4-7.07,7.56-7.07,2.94-.37,6.2,3,8.34-.08,10.82-11.13,7.46-7.88,21-5.28,4.79-1.78,6.8-8.53,11.86-10.36,4.87-.71,10.85,4.44,12.71,8.77a6.26,6.26,0,0,1-1.39,4.91C166,178.64,168.75,181,167,183.09Z" transform="translate(26.14)"/><path class="cls-121" d="M141.41,190.57l.54.33c-3.15-.65-6.21-2.06-9.4-2.44-4.48.45-7.72,6.66-12.59,4.54C130.33,193,126.38,181.66,141.41,190.57Z" transform="translate(26.14)"/><path class="cls-122" d="M152.15,174.55c-9.1,9-5.91,12-19.46,7.54-4.55-1.61-7.68,1.12-10.84,3.89-4.71,1.12-11.19-2-14.21,3.84,6.85-.18,5.83-2.43,11.78,3-3-1.67-5.69-3.75-9.11-2-2.17,1.14-8.26,1.95-3.71-2.06-2.39-.89-2.28-1.77-.85-3.73.48,4.9,3.61-2,6.49-.87,2.48-.1,4.8,2.4,7.22,1.63,10.53-11.79,10.77-3.34,21.79-2.52,8.37-4.19,9.74-19.66,21.33-7C159.31,175.66,155.12,172,152.15,174.55Z" transform="translate(26.14)"/><path class="cls-123" d="M164.65,184.45c-1.55.16-3.05-.8-4.64-1.23-5.09.51-9.21,5.4-14,7.19C152,185.52,156.6,179.43,164.65,184.45Z" transform="translate(26.14)"/><path class="cls-124" d="M114.46,185.38c-2.44-.45-4.33,1.62-6.38,2.66,3.68-4.24,6.69-4.4,11.42-1.68A43.53,43.53,0,0,0,114.46,185.38Zm42.32-11.27c2.64.58,5.46,2.27,7.53,2.79-18.44-12-12.3,6.39-24,7-5.76-3.71-12.54-4.69-17.18,1.49,8.77-8.8,15.33,1.7,21.22-1.84,2.79-2.53,5-5.77,7.71-8.4A4.92,4.92,0,0,1,156.78,174.11Z" transform="translate(26.14)"/><path class="cls-125" d="M155.13,163.52a5.92,5.92,0,0,0-5.53,4.62c-.18,1.12,1.51.8,2.09.67,4.07-.76,7.81,2.56,11.8,3.24C169.93,171.72,157.43,162.94,155.13,163.52Z" transform="translate(26.14)"/><path class="cls-126" d="M129.13,174.92c2.72,1.58,8.59,3.17,10.77.39C139.27,172.44,126.43,169,129.13,174.92Z" transform="translate(26.14)"/><path class="cls-127" d="M109.71,181.29c.25,1.83,6.79,3.13,7.69,1C117.94,178.72,110.71,178.34,109.71,181.29Z" transform="translate(26.14)"/><path class="cls-128" d="M150.88,180.72a16.8,16.8,0,0,1,8.93-1.63c7.43-1-3.23-5.17-5.79-4.18C152.34,175,147.62,180.11,150.88,180.72Z" transform="translate(26.14)"/><path class="cls-129" d="M129.35,184.05c2.54,1.41,6.13,2.07,8.79,1.09C137.48,183.05,128.25,180.64,129.35,184.05Z" transform="translate(26.14)"/><path class="cls-130" d="M117.18,187.07c.89-1.23,3,.32,3.25,1.52C119.77,189.78,116.74,188.43,117.18,187.07Z" transform="translate(26.14)"/><path class="cls-116" d="M156.46,164.13c-1-.86-2.87.19-1.37,1.21C156,166.15,157.91,165,156.46,164.13Z" transform="translate(26.14)"/><path class="cls-116" d="M157.25,175.58c-.12-.51-1.41-.87-1.23-.11C156.19,175.88,157.25,176.2,157.25,175.58Z" transform="translate(26.14)"/><path class="cls-116" d="M133.37,172.57c-.37-.67-1.75-.1-.83.42C132.85,173.09,133.59,173.08,133.37,172.57Z" transform="translate(26.14)"/><path class="cls-116" d="M132.4,182.57c-.29-.34-1,.07-.53.41C132.1,183.09,132.64,182.88,132.4,182.57Z" transform="translate(26.14)"/><path class="cls-116" d="M112.84,179.4a.29.29,0,0,0-.18-.11c-.06,0-.25-.06-.34,0h0C111.32,179.81,113.33,180.45,112.84,179.4Z" transform="translate(26.14)"/><path class="cls-116" d="M127.2,159c-.4-1.23-4.1-1.32-3.12,0C124.9,158.79,127.07,160,127.2,159Z" transform="translate(26.14)"/><path class="cls-131" d="M44.69,189.26c10.42,10.47,23.83,26.2,39.81,19.16,3.79-1.94,22.74-6.69,20.23-12-6.48-10.35-14.85-20.38-25.83-25.64-8.88-1.75-18,2.85-26.65,4.69A22.62,22.62,0,0,0,44.69,189.26Z" transform="translate(26.14)"/><path class="cls-132" d="M84.77,176.89c.74,8.66-20.86,2-24.74-1.18,2.23-4.21,8.38-3.89,12.45-4.82C77.7,169.64,82.29,172.06,84.77,176.89Z" transform="translate(26.14)"/><path class="cls-133" d="M58.22,179.11a55.64,55.64,0,0,1,15.8-5c-2.51,1.17-14,3.37-11.63,7.14,6.17,2.92,11.08-1,14.48-5.92-1.66,4.39-3.68,12.28,2.59,13.52,3.69.78,2.94-6,4.12-8.41a28.84,28.84,0,0,0,3,8.43c4.74,1.27,8.75,0,6.27-5.77,4.21,4.26,8.79,8.68,11.81,13.87-3.47,4.3-9,6.83-14.31,7.81-2-8.52-10-9.39-7.86.93-3.15-8.67-20-13.12-10.77.75-3.54-7.67-20.32-15.09-11.76-4.89C48.48,191.75,40,188.26,58.22,179.11Z" transform="translate(26.14)"/><path class="cls-134" d="M43.42,189.65a2.79,2.79,0,0,0,1.78,1h0c9.5-3.46,10.66,8.54,21.56,3.57,1.73-.65,3.52-.88,5,.49,7.7,6.4,7.72-1.36,14.23.66,1.56.88,6.21,1.38,2.79-1.54.84-.42,2-.88,1.13-2-1.35-2.17-3-5.31-5.66-5.3-2.22-.28-4.66,2.25-6.26-.06-7.86-8.21-5.82-5.95-15.72-4-3.59-1.33-5.1-6.4-8.9-7.77-3.65-.53-8.14,3.33-9.53,6.58a4.69,4.69,0,0,0,1,3.68C44.23,186.31,42.13,188.06,43.42,189.65Z" transform="translate(26.14)"/><path class="cls-135" d="M62.64,195.26l-.4.25c12.06-4.87,8.74,2.68,16.5,1.57C71,196.94,73.52,188.63,62.64,195.26Z" transform="translate(26.14)"/><path class="cls-136" d="M54.58,183.24c2.59,2.17,4.21,5.57,7.05,7.38,4.09,0,8.65-3.54,12.69-1.32,4,5.72,10-.55,13.66,5.4-4.84-.2-4.75-1.64-8.84,2.21,2.25-1.25,4.27-2.82,6.83-1.52,1.61.9,6.19,1.37,2.79-1.54,1.73-.59,1.71-1.42.64-2.8-.36,3.66-2.81-1.56-4.88-.65-1.86-.07-3.6,1.8-5.41,1.22-7.59-8.71-8.24-2.56-16.34-1.89-6.17-3.29-7.73-14.66-16-5.26C49.21,184.07,52.36,181.35,54.58,183.24Z" transform="translate(26.14)"/><path class="cls-137" d="M45.21,190.67c1.16.12,2.29-.6,3.48-.92,3.81.38,6.9,4.05,10.54,5.39C55,191.57,50.81,186.9,45.21,190.67Z" transform="translate(26.14)"/><path class="cls-138" d="M79.08,192.1c3.38-2,6-1.86,8.57,1.26C85.09,191.17,82.15,191,79.08,192.1Zm-24.41-8.43c10.78,15.11,10.85-1,21.7,7.68-3.49-4.64-8.56-3.9-12.89-1.12-8.9-.77-4.5-14.18-18-5.22C48,184.43,52,181.24,54.67,183.67Z" transform="translate(26.14)"/><path class="cls-139" d="M52.35,175a4.46,4.46,0,0,1,4.15,3.47c.13.84-1.13.6-1.57.5-3-.56-5.86,1.93-8.85,2.44C41.24,181.12,50.63,174.53,52.35,175Z" transform="translate(26.14)"/><path class="cls-140" d="M71.86,183.52c-2,1.18-6.45,2.38-8.08.29C64.37,181.62,73.73,179.07,71.86,183.52Z" transform="translate(26.14)"/><path class="cls-141" d="M86.42,188.3c-.18,1.37-5.09,2.34-5.77.74C80.25,186.37,85.67,186.09,86.42,188.3Z" transform="translate(26.14)"/><path class="cls-142" d="M55.54,187.87a12.62,12.62,0,0,0-6.7-1.22c-5.57-.73,2.42-3.88,4.34-3.14C54.45,183.54,58,187.41,55.54,187.87Z" transform="translate(26.14)"/><path class="cls-143" d="M71.69,190.37a8.55,8.55,0,0,1-6.59.81C65.68,189.61,72.38,187.79,71.69,190.37Z" transform="translate(26.14)"/><path class="cls-144" d="M80.82,192.63c-.67-.92-2.28.25-2.44,1.15C78.88,194.66,81.15,193.65,80.82,192.63Z" transform="translate(26.14)"/><path class="cls-116" d="M51.35,175.42c.44-.33,1.65-.4,1.42.45C52.45,177.05,50,176.42,51.35,175.42Z" transform="translate(26.14)"/><path class="cls-116" d="M50.76,184c.09-.38,1.06-.65.92-.08C51.55,184.24,50.76,184.48,50.76,184Z" transform="translate(26.14)"/><path class="cls-116" d="M68.67,181.76c.28-.51,1.31-.08.62.31C69.07,182.15,68.51,182.14,68.67,181.76Z" transform="translate(26.14)"/><path class="cls-116" d="M69.4,189.25c.22-.25.75.06.4.32C69.63,189.65,69.22,189.49,69.4,189.25Z" transform="translate(26.14)"/><path class="cls-116" d="M84.07,187.21c.3.39.91-.27.4-.42-.07,0-.22,0-.26,0A.26.26,0,0,0,84.07,187.21Z" transform="translate(26.14)"/><path class="cls-116" d="M73.3,171.58c.34-.93,3-1,2.35,0C75,171.42,73.4,172.32,73.3,171.58Z" transform="translate(26.14)"/><path class="cls-4" d="M267.64,172.55c-8.7-2.35-10.7,13.32-1.86,12.41C271.49,183.3,274.78,174.63,267.64,172.55Z" transform="translate(26.14)"/><path class="cls-4" d="M248,149c-1.77-1.79-4.56,1-2.75,2.75S249.84,150.72,248,149Z" transform="translate(26.14)"/><path class="cls-4" d="M258.75,141.32c-1.17-3.94-7.26-1.57-5.22,2.1C255.06,146.16,259.57,144.36,258.75,141.32Z" transform="translate(26.14)"/><path class="cls-4" d="M191.68,97.73c-2.1-3.58-7.46-1.59-5.22,2.47C188.07,103.29,193.42,101,191.68,97.73Z" transform="translate(26.14)"/><path class="cls-4" d="M187.4,79.92c-2.3-3.8-8.87-2.42-7.64,2.53C181.17,87.84,190.17,85.18,187.4,79.92Z" transform="translate(26.14)"/><path class="cls-4" d="M173,92.43a1.46,1.46,0,0,0,0,2.92A1.46,1.46,0,0,0,173,92.43Z" transform="translate(26.14)"/><path class="cls-4" d="M187.33,145.68c-7.35-3.75-12.07,9.38-3.42,9C187.62,154.11,192.32,147.71,187.33,145.68Z" transform="translate(26.14)"/><path class="cls-4" d="M192.28,128.05c-.15-2.34-3.1-1.33-2.5.69A1.3,1.3,0,0,0,192.28,128.05Z" transform="translate(26.14)"/><path class="cls-4" d="M100.51,71.57c-3.29-6.16-11.68.55-8.18,5.76C95.58,82.9,104.23,76.47,100.51,71.57Z" transform="translate(26.14)"/><path class="cls-4" d="M108.74,76.2c-.33-3-4.33-1.23-3.15,1.24C106.39,79.42,109.37,78.19,108.74,76.2Z" transform="translate(26.14)"/><path class="cls-4" d="M37.92,63c-4.26-4.62-13.2.49-10.55,6.56C30.75,77.52,41.45,68.79,37.92,63Z" transform="translate(26.14)"/></g></g></g></g></g></svg>