<svg xmlns="http://www.w3.org/2000/svg" xmlns:xlink="http://www.w3.org/1999/xlink" viewBox="0 0 389.97 162.07"><defs><linearGradient id="_ÂÁ_Ï_ÌÌ_È_ËÂÌÚ_5" x1="194.99" y1="67.24" x2="194.99" y2="252.42" gradientUnits="userSpaceOnUse"><stop offset="0" stop-color="#aae0f2"/><stop offset="1" stop-color="#425985"/></linearGradient><linearGradient id="_ÂÁ_Ï_ÌÌ_È_ËÂÌÚ_5-2" x1="185.79" y1="61.37" x2="185.79" y2="228.55" xlink:href="#_ÂÁ_Ï_ÌÌ_È_ËÂÌÚ_5"/><linearGradient id="_ÂÁ_Ï_ÌÌ_È_ËÂÌÚ_5-3" x1="219.76" y1="62.58" x2="219.76" y2="227.08" xlink:href="#_ÂÁ_Ï_ÌÌ_È_ËÂÌÚ_5"/><linearGradient id="_ÂÁ_Ï_ÌÌ_È_ËÂÌÚ_5-4" x1="136.78" y1="64.94" x2="136.78" y2="222.85" xlink:href="#_ÂÁ_Ï_ÌÌ_È_ËÂÌÚ_5"/><linearGradient id="_ÂÁ_Ï_ÌÌ_È_ËÂÌÚ_5-5" x1="146.74" y1="63.35" x2="146.74" y2="225.76" xlink:href="#_ÂÁ_Ï_ÌÌ_È_ËÂÌÚ_5"/><linearGradient id="_ÂÁ_Ï_ÌÌ_È_ËÂÌÚ_5-6" x1="160.87" y1="61.99" x2="160.87" y2="227.85" xlink:href="#_ÂÁ_Ï_ÌÌ_È_ËÂÌÚ_5"/><linearGradient id="_ÂÁ_Ï_ÌÌ_È_ËÂÌÚ_5-7" x1="246.59" y1="62.38" x2="246.59" y2="226.93" xlink:href="#_ÂÁ_Ï_ÌÌ_È_ËÂÌÚ_5"/><linearGradient id="_ÂÁ_Ï_ÌÌ_È_ËÂÌÚ_5-8" x1="343.16" y1="63.1" x2="343.16" y2="225.24" xlink:href="#_ÂÁ_Ï_ÌÌ_È_ËÂÌÚ_5"/><linearGradient id="_ÂÁ_Ï_ÌÌ_È_ËÂÌÚ_5-9" x1="234.85" y1="61.33" x2="234.85" y2="228.51" xlink:href="#_ÂÁ_Ï_ÌÌ_È_ËÂÌÚ_5"/><linearGradient id="_ÂÁ_Ï_ÌÌ_È_ËÂÌÚ_5-10" x1="296.78" y1="63.34" x2="296.78" y2="226.97" xlink:href="#_ÂÁ_Ï_ÌÌ_È_ËÂÌÚ_5"/><linearGradient id="_ÂÁ_Ï_ÌÌ_È_ËÂÌÚ_5-11" x1="170.82" y1="62.49" x2="170.82" y2="227.54" xlink:href="#_ÂÁ_Ï_ÌÌ_È_ËÂÌÚ_5"/><linearGradient id="_ÂÁ_Ï_ÌÌ_È_ËÂÌÚ_5-12" x1="34.57" y1="58.37" x2="34.57" y2="231.88" xlink:href="#_ÂÁ_Ï_ÌÌ_È_ËÂÌÚ_5"/><linearGradient id="_ÂÁ_Ï_ÌÌ_È_ËÂÌÚ_5-13" x1="44.08" y1="61.78" x2="44.08" y2="228.17" xlink:href="#_ÂÁ_Ï_ÌÌ_È_ËÂÌÚ_5"/><linearGradient id="_ÂÁ_Ï_ÌÌ_È_ËÂÌÚ_5-14" x1="29.26" y1="62.42" x2="29.26" y2="227.51" xlink:href="#_ÂÁ_Ï_ÌÌ_È_ËÂÌÚ_5"/><linearGradient id="_ÂÁ_Ï_ÌÌ_È_ËÂÌÚ_23" x1="2.9" y1="24.98" x2="55.89" y2="98.63" gradientUnits="userSpaceOnUse"><stop offset="0" stop-color="#fce8b3"/><stop offset="1"/></linearGradient><linearGradient id="_ÂÁ_Ï_ÌÌ_È_ËÂÌÚ_23-2" x1="12.67" y1="15.89" x2="67.42" y2="91.98" xlink:href="#_ÂÁ_Ï_ÌÌ_È_ËÂÌÚ_23"/><linearGradient id="_ÂÁ_Ï_ÌÌ_È_ËÂÌÚ_23-3" x1="20.89" y1="11.46" x2="74.15" y2="85.5" xlink:href="#_ÂÁ_Ï_ÌÌ_È_ËÂÌÚ_23"/><linearGradient id="_ÂÁ_Ï_ÌÌ_È_ËÂÌÚ_23-4" x1="28.17" y1="8.55" x2="79.08" y2="79.31" xlink:href="#_ÂÁ_Ï_ÌÌ_È_ËÂÌÚ_23"/><linearGradient id="_ÂÁ_Ï_ÌÌ_È_ËÂÌÚ_23-5" x1="33.71" y1="4.67" x2="84.73" y2="75.58" xlink:href="#_ÂÁ_Ï_ÌÌ_È_ËÂÌÚ_23"/><linearGradient id="_ÂÁ_Ï_ÌÌ_È_ËÂÌÚ_23-6" x1="39.71" y1="-.63" x2="91.37" y2="71.17" xlink:href="#_ÂÁ_Ï_ÌÌ_È_ËÂÌÚ_23"/><linearGradient id="_ÂÁ_Ï_ÌÌ_È_ËÂÌÚ_23-7" x1="42.25" y1="-1.87" x2="93.64" y2="69.56" xlink:href="#_ÂÁ_Ï_ÌÌ_È_ËÂÌÚ_23"/><linearGradient id="_ÂÁ_Ï_ÌÌ_È_ËÂÌÚ_23-8" x1="42.68" y1="-3.29" x2="94.8" y2="69.15" xlink:href="#_ÂÁ_Ï_ÌÌ_È_ËÂÌÚ_23"/><linearGradient id="_ÂÁ_Ï_ÌÌ_È_ËÂÌÚ_23-9" x1="11.58" y1="21.51" x2="62.13" y2="91.77" xlink:href="#_ÂÁ_Ï_ÌÌ_È_ËÂÌÚ_23"/><linearGradient id="_ÂÁ_Ï_ÌÌ_È_ËÂÌÚ_23-10" x1=".41" y1="27.36" x2="52.94" y2="100.37" xlink:href="#_ÂÁ_Ï_ÌÌ_È_ËÂÌÚ_23"/><linearGradient id="_ÂÁ_Ï_ÌÌ_È_ËÂÌÚ_23-11" x1="3.04" y1="26.82" x2="54.74" y2="98.69" xlink:href="#_ÂÁ_Ï_ÌÌ_È_ËÂÌÚ_23"/><linearGradient id="_ÂÁ_Ï_ÌÌ_È_ËÂÌÚ_23-12" x1="6.14" y1="23.29" x2="58.56" y2="96.16" xlink:href="#_ÂÁ_Ï_ÌÌ_È_ËÂÌÚ_23"/><linearGradient id="_ÂÁ_Ï_ÌÌ_È_ËÂÌÚ_23-13" x1="55.44" y1="34.02" x2="65.61" y2="84.68" xlink:href="#_ÂÁ_Ï_ÌÌ_È_ËÂÌÚ_23"/><linearGradient id="_ÂÁ_Ï_ÌÌ_È_ËÂÌÚ_23-14" x1="63.28" y1="31.52" x2="73.72" y2="83.5" xlink:href="#_ÂÁ_Ï_ÌÌ_È_ËÂÌÚ_23"/><linearGradient id="_ÂÁ_Ï_ÌÌ_È_ËÂÌÚ_23-15" x1="69.83" y1="31.1" x2="80.01" y2="81.8" xlink:href="#_ÂÁ_Ï_ÌÌ_È_ËÂÌÚ_23"/><linearGradient id="_ÂÁ_Ï_ÌÌ_È_ËÂÌÚ_23-16" x1="14.25" y1="19.15" x2="57.96" y2="63.66" xlink:href="#_ÂÁ_Ï_ÌÌ_È_ËÂÌÚ_23"/><linearGradient id="_ÂÁ_Ï_ÌÌ_È_ËÂÌÚ_23-17" x1="4.39" y1="28.92" x2="48.35" y2="73.68" xlink:href="#_ÂÁ_Ï_ÌÌ_È_ËÂÌÚ_23"/><linearGradient id="_ÂÁ_Ï_ÌÌ_È_ËÂÌÚ_23-18" x1="23.33" y1="10.89" x2="66.87" y2="55.22" xlink:href="#_ÂÁ_Ï_ÌÌ_È_ËÂÌÚ_23"/><linearGradient id="_ÂÁ_Ï_ÌÌ_È_ËÂÌÚ_39" x1="-188.01" y1="42.59" x2="-206.81" y2="98.66" gradientTransform="matrix(-1 .02 .02 1 -117.87 7.77)" gradientUnits="userSpaceOnUse"><stop offset=".01" stop-color="#53cfba"/><stop offset=".99" stop-color="#056785"/></linearGradient><linearGradient id="_ÂÁ_Ï_ÌÌ_È_ËÂÌÚ_37" x1="-185.81" y1="50.38" x2="-200.81" y2="75.34" gradientTransform="matrix(-1 .02 .02 1 -117.87 7.77)" gradientUnits="userSpaceOnUse"><stop offset="0" stop-color="#9ea87d"/><stop offset="1"/></linearGradient><linearGradient id="_ÂÁ_Ï_ÌÌ_È_ËÂÌÚ_39-2" x1="-215.8" y1="65.74" x2="-215.66" y2="83.16" xlink:href="#_ÂÁ_Ï_ÌÌ_È_ËÂÌÚ_39"/><linearGradient id="_ÂÁ_Ï_ÌÌ_È_ËÂÌÚ_39-3" x1="-160.55" y1="58.87" x2="-202" y2="83.33" xlink:href="#_ÂÁ_Ï_ÌÌ_È_ËÂÌÚ_39"/><linearGradient id="_ÂÁ_Ï_ÌÌ_È_ËÂÌÚ_39-4" x1="-191.82" y1="93.52" x2="-197.65" y2="65.98" xlink:href="#_ÂÁ_Ï_ÌÌ_È_ËÂÌÚ_39"/><linearGradient id="_ÂÁ_Ï_ÌÌ_È_ËÂÌÚ_39-5" x1="-185.08" y1="76.89" x2="-215.87" y2="115.05" xlink:href="#_ÂÁ_Ï_ÌÌ_È_ËÂÌÚ_39"/><linearGradient id="_ÂÁ_Ï_ÌÌ_È_ËÂÌÚ_39-6" x1="-171.25" y1="93.66" x2="-212.21" y2="99.57" xlink:href="#_ÂÁ_Ï_ÌÌ_È_ËÂÌÚ_39"/><linearGradient id="_ÂÁ_Ï_ÌÌ_È_ËÂÌÚ_37-2" x1="-192.62" y1="75.58" x2="-202.93" y2="105.13" xlink:href="#_ÂÁ_Ï_ÌÌ_È_ËÂÌÚ_37"/><linearGradient id="_ÂÁ_Ï_ÌÌ_È_ËÂÌÚ_39-7" x1="-207.11" y1="115.6" x2="-197.81" y2="90.81" xlink:href="#_ÂÁ_Ï_ÌÌ_È_ËÂÌÚ_39"/><linearGradient id="_ÂÁ_Ï_ÌÌ_È_ËÂÌÚ_39-8" x1="-274.64" y1="78.54" x2="-244.58" y2="97.94" xlink:href="#_ÂÁ_Ï_ÌÌ_È_ËÂÌÚ_39"/><linearGradient id="_ÂÁ_Ï_ÌÌ_È_ËÂÌÚ_39-9" x1="-281.92" y1="72.23" x2="-247.13" y2="99.97" xlink:href="#_ÂÁ_Ï_ÌÌ_È_ËÂÌÚ_39"/><linearGradient id="_ÂÁ_Ï_ÌÌ_È_ËÂÌÚ_37-3" x1="-264.17" y1="67.44" x2="-262.52" y2="93.7" xlink:href="#_ÂÁ_Ï_ÌÌ_È_ËÂÌÚ_37"/><linearGradient id="_ÂÁ_Ï_ÌÌ_È_ËÂÌÚ_39-10" x1="-249.07" y1="98.96" x2="-259.41" y2="83.52" xlink:href="#_ÂÁ_Ï_ÌÌ_È_ËÂÌÚ_39"/><linearGradient id="_ÂÁ_Ï_ÌÌ_È_ËÂÌÚ_39-11" x1="-260.21" y1="58.02" x2="-229.52" y2="98.64" xlink:href="#_ÂÁ_Ï_ÌÌ_È_ËÂÌÚ_39"/><linearGradient id="_ÂÁ_Ï_ÌÌ_È_ËÂÌÚ_39-12" x1="-269.8" y1="49.67" x2="-227.37" y2="93.88" xlink:href="#_ÂÁ_Ï_ÌÌ_È_ËÂÌÚ_39"/><linearGradient id="_ÂÁ_Ï_ÌÌ_È_ËÂÌÚ_39-13" x1="-275.2" y1="54.13" x2="-231.52" y2="99.64" xlink:href="#_ÂÁ_Ï_ÌÌ_È_ËÂÌÚ_39"/><linearGradient id="_ÂÁ_Ï_ÌÌ_È_ËÂÌÚ_39-14" x1="-276.98" y1="56.43" x2="-233.66" y2="101.57" xlink:href="#_ÂÁ_Ï_ÌÌ_È_ËÂÌÚ_39"/><linearGradient id="_ÂÁ_Ï_ÌÌ_È_ËÂÌÚ_39-15" x1="-238.55" y1="48.48" x2="-208.46" y2="103.4" xlink:href="#_ÂÁ_Ï_ÌÌ_È_ËÂÌÚ_39"/><linearGradient id="_ÂÁ_Ï_ÌÌ_È_ËÂÌÚ_39-16" x1="-273.29" y1="38.98" x2="-182.22" y2="69.24" xlink:href="#_ÂÁ_Ï_ÌÌ_È_ËÂÌÚ_39"/><linearGradient id="_ÂÁ_Ï_ÌÌ_È_ËÂÌÚ_39-17" x1="-276.23" y1="48.1" x2="-185.17" y2="78.35" xlink:href="#_ÂÁ_Ï_ÌÌ_È_ËÂÌÚ_39"/><linearGradient id="_ÂÁ_Ï_ÌÌ_È_ËÂÌÚ_39-18" x1="-293.3" y1="62.01" x2="-202.13" y2="92.3" xlink:href="#_ÂÁ_Ï_ÌÌ_È_ËÂÌÚ_39"/><linearGradient id="_ÂÁ_Ï_ÌÌ_È_ËÂÌÚ_39-19" x1="-231.26" y1="63.3" x2="-207.18" y2="113.73" xlink:href="#_ÂÁ_Ï_ÌÌ_È_ËÂÌÚ_39"/><linearGradient id="_ÂÁ_Ï_ÌÌ_È_ËÂÌÚ_37-4" x1="-231.1" y1="16" x2="-237.24" y2="80.33" xlink:href="#_ÂÁ_Ï_ÌÌ_È_ËÂÌÚ_37"/><linearGradient id="_ÂÁ_Ï_ÌÌ_È_ËÂÌÚ_39-20" x1="-242.37" y1="65.25" x2="-210.15" y2="106.38" xlink:href="#_ÂÁ_Ï_ÌÌ_È_ËÂÌÚ_39"/><linearGradient id="_ÂÁ_Ï_ÌÌ_È_ËÂÌÚ_39-21" x1="-250.41" y1="72.58" x2="-218.66" y2="113.09" xlink:href="#_ÂÁ_Ï_ÌÌ_È_ËÂÌÚ_39"/><linearGradient id="_ÂÁ_Ï_ÌÌ_È_ËÂÌÚ_37-5" x1="-206.71" y1="40.99" x2="-230.95" y2="88.89" xlink:href="#_ÂÁ_Ï_ÌÌ_È_ËÂÌÚ_37"/><linearGradient id="_ÂÁ_Ï_ÌÌ_È_ËÂÌÚ_39-22" x1="-216.16" y1="99.92" x2="-219.63" y2="70.18" xlink:href="#_ÂÁ_Ï_ÌÌ_È_ËÂÌÚ_39"/><linearGradient id="_ÂÁ_Ï_ÌÌ_È_ËÂÌÚ_39-23" x1="-191.17" y1="120.89" x2="-212.1" y2="107.21" xlink:href="#_ÂÁ_Ï_ÌÌ_È_ËÂÌÚ_39"/><linearGradient id="_ÂÁ_Ï_ÌÌ_È_ËÂÌÚ_37-6" x1="-255.08" y1="41.67" x2="-255.23" y2="82.53" xlink:href="#_ÂÁ_Ï_ÌÌ_È_ËÂÌÚ_37"/><linearGradient id="_ÂÁ_Ï_ÌÌ_È_ËÂÌÚ_52" x1="71.45" y1="92.4" x2="44.44" y2="148.79" gradientTransform="rotate(9.72 48.851133 353.713817)" gradientUnits="userSpaceOnUse"><stop offset="0" stop-color="#54719c"/><stop offset="1" stop-color="#132547"/></linearGradient><linearGradient id="_ÂÁ_Ï_ÌÌ_È_ËÂÌÚ_16" x1="85.49" y1="57.33" x2="45.81" y2="121.25" gradientTransform="rotate(9.72 48.851133 353.713817)" gradientUnits="userSpaceOnUse"><stop offset="0" stop-color="#445b91"/><stop offset="1"/></linearGradient><linearGradient id="_ÂÁ_Ï_ÌÌ_È_ËÂÌÚ_52-2" x1="83.68" y1="82.59" x2="33.96" y2="139.98" xlink:href="#_ÂÁ_Ï_ÌÌ_È_ËÂÌÚ_52"/><linearGradient id="_ÂÁ_Ï_ÌÌ_È_ËÂÌÚ_5-15" x1="83.72" y1="79.56" x2="53.39" y2="138.02" gradientTransform="rotate(9.72 48.851133 353.713817)" xlink:href="#_ÂÁ_Ï_ÌÌ_È_ËÂÌÚ_5"/><linearGradient id="_ÂÁ_Ï_ÌÌ_È_ËÂÌÚ_5-16" x1="99.29" y1="72.48" x2="51.31" y2="129.78" gradientTransform="rotate(9.72 48.851133 353.713817)" xlink:href="#_ÂÁ_Ï_ÌÌ_È_ËÂÌÚ_5"/><linearGradient id="_ÂÁ_Ï_ÌÌ_È_ËÂÌÚ_5-17" x1="96.06" y1="69.57" x2="48.01" y2="126.97" gradientTransform="rotate(9.72 48.851133 353.713817)" xlink:href="#_ÂÁ_Ï_ÌÌ_È_ËÂÌÚ_5"/><linearGradient id="_ÂÁ_Ï_ÌÌ_È_ËÂÌÚ_5-18" x1="105.61" y1="77.54" x2="57.41" y2="135.11" gradientTransform="rotate(9.72 48.851133 353.713817)" xlink:href="#_ÂÁ_Ï_ÌÌ_È_ËÂÌÚ_5"/><linearGradient id="_ÂÁ_Ï_ÌÌ_È_ËÂÌÚ_5-19" x1="94.41" y1="67.2" x2="81.48" y2="86.68" gradientTransform="rotate(9.72 48.851133 353.713817)" xlink:href="#_ÂÁ_Ï_ÌÌ_È_ËÂÌÚ_5"/><linearGradient id="_ÂÁ_Ï_ÌÌ_È_ËÂÌÚ_13" x1="89.27" y1="77.86" x2="77.44" y2="106.01" gradientTransform="rotate(9.72 48.851133 353.713817)" gradientUnits="userSpaceOnUse"><stop offset="0" stop-color="#9fafd6"/><stop offset="1"/></linearGradient><linearGradient id="_ÂÁ_Ï_ÌÌ_È_ËÂÌÚ_13-2" x1="74.46" y1="82.94" x2="64.3" y2="109.92" xlink:href="#_ÂÁ_Ï_ÌÌ_È_ËÂÌÚ_13"/><linearGradient id="_ÂÁ_Ï_ÌÌ_È_ËÂÌÚ_13-3" x1="63.82" y1="86" x2="54.37" y2="109.63" xlink:href="#_ÂÁ_Ï_ÌÌ_È_ËÂÌÚ_13"/><linearGradient id="_ÂÁ_Ï_ÌÌ_È_ËÂÌÚ_13-4" x1="89.46" y1="80.82" x2="75.68" y2="120.94" xlink:href="#_ÂÁ_Ï_ÌÌ_È_ËÂÌÚ_13"/><linearGradient id="_ÂÁ_Ï_ÌÌ_È_ËÂÌÚ_13-5" x1="78.68" y1="77.97" x2="65.26" y2="117.04" xlink:href="#_ÂÁ_Ï_ÌÌ_È_ËÂÌÚ_13"/><linearGradient id="_ÂÁ_Ï_ÌÌ_È_ËÂÌÚ_13-6" x1="72.4" y1="73.32" x2="57.95" y2="115.39" xlink:href="#_ÂÁ_Ï_ÌÌ_È_ËÂÌÚ_13"/><linearGradient id="_ÂÁ_Ï_ÌÌ_È_ËÂÌÚ_52-3" x1="-594.04" y1="213.28" x2="-614.31" y2="255.6" gradientTransform="matrix(-.99 .17 .17 .99 -554.9 -3.17)" xlink:href="#_ÂÁ_Ï_ÌÌ_È_ËÂÌÚ_52"/><linearGradient id="_ÂÁ_Ï_ÌÌ_È_ËÂÌÚ_16-2" x1="-583.55" y1="187.04" x2="-613.21" y2="234.82" gradientTransform="matrix(-.99 .17 .17 .99 -554.9 -3.17)" xlink:href="#_ÂÁ_Ï_ÌÌ_È_ËÂÌÚ_16"/><linearGradient id="_ÂÁ_Ï_ÌÌ_È_ËÂÌÚ_52-4" x1="-584.86" y1="205.92" x2="-622.16" y2="248.97" gradientTransform="matrix(-.99 .17 .17 .99 -554.9 -3.17)" xlink:href="#_ÂÁ_Ï_ÌÌ_È_ËÂÌÚ_52"/><linearGradient id="_ÂÁ_Ï_ÌÌ_È_ËÂÌÚ_5-20" x1="-584.84" y1="203.65" x2="-607.57" y2="247.47" gradientTransform="matrix(-.99 .17 .17 .99 -554.9 -3.17)" xlink:href="#_ÂÁ_Ï_ÌÌ_È_ËÂÌÚ_5"/><linearGradient id="_ÂÁ_Ï_ÌÌ_È_ËÂÌÚ_5-21" x1="-573.15" y1="198.33" x2="-609.15" y2="241.32" gradientTransform="matrix(-.99 .17 .17 .99 -554.9 -3.17)" xlink:href="#_ÂÁ_Ï_ÌÌ_È_ËÂÌÚ_5"/><linearGradient id="_ÂÁ_Ï_ÌÌ_È_ËÂÌÚ_5-22" x1="-575.58" y1="196.16" x2="-611.6" y2="239.19" gradientTransform="matrix(-.99 .17 .17 .99 -554.9 -3.17)" xlink:href="#_ÂÁ_Ï_ÌÌ_È_ËÂÌÚ_5"/><linearGradient id="_ÂÁ_Ï_ÌÌ_È_ËÂÌÚ_5-23" x1="-568.42" y1="202.12" x2="-604.57" y2="245.31" gradientTransform="matrix(-.99 .17 .17 .99 -554.9 -3.17)" xlink:href="#_ÂÁ_Ï_ÌÌ_È_ËÂÌÚ_5"/><linearGradient id="_ÂÁ_Ï_ÌÌ_È_ËÂÌÚ_5-24" x1="-576.81" y1="194.37" x2="-586.51" y2="208.98" gradientTransform="matrix(-.99 .17 .17 .99 -554.9 -3.17)" xlink:href="#_ÂÁ_Ï_ÌÌ_È_ËÂÌÚ_5"/><linearGradient id="_ÂÁ_Ï_ÌÌ_È_ËÂÌÚ_13-7" x1="-580.67" y1="202.37" x2="-589.54" y2="223.48" gradientTransform="matrix(-.99 .17 .17 .99 -554.9 -3.17)" xlink:href="#_ÂÁ_Ï_ÌÌ_È_ËÂÌÚ_13"/><linearGradient id="_ÂÁ_Ï_ÌÌ_È_ËÂÌÚ_13-8" x1="-591.77" y1="206.19" x2="-599.39" y2="226.41" gradientTransform="matrix(-.99 .17 .17 .99 -554.9 -3.17)" xlink:href="#_ÂÁ_Ï_ÌÌ_È_ËÂÌÚ_13"/><linearGradient id="_ÂÁ_Ï_ÌÌ_È_ËÂÌÚ_13-9" x1="-599.76" y1="208.48" x2="-606.85" y2="226.2" gradientTransform="matrix(-.99 .17 .17 .99 -554.9 -3.17)" xlink:href="#_ÂÁ_Ï_ÌÌ_È_ËÂÌÚ_13"/><linearGradient id="_ÂÁ_Ï_ÌÌ_È_ËÂÌÚ_13-10" x1="-580.52" y1="204.59" x2="-590.86" y2="234.69" gradientTransform="matrix(-.99 .17 .17 .99 -554.9 -3.17)" xlink:href="#_ÂÁ_Ï_ÌÌ_È_ËÂÌÚ_13"/><linearGradient id="_ÂÁ_Ï_ÌÌ_È_ËÂÌÚ_13-11" x1="-588.61" y1="202.48" x2="-598.67" y2="231.75" gradientTransform="matrix(-.99 .17 .17 .99 -554.9 -3.17)" xlink:href="#_ÂÁ_Ï_ÌÌ_È_ËÂÌÚ_13"/><linearGradient id="_ÂÁ_Ï_ÌÌ_È_ËÂÌÚ_13-12" x1="-593.32" y1="198.97" x2="-604.17" y2="230.53" gradientTransform="matrix(-.99 .17 .17 .99 -554.9 -3.17)" xlink:href="#_ÂÁ_Ï_ÌÌ_È_ËÂÌÚ_13"/><radialGradient id="_ÂÁ_Ï_ÌÌ_È_ËÂÌÚ_208" cx="37.41" cy="-82.85" r="133.49" gradientTransform="matrix(1.01 0 0 1.04 13.54 119.56)" gradientUnits="userSpaceOnUse"><stop offset=".01" stop-color="#e48125"/><stop offset=".99" stop-color="#9e1137"/></radialGradient><radialGradient id="_ÂÁ_Ï_ÌÌ_È_ËÂÌÚ_208-2" cx="47.59" cy="37.74" r="77.71" gradientTransform="translate(.03)" xlink:href="#_ÂÁ_Ï_ÌÌ_È_ËÂÌÚ_208"/><radialGradient id="_ÂÁ_Ï_ÌÌ_È_ËÂÌÚ_208-3" cx="33.85" cy="-78.62" r="75.71" xlink:href="#_ÂÁ_Ï_ÌÌ_È_ËÂÌÚ_208"/><radialGradient id="_ÂÁ_Ï_ÌÌ_È_ËÂÌÚ_208-4" cx="33.45" cy="-76.99" r="74.59" xlink:href="#_ÂÁ_Ï_ÌÌ_È_ËÂÌÚ_208"/><radialGradient id="_ÂÁ_Ï_ÌÌ_È_ËÂÌÚ_208-5" cx="33.84" cy="-78.58" r="75.63" xlink:href="#_ÂÁ_Ï_ÌÌ_È_ËÂÌÚ_208"/><radialGradient id="_ÂÁ_Ï_ÌÌ_È_ËÂÌÚ_208-6" cx="33.84" cy="-78.58" r="75.63" xlink:href="#_ÂÁ_Ï_ÌÌ_È_ËÂÌÚ_208"/><radialGradient id="_ÂÁ_Ï_ÌÌ_È_ËÂÌÚ_208-7" cx="33.26" cy="-76.38" r="74.11" xlink:href="#_ÂÁ_Ï_ÌÌ_È_ËÂÌÚ_208"/><radialGradient id="_ÂÁ_Ï_ÌÌ_È_ËÂÌÚ_208-8" cx="34.13" cy="-79.37" r="76.14" xlink:href="#_ÂÁ_Ï_ÌÌ_È_ËÂÌÚ_208"/><radialGradient id="_ÂÁ_Ï_ÌÌ_È_ËÂÌÚ_208-9" cx="33.89" cy="-79.57" r="76.49" xlink:href="#_ÂÁ_Ï_ÌÌ_È_ËÂÌÚ_208"/><radialGradient id="_ÂÁ_Ï_ÌÌ_È_ËÂÌÚ_208-10" cx="33.42" cy="-78.26" r="75.62" xlink:href="#_ÂÁ_Ï_ÌÌ_È_ËÂÌÚ_208"/><radialGradient id="_ÂÁ_Ï_ÌÌ_È_ËÂÌÚ_208-11" cx="33.45" cy="-78.28" r="75.66" xlink:href="#_ÂÁ_Ï_ÌÌ_È_ËÂÌÚ_208"/><radialGradient id="_ÂÁ_Ï_ÌÌ_È_ËÂÌÚ_208-12" cx="33.85" cy="-78.58" r="75.62" xlink:href="#_ÂÁ_Ï_ÌÌ_È_ËÂÌÚ_208"/><radialGradient id="_ÂÁ_Ï_ÌÌ_È_ËÂÌÚ_208-13" cx="33.85" cy="-78.58" r="75.62" xlink:href="#_ÂÁ_Ï_ÌÌ_È_ËÂÌÚ_208"/><radialGradient id="_ÂÁ_Ï_ÌÌ_È_ËÂÌÚ_208-14" cx="33.41" cy="-78.33" r="75.83" xlink:href="#_ÂÁ_Ï_ÌÌ_È_ËÂÌÚ_208"/><radialGradient id="_ÂÁ_Ï_ÌÌ_È_ËÂÌÚ_208-15" cx="33.61" cy="-78.28" r="75.5" xlink:href="#_ÂÁ_Ï_ÌÌ_È_ËÂÌÚ_208"/><radialGradient id="_ÂÁ_Ï_ÌÌ_È_ËÂÌÚ_208-16" cx="33.61" cy="-79.01" r="76.28" xlink:href="#_ÂÁ_Ï_ÌÌ_È_ËÂÌÚ_208"/><radialGradient id="_ÂÁ_Ï_ÌÌ_È_ËÂÌÚ_208-17" cx="34.52" cy="-78.51" r="74.89" xlink:href="#_ÂÁ_Ï_ÌÌ_È_ËÂÌÚ_208"/><radialGradient id="_ÂÁ_Ï_ÌÌ_È_ËÂÌÚ_208-18" cx="33.7" cy="-78.42" r="75.6" xlink:href="#_ÂÁ_Ï_ÌÌ_È_ËÂÌÚ_208"/><radialGradient id="_ÂÁ_Ï_ÌÌ_È_ËÂÌÚ_208-19" cx="33.84" cy="-79.14" r="76.55" xlink:href="#_ÂÁ_Ï_ÌÌ_È_ËÂÌÚ_208"/><radialGradient id="_ÂÁ_Ï_ÌÌ_È_ËÂÌÚ_208-20" cx="34.05" cy="-78.26" r="75.04" xlink:href="#_ÂÁ_Ï_ÌÌ_È_ËÂÌÚ_208"/><radialGradient id="_ÂÁ_Ï_ÌÌ_È_ËÂÌÚ_208-21" cx="33.84" cy="-78.59" r="75.63" xlink:href="#_ÂÁ_Ï_ÌÌ_È_ËÂÌÚ_208"/><radialGradient id="_ÂÁ_Ï_ÌÌ_È_ËÂÌÚ_208-22" cx="33.74" cy="-78.69" r="75.83" xlink:href="#_ÂÁ_Ï_ÌÌ_È_ËÂÌÚ_208"/><radialGradient id="_ÂÁ_Ï_ÌÌ_È_ËÂÌÚ_208-23" cx="33.72" cy="-78.25" r="75.4" xlink:href="#_ÂÁ_Ï_ÌÌ_È_ËÂÌÚ_208"/><radialGradient id="_ÂÁ_Ï_ÌÌ_È_ËÂÌÚ_208-24" cx="33.84" cy="-78.59" r="75.64" xlink:href="#_ÂÁ_Ï_ÌÌ_È_ËÂÌÚ_208"/><radialGradient id="_ÂÁ_Ï_ÌÌ_È_ËÂÌÚ_208-25" cx="33.85" cy="-78.58" r="75.62" xlink:href="#_ÂÁ_Ï_ÌÌ_È_ËÂÌÚ_208"/><radialGradient id="_ÂÁ_Ï_ÌÌ_È_ËÂÌÚ_208-26" cx="33.84" cy="-78.58" r="75.63" xlink:href="#_ÂÁ_Ï_ÌÌ_È_ËÂÌÚ_208"/><radialGradient id="_ÂÁ_Ï_ÌÌ_È_ËÂÌÚ_208-27" cx="33.84" cy="-78.58" r="75.63" xlink:href="#_ÂÁ_Ï_ÌÌ_È_ËÂÌÚ_208"/><radialGradient id="_ÂÁ_Ï_ÌÌ_È_ËÂÌÚ_208-28" cx="33.84" cy="-78.88" r="76.79" xlink:href="#_ÂÁ_Ï_ÌÌ_È_ËÂÌÚ_208"/><radialGradient id="_ÂÁ_Ï_ÌÌ_È_ËÂÌÚ_208-29" cx="33.86" cy="-78.64" r="75.82" xlink:href="#_ÂÁ_Ï_ÌÌ_È_ËÂÌÚ_208"/><radialGradient id="_ÂÁ_Ï_ÌÌ_È_ËÂÌÚ_208-30" cx="33.85" cy="-78.81" r="76.6" xlink:href="#_ÂÁ_Ï_ÌÌ_È_ËÂÌÚ_208"/><radialGradient id="_ÂÁ_Ï_ÌÌ_È_ËÂÌÚ_208-31" cx="33.81" cy="-78.5" r="75.27" xlink:href="#_ÂÁ_Ï_ÌÌ_È_ËÂÌÚ_208"/><radialGradient id="_ÂÁ_Ï_ÌÌ_È_ËÂÌÚ_208-32" cx="33.85" cy="-78.42" r="74.81" xlink:href="#_ÂÁ_Ï_ÌÌ_È_ËÂÌÚ_208"/><radialGradient id="_ÂÁ_Ï_ÌÌ_È_ËÂÌÚ_208-33" cx="33.95" cy="-78.62" r="75.62" xlink:href="#_ÂÁ_Ï_ÌÌ_È_ËÂÌÚ_208"/><radialGradient id="_ÂÁ_Ï_ÌÌ_È_ËÂÌÚ_208-34" cx="33.87" cy="-78.86" r="76.3" xlink:href="#_ÂÁ_Ï_ÌÌ_È_ËÂÌÚ_208"/><radialGradient id="_ÂÁ_Ï_ÌÌ_È_ËÂÌÚ_208-35" cx="33.82" cy="-78.52" r="75.49" xlink:href="#_ÂÁ_Ï_ÌÌ_È_ËÂÌÚ_208"/><radialGradient id="_ÂÁ_Ï_ÌÌ_È_ËÂÌÚ_208-36" cx="33.83" cy="-77.61" r="73.35" xlink:href="#_ÂÁ_Ï_ÌÌ_È_ËÂÌÚ_208"/><radialGradient id="_ÂÁ_Ï_ÌÌ_È_ËÂÌÚ_208-37" cx="34.02" cy="-78.58" r="75.42" xlink:href="#_ÂÁ_Ï_ÌÌ_È_ËÂÌÚ_208"/><radialGradient id="_ÂÁ_Ï_ÌÌ_È_ËÂÌÚ_208-38" cx="33.79" cy="-78.74" r="76.04" xlink:href="#_ÂÁ_Ï_ÌÌ_È_ËÂÌÚ_208"/><radialGradient id="_ÂÁ_Ï_ÌÌ_È_ËÂÌÚ_208-39" cx="33.24" cy="-77" r="72.73" xlink:href="#_ÂÁ_Ï_ÌÌ_È_ËÂÌÚ_208"/><radialGradient id="_ÂÁ_Ï_ÌÌ_È_ËÂÌÚ_208-40" cx="33.72" cy="-78.82" r="76.23" xlink:href="#_ÂÁ_Ï_ÌÌ_È_ËÂÌÚ_208"/><radialGradient id="_ÂÁ_Ï_ÌÌ_È_ËÂÌÚ_208-41" cx="34.04" cy="-78.67" r="75.36" xlink:href="#_ÂÁ_Ï_ÌÌ_È_ËÂÌÚ_208"/><radialGradient id="_ÂÁ_Ï_ÌÌ_È_ËÂÌÚ_208-42" cx="33.87" cy="-78.04" r="74.77" xlink:href="#_ÂÁ_Ï_ÌÌ_È_ËÂÌÚ_208"/><radialGradient id="_ÂÁ_Ï_ÌÌ_È_ËÂÌÚ_208-43" cx="33.84" cy="-77.91" r="72.59" xlink:href="#_ÂÁ_Ï_ÌÌ_È_ËÂÌÚ_208"/><radialGradient id="_ÂÁ_Ï_ÌÌ_È_ËÂÌÚ_208-44" cx="33.79" cy="-78.48" r="75.28" xlink:href="#_ÂÁ_Ï_ÌÌ_È_ËÂÌÚ_208"/><radialGradient id="_ÂÁ_Ï_ÌÌ_È_ËÂÌÚ_208-45" cx="33.84" cy="-78.55" r="75.37" xlink:href="#_ÂÁ_Ï_ÌÌ_È_ËÂÌÚ_208"/><radialGradient id="_ÂÁ_Ï_ÌÌ_È_ËÂÌÚ_208-46" cx="33.8" cy="-78.08" r="73.47" xlink:href="#_ÂÁ_Ï_ÌÌ_È_ËÂÌÚ_208"/><radialGradient id="_ÂÁ_Ï_ÌÌ_È_ËÂÌÚ_208-47" cx="33.42" cy="-78.14" r="75.7" xlink:href="#_ÂÁ_Ï_ÌÌ_È_ËÂÌÚ_208"/><radialGradient id="_ÂÁ_Ï_ÌÌ_È_ËÂÌÚ_208-48" cx="33.85" cy="-78.59" r="75.62" xlink:href="#_ÂÁ_Ï_ÌÌ_È_ËÂÌÚ_208"/><style>.cls-111{fill:#efffe8}.cls-140{fill:#aae0f2}</style></defs><g style="isolation:isolate"><g id="Layer_2" data-name="Layer 2"><g id="Layer_1-2" data-name="Layer 1"><path d="M390 86.05c-3.68-.76-9.57-.67-18.78-.58-10.48-.7-20.72 4.59-31.13 6.65-12.32 2.43-24.83.31-37.2 1.94-15.05 2.2-29.69 9-44.78 11.34-32.92 5.85-66.42 3.1-99.23-.84a109 109 0 0 1-33.49-3.27c-30.14-6.9-60.61-5.14-90.85-4-11.06-8.44-22.88-6.72-34.49.8v64H390Z" style="fill:url(#_ÂÁ_Ï_ÌÌ_È_ËÂÌÚ_5)"/><path d="M371.34 145.22c-33.63-5.62-67.9-5.22-101.8-4.29 25.37-3.55 50.67-9.25 76.25-9.09 7-.19 14.06 1.52 21.08 1.8 6.08-6.55-17.45-6.3-20.14-6.68-.13-3.7-6.13-4.13-8.48-4.62-1.72-.88-6.4 2.78-3.71 4.57-19.43.62-38.65 4.81-57.94 7.55-25.65.66-51.31 1-77 1.2 2.53-3.29-6.84-2.42-7.13 0-88.79 1.12 39.12 3 61.26 1.79-39.2 4.64-78.59 5.55-118 4.49 3.71-2.52-7.3-3.15-4-.08-44.21-.72-87.69-3.79-131.82-7.23 32.43 6.38 69.32 7.17 103.54 9.34-1.82.55-5.92-.15-6.41 2.23 3.6 5.82 11.2 2.14 15.65 1.34 2-1.49-1.55-3-2.54-3.3 43.84.28 87.62 5 131.35.05 17 .42 34.2-1.66 51.27-1.31.76 3.32 7.42 1.69 9.41 0q27.22.3 54.4 2.88c2.06-.15 16.91 3.36 14.76-.64Z" style="fill:url(#_ÂÁ_Ï_ÌÌ_È_ËÂÌÚ_5-2)"/><path d="M221.1 133.16c-.79-.77-4.06-.39-2.39 1.15.66.17 3.29.25 2.39-1.15Z" style="fill:url(#_ÂÁ_Ï_ÌÌ_È_ËÂÌÚ_5-3)"/><path d="M142.18 123.47c-1.08-.73-13.19-1.08-10.72 1.73 1.68 1.46 12.75 2.89 10.72-1.73Z" style="fill:url(#_ÂÁ_Ï_ÌÌ_È_ËÂÌÚ_5-4)"/><path d="M148.5 127.31a24.83 24.83 0 0 1-3.18-.45c-2.82 1.64 4.99 3.24 3.18.45Z" style="fill:url(#_ÂÁ_Ï_ÌÌ_È_ËÂÌÚ_5-5)"/><path d="M272.38 119.66c-11.51 1.11-23 3.58-34.49 4.7 7.72-4.34-12.28-3.5-4.19.47a209.18 209.18 0 0 1-92.23-8.38c-30.35-6.7-61.32-8.29-92-6.71-.53 0-.54 1.25 0 1.25 44.18-1.89 87.82 6.44 131.14 16.43 22.65 2.67 45.41.75 68-2.31 2.85-1.03 27.23-1.87 23.77-5.45Z" style="fill:url(#_ÂÁ_Ï_ÌÌ_È_ËÂÌÚ_5-6)"/><path d="M248.25 117.2c-.93 0-4.39.43-3.31 2.19.74.23 4.36-1.03 3.31-2.19Z" style="fill:url(#_ÂÁ_Ï_ÌÌ_È_ËÂÌÚ_5-7)"/><path d="M344.32 112.41c-.64-1.51-3.43-1.26-1.91.68.59.33 2.17.65 1.91-.68Z" style="fill:url(#_ÂÁ_Ï_ÌÌ_È_ËÂÌÚ_5-8)"/><path d="M282.51 157.2c-7.09-5.31-16-4-23.88-5.27-8.09-.79-16.19-1.63-24.29-2-6.47-.88-46.45 4.08-47.24 10.77 15.74 2.2 31.76-4.49 47.7-2.36 6.42-1.04 49.9 8.66 47.71-1.14Z" style="fill:url(#_ÂÁ_Ï_ÌÌ_È_ËÂÌÚ_5-9)"/><path d="M298.16 153.2c-.59-.86-3.78-1.79-2.59.17.62.44 3.23 1.68 2.59-.17Z" style="fill:url(#_ÂÁ_Ï_ÌÌ_È_ËÂÌÚ_5-10)"/><path d="M172.68 154.58c-1.25.38-4.12-2-4.16.73.32 4.57 6.24 1.5 4.16-.73Z" style="fill:url(#_ÂÁ_Ï_ÌÌ_È_ËÂÌÚ_5-11)"/><path d="M38.14 141.41c-1.33-1.46-8.41-2.4-7.23 1.23.91 1.13 8.82 1.66 7.23-1.23Z" style="fill:url(#_ÂÁ_Ï_ÌÌ_È_ËÂÌÚ_5-12)"/><path d="M45.58 148.7a2.89 2.89 0 0 0-2.94-.22c-1.35 2.21 4.06 2.9 2.94.22Z" style="fill:url(#_ÂÁ_Ï_ÌÌ_È_ËÂÌÚ_5-13)"/><path d="M31.14 143.44c-.91-1.18-5.15-.8-3.57 1.41.92.76 4.55.76 3.57-1.41Z" style="fill:url(#_ÂÁ_Ï_ÌÌ_È_ËÂÌÚ_5-14)"/><path d="M97.17 76.73c-.06 1.13-1.11 1.12-1.9.92-6.79-.53-6.71 9.39-4.5 13.73 5.41 9.35 6.52 12.07-5.58 12.7-5.6-3.69 6.31-15.25-8.62-22.43-20.48-8.33-13.21 13.51-19.68 12.92-2.72-.16-3.82-2.36-2.38-4.8 1.12-2.28-.59-4.27-2.69-2.46-1.44.82-2.1 2.91-3.53 3.62-2.46-.39-5.39-2-5.66-4.92 5-6.39 16.58-2.09 15-7.55-4.5-4.24-11.84-1.46-15.69 2.46-.64.78-1.29 1.77-2.22 1.76-2.18-.45-5.3-3.31-3.54-5.68.94-1 2.92-.55 3.33-2.17-.43-3.69-7-.12-8.24-3.9-.82-2.6 1-7 3.67-7.68 2.22-.33 2.31 3.66 4.52 3.33 1.92-.52 0-1.91-.62-2.66-.7-2.17 2.58-3.16 4.13-2.9a1.1 1.1 0 0 1 .86.8 13.9 13.9 0 0 0 6 8C51.75 71.1 57.56 72 57 68.38c-3.9-6.08-12.34-6.55-17.85-10.67-3.31-1.09.09-5.52 2-6.25 1.16.19 2.62 3.45 3.34.76.36-2.57-4.38-3.52-2.46-6.33a6.81 6.81 0 0 1 6.34-3.43c1.22 1.38 1.27 3.44 1.53 5.21.5 2.54 4.23 3.18 2.38 0-.65-.92-1.74-2.47 0-2.84 2.16-.82 7.1-.62 6.22 2.73-2.1 4-2.83 10.78 2.09 12.75 2.12 1.32 7 2.94 6.94-1.24 0-2.71-3-3.82-3.59-6.32-.57-2.75 4.56-4.6 6.06-2.62.67 1.07-.23 2.38.07 3.53.52 1.52 1.86.57 1.6-.76 0-1.92-1.09-3.47-1.81-5.08 2.48-3.63 11.6-.62 10.12 4.34-1.46 1.9-3.81 4.36-.1 5.32 1.44-.63.83-3.58 3-3.47 7.8 1.51 2.3 5.43 0 9.26-2.06 3.74-3 12.52 2.32 13.4.78-1.44.15-3.13.54-4.68.54-2.46 2.44-4.26 2.89-6.76 0-1.69 1.17-3 2.73-2.05 7.39 5.1 1.24 4.78-.43 8.36 1.63 2.69 6.49-4.48 6.24 5.19Z" style="fill:url(#_ÂÁ_Ï_ÌÌ_È_ËÂÌÚ_208)"/><path d="M56 94.36h.06-.05Zm26.49-10.29c-3.15-7.85-13.79-10.38-20-5.09-3.17 3.31-2.91 14.64-5.55 15.59 3.75.84 3.63-10.37 6.3-12.7 6.92-5.34 20.19.47 21.32 9.65.35-2.64-.8-5.17-2.07-7.45ZM96.4 72.12a1.28 1.28 0 0 0-.21-.28c-.62 1.29.34 5.84-2.08 4.46-3.23-.27-5.53 4.32-6.64 7-1.75 6 5.68 10 5.45 15.89-.16 4.17-5.19 3.26-7.73 4.85 12.11-.63 11-3.34 5.58-12.7-2.21-4.34-2.29-14.26 4.5-13.73 3.07.96 1.93-3.97 1.13-5.49ZM85.93 57.38c-.72 1-2.49-.5-2.8 1-1.27 5.24-4.77 10.19-2.52 15.75 2 5.56 7 3.66 5.11-2.09-.39 1.55.24 3.23-.54 4.67-5.37-.88-4.38-9.66-2.32-13.4.92-2.43 4.15-3.94 4-6.62a1.86 1.86 0 0 0-.93.69Zm-7.53-6.07c-1.71-.68-1.47 1-2 2.22-.66 1.19-2 2.46-.87 3.87 1.42 1.46 5.12 2.23 5.13-.74-.49 1.57-2.2.48-2.7-.5-.72-2.2 2.55-3.08 2.2-5.26a9.48 9.48 0 0 1-1.76.41Zm-6.15-.07a3.52 3.52 0 0 0-1.33-1.46c.9 1 1.28 6.77-.82 3.88-.31-1.15.6-2.45-.07-3.53-.1 1.73-1.92 3.85-.4 5.31 2.77 1.64 4.09-2.09 2.62-4.2ZM54.37 86c-1.7-1.08-4.84 0-6 1.63-.78 1 .62 2.49-.06 3.29 1.84-1 3.85-6.08 6.32-3.72a2.49 2.49 0 0 0-.26-1.2Zm1.23-10c-4.18-2.11-10.53-2.47-14.25.76-1.35 1.6-.15 5.24-2.76 5.49C40.91 83.9 42 80 43.9 79.13c4.1-2.43 9.82-4.51 13.76-.67A5.34 5.34 0 0 0 55.6 76Zm2.21 3.48h.09a1 1 0 0 0 0-.18 1.94 1.94 0 0 1-.09.15Zm-17.21-6.3c-.39-7.52-5.18.9-8.78-1.42 1.76 2.54 7.28-.42 7.69 3.07a1.73 1.73 0 0 0 1.09-1.65Zm-.46-8.58a10 10 0 0 1-1.3-.68c.66.75 2.54 2.14.62 2.66-2.21.33-2.3-3.66-4.52-3.33 2.15.47 1.91 3 3.4 4.09 1.6.53 3.85-1.63 1.8-2.74Zm17.41 3.22c-2.33-6-9.48-6.53-14.15-9.45-1.21-.88-1.3-3.25-2.64-3.74-.73.53-.86 1.61-1.45 2.19-1.17.4-1.22-.83-1.38-1.67-1.58 3.36 11 6.87 13.43 8.52 7.94 3.15 7.39 9.93-1.5 6.17 2.14 1.62 8.79 2.16 7.69-2.02Zm-12.75-20c-.9-1-2 .79-3 .28.64 1.55 3 2.17 2.68 4.15.93-.98.67-3.25.32-4.46Zm8.53.2a4.26 4.26 0 0 0-2-2.21c.2 1.18 2.67 3.34.86 4.12-3.35-.62-1.8-5.32-3.7-7.37.46 1.61 0 3.08-.29 4.67-.15 3.02 6.31 5.18 5.13.77Zm5.15-1.41c-2.09 1.48-3.6 1.22-2.8 4.58-.81 5.26-.39 7.33 5 9.11-5.88-2.51-3.21-9.38-2-13.94ZM91.05 71.2c.74-1.64 2.57-2 3.59-3.24-1.52.36-3.2-1-4 .81-2.18 3.54-.37 4.75 3 3.07-.64.16-3.32.86-2.59-.64Z" style="fill:url(#_ÂÁ_Ï_ÌÌ_È_ËÂÌÚ_208-2)"/><path d="M70.58 77.33c-2-2.49-5.73-.69-8.24-2.16-2-1.64-.85-5.71 1.81-5.56 1.77.51 2.7 2.93 4.39 3.3.22-1.72-1.37-3.89-.4-5.74 1-2 4.7-1.37 5.11.76-.27 2.09-.91 4.19-.76 6.33 1.16-.56 1.07-2.24 1.94-3.13 1.54-2.47 5.16-1.6 4.89 1.53.18 1-.31 2.13-1.45 1.92a12.48 12.48 0 0 0-3 1.29 11.46 11.46 0 0 1 .85 3.13c-1.9.74-3.64-.41-5.17-1.35.18.05.08-.25.03-.32Z" style="fill:url(#_ÂÁ_Ï_ÌÌ_È_ËÂÌÚ_208-3)"/><path d="M31.87 70.65c1.45 1 2.28-1.92 3.15-2.75 1.72-1.64.29-5.14-1.89-3.06-.97 1.53-2.26 4.08-1.26 5.81Z" style="fill:url(#_ÂÁ_Ï_ÌÌ_È_ËÂÌÚ_23);mix-blend-mode:screen"/><path d="M39.4 53.28c-2.57 3.64 2 .93 1.66-.94-.93-.3-1.85 1.07-2.29 1.82Z" style="fill:url(#_ÂÁ_Ï_ÌÌ_È_ËÂÌÚ_23-2);mix-blend-mode:screen"/><path d="M45.45 45c6.17-4.38-2.08-1.49-3.05.85-1.4 2.77 2.34-.22 3.05-.85Z" style="fill:url(#_ÂÁ_Ï_ÌÌ_È_ËÂÌÚ_23-3);mix-blend-mode:screen"/><path d="M53.23 46c1.11.06 4.25 1.85 4.11-.14-.54-1.49-7.34-1.24-4.11.14Z" style="fill:url(#_ÂÁ_Ï_ÌÌ_È_ËÂÌÚ_23-4);mix-blend-mode:screen"/><path d="M64.78 51.08c-.73 1.82 4.15.44 4.42-.57-.06-1.99-3.66-.63-4.42.57Z" style="fill:url(#_ÂÁ_Ï_ÌÌ_È_ËÂÌÚ_23-5);mix-blend-mode:screen"/><path d="M71.49 48.2c1.66.79 9.58 3.28 7.31.43-1.83-1.56-5.47-2.53-7.64-1.31-.52.28-.38.54.33.88Z" style="fill:url(#_ÂÁ_Ï_ÌÌ_È_ËÂÌÚ_23-6);mix-blend-mode:screen"/><path d="M81.86 56c1.08.26 2.81 1.12 3.75.3.43-1.59-2.21-2.47-3.34-1.72-.41.2-1.09 1.07-.41 1.42Z" style="fill:url(#_ÂÁ_Ï_ÌÌ_È_ËÂÌÚ_23-7);mix-blend-mode:screen"/><path d="M92.79 67c1.65.58 1.23-1.23.67-2-1.34-2.26-6.23-2.65-2.57.69a5.84 5.84 0 0 0 1.9 1.31Z" style="fill:url(#_ÂÁ_Ï_ÌÌ_È_ËÂÌÚ_23-8);mix-blend-mode:screen"/><path d="M39.8 63.13c.91-.4 1.88-.68 2.75-1.14.69-.63-.48-.8-.87-.75-.78-.17-4.08 2.14-1.88 1.89Z" style="fill:url(#_ÂÁ_Ï_ÌÌ_È_ËÂÌÚ_23-9);mix-blend-mode:screen"/><path d="M37.31 80.13c.49-.7 1.16-2.65.09-3.12-1.97-.4-1.51 2.71-.09 3.12Z" style="fill:url(#_ÂÁ_Ï_ÌÌ_È_ËÂÌÚ_23-10);mix-blend-mode:screen"/><path d="M44.74 84.71c.59-.59 3.56-1.64 2 0-3.45 1.78-2 1.92-.59 4.48-1.14.74-2.55-1.56-3-2.57.11-.9.9-1.47 1.59-1.91Z" style="fill:url(#_ÂÁ_Ï_ÌÌ_È_ËÂÌÚ_23-11);mix-blend-mode:screen"/><path d="M54.41 92.49c0 .87 1.5 1.89 1.75.76-.74-1-.3-2.37-.54-3.56-.46-1.3-1.37 2.38-1.21 2.8Z" style="fill:url(#_ÂÁ_Ï_ÌÌ_È_ËÂÌÚ_23-12);mix-blend-mode:screen"/><path d="M62 74.87c1.38.81 3-3.27 2.73-4.49-1.42-2.79-4.73 2.46-2.73 4.49Z" style="fill:url(#_ÂÁ_Ï_ÌÌ_È_ËÂÌÚ_23-13);mix-blend-mode:screen"/><path d="M68.05 67.75c.59 1.59 5.78 1.71 4.85-.6-1-1.46-4.79-1.69-4.85.6Z" style="fill:url(#_ÂÁ_Ï_ÌÌ_È_ËÂÌÚ_23-14);mix-blend-mode:screen"/><path d="M76.54 70.62c.39 1.18 1 3.39 2.52 3.3.54-1.24.2-3.47-1.17-4-.55-.21-1.44-.09-1.35.7Z" style="fill:url(#_ÂÁ_Ï_ÌÌ_È_ËÂÌÚ_23-15);mix-blend-mode:screen"/><path d="M93 99.56a.58.58 0 0 0-1.11.35c.23.81 1.5.45 1.11-.35Z" style="fill:url(#_ÂÁ_Ï_ÌÌ_È_ËÂÌÚ_208-4)"/><path d="M90.91 94.54c-1 .28-.6 1.9.41 1.62a.84.84 0 0 0-.41-1.62Z" style="fill:url(#_ÂÁ_Ï_ÌÌ_È_ËÂÌÚ_208-5)"/><path d="M90.64 97.85c-.46.12-.27.87.19.74a.38.38 0 0 0-.19-.74Z" style="fill:url(#_ÂÁ_Ï_ÌÌ_È_ËÂÌÚ_208-6)"/><path d="M90.89 91.9a1 1 0 0 0-1.49-.2c-1.32 1.79 2.33 2.3 1.49.2Z" style="fill:url(#_ÂÁ_Ï_ÌÌ_È_ËÂÌÚ_208-7)"/><path d="M88.75 101.08c-.41-.26-.8.42-.38.66s.8-.42.38-.66Z" style="fill:url(#_ÂÁ_Ï_ÌÌ_È_ËÂÌÚ_208-8)"/><path d="M87.06 98.7c-.32-.35-.79.31-.38.54s.74-.35.38-.54Z" style="fill:url(#_ÂÁ_Ï_ÌÌ_È_ËÂÌÚ_208-9)"/><path d="M89.25 97.15c-.38-.71-1.44-.07-1 .62s1.4.07 1-.62Z" style="fill:url(#_ÂÁ_Ï_ÌÌ_È_ËÂÌÚ_208-10)"/><path d="M87.18 84.61c-.44-.8-1.63-.08-1.18.71s1.63.08 1.18-.71Z" style="fill:url(#_ÂÁ_Ï_ÌÌ_È_ËÂÌÚ_208-11)"/><path d="M88.23 80.29c-.46.12-.27.87.19.74a.38.38 0 0 0-.19-.74Z" style="fill:url(#_ÂÁ_Ï_ÌÌ_È_ËÂÌÚ_208-12)"/><path d="M86.32 82.05a.28.28 0 0 0 .14.55.28.28 0 0 0-.14-.55Z" style="fill:url(#_ÂÁ_Ï_ÌÌ_È_ËÂÌÚ_208-13)"/><path d="M90.72 76.68c-.37-.67-1.38-.07-1 .6a.58.58 0 0 0 1-.6Z" style="fill:url(#_ÂÁ_Ï_ÌÌ_È_ËÂÌÚ_208-14)"/><path d="M80.09 79.51c-.31-.57-1.18-.06-.86.5a.5.5 0 0 0 .86-.5Z" style="fill:url(#_ÂÁ_Ï_ÌÌ_È_ËÂÌÚ_208-15)"/><path d="M82.34 82.13c-.32-.31-.93.21-.49.52s.78-.21.49-.52Z" style="fill:url(#_ÂÁ_Ï_ÌÌ_È_ËÂÌÚ_208-16)"/><path d="M79.59 77.19c-.42-.2-.4.58 0 .52.17-.06.16-.42 0-.52Z" style="fill:url(#_ÂÁ_Ï_ÌÌ_È_ËÂÌÚ_208-17)"/><path d="M84.25 79.17c-.14-.43-.69.06-.3.26a.14.14 0 0 0 .26-.07.21.21 0 0 0 .04-.19Z" style="fill:url(#_ÂÁ_Ï_ÌÌ_È_ËÂÌÚ_208-18)"/><path d="M57.35 83c-.36-.22-.82.34-.42.6s.83-.36.42-.6Z" style="fill:url(#_ÂÁ_Ï_ÌÌ_È_ËÂÌÚ_208-19)"/><path d="M57.46 84.84c-.26-.15-.6.4-.31.56s.57-.4.31-.56Z" style="fill:url(#_ÂÁ_Ï_ÌÌ_È_ËÂÌÚ_208-20)"/><path d="M59.12 81.37a.38.38 0 0 0 .19.73c.44-.1.26-.85-.19-.73Z" style="fill:url(#_ÂÁ_Ï_ÌÌ_È_ËÂÌÚ_208-21)"/><path d="M55.22 83.9c-.3-.44-.81.07-.56.47s.89-.06.56-.47Z" style="fill:url(#_ÂÁ_Ï_ÌÌ_È_ËÂÌÚ_208-22)"/><path d="M78.82 61.93c-.34-.92-1.8-.37-1.53.57.32 1.15 1.9.5 1.53-.57Z" style="fill:url(#_ÂÁ_Ï_ÌÌ_È_ËÂÌÚ_208-23)"/><path d="M76 63.73c-.31.09-.18.59.13.51a.26.26 0 0 0-.13-.51Z" style="fill:url(#_ÂÁ_Ï_ÌÌ_È_ËÂÌÚ_208-24)"/><path d="M75.91 60.81a.28.28 0 0 0 .14.55.28.28 0 0 0-.14-.55Z" style="fill:url(#_ÂÁ_Ï_ÌÌ_È_ËÂÌÚ_208-25)"/><path d="M73.61 63.53a.3.3 0 0 0 .15.59.3.3 0 0 0-.15-.59Z" style="fill:url(#_ÂÁ_Ï_ÌÌ_È_ËÂÌÚ_208-26)"/><path d="M79.57 61.62c-.33.09-.19.62.13.53s.2-.62-.13-.53Z" style="fill:url(#_ÂÁ_Ï_ÌÌ_È_ËÂÌÚ_208-27)"/><path d="M48.75 57.64c-.23 0-.48.12-.41.38.21.64 1.11-.23.41-.38Z" style="fill:url(#_ÂÁ_Ï_ÌÌ_È_ËÂÌÚ_208-28)"/><path d="M51.72 57.75c-.28-.15-.59.35-.29.52s.57-.34.29-.52Z" style="fill:url(#_ÂÁ_Ï_ÌÌ_È_ËÂÌÚ_208-29)"/><path d="M49 55.5c-.25-.19-.65.28-.38.46.3.37.78-.22.38-.46Z" style="fill:url(#_ÂÁ_Ï_ÌÌ_È_ËÂÌÚ_208-30)"/><path d="M46.75 55.5c-1 0-1 1.57 0 1.35 1.02-.03 1-1.53 0-1.35Z" style="fill:url(#_ÂÁ_Ï_ÌÌ_È_ËÂÌÚ_208-31)"/><path d="M48.63 52.72c-.31-.29-.65.28-.32.48s.6-.27.32-.48Z" style="fill:url(#_ÂÁ_Ï_ÌÌ_È_ËÂÌÚ_208-32)"/><path d="M55 60.19c-.41-.3-.76.46-.31.64s.63-.43.31-.64Z" style="fill:url(#_ÂÁ_Ï_ÌÌ_È_ËÂÌÚ_208-33)"/><path d="M43.78 69.33c-.35-.36-.94.19-.57.56s.92-.2.57-.56Z" style="fill:url(#_ÂÁ_Ï_ÌÌ_È_ËÂÌÚ_208-34)"/><path d="M44.58 71.73c-.47-.25-1 .66-.55 1s.97-.73.55-1Z" style="fill:url(#_ÂÁ_Ï_ÌÌ_È_ËÂÌÚ_208-35)"/><path d="M46 71.19c-.15-.41-.85-.28-.73.2s.73.23.73-.2Z" style="fill:url(#_ÂÁ_Ï_ÌÌ_È_ËÂÌÚ_208-36)"/><path d="M62.34 65.18c-.29-.27-.66.22-.28.38.18.07.47-.24.28-.38Z" style="fill:url(#_ÂÁ_Ï_ÌÌ_È_ËÂÌÚ_208-37)"/><path d="M63.53 64.23c-.28-.39-.66.09-.45.43s.74-.09.45-.43Z" style="fill:url(#_ÂÁ_Ï_ÌÌ_È_ËÂÌÚ_208-38)"/><path d="M61.26 63.88c-.1-.06-.27-.13-.36 0-.9.69 1.03.92.36 0Z" style="fill:url(#_ÂÁ_Ï_ÌÌ_È_ËÂÌÚ_208-39)"/><path d="M71.6 58.65c-.53-.63-1.16.65-.47.88.45.12.72-.53.47-.88Z" style="fill:url(#_ÂÁ_Ï_ÌÌ_È_ËÂÌÚ_208-40)"/><path d="M72.88 58.08c-.36-.54-1.16.23-.4.31s.15.2.15.17c.3.33.52-.33.25-.48Z" style="fill:url(#_ÂÁ_Ï_ÌÌ_È_ËÂÌÚ_208-41)"/><path d="M73.17 60.06a.4.4 0 0 0-.78.21c.14.52.86.27.78-.21Z" style="fill:url(#_ÂÁ_Ï_ÌÌ_È_ËÂÌÚ_208-42)"/><path d="M51 54.29c-.19-.31-.93-.33-.78.17-.33.98 1.31.68.78-.17Z" style="fill:url(#_ÂÁ_Ï_ÌÌ_È_ËÂÌÚ_208-43)"/><path d="M53.47 52.75c-.48-.88-1.81-.09-1.31.78a.76.76 0 0 0 1.31-.78Z" style="fill:url(#_ÂÁ_Ï_ÌÌ_È_ËÂÌÚ_208-44)"/><path d="M48.47 49.93c-.16-.3-.84-.17-.58.23a.31.31 0 1 0 .58-.23Z" style="fill:url(#_ÂÁ_Ï_ÌÌ_È_ËÂÌÚ_208-45)"/><path d="M44.64 55.68c-.15-.08-.38 0-.34.19s.59-.03.34-.19Z" style="fill:url(#_ÂÁ_Ï_ÌÌ_È_ËÂÌÚ_208-46)"/><path d="M88.33 71.37a.38.38 0 0 0-.66.38c.24.5 1.06.09.66-.38Z" style="fill:url(#_ÂÁ_Ï_ÌÌ_È_ËÂÌÚ_208-47)"/><path d="M87.88 74.55A.21.21 0 0 0 88 75c.24-.11.14-.53-.12-.45Z" style="fill:url(#_ÂÁ_Ï_ÌÌ_È_ËÂÌÚ_208-48)"/><path d="M47.16 56.86c1.67 1.62 4.13 2.11 6.19 3.08 4.18.86-2.3-9.27-4.66-9-2.54-.18-2.82 4.37-1.53 5.92Z" style="fill:url(#_ÂÁ_Ï_ÌÌ_È_ËÂÌÚ_23-16);mix-blend-mode:screen"/><path d="M44.74 72.89c1.2.53 2.73 0 3.84-.76-.55-2-4.18-7-5.63-3.19-.04 1.43.43 3.28 1.79 3.95Z" style="fill:url(#_ÂÁ_Ï_ÌÌ_È_ËÂÌÚ_23-17);mix-blend-mode:screen"/><path d="M70.45 62.48c.41 3.33 4.22 2 5.42 0 .28-5.81-6.97-7.28-5.42 0Z" style="fill:url(#_ÂÁ_Ï_ÌÌ_È_ËÂÌÚ_23-18);mix-blend-mode:screen"/><path d="M66.43 72.93c2.1 13 10.62 24.2 19.88 32.64 5.43 4.24 12.22 8.25 19.12 7.16 2.85-1 2.39-4.53.37-6.25-2.93-3.22-6.46-5.79-9.11-9.25A21.72 21.72 0 0 1 93 79.14c.45-1.87 1.16-3.88.48-5.67-4.77-8.2-29.05-17.3-27.05-.54Z" style="fill:url(#_ÂÁ_Ï_ÌÌ_È_ËÂÌÚ_39)"/><path d="M66.66 68.21c1.76 4.8 8.37 5.6 12.56 7.37 3.69 1.72 10.78-.7 9.78-5.71-3.64-5.29-19.9-10.39-22.34-1.66Z" style="fill:url(#_ÂÁ_Ï_ÌÌ_È_ËÂÌÚ_37);mix-blend-mode:screen"/><path d="M91.44 107.2c3.32 3.37 13.26 9.69 16 3.08-.89-5.77-7.88-8.33-10.8-13-1.64 3.28-3.74 6.51-5.2 9.92Z" style="fill:url(#_ÂÁ_Ï_ÌÌ_È_ËÂÌÚ_39-2)"/><path d="M70 77.92c5.33 4.55 12.41 6.1 19.2 7.5-7.4-.37-15-1.9-21.23-5.94a43.93 43.93 0 0 0 4.27 9 28.85 28.85 0 0 0 20.46-.37 22.62 22.62 0 0 1-.29-5.39c-9.28-.38-19.27-2.65-26-9.75.06.55.15 1.12.25 1.68A40 40 0 0 0 70 77.92Z" style="fill:url(#_ÂÁ_Ï_ÌÌ_È_ËÂÌÚ_39-3)"/><path d="M86.8 75.86c-3.8-.78-19.28-4.13-17.51-9.35 3.27-3.77 9.94-1 13.76.47 4.95 1.54 16.12 10.55 3.75 8.88Z" style="fill:url(#_ÂÁ_Ï_ÌÌ_È_ËÂÌÚ_39-4)"/><path d="M74.24 102a33.63 33.63 0 0 0 15.86 11.2c2.25.72 20.35 6.29 17.42.67-6.25-4-13.55-8.49-15.37-16.51-.53-2-.94-3.34-3.07-4.49C83 89.12 67 92.33 74.24 102Z" style="fill:url(#_ÂÁ_Ï_ÌÌ_È_ËÂÌÚ_39-5)"/><path d="M74.24 102c4.33 7.76 14.84 6.49 20.75 1.51a17.73 17.73 0 0 1-1.36-2.19 19.42 19.42 0 0 1-11.71 2.58c4-.73 8.72-2.1 10.27-6.41a.65.65 0 0 0 0-.13c-4.26 5.39-11.85 4.85-17.95 4.64Z" style="fill:url(#_ÂÁ_Ï_ÌÌ_È_ËÂÌÚ_39-6)"/><path d="M72.61 96.89c2.2 4.86 8 2 12 3.73a27.39 27.39 0 0 1 8.22 3.55c.44.29 1.1.56 1.41.13.78-2.18-1.53-3.93-1.8-6.07-.65-2.28-.86-4.12-3.33-5.41-4.26-2.35-16.11-2.44-16.5 4.07Z" style="fill:url(#_ÂÁ_Ï_ÌÌ_È_ËÂÌÚ_37-2);mix-blend-mode:screen"/><path d="M78.51 99c-10.2-1.32-1.89-7.9 4-7 6.11-.35 12.29 4.62 3 6.83a21.8 21.8 0 0 1-7 .17Z" style="fill:url(#_ÂÁ_Ï_ÌÌ_È_ËÂÌÚ_39-7)"/><path d="M112.39 115.06C126 119.37 155.2 99.24 152 83.49c-1.89-2.78-8.6-1.41-11.39-.71-7.1.57-11.6 6.28-14.87 12.27-2.22 5.18-15.02 15.82-13.35 20.01Z" style="fill:url(#_ÂÁ_Ï_ÌÌ_È_ËÂÌÚ_39-8)"/><path d="M131.65 99c6.57 8.08 17.82-.49 19.89-8.56-4.9 3-11.75 5.11-17 1.8 1.14 4.24 7.91 3.83 11.49 3.66-4 2.14-9.3 3.39-13.27.52-.37.79-1.76 1.58-1.11 2.58Z" style="fill:url(#_ÂÁ_Ï_ÌÌ_È_ËÂÌÚ_39-9)"/><path d="M141.94 91c.61 2.08 1.29 4.25 2.79 5.76 4.53-2.36 8.73-7.75 7.3-13.24-4.84-4.52-13.45-.1-10.09 7.48Z" style="fill:url(#_ÂÁ_Ï_ÌÌ_È_ËÂÌÚ_37-3);mix-blend-mode:screen"/><path d="M151.06 87.6c-2.65 1.75-15.45 2.71-16.76-.64-.05-.92.95-1.54 1.83-1.9 3.39-1.78 18.5-5.87 14.93 2.54Z" style="fill:url(#_ÂÁ_Ï_ÌÌ_È_ËÂÌÚ_39-10)"/><path d="M111.43 116.4c15.41-1.82 32.32-30.79 32.15-45.76-22.92-33.19-28.32 20.81-33.52 37.26-.37 3.03-4.25 8.92 1.37 8.5Z" style="fill:url(#_ÂÁ_Ï_ÌÌ_È_ËÂÌÚ_39-11)"/><path d="M124.42 68.34a43.18 43.18 0 0 1 17.51 12c.24-.73.46-1.46.67-2.19-3.34-5-8.55-8.08-13.55-11 5 .55 9.25 3.61 13 7a21.65 21.65 0 0 0-15.47-9.34 9.18 9.18 0 0 1-2.16 3.53Z" style="fill:url(#_ÂÁ_Ï_ÌÌ_È_ËÂÌÚ_39-12)"/><path d="M122.21 84.13A114.91 114.91 0 0 1 134 97.38c.92-1.43 1.77-2.89 2.57-4.38q-2.76-3.15-5.75-6.07a47.06 47.06 0 0 1 6.43 4.76c.62-1.18 1.2-2.38 1.74-3.59a46.74 46.74 0 0 0-15.1-8.31c-.65 1.48-1.07 2.85-1.68 4.34Z" style="fill:url(#_ÂÁ_Ï_ÌÌ_È_ËÂÌÚ_39-13)"/><path d="M110.31 111.07a37.92 37.92 0 0 0 1.12 5.33c7.85-.58 13-7.29 18-12.73-4.45-2.36-9.42-5.43-11.79-10.2-3.18 4.22-6.23 9.24-7.61 14.42a14.13 14.13 0 0 0 .28 3.18Z" style="fill:url(#_ÂÁ_Ï_ÌÌ_È_ËÂÌÚ_39-14)"/><path d="M98.46 59c.85 3.59 3.87 5.43 5.77 8.31 4.4 6.73 5.75 15.23 6.92 23.09.46 13.61 1.91 15.06 10.5 3.67 5.46-8.29 8-18.33 8.87-28.23 1.38-10.74-2.1-30.33-16.19-27.23C106.43 41 96.54 49.56 98.46 59Z" style="fill:url(#_ÂÁ_Ï_ÌÌ_È_ËÂÌÚ_39-15)"/><path d="M102.31 64.94a21.36 21.36 0 0 1 1.92 2.39c3.71-10.42 12.89-20.45 24.37-19-.13-.34-.27-.68-.41-1-10.26-3.33-23.54 7.41-25.88 17.61Z" style="fill:url(#_ÂÁ_Ï_ÌÌ_È_ËÂÌÚ_39-16)"/><path d="M106.12 70.63a38.21 38.21 0 0 1 2 5.3 39.76 39.76 0 0 1 22.37-10.07 44.35 44.35 0 0 0 0-10.17 26.26 26.26 0 0 0-24.37 14.94Z" style="fill:url(#_ÂÁ_Ï_ÌÌ_È_ËÂÌÚ_39-17)"/><path d="M109.8 82.43c.56 2.76 1 5.26 1.35 8 3.47 1.31 7 2.54 10.5 3.67a48.83 48.83 0 0 0 5.27-10.79 37.49 37.49 0 0 0-12.68-3.25c4.76-.4 9.51-1.14 14.23-1.87.09-.35.18-.71.26-1.07a54.49 54.49 0 0 0-18.11.22 45.67 45.67 0 0 0-.82 5.09Z" style="fill:url(#_ÂÁ_Ï_ÌÌ_È_ËÂÌÚ_39-18)"/><path d="M93.73 86.91c3.2 3.67 7.33 7.28 8.51 12.16 2.32 9.48 1.68 29.37 11.92 8.83 4.58-10 4.83-20.64 3.81-31.37 0-5.78-2.32-10.53-8.7-9.1A27.24 27.24 0 0 0 91 78.49c-2.58 3.51.44 5.87 2.73 8.42Z" style="fill:url(#_ÂÁ_Ï_ÌÌ_È_ËÂÌÚ_39-19)"/><path d="M104.53 44.86c11.72-8.18 14.3 6.57 16.3 15.58 1.78 6.86 1 14.45 3 21.17 5.59-4.42 5.51-13.26 5.82-20 .88-16.3-11.14-32.61-25.12-16.75Z" style="fill:url(#_ÂÁ_Ï_ÌÌ_È_ËÂÌÚ_37-4);mix-blend-mode:screen"/><path d="M95.69 89.09c2.71 2.88 5.63 6.1 6.55 10 4.9 1 9.93.68 14.86 0a62.48 62.48 0 0 0 1.37-13c-4.23 3.51-10 4.24-15.38 4.85a25.53 25.53 0 0 0 15.29-9.19c-.06-1.21-.15-2.42-.25-3.62a22.83 22.83 0 0 1-22.44 10.96Z" style="fill:url(#_ÂÁ_Ï_ÌÌ_È_ËÂÌÚ_39-20)"/><path d="M103.78 107.89c.78 12.07 5 11.64 10.38 0a31.18 31.18 0 0 1-10.38 0Z" style="fill:url(#_ÂÁ_Ï_ÌÌ_È_ËÂÌÚ_39-21)"/><path d="M95.89 82.66c14.41.35 11.3-7.71 19.78 12.72 2.23-6 5.37-26.5-2.83-28.1-7.97.72-14.4 7.89-16.95 15.38Z" style="fill:url(#_ÂÁ_Ï_ÌÌ_È_ËÂÌÚ_37-5);mix-blend-mode:screen"/><path d="M113.54 69c3.1 5.55-19 17.81-21.64 11.08.64-5.83 16.44-14.34 21.64-11.08Z" style="fill:url(#_ÂÁ_Ï_ÌÌ_È_ËÂÌÚ_39-22)"/><path d="M90.1 113.15a52.12 52.12 0 0 0 6.86 1.9 13.2 13.2 0 0 0 2.69-6.64 31.44 31.44 0 0 1-2.59-2.41c-.87 3.22-3.97 5.92-6.96 7.15Z" style="fill:url(#_ÂÁ_Ï_ÌÌ_È_ËÂÌÚ_39-23)"/><path d="M140.16 80.48c-.88 2-2.08 4-3.95 5a46 46 0 0 1-.72-21.48c2.67.32 4.61 2.59 6 4.8 2.44 3.46-.17 8.14-1.33 11.68Z" style="fill:url(#_ÂÁ_Ï_ÌÌ_È_ËÂÌÚ_37-6);mix-blend-mode:screen"/><path class="cls-111" d="M116 38.69c.37-.47 2.21-.13 1.21.45-.35.04-1.45.19-1.21-.45ZM114.31 69.31c.67-1.47 1.61 1.34.45 1.61-.64-.08-.45-1.13-.45-1.61ZM69.59 64.54c1.43-.92 1.72.2.37.93-.89.74-1.16-.47-.37-.93ZM103.74 80c.14-.23 1.15-.5.72 0-.2 0-.75.37-.72 0ZM75.61 93.08c.5-.66 3.35-1.27 1-.12-.23.1-.97.55-1 .12ZM88.32 98.15a4 4 0 0 0 .88-.51c.96-.04-1.2 1.28-.88.51ZM139.08 65.3c1.39.61 3.42 3.8.47 1.08-.12-.25-.96-1.01-.47-1.08ZM150.49 82.76c.35-.44 1 .41 1.14.75.19 1.28-1.35-.08-1.14-.75ZM144.4 89.39c.21-.07.77-.2.86.07s-1.11.23-.86-.07Z"/><path d="M132.8 109.33c-9.13 9.17-20.9 23-34.9 16.79-3.09-1.52-20.29-6.16-17.75-10.48 5.69-9.08 13-17.88 22.65-22.48 7.79-1.54 15.78 2.49 23.37 4.1a19.87 19.87 0 0 1 6.63 12.07Z" style="fill:url(#_ÂÁ_Ï_ÌÌ_È_ËÂÌÚ_52)"/><path d="M97.65 98.48c-1.09 7.49 18.6 1.72 21.7-1-1.95-3.73-7.35-3.48-10.92-4.27-4.58-1.09-8.6 1.03-10.78 5.27Z" style="fill:url(#_ÂÁ_Ï_ÌÌ_È_ËÂÌÚ_16);mix-blend-mode:screen"/><path d="M120.93 100.42A48.5 48.5 0 0 0 107.08 96c2.06.92 12.49 3.13 10.2 6.26-5.59 2.53-9.58-.81-12.7-5.19 1.45 3.84 3.23 10.77-2.27 11.86-3 1-2.69-5.43-3.61-7.38a25.75 25.75 0 0 1-2.62 7.45c-4.26 1-7.63.13-5.5-5.06-3.7 3.74-7.71 7.61-10.36 12.17 3 3.77 7.91 6 12.55 6.84 1.9-7.49 8.71-8.4 6.9.82 2.79-7.51 17.59-11.73 9.43.65 3.76-7.4 17.69-12.81 10.32-4.28 10.08-8.78 17.58-11.52 1.51-19.72Z" style="fill:url(#_ÂÁ_Ï_ÌÌ_È_ËÂÌÚ_52-2)"/><path d="M133.91 109.67a2.45 2.45 0 0 1-1.56.89c-1.72.09-3.56-1.74-5.17-.21-4.33 2.73-8.61 6.06-13.74 3.34-1.51-.57-3.09-.77-4.36.43-7 5.67-6.66-1.25-12.48.58-1.38.74-5.46 1.3-2.44-1.36-.74-.36-1.79-.76-1-1.74 1.19-1.9 2.64-4.65 5-4.65 1.94-.24 4.08 2 5.49 0 7.12-7.32 4.9-5.18 13.78-3.47 3.15-1.17 4.47-5.62 7.81-6.82 3.2-.46 7.13 2.92 8.35 5.77a4.12 4.12 0 0 1-.91 3.23c.52 1.08 2.32 2.61 1.23 4.01Z" style="fill:url(#_ÂÁ_Ï_ÌÌ_È_ËÂÌÚ_5-15)"/><path d="m117.06 114.59.35.21c-2.07-.42-4.08-1.35-6.18-1.61-3 .31-5.08 4.39-8.28 3 6.82-.02 4.22-7.47 14.11-1.6Z" style="fill:url(#_ÂÁ_Ï_ÌÌ_È_ËÂÌÚ_5-16)"/><path d="M124.13 104c-6 5.91-3.89 7.93-12.81 5-3-1-5 .74-7.13 2.56-3.1.74-7.36-1.34-9.35 2.53 4.51-.12 3.84-1.6 7.76 1.94-2-1.1-3.75-2.47-6-1.33-1.43.76-5.44 1.28-2.44-1.36-1.57-.58-1.5-1.15-.56-2.45.31 3.22 2.38-1.33 4.27-.57 1.63-.06 3.16 1.58 4.75 1.08 6.93-7.76 7.09-2.2 14.33-1.66 5.51-2.76 6.41-12.93 14-4.61-2.12-.36-4.87-2.74-6.82-1.13Z" style="fill:url(#_ÂÁ_Ï_ÌÌ_È_ËÂÌÚ_5-17)"/><path d="M132.35 110.56c-1 .1-2-.53-3-.81-3.35.34-6.06 3.55-9.25 4.73 3.9-3.22 6.95-7.23 12.25-3.92Z" style="fill:url(#_ÂÁ_Ï_ÌÌ_È_ËÂÌÚ_5-18)"/><path d="M99.33 111.17c-1.61-.3-2.85 1.07-4.2 1.75 2.43-2.79 4.4-2.9 7.51-1.1a26.88 26.88 0 0 0-3.31-.65Zm27.84-7.41c1.74.38 3.59 1.49 5 1.83-12.13-7.89-8.09 4.2-15.8 4.59-3.79-2.44-8.25-3.09-11.3 1 5.77-5.79 10.09 1.12 14-1.21 1.83-1.66 3.28-3.8 5.07-5.53a3.23 3.23 0 0 1 3.03-.68Z" style="fill:url(#_ÂÁ_Ï_ÌÌ_È_ËÂÌÚ_5-19)"/><path d="M126.08 96.79a3.89 3.89 0 0 0-3.63 3c-.12.73 1 .52 1.37.44 2.68-.5 5.14 1.68 7.76 2.13 4.24-.18-3.99-5.95-5.5-5.57Z" style="fill:url(#_ÂÁ_Ï_ÌÌ_È_ËÂÌÚ_13);mix-blend-mode:screen"/><path d="M109 104.29c1.79 1 5.65 2.09 7.08.25-.43-1.88-8.88-4.14-7.08-.25Z" style="fill:url(#_ÂÁ_Ï_ÌÌ_È_ËÂÌÚ_13-2);mix-blend-mode:screen"/><path d="M96.21 108.48c.16 1.2 4.46 2.06 5.05.65.36-2.34-4.4-2.59-5.05-.65Z" style="fill:url(#_ÂÁ_Ï_ÌÌ_È_ËÂÌÚ_13-3);mix-blend-mode:screen"/><path d="M123.29 108.11a11 11 0 0 1 5.87-1.07c4.89-.65-2.12-3.41-3.81-2.76-1.1.03-4.21 3.43-2.06 3.83Z" style="fill:url(#_ÂÁ_Ï_ÌÌ_È_ËÂÌÚ_13-4);mix-blend-mode:screen"/><path d="M109.13 110.3a7.46 7.46 0 0 0 5.78.71c-.44-1.37-6.51-2.95-5.78-.71Z" style="fill:url(#_ÂÁ_Ï_ÌÌ_È_ËÂÌÚ_13-5);mix-blend-mode:screen"/><path d="M101.12 112.28c.58-.8 2 .22 2.14 1-.44.78-2.43-.1-2.14-1Z" style="fill:url(#_ÂÁ_Ï_ÌÌ_È_ËÂÌÚ_13-6);mix-blend-mode:screen"/><path class="cls-111" d="M127 97.19c-.67-.57-1.89.12-.9.8.57.53 1.81-.21.9-.8ZM127.48 104.72c-.08-.33-.93-.57-.81-.07.11.27.81.48.81.07ZM111.77 102.74c-.24-.44-1.15-.06-.54.28.19.07.69.06.54-.28ZM111.13 109.32c-.19-.22-.66.05-.35.27.15.07.51-.07.35-.27ZM98.27 107.24a.26.26 0 0 0-.13-.08s-.16 0-.22 0c-.65.34.67.77.35.08ZM107.71 93.82c-.26-.81-2.7-.87-2 0 .49-.14 1.91.64 2 0Z"/><path d="M53.44 113.73c6.85 6.88 15.67 17.23 26.18 12.6 2.49-1.28 15-4.4 13.31-7.87-4.26-6.81-9.77-13.41-17-16.87-5.84-1.15-11.84 1.88-17.53 3.09a14.82 14.82 0 0 0-4.96 9.05Z" style="fill:url(#_ÂÁ_Ï_ÌÌ_È_ËÂÌÚ_52-3)"/><path d="M79.8 105.59c.49 5.69-13.72 1.28-16.28-.78 1.48-2.81 5.48-2.56 8.19-3.17a7 7 0 0 1 8.09 3.95Z" style="fill:url(#_ÂÁ_Ï_ÌÌ_È_ËÂÌÚ_16-2);mix-blend-mode:screen"/><path d="M62.34 107a36.59 36.59 0 0 1 10.39-3.29c-1.65.78-9.23 2.22-7.65 4.7 4.06 1.92 7.29-.65 9.53-3.89-1.1 2.88-2.43 8.08 1.69 8.9 2.43.5 1.94-3.94 2.71-5.54a19.45 19.45 0 0 0 2 5.55c3.12.83 5.76 0 4.13-3.8 2.77 2.8 5.78 5.71 7.77 9.13a15.83 15.83 0 0 1-9.42 5.13c-1.33-5.6-6.6-6.17-5.17.62-2.07-5.71-13.16-8.63-7.08.49-2.33-5-13.37-9.93-7.74-3.22-7.58-6.42-13.16-8.72-1.16-14.78Z" style="fill:url(#_ÂÁ_Ï_ÌÌ_È_ËÂÌÚ_52-4)"/><path d="M52.6 114a1.81 1.81 0 0 0 1.17.67c6.25-2.28 7 5.62 14.19 2.35a2.93 2.93 0 0 1 3.27.32c5.06 4.21 5.08-.89 9.36.44 1 .58 4.09.91 1.83-1 .56-.27 1.35-.58.75-1.31-.89-1.42-2-3.49-3.73-3.48-1.45-.19-3.06 1.48-4.11 0C70.15 106.5 71.5 108 65 109.3c-2.37-.88-3.36-4.21-5.86-5.11-2.4-.35-5.35 2.19-6.27 4.32a3.11 3.11 0 0 0 .69 2.43c-.43.84-1.81 1.99-.96 3.06Z" style="fill:url(#_ÂÁ_Ï_ÌÌ_È_ËÂÌÚ_5-20)"/><path d="m65.24 117.67-.26.16c7.93-3.2 5.75 1.77 10.85 1-5.06-.05-3.43-5.52-10.59-1.16Z" style="fill:url(#_ÂÁ_Ï_ÌÌ_È_ËÂÌÚ_5-21)"/><path d="M59.94 109.76c1.71 1.43 2.77 3.67 4.64 4.85 2.68 0 5.69-2.32 8.34-.86 2.65 3.76 6.57-.36 9 3.55-3.19-.13-3.12-1.08-5.82 1.46 1.49-.83 2.81-1.86 4.5-1 1.06.59 4.07.9 1.83-1 1.14-.39 1.13-.93.42-1.84-.23 2.41-1.84-1-3.2-.43-1.23 0-2.37 1.19-3.57.81-5-5.73-5.42-1.69-10.75-1.25-4-2.16-5.08-9.64-10.52-3.46 1.6-.28 3.67-2.07 5.13-.83Z" style="fill:url(#_ÂÁ_Ï_ÌÌ_È_ËÂÌÚ_5-22)"/><path d="M53.77 114.65a6.79 6.79 0 0 0 2.29-.61c2.51.26 4.55 2.67 6.94 3.55-2.76-2.35-5.54-5.42-9.23-2.94Z" style="fill:url(#_ÂÁ_Ï_ÌÌ_È_ËÂÌÚ_5-23)"/><path d="M76.06 115.59c2.22-1.34 3.92-1.22 5.63.83a5.35 5.35 0 0 0-5.63-.83ZM60 110.05c7.09 9.94 7.14-.69 14.28 5-2.3-3-5.64-2.57-8.49-.74-5.85-.5-3-9.33-11.85-3.43 1.64-.33 4.32-2.43 6.06-.83Z" style="fill:url(#_ÂÁ_Ï_ÌÌ_È_ËÂÌÚ_5-24)"/><path d="M58.47 104.32a2.91 2.91 0 0 1 2.73 2.28c.09.55-.74.39-1 .33-2-.37-3.86 1.26-5.82 1.6-3.21-.16 2.96-4.53 4.09-4.21Z" style="fill:url(#_ÂÁ_Ï_ÌÌ_È_ËÂÌÚ_13-7);mix-blend-mode:screen"/><path d="M71.3 110c-1.34.78-4.23 1.56-5.31.19.39-1.49 6.54-3.19 5.31-.19Z" style="fill:url(#_ÂÁ_Ï_ÌÌ_È_ËÂÌÚ_13-8);mix-blend-mode:screen"/><path d="M80.89 113.09c-.13.9-3.35 1.54-3.8.49-.26-1.76 3.3-1.94 3.8-.49Z" style="fill:url(#_ÂÁ_Ï_ÌÌ_È_ËÂÌÚ_13-9);mix-blend-mode:screen"/><path d="M60.57 112.81a8.19 8.19 0 0 0-4.41-.8c-3.66-.48 1.6-2.56 2.86-2.07.83.06 3.16 2.57 1.55 2.87Z" style="fill:url(#_ÂÁ_Ï_ÌÌ_È_ËÂÌÚ_13-10);mix-blend-mode:screen"/><path d="M71.19 114.45a5.6 5.6 0 0 1-4.33.54c.38-.99 4.79-2.24 4.33-.54Z" style="fill:url(#_ÂÁ_Ï_ÌÌ_È_ËÂÌÚ_13-11);mix-blend-mode:screen"/><path d="M77.2 115.94c-.44-.6-1.5.16-1.61.75.33.59 1.83-.08 1.61-.75Z" style="fill:url(#_ÂÁ_Ï_ÌÌ_È_ËÂÌÚ_13-12);mix-blend-mode:screen"/><path class="cls-111" d="M57.82 104.62c.28-.22 1.08-.26.93.29-.21.78-1.81.37-.93-.29ZM57.42 110.27c.06-.25.7-.43.61 0-.03.15-.6.31-.61 0ZM69.21 108.79c.18-.34.86-.05.41.2-.15.01-.52.01-.41-.2ZM69.69 113.72c.14-.17.49 0 .26.2s-.38-.05-.26-.2ZM79.34 112.37c.19.26.59-.17.26-.27h-.17a.17.17 0 0 0-.09.27ZM72.25 102.09c.23-.61 2-.66 1.55 0-.41-.09-1.48.49-1.55 0Z"/><path class="cls-140" d="M147.08 35.22a6.3 6.3 0 0 0-6.26 2.19 5.41 5.41 0 0 0-1.28 4.83 8 8 0 0 0 1.15 3.55c.88 1.38 2.86 2.48 4.53 1.84a7.49 7.49 0 0 0 3.2-2.16 6.09 6.09 0 0 0 2.67-3.47 5.53 5.53 0 0 0-4.01-6.78ZM363.9 38.83l-.4.23a1.35 1.35 0 0 0-.44.51 1.26 1.26 0 0 0-.24.65v.16a.19.19 0 0 0 0 .08v.07a2 2 0 0 0 0 .43 1.68 1.68 0 0 0 .06.24 3.17 3.17 0 0 0-1.26-.41 3.71 3.71 0 0 0-.57 0 4.14 4.14 0 0 0-2.1-.32 4.9 4.9 0 0 0-4.22 6 5.26 5.26 0 0 0 5.89 3.64c2.93-.39 5.62-3.21 4.46-6.3a5.25 5.25 0 0 0-.65-1.18 1.36 1.36 0 0 0 .45 0 1.24 1.24 0 0 0 .43-.11 1.26 1.26 0 0 0 .26-.13 1.32 1.32 0 0 0 .2-.12 1.27 1.27 0 0 0 .3-.31 1.87 1.87 0 0 0 .25-.41 1.93 1.93 0 0 0 .13-.47 1.74 1.74 0 0 0 0-.51 2.68 2.68 0 0 0-.07-.27.14.14 0 0 0 0-.06.83.83 0 0 0 0-.15v-.07s-.05-.09-.08-.14-.15-.27-.23-.4a1.38 1.38 0 0 0-.51-.45 1.12 1.12 0 0 0-.42-.18 1.39 1.39 0 0 0-.7-.06ZM214.81 99a2 2 0 0 0-2.75 0 1.61 1.61 0 0 0-.4.63 1.47 1.47 0 0 0-.16.75 2 2 0 0 0 .56 1.37 2 2 0 0 0 1.38.57 2 2 0 0 0 1.37-.57 1.33 1.33 0 0 0 .4-.62 1.38 1.38 0 0 0 .17-.75 2 2 0 0 0-.57-1.38ZM237.6 87.52a2.58 2.58 0 0 0-.66-1.14l-.17-.15-.56-.43-.67-.29a2.24 2.24 0 0 0-1.12-.05 1.45 1.45 0 0 0-.7.2 1.26 1.26 0 0 0-.62.36 1.33 1.33 0 0 0-.5.5 1.27 1.27 0 0 0-.36.61 2 2 0 0 0-.24 1.08c0 .25.06.5.1.75s.19.44.28.67l.44.56.56.44.67.28a2.13 2.13 0 0 0 1.12 0 1.32 1.32 0 0 0 .7-.19 2.06 2.06 0 0 0 .9-.58l.17-.14a2 2 0 0 0 .53-.84 1.91 1.91 0 0 0 .22-1ZM182.81 53.71a1.78 1.78 0 0 0-.91-.84 1.29 1.29 0 0 1-.17-.16 2.5 2.5 0 0 0-1.35-.89 2.64 2.64 0 0 0-1.69.13 1.28 1.28 0 0 0-.57.34 1.86 1.86 0 0 0-.67.72 2.71 2.71 0 0 0-.26 2.22 4 4 0 0 0 .4 1 3 3 0 0 0 1.77 1.38 3.29 3.29 0 0 0 1.62 0 3 3 0 0 0 1.82-1.34 2.5 2.5 0 0 0 0-2.5ZM138.9 23.46a3.63 3.63 0 0 0-2.17-1.67 3.58 3.58 0 0 0-2-.64 3.46 3.46 0 0 0-3 1.74 4.38 4.38 0 0 0-.43 3.09 4.12 4.12 0 0 0 1.52 2.16 4.25 4.25 0 0 0 4.83.26 3.79 3.79 0 0 0 1.66-2.16 3.69 3.69 0 0 0-.41-2.78ZM164.11 48.42a1.46 1.46 0 0 0 0 2.91 1.46 1.46 0 0 0 0-2.91ZM183.41 84c0-.18-.07-.35-.1-.52l-.12-.29a.82.82 0 0 0-.31-.33 1.12 1.12 0 0 0-.72-.26 1.38 1.38 0 0 0-.6.16 1.2 1.2 0 0 0-.55.72l-.1.52a1.34 1.34 0 0 0 0 .69 1.26 1.26 0 0 0 .33.57 1.3 1.3 0 0 0 1.84 0 1.26 1.26 0 0 0 .33-.57 1.35 1.35 0 0 0 0-.69ZM90.67 28.53a1.8 1.8 0 0 0-.17-.34 4.48 4.48 0 0 0-2.5-2 4.68 4.68 0 0 0-2.57 0 5.56 5.56 0 0 0-2.93 8 4.27 4.27 0 0 0 4.76 2 5.13 5.13 0 0 0 1.67-.75 5.46 5.46 0 0 0 2.61-4.2 4.35 4.35 0 0 0-.87-2.71ZM98.9 33.16a1.24 1.24 0 0 0-.14-.63 1.27 1.27 0 0 0-.34-.52 1.63 1.63 0 0 0-1.14-.47 1.65 1.65 0 0 0-1.15.47l-.25.33a1.58 1.58 0 0 0-.22.82v.59a1.32 1.32 0 0 0 .14.65 1.26 1.26 0 0 0 .35.54 1.69 1.69 0 0 0 2.36 0 1.72 1.72 0 0 0 .49-1.19ZM39.6 33.5a3.9 3.9 0 0 0-1.92-1.33 7.3 7.3 0 0 0-6.79 1 6 6 0 0 0-1.84 6.85A5.14 5.14 0 0 0 35 43.17a4.47 4.47 0 0 0 3-2.52 6.53 6.53 0 0 0 1.36-1.5 7.77 7.77 0 0 0 1.08-3.41 3.35 3.35 0 0 0-.84-2.24ZM45.8 22.43a1.51 1.51 0 0 0 0 3 1.51 1.51 0 0 0 0-3ZM37.25 18.09A2.59 2.59 0 0 0 36.6 17a2.63 2.63 0 0 0-1.8-.74 1.8 1.8 0 0 0-1 .22 2.22 2.22 0 0 0-1.34 1.34 1.8 1.8 0 0 0-.22 1l.09.68a2.59 2.59 0 0 0 .67 1.06 2.67 2.67 0 0 0 1.79.74 1.93 1.93 0 0 0 1-.22 2.22 2.22 0 0 0 1.34-1.34 1.93 1.93 0 0 0 .22-1ZM316.86.11a4.92 4.92 0 0 0-3.06 2.38 4.25 4.25 0 0 0-.48 1.74 2.9 2.9 0 0 0-.16.41 3.77 3.77 0 0 0 .51 3.1 3.26 3.26 0 0 0 5.95-.66 10.48 10.48 0 0 0 .55-2.48V2.71a2.67 2.67 0 0 0-3.31-2.6ZM332.34 35.3a2.15 2.15 0 0 0-.79.42 1.66 1.66 0 0 0-.46.76 1.75 1.75 0 0 0 0 .88l.16.41.28.38a1.7 1.7 0 0 0 1.67.48l.43-.06a1.58 1.58 0 0 0 .67-.37 1.49 1.49 0 0 0 .41-.68 1.51 1.51 0 0 0 0-.79 1.48 1.48 0 0 0-.37-.67l-.32-.28a1.7 1.7 0 0 0-1.67-.48ZM367.17 11.93a1.3 1.3 0 0 0 .61 2.43H368.61a.89.89 0 0 0 .41-.21 1.08 1.08 0 0 0 .44-.62 1.3 1.3 0 0 0 0-.62 1.16 1.16 0 0 0-.53-.72l-.46-.24a1.33 1.33 0 0 0-1.3-.02Z"/></g></g></g></svg>