<svg xmlns="http://www.w3.org/2000/svg" xmlns:xlink="http://www.w3.org/1999/xlink" viewBox="0 0 390 157.56"><defs><linearGradient id="_ÂÁ_Ï_ÌÌ_È_ËÂÌÚ_5" x1="195" y1="62.73" x2="195" y2="247.91" gradientUnits="userSpaceOnUse"><stop offset="0" stop-color="#aae0f2"/><stop offset="1" stop-color="#425985"/></linearGradient><linearGradient id="_ÂÁ_Ï_ÌÌ_È_ËÂÌÚ_5-2" x1="185.81" y1="56.85" x2="185.81" y2="224.03" xlink:href="#_ÂÁ_Ï_ÌÌ_È_ËÂÌÚ_5"/><linearGradient id="_ÂÁ_Ï_ÌÌ_È_ËÂÌÚ_5-3" x1="219.78" y1="58.06" x2="219.78" y2="222.56" xlink:href="#_ÂÁ_Ï_ÌÌ_È_ËÂÌÚ_5"/><linearGradient id="_ÂÁ_Ï_ÌÌ_È_ËÂÌÚ_5-4" x1="136.79" y1="60.43" x2="136.79" y2="218.33" xlink:href="#_ÂÁ_Ï_ÌÌ_È_ËÂÌÚ_5"/><linearGradient id="_ÂÁ_Ï_ÌÌ_È_ËÂÌÚ_5-5" x1="146.75" y1="58.84" x2="146.75" y2="221.24" xlink:href="#_ÂÁ_Ï_ÌÌ_È_ËÂÌÚ_5"/><linearGradient id="_ÂÁ_Ï_ÌÌ_È_ËÂÌÚ_5-6" x1="160.89" y1="57.47" x2="160.89" y2="223.33" xlink:href="#_ÂÁ_Ï_ÌÌ_È_ËÂÌÚ_5"/><linearGradient id="_ÂÁ_Ï_ÌÌ_È_ËÂÌÚ_5-7" x1="246.61" y1="57.87" x2="246.61" y2="222.42" xlink:href="#_ÂÁ_Ï_ÌÌ_È_ËÂÌÚ_5"/><linearGradient id="_ÂÁ_Ï_ÌÌ_È_ËÂÌÚ_5-8" x1="343.18" y1="58.59" x2="343.18" y2="220.73" xlink:href="#_ÂÁ_Ï_ÌÌ_È_ËÂÌÚ_5"/><linearGradient id="_ÂÁ_Ï_ÌÌ_È_ËÂÌÚ_5-9" x1="234.86" y1="56.81" x2="234.86" y2="223.99" xlink:href="#_ÂÁ_Ï_ÌÌ_È_ËÂÌÚ_5"/><linearGradient id="_ÂÁ_Ï_ÌÌ_È_ËÂÌÚ_5-10" x1="296.81" y1="58.82" x2="296.81" y2="222.45" xlink:href="#_ÂÁ_Ï_ÌÌ_È_ËÂÌÚ_5"/><linearGradient id="_ÂÁ_Ï_ÌÌ_È_ËÂÌÚ_5-11" x1="170.83" y1="57.97" x2="170.83" y2="223.02" xlink:href="#_ÂÁ_Ï_ÌÌ_È_ËÂÌÚ_5"/><linearGradient id="_ÂÁ_Ï_ÌÌ_È_ËÂÌÚ_5-12" x1="34.57" y1="53.85" x2="34.57" y2="227.36" xlink:href="#_ÂÁ_Ï_ÌÌ_È_ËÂÌÚ_5"/><linearGradient id="_ÂÁ_Ï_ÌÌ_È_ËÂÌÚ_5-13" x1="44.08" y1="57.27" x2="44.08" y2="223.66" xlink:href="#_ÂÁ_Ï_ÌÌ_È_ËÂÌÚ_5"/><linearGradient id="_ÂÁ_Ï_ÌÌ_È_ËÂÌÚ_5-14" x1="29.27" y1="57.91" x2="29.27" y2="222.99" xlink:href="#_ÂÁ_Ï_ÌÌ_È_ËÂÌÚ_5"/><linearGradient id="_ÂÁ_Ï_ÌÌ_È_ËÂÌÚ_52" x1="83.94" y1="-24.52" x2="41.07" y2="64.96" gradientTransform="rotate(9.72 -477.799832 349.095584)" gradientUnits="userSpaceOnUse"><stop offset="0" stop-color="#54719c"/><stop offset="1" stop-color="#132547"/></linearGradient><linearGradient id="_ÂÁ_Ï_ÌÌ_È_ËÂÌÚ_16" x1="105.09" y1="-80.08" x2="43.35" y2="19.35" gradientTransform="rotate(9.72 -477.799832 349.095584)" gradientUnits="userSpaceOnUse"><stop offset="0" stop-color="#445b91"/><stop offset="1"/></linearGradient><linearGradient id="_ÂÁ_Ï_ÌÌ_È_ËÂÌÚ_52-2" x1="102.63" y1="-38.5" x2="26.13" y2="49.78" xlink:href="#_ÂÁ_Ï_ÌÌ_È_ËÂÌÚ_52"/><linearGradient id="_ÂÁ_Ï_ÌÌ_È_ËÂÌÚ_5-15" x1="102.93" y1="-44.71" x2="55.01" y2="47.65" gradientTransform="rotate(9.72 -477.799832 349.095584)" xlink:href="#_ÂÁ_Ï_ÌÌ_È_ËÂÌÚ_5"/><linearGradient id="_ÂÁ_Ï_ÌÌ_È_ËÂÌÚ_5-16" x1="126.1" y1="-52.91" x2="52.98" y2="34.42" gradientTransform="rotate(9.72 -477.799832 349.095584)" xlink:href="#_ÂÁ_Ï_ÌÌ_È_ËÂÌÚ_5"/><linearGradient id="_ÂÁ_Ï_ÌÌ_È_ËÂÌÚ_5-17" x1="121.34" y1="-59.09" x2="47.13" y2="29.55" gradientTransform="rotate(9.72 -477.799832 349.095584)" xlink:href="#_ÂÁ_Ï_ÌÌ_È_ËÂÌÚ_5"/><linearGradient id="_ÂÁ_Ï_ÌÌ_È_ËÂÌÚ_5-18" x1="135.82" y1="-46.46" x2="61.12" y2="42.76" gradientTransform="rotate(9.72 -477.799832 349.095584)" xlink:href="#_ÂÁ_Ï_ÌÌ_È_ËÂÌÚ_5"/><linearGradient id="_ÂÁ_Ï_ÌÌ_È_ËÂÌÚ_5-19" x1="118.85" y1="-62.66" x2="98.9" y2="-32.61" gradientTransform="rotate(9.72 -477.799832 349.095584)" xlink:href="#_ÂÁ_Ï_ÌÌ_È_ËÂÌÚ_5"/><linearGradient id="_ÂÁ_Ï_ÌÌ_È_ËÂÌÚ_13" x1="110.54" y1="-48.13" x2="91.86" y2="-3.66" gradientTransform="rotate(9.72 -477.799832 349.095584)" gradientUnits="userSpaceOnUse"><stop offset="0" stop-color="#9fafd6"/><stop offset="1"/></linearGradient><linearGradient id="_ÂÁ_Ï_ÌÌ_È_ËÂÌÚ_13-2" x1="88.23" y1="-39.77" x2="72.09" y2="3.1" xlink:href="#_ÂÁ_Ï_ÌÌ_È_ËÂÌÚ_13"/><linearGradient id="_ÂÁ_Ï_ÌÌ_È_ËÂÌÚ_13-3" x1="72.51" y1="-34.73" x2="57.45" y2="2.91" xlink:href="#_ÂÁ_Ï_ÌÌ_È_ËÂÌÚ_13"/><linearGradient id="_ÂÁ_Ï_ÌÌ_È_ËÂÌÚ_13-4" x1="111.03" y1="-42.75" x2="89.1" y2="21.06" xlink:href="#_ÂÁ_Ï_ÌÌ_È_ËÂÌÚ_13"/><linearGradient id="_ÂÁ_Ï_ÌÌ_È_ËÂÌÚ_13-5" x1="94.6" y1="-45.69" x2="74" y2="14.24" xlink:href="#_ÂÁ_Ï_ÌÌ_È_ËÂÌÚ_13"/><linearGradient id="_ÂÁ_Ï_ÌÌ_È_ËÂÌÚ_13-6" x1="86.79" y1="-56.86" x2="62.74" y2="13.15" xlink:href="#_ÂÁ_Ï_ÌÌ_È_ËÂÌÚ_13"/><linearGradient id="_ÂÁ_Ï_ÌÌ_È_ËÂÌÚ_52-3" x1="-1638.21" y1="285.88" x2="-1670.38" y2="353.03" gradientTransform="matrix(-.99 .17 .17 .99 -1599.41 85.68)" xlink:href="#_ÂÁ_Ï_ÌÌ_È_ËÂÌÚ_52"/><linearGradient id="_ÂÁ_Ï_ÌÌ_È_ËÂÌÚ_16-2" x1="-1622.35" y1="244.21" x2="-1668.65" y2="318.77" gradientTransform="matrix(-.99 .17 .17 .99 -1599.41 85.68)" xlink:href="#_ÂÁ_Ï_ÌÌ_È_ËÂÌÚ_16"/><linearGradient id="_ÂÁ_Ï_ÌÌ_È_ËÂÌÚ_52-4" x1="-1624.18" y1="275.38" x2="-1681.58" y2="341.62" gradientTransform="matrix(-.99 .17 .17 .99 -1599.41 85.68)" xlink:href="#_ÂÁ_Ï_ÌÌ_È_ËÂÌÚ_52"/><linearGradient id="_ÂÁ_Ï_ÌÌ_È_ËÂÌÚ_5-20" x1="-1623.95" y1="270.7" x2="-1659.92" y2="340.03" gradientTransform="matrix(-.99 .17 .17 .99 -1599.41 85.68)" xlink:href="#_ÂÁ_Ï_ÌÌ_È_ËÂÌÚ_5"/><linearGradient id="_ÂÁ_Ï_ÌÌ_È_ËÂÌÚ_5-21" x1="-1606.58" y1="264.57" x2="-1661.44" y2="330.09" gradientTransform="matrix(-.99 .17 .17 .99 -1599.41 85.68)" xlink:href="#_ÂÁ_Ï_ÌÌ_È_ËÂÌÚ_5"/><linearGradient id="_ÂÁ_Ï_ÌÌ_È_ËÂÌÚ_5-22" x1="-1610.15" y1="259.94" x2="-1665.82" y2="326.44" gradientTransform="matrix(-.99 .17 .17 .99 -1599.41 85.68)" xlink:href="#_ÂÁ_Ï_ÌÌ_È_ËÂÌÚ_5"/><linearGradient id="_ÂÁ_Ï_ÌÌ_È_ËÂÌÚ_5-23" x1="-1599.29" y1="269.42" x2="-1655.33" y2="336.35" gradientTransform="matrix(-.99 .17 .17 .99 -1599.41 85.68)" xlink:href="#_ÂÁ_Ï_ÌÌ_È_ËÂÌÚ_5"/><linearGradient id="_ÂÁ_Ï_ÌÌ_È_ËÂÌÚ_5-24" x1="-1612.03" y1="257.25" x2="-1626.99" y2="279.8" gradientTransform="matrix(-.99 .17 .17 .99 -1599.41 85.68)" xlink:href="#_ÂÁ_Ï_ÌÌ_È_ËÂÌÚ_5"/><linearGradient id="_ÂÁ_Ï_ÌÌ_È_ËÂÌÚ_13-7" x1="-1618.27" y1="268.15" x2="-1632.29" y2="301.52" gradientTransform="matrix(-.99 .17 .17 .99 -1599.41 85.68)" xlink:href="#_ÂÁ_Ï_ÌÌ_È_ËÂÌÚ_13"/><linearGradient id="_ÂÁ_Ï_ÌÌ_È_ËÂÌÚ_13-8" x1="-1635.12" y1="274.69" x2="-1647" y2="306.23" gradientTransform="matrix(-.99 .17 .17 .99 -1599.41 85.68)" xlink:href="#_ÂÁ_Ï_ÌÌ_È_ËÂÌÚ_13"/><linearGradient id="_ÂÁ_Ï_ÌÌ_È_ËÂÌÚ_13-9" x1="-1646.79" y1="278.24" x2="-1658.08" y2="306.44" gradientTransform="matrix(-.99 .17 .17 .99 -1599.41 85.68)" xlink:href="#_ÂÁ_Ï_ÌÌ_È_ËÂÌÚ_13"/><linearGradient id="_ÂÁ_Ï_ÌÌ_È_ËÂÌÚ_13-10" x1="-1617.89" y1="272.19" x2="-1634.33" y2="320.07" gradientTransform="matrix(-.99 .17 .17 .99 -1599.41 85.68)" xlink:href="#_ÂÁ_Ï_ÌÌ_È_ËÂÌÚ_13"/><linearGradient id="_ÂÁ_Ï_ÌÌ_È_ËÂÌÚ_13-11" x1="-1630.21" y1="270" x2="-1645.65" y2="314.95" gradientTransform="matrix(-.99 .17 .17 .99 -1599.41 85.68)" xlink:href="#_ÂÁ_Ï_ÌÌ_È_ËÂÌÚ_13"/><linearGradient id="_ÂÁ_Ï_ÌÌ_È_ËÂÌÚ_13-12" x1="-1636.07" y1="261.61" x2="-1654.12" y2="314.13" gradientTransform="matrix(-.99 .17 .17 .99 -1599.41 85.68)" xlink:href="#_ÂÁ_Ï_ÌÌ_È_ËÂÌÚ_13"/><style>.cls-30{fill:#efffe8}.cls-45{fill:#aae0f2}</style></defs><g style="isolation:isolate"><g id="Layer_2" data-name="Layer 2"><g id="Layer_1-2" data-name="Layer 1"><path d="M390 81.54c-3.68-.77-9.57-.68-18.78-.59-10.48-.7-20.72 4.6-31.14 6.65-12.32 2.43-24.83.31-37.2 2-15.05 2.2-29.69 9-44.78 11.33-32.93 5.85-66.43 3.11-99.23-.84a109.07 109.07 0 0 1-33.5-3.27c-30.14-6.9-60.61-5.14-90.85-4C23.45 84.32 11.63 86 0 93.56v64h390Z" style="fill:url(#_ÂÁ_Ï_ÌÌ_È_ËÂÌÚ_5)"/><path d="M371.37 140.7c-33.63-5.61-67.91-5.22-101.81-4.28 25.37-3.55 50.67-9.26 76.25-9.1 7.06-.19 14.07 1.53 21.08 1.81 6.09-6.56-17.45-6.3-20.13-6.69-.13-3.7-6.14-4.13-8.49-4.61-1.72-.89-6.4 2.77-3.71 4.56-19.42.62-38.65 4.81-57.94 7.56-25.65.65-51.31 1-77 1.2 2.53-3.3-6.83-2.42-7.13 0-88.79 1.13 39.12 3 61.27 1.79-39.21 4.65-78.6 5.56-118 4.5 3.71-2.52-7.3-3.16-4-.08-44.22-.73-87.7-3.79-131.83-7.23 32.43 6.38 69.32 7.16 103.55 9.34-1.82.54-5.93-.15-6.41 2.22 3.6 5.82 11.19 2.14 15.65 1.35 2-1.49-1.55-3-2.54-3.31 43.84.29 87.62 5 131.36.05 17 .43 34.2-1.65 51.27-1.3.76 3.31 7.43 1.68 9.41 0q27.23.3 54.4 2.88c2.04-.16 16.9 3.34 14.75-.66Z" style="fill:url(#_ÂÁ_Ï_ÌÌ_È_ËÂÌÚ_5-2)"/><path d="M221.12 128.64c-.79-.76-4.06-.39-2.4 1.15.66.21 3.28.26 2.4-1.15Z" style="fill:url(#_ÂÁ_Ï_ÌÌ_È_ËÂÌÚ_5-3)"/><path d="M142.19 119c-1.08-.73-13.19-1.08-10.72 1.74 1.68 1.4 12.76 2.83 10.72-1.74Z" style="fill:url(#_ÂÁ_Ï_ÌÌ_È_ËÂÌÚ_5-4)"/><path d="M148.51 122.8a26.32 26.32 0 0 1-3.17-.46c-2.83 1.66 4.98 3.24 3.17.46Z" style="fill:url(#_ÂÁ_Ï_ÌÌ_È_ËÂÌÚ_5-5)"/><path d="M272.4 115.14c-11.51 1.11-23 3.58-34.49 4.7 7.72-4.34-12.28-3.5-4.19.47a209.38 209.38 0 0 1-92.24-8.37c-30.35-6.71-61.32-8.29-92-6.72-.53 0-.54 1.25 0 1.25 44.19-1.89 87.83 6.45 131.16 16.44 22.64 2.66 45.4.74 68-2.31 2.84-1.03 27.23-1.88 23.76-5.46Z" style="fill:url(#_ÂÁ_Ï_ÌÌ_È_ËÂÌÚ_5-6)"/><path d="M248.26 112.68c-.92 0-4.38.43-3.3 2.2.74.22 4.36-1.04 3.3-2.2Z" style="fill:url(#_ÂÁ_Ï_ÌÌ_È_ËÂÌÚ_5-7)"/><path d="M344.35 107.89c-.64-1.51-3.43-1.25-1.92.68.57.34 2.18.65 1.92-.68Z" style="fill:url(#_ÂÁ_Ï_ÌÌ_È_ËÂÌÚ_5-8)"/><path d="M282.53 152.68c-7.09-5.31-16-4-23.88-5.27-8.09-.78-16.19-1.63-24.3-1.95-6.46-.88-46.44 4.09-47.23 10.77 15.74 2.2 31.76-4.49 47.7-2.36 6.42-1.09 49.9 8.57 47.71-1.19Z" style="fill:url(#_ÂÁ_Ï_ÌÌ_È_ËÂÌÚ_5-9)"/><path d="M298.19 148.69c-.59-.87-3.79-1.8-2.6.16.62.44 3.23 1.68 2.6-.16Z" style="fill:url(#_ÂÁ_Ï_ÌÌ_È_ËÂÌÚ_5-10)"/><path d="M172.69 150.06c-1.25.39-4.12-1.95-4.16.73.33 4.57 6.24 1.5 4.16-.73Z" style="fill:url(#_ÂÁ_Ï_ÌÌ_È_ËÂÌÚ_5-11)"/><path d="M38.14 136.9c-1.33-1.47-8.41-2.41-7.22 1.22.9 1.13 8.81 1.67 7.22-1.22Z" style="fill:url(#_ÂÁ_Ï_ÌÌ_È_ËÂÌÚ_5-12)"/><path d="M45.58 144.18a2.91 2.91 0 0 0-2.94-.22c-1.35 2.21 4.06 2.91 2.94.22Z" style="fill:url(#_ÂÁ_Ï_ÌÌ_È_ËÂÌÚ_5-13)"/><path d="M31.14 138.92c-.91-1.18-5.15-.8-3.57 1.42.92.75 4.55.75 3.57-1.42Z" style="fill:url(#_ÂÁ_Ï_ÌÌ_È_ËÂÌÚ_5-14)"/><path d="M164.8 90.78c-13.79 15.57-31.55 39-52.71 28.5-4.28-2.27-31.18-11-26.8-17.79C93.88 86.1 105 71.17 119.5 63.36c11.76-2.61 23.83 4.23 35.29 7C160 75.22 163.8 83 164.8 90.78Z" style="fill:url(#_ÂÁ_Ï_ÌÌ_È_ËÂÌÚ_52)"/><path d="M111.73 72.38c-2 4.77 5 6.27 8 6.12a44 44 0 0 0 24.76-7.88c-2.95-6.26-11.1-5.77-16.49-7.17-7.1-1.8-12.82 1.63-16.27 8.93Z" style="fill:url(#_ÂÁ_Ï_ÌÌ_È_ËÂÌÚ_16);mix-blend-mode:screen"/><path d="M146.89 75.68A68.14 68.14 0 0 0 126 68.24c2.78 1.28 19.28 5.81 15.4 10.63-9.08 4.16-14-1.08-19.18-8.81 2.19 6.52 4.88 18.27-3.42 20.12-4.46 1.84-4.15-9.31-5.46-12.52a46.58 46.58 0 0 1-4 12.54c-6.53 1.71-11.45.39-8.3-8.59C95.46 88 89.4 94.52 85.4 102.25c4.6 6.4 11.94 10.16 19 11.62 2.86-12.71 13.15-14.26 10.41 1.38 4.25-12.63 26.62-20.12 14.25 1.11 7-14.1 26.41-20.78 15.58-7.27 15.27-15.31 26.81-18.95 2.25-33.41Z" style="fill:url(#_ÂÁ_Ï_ÌÌ_È_ËÂÌÚ_52-2)"/><path d="M166.49 91.36a3.59 3.59 0 0 1-2.36 1.51c-1.54.18-3-.89-4.6-1.37-5.06.57-9.15 6-14 8-5.48 2.94-11.58-5.25-16.57-.61-11.07 9.73-9.89-2.25-18.84 1-2.09 1.26-8.24 2.2-3.69-2.3-1.13-.67-2.71-1.19-1.5-3 1.79-3.22 4-7.89 7.5-7.88 2.17 0 4.28.95 6.32 1.62.79-.25 1.35-1.12 2-1.71 11.15-12.67 7.08-8.73 20.82-5.9 4.76-2 6.75-9.52 11.79-11.55 4.5-1 11 5.2 12.62 9.78a7.6 7.6 0 0 1-1.38 5.48c.82 1.97 3.59 4.57 1.89 6.93Z" style="fill:url(#_ÂÁ_Ï_ÌÌ_È_ËÂÌÚ_5-15)"/><path d="m141 99.71.53.36c-3.13-.72-6.17-2.29-9.34-2.72-4.45.5-7.67 7.43-12.51 5.06 10.32.33 5.75-12.77 21.32-2.7Z" style="fill:url(#_ÂÁ_Ï_ÌÌ_È_ËÂÌÚ_5-16)"/><path d="M151.71 81.83c-9.63 10.4-5.24 13.34-19.34 8.41-5-1.72-7.3 1.09-10.77 4.34C116.67 96 111 92 107.48 98.87c7.28-.09 5.19-3.06 11.71 3.29-3-1.86-5.66-4.19-9-2.26-2.16 1.28-8.21 2.18-3.69-2.3-2.43-1.08-2.27-1.86-.85-4.16 0 2.41 1.57 2.63 2.6.65a4.38 4.38 0 0 1 3.86-1.62c2.46-.1 4.77 2.68 7.17 1.82 11.24-13.56 10.41-3.49 21.64-2.81 8-3.85 9.26-22.22 21.19-7.82-3.29-.6-7.45-4.66-10.4-1.83Z" style="fill:url(#_ÂÁ_Ï_ÌÌ_È_ËÂÌÚ_5-17)"/><path d="M164.12 92.87c-1.54.18-3-.89-4.6-1.37-5.06.57-9.15 6-14 8 6.55-5.62 9.94-12.21 18.6-6.63Z" style="fill:url(#_ÂÁ_Ï_ÌÌ_È_ËÂÌÚ_5-18)"/><path d="M114.26 93.92c-2.43-.51-4.31 1.8-6.34 3 4.17-5 6.11-4.93 11.34-1.87a36 36 0 0 0-5-1.13Zm42.05-12.58c2.62.64 5.42 2.53 7.48 3.11-11.11-7.45-11.78-5.67-19 5.61-1.32 1.67-2.86 2.84-4.87 2.16-6.14-4.15-12-5.39-17.07 1.67 9.06-9.93 15.62 2.11 21.09-2 2.76-2.82 4.95-6.44 7.66-9.37a4.47 4.47 0 0 1 4.71-1.18Z" style="fill:url(#_ÂÁ_Ï_ÌÌ_È_ËÂÌÚ_5-19)"/><path d="M154.66 69.51c-2.49 0-4.89 2.23-5.49 5.17-.18 1.24 1.5.89 2.08.74 4-.84 7.76 2.86 11.72 3.62 6.51-.14-6.11-10.27-8.31-9.53Z" style="fill:url(#_ÂÁ_Ï_ÌÌ_È_ËÂÌÚ_13);mix-blend-mode:screen"/><path d="M128.83 82.24c1.32 2 13.87 3.59 9.77-1.07-2.24-1.55-11.88-5.46-9.77 1.07Z" style="fill:url(#_ÂÁ_Ï_ÌÌ_È_ËÂÌÚ_13-2);mix-blend-mode:screen"/><path d="M109.54 89.35c-.06 1.94 7 3.49 7.64 1.1.68-3.92-6.77-4.36-7.64-1.1Z" style="fill:url(#_ÂÁ_Ï_ÌÌ_È_ËÂÌÚ_13-3);mix-blend-mode:screen"/><path d="M150.44 88.72a15.07 15.07 0 0 1 8.88-1.82c7.57-1.08-3.3-5.74-5.76-4.68-1.67.05-6.36 5.78-3.12 6.5Z" style="fill:url(#_ÂÁ_Ï_ÌÌ_È_ËÂÌÚ_13-4);mix-blend-mode:screen"/><path d="M129.05 92.43c2.53 1.57 6.09 2.31 8.73 1.21-.57-2.32-9.95-4.98-8.73-1.21Z" style="fill:url(#_ÂÁ_Ï_ÌÌ_È_ËÂÌÚ_13-5);mix-blend-mode:screen"/><path d="M117 95.8c.89-1.37 3 .36 3.23 1.7-.7 1.32-3.71-.19-3.23-1.7Z" style="fill:url(#_ÂÁ_Ï_ÌÌ_È_ËÂÌÚ_13-6);mix-blend-mode:screen"/><path class="cls-30" d="M156 70.19c-.59-.49-2.19-.58-1.89.67.43 1.75 3.64.83 1.89-.67ZM156.77 83c-.12-.57-1.4-1-1.22-.13.17.44 1.22.8 1.22.13ZM133.05 79.62c-.23-.35-1-.59-1.12 0s1.39.75 1.12 0ZM132.09 90.77c-.29-.37-1 .09-.54.46.23.12.77-.11.54-.46ZM112.65 87.24a.27.27 0 0 0-.18-.12s-.24-.07-.33 0c-.99.58.98 1.3.51.12ZM126.92 64.48c-.37-1.42-4.25-1.35-3.11 0 .7-.21 3.19 1.07 3.11 0Z"/><path d="M44.1 102.07c10.34 11.67 23.67 29.23 39.54 21.37 3.4-1.85 23.14-8 20.11-13.34C97.3 98.55 89 87.35 78.08 81.49c-8.82-1.95-17.87 3.18-26.47 5.23a26.19 26.19 0 0 0-7.51 15.35Z" style="fill:url(#_ÂÁ_Ï_ÌÌ_È_ËÂÌÚ_52-3)"/><path d="M83.92 88.26c1.42 9.48-21.19 2.21-24.59-1.32 2.22-4.7 8.33-4.33 12.37-5.38 5.19-1.39 9.75 1.31 12.22 6.7Z" style="fill:url(#_ÂÁ_Ï_ÌÌ_È_ËÂÌÚ_16-2);mix-blend-mode:screen"/><path d="M57.54 90.73a51.34 51.34 0 0 1 15.69-5.58c-2.2 1.07-14.31 4.19-11.55 8 6.51 3.18 10.72-.95 14.39-6.61-1.65 4.89-3.67 13.7 2.57 15.09 3.43 1.25 3-6.9 4.09-9.39a35.13 35.13 0 0 0 3 9.41c4.82 1.34 8.64.16 6.23-6.44 4.19 4.75 8.74 9.68 11.74 15.48-3.45 4.8-9 7.62-14.22 8.71-2.15-9.53-9.87-10.69-7.81 1-3.17-9.55-19.94-14.92-10.7.83-4.57-9.79-20-16.08-11.68-5.45-11.46-11.13-19.98-14.61-1.75-25.05Z" style="fill:url(#_ÂÁ_Ï_ÌÌ_È_ËÂÌÚ_52-4)"/><path d="M42.83 102.5a2.71 2.71 0 0 0 1.78 1.13c1.94.12 4-2.21 5.85-.26 4.9 3.48 9.76 7.71 15.58 4.26 1.71-.73 3.49-1 4.93.54 8.08 7.25 7.5-1.63 14.14.74 1.57.94 6.18 1.65 2.77-1.73.83-.46 2-1 1.12-2.22-1.34-2.41-3-5.92-5.63-5.91-2.19-.31-4.62 2.51-6.21-.07-8.16-9.39-5.47-6.58-15.62-4.42-3.57-1.49-5.06-7.14-8.84-8.67-3.63-.59-8.08 3.71-9.47 7.34a5.73 5.73 0 0 0 1 4.11c-.59 1.44-2.68 3.38-1.4 5.16Z" style="fill:url(#_ÂÁ_Ï_ÌÌ_È_ËÂÌÚ_5-20)"/><path d="m61.93 108.76-.4.27c2.34-.54 4.62-1.72 7-2 3.34.38 5.76 5.57 9.39 3.8-7.74.03-4.6-9.57-15.99-2.07Z" style="fill:url(#_ÂÁ_Ï_ÌÌ_È_ËÂÌÚ_5-21)"/><path d="M53.92 95.35c2.58 2.41 4.18 6.22 7 8.23 4.05.06 8.59-4 12.6-1.47 4.58 6.71 9.47-.93 13.57 6-5.25-.11-4.09-2.11-8.77 2.49 2.24-1.4 4.24-3.14 6.79-1.69 1.62 1 6.16 1.63 2.77-1.73 1.82-.81 1.7-1.4.63-3.12 0 1.81-1.17 2-2 .49a3.29 3.29 0 0 0-2.89-1.22c-1.85-.08-3.58 2-5.38 1.37-8-9.93-8-2.76-16.24-2.11-6.22-3.34-7.08-16.52-15.9-5.87 2.49-.45 5.61-3.48 7.82-1.37Z" style="fill:url(#_ÂÁ_Ï_ÌÌ_È_ËÂÌÚ_5-22)"/><path d="M44.61 103.63c1.16.14 2.27-.67 3.45-1 3.8.43 6.87 4.52 10.48 6-4.65-4.15-7.75-9.2-13.93-5Z" style="fill:url(#_ÂÁ_Ï_ÌÌ_È_ËÂÌÚ_5-23)"/><path d="M78.26 105.24c3.68-2.29 5.63-2.21 8.51 1.4-2.54-2.45-5.46-2.64-8.51-1.4ZM54 95.83c2 2.2 3.67 4.91 5.74 7 4.2 3 9.2-5.86 15.82 1.54-3.66-5.25-8.33-4.36-12.81-1.25-1.5.51-2.66-.38-3.64-1.63-5.26-8.38-6.14-9.77-14.26-4.2 2.49-.61 6.54-4.17 9.15-1.46Z" style="fill:url(#_ÂÁ_Ï_ÌÌ_È_ËÂÌÚ_5-24)"/><path d="M51.7 86.11c1.88 0 3.67 1.67 4.13 3.87.13.94-1.13.67-1.56.56-3-.63-5.83 2.15-8.79 2.72-4.81-.26 4.52-7.63 6.22-7.15Z" style="fill:url(#_ÂÁ_Ï_ÌÌ_È_ËÂÌÚ_13-7);mix-blend-mode:screen"/><path d="M71.08 95.66c-1.9 1.31-6.55 2.64-8 .32.44-2.4 10.02-5.27 8-.32Z" style="fill:url(#_ÂÁ_Ï_ÌÌ_È_ËÂÌÚ_13-8);mix-blend-mode:screen"/><path d="M85.56 101c-.06 1.49-5.18 2.62-5.73.83-.4-2.99 4.98-3.31 5.73-.83Z" style="fill:url(#_ÂÁ_Ï_ÌÌ_È_ËÂÌÚ_13-9);mix-blend-mode:screen"/><path d="M54.87 100.51a11.37 11.37 0 0 0-6.66-1.36c-5.67-.8 2.48-4.3 4.32-3.5 1.26.03 4.77 4.35 2.34 4.86Z" style="fill:url(#_ÂÁ_Ï_ÌÌ_È_ËÂÌÚ_13-10);mix-blend-mode:screen"/><path d="M70.92 103.3a7.68 7.68 0 0 1-6.55.91c.49-1.74 7.37-3.76 6.55-.91Z" style="fill:url(#_ÂÁ_Ï_ÌÌ_È_ËÂÌÚ_13-11);mix-blend-mode:screen"/><path d="M80 105.83c-.66-1-2.27.27-2.43 1.27.49.99 2.75-.1 2.43-1.27Z" style="fill:url(#_ÂÁ_Ï_ÌÌ_È_ËÂÌÚ_13-12);mix-blend-mode:screen"/><path class="cls-30" d="M50.71 86.62c.76-.72 2.14.16 1 1-.71.69-2.07-.24-1-1ZM50.12 96.21c.09-.43 1.06-.73.92-.09-.13.34-.91.61-.92.09ZM67.92 93.69c.28-.56 1.3-.08.62.35-.23.09-.78.08-.62-.35ZM68.64 102.06c.22-.28.75.06.4.34-.17.09-.57-.08-.4-.34ZM83.22 99.77c.29.44.9-.29.39-.46h-.25a.3.3 0 0 0-.14.46ZM72.52 82.34c.28-1 3.12-1.07 2.33 0-.57-.18-2.32.81-2.33 0Z"/><path class="cls-45" d="M143 35.22a6.31 6.31 0 0 0-6.26 2.19 5.4 5.4 0 0 0-1.27 4.83 7.83 7.83 0 0 0 1.14 3.55c.88 1.38 2.86 2.48 4.53 1.84a7.49 7.49 0 0 0 3.2-2.16A6 6 0 0 0 147 42a5.52 5.52 0 0 0-4-6.78ZM359.84 38.83l-.41.23a1.35 1.35 0 0 0-.44.51 1.46 1.46 0 0 0-.24.65v.16a.25.25 0 0 1 0 .08v.5a1.68 1.68 0 0 0 .06.24 3.12 3.12 0 0 0-1.26-.41 3.66 3.66 0 0 0-.57 0 4.12 4.12 0 0 0-2.1-.32 4.9 4.9 0 0 0-4.21 6 5.26 5.26 0 0 0 5.89 3.64c2.93-.39 5.61-3.21 4.45-6.3a4.89 4.89 0 0 0-.65-1.18 1.36 1.36 0 0 0 .45 0 1.29 1.29 0 0 0 .44-.11 1.19 1.19 0 0 0 .25-.13 1.32 1.32 0 0 0 .2-.12 1.79 1.79 0 0 0 .55-.72 2 2 0 0 0 .14-.47 2.17 2.17 0 0 0 0-.51 2.68 2.68 0 0 0-.07-.27.14.14 0 0 0 0-.06.8.8 0 0 0 0-.15.43.43 0 0 1 0-.07s-.05-.09-.07-.14l-.23-.4a1.41 1.41 0 0 0-.52-.45 1 1 0 0 0-.42-.18 1.38 1.38 0 0 0-.7-.06ZM210.75 99a2.06 2.06 0 0 0-1.38-.56A2 2 0 0 0 208 99a1.42 1.42 0 0 0-.4.63 1.38 1.38 0 0 0-.17.75 2 2 0 0 0 .57 1.37 2 2 0 0 0 1.37.57 2 2 0 0 0 1.38-.57 1.42 1.42 0 0 0 .4-.62 1.48 1.48 0 0 0 .17-.75 2 2 0 0 0-.57-1.38ZM233.53 87.52a2.58 2.58 0 0 0-.66-1.14l-.16-.15-.57-.43-.67-.29a2.2 2.2 0 0 0-1.11-.05 1.46 1.46 0 0 0-.71.2 1.3 1.3 0 0 0-.65.34 1.41 1.41 0 0 0-.5.5 1.46 1.46 0 0 0-.36.61 2.25 2.25 0 0 0-.24 1.08c0 .25.07.5.1.75s.19.44.28.67l.44.56.57.44.66.28a2.14 2.14 0 0 0 1.12 0 1.38 1.38 0 0 0 .71-.19 2.18 2.18 0 0 0 .9-.58 1.07 1.07 0 0 1 .16-.14 2 2 0 0 0 .53-.84 1.92 1.92 0 0 0 .23-1c0-.14-.03-.39-.07-.62ZM178.75 53.71a1.84 1.84 0 0 0-.92-.84 1.29 1.29 0 0 1-.17-.16 2.5 2.5 0 0 0-1.35-.89 2.65 2.65 0 0 0-1.69.13 1.28 1.28 0 0 0-.57.34 2 2 0 0 0-.67.72 2.75 2.75 0 0 0-.26 2.22 4.44 4.44 0 0 0 .4 1 3 3 0 0 0 1.78 1.38 3.29 3.29 0 0 0 1.62 0 3 3 0 0 0 1.81-1.34 2.53 2.53 0 0 0 .34-1.26 2.44 2.44 0 0 0-.32-1.3ZM134.83 23.46a3.64 3.64 0 0 0-2.16-1.67 3.56 3.56 0 0 0-2-.64 3.47 3.47 0 0 0-3 1.74 4.38 4.38 0 0 0-.43 3.09 4.14 4.14 0 0 0 1.53 2.16 4.23 4.23 0 0 0 4.82.26 3.74 3.74 0 0 0 1.66-2.16 3.69 3.69 0 0 0-.42-2.78ZM160 48.42a1.46 1.46 0 0 0 0 2.91 1.46 1.46 0 0 0 0-2.91ZM179.34 84c0-.18-.06-.35-.1-.52l-.12-.29a.8.8 0 0 0-.3-.33 1.14 1.14 0 0 0-.73-.26 1.41 1.41 0 0 0-.6.16 1.2 1.2 0 0 0-.55.72l-.1.52a1.34 1.34 0 0 0 0 .69 1.38 1.38 0 0 0 .34.57 1.34 1.34 0 0 0 .91.38 1.38 1.38 0 0 0 .92-.38 1.26 1.26 0 0 0 .33-.57 1.35 1.35 0 0 0 0-.69ZM86.6 28.53a1.8 1.8 0 0 0-.17-.34 4.48 4.48 0 0 0-2.5-2 4.64 4.64 0 0 0-2.56 0 5.56 5.56 0 0 0-2.94 8 4.27 4.27 0 0 0 4.77 2 5.33 5.33 0 0 0 1.67-.75 5.48 5.48 0 0 0 2.61-4.2 4.41 4.41 0 0 0-.88-2.71ZM94.83 33.16a1.83 1.83 0 0 0-.47-1.16 1.65 1.65 0 0 0-1.15-.47 1.61 1.61 0 0 0-1.14.47l-.26.33a1.68 1.68 0 0 0-.22.82v.59a1.22 1.22 0 0 0 .15.65 1.24 1.24 0 0 0 .34.54 1.69 1.69 0 0 0 1.18.48 1.67 1.67 0 0 0 1.18-.48 1.64 1.64 0 0 0 .49-1.19ZM35.54 33.5a4 4 0 0 0-1.93-1.33 7.3 7.3 0 0 0-6.79 1A6 6 0 0 0 25 40.06a5.14 5.14 0 0 0 5.93 3.11 4.47 4.47 0 0 0 3-2.52 6.53 6.53 0 0 0 1.36-1.5 7.64 7.64 0 0 0 1.08-3.41 3.39 3.39 0 0 0-.83-2.24ZM41.74 22.43a1.51 1.51 0 0 0 0 3 1.51 1.51 0 0 0 0-3ZM33.18 18.09a2.59 2.59 0 0 0-.65-1.09 2.62 2.62 0 0 0-1.79-.74 1.84 1.84 0 0 0-1 .22 1.83 1.83 0 0 0-.82.52 1.92 1.92 0 0 0-.52.82 1.9 1.9 0 0 0-.22 1l.09.68a2.59 2.59 0 0 0 .65 1.12 2.68 2.68 0 0 0 1.8.74 1.9 1.9 0 0 0 1-.22 1.83 1.83 0 0 0 .82-.52 1.94 1.94 0 0 0 .53-.82 1.93 1.93 0 0 0 .21-1ZM312.79.11a4.92 4.92 0 0 0-3.06 2.38 4.25 4.25 0 0 0-.48 1.74 2.9 2.9 0 0 0-.16.41 3.77 3.77 0 0 0 .51 3.1 3.26 3.26 0 0 0 5.95-.66 11 11 0 0 0 .56-2.48V2.71a2.67 2.67 0 0 0-3.32-2.6ZM328.27 35.3a2.15 2.15 0 0 0-.79.42 1.66 1.66 0 0 0-.46.76 1.75 1.75 0 0 0 0 .88l.16.41.28.38a1.77 1.77 0 0 0 .77.47 1.72 1.72 0 0 0 .9 0l.43-.06a1.52 1.52 0 0 0 .67-.37 1.41 1.41 0 0 0 .41-.68 1.51 1.51 0 0 0 0-.79 1.58 1.58 0 0 0-.37-.67l-.33-.28a1.66 1.66 0 0 0-.77-.47 1.72 1.72 0 0 0-.9 0ZM363.1 11.93a1.32 1.32 0 0 0-.51 1.76 1.36 1.36 0 0 0 1.12.67H364.55a.91.91 0 0 0 .4-.21 1.06 1.06 0 0 0 .45-.62 1.44 1.44 0 0 0 0-.62 1.24 1.24 0 0 0-.53-.72l-.47-.24a1.33 1.33 0 0 0-1.3-.02Z"/></g></g></g></svg>