<svg xmlns="http://www.w3.org/2000/svg" xmlns:xlink="http://www.w3.org/1999/xlink" viewBox="0 0 390 157.56"><defs><style>.cls-1{isolation:isolate;}.cls-2{fill:url(#_ÂÁ_Ï_ÌÌ_È_ËÂÌÚ_5);}.cls-3{fill:url(#_ÂÁ_Ï_ÌÌ_È_ËÂÌÚ_5-2);}.cls-4{fill:url(#_ÂÁ_Ï_ÌÌ_È_ËÂÌÚ_5-3);}.cls-5{fill:url(#_ÂÁ_Ï_ÌÌ_È_ËÂÌÚ_5-4);}.cls-6{fill:url(#_ÂÁ_Ï_ÌÌ_È_ËÂÌÚ_5-5);}.cls-7{fill:url(#_ÂÁ_Ï_ÌÌ_È_ËÂÌÚ_5-6);}.cls-8{fill:url(#_ÂÁ_Ï_ÌÌ_È_ËÂÌÚ_5-7);}.cls-9{fill:url(#_ÂÁ_Ï_ÌÌ_È_ËÂÌÚ_5-8);}.cls-10{fill:url(#_ÂÁ_Ï_ÌÌ_È_ËÂÌÚ_5-9);}.cls-11{fill:url(#_ÂÁ_Ï_ÌÌ_È_ËÂÌÚ_5-10);}.cls-12{fill:url(#_ÂÁ_Ï_ÌÌ_È_ËÂÌÚ_5-11);}.cls-13{fill:url(#_ÂÁ_Ï_ÌÌ_È_ËÂÌÚ_5-12);}.cls-14{fill:url(#_ÂÁ_Ï_ÌÌ_È_ËÂÌÚ_5-13);}.cls-15{fill:url(#_ÂÁ_Ï_ÌÌ_È_ËÂÌÚ_5-14);}.cls-16{fill:url(#_ÂÁ_Ï_ÌÌ_È_ËÂÌÚ_52);}.cls-17,.cls-24,.cls-25,.cls-26,.cls-27,.cls-28,.cls-29,.cls-32,.cls-39,.cls-40,.cls-41,.cls-42,.cls-43,.cls-44{mix-blend-mode:screen;}.cls-17{fill:url(#_ÂÁ_Ï_ÌÌ_È_ËÂÌÚ_16);}.cls-18{fill:url(#_ÂÁ_Ï_ÌÌ_È_ËÂÌÚ_52-2);}.cls-19{fill:url(#_ÂÁ_Ï_ÌÌ_È_ËÂÌÚ_5-15);}.cls-20{fill:url(#_ÂÁ_Ï_ÌÌ_È_ËÂÌÚ_5-16);}.cls-21{fill:url(#_ÂÁ_Ï_ÌÌ_È_ËÂÌÚ_5-17);}.cls-22{fill:url(#_ÂÁ_Ï_ÌÌ_È_ËÂÌÚ_5-18);}.cls-23{fill:url(#_ÂÁ_Ï_ÌÌ_È_ËÂÌÚ_5-19);}.cls-24{fill:url(#_ÂÁ_Ï_ÌÌ_È_ËÂÌÚ_13);}.cls-25{fill:url(#_ÂÁ_Ï_ÌÌ_È_ËÂÌÚ_13-2);}.cls-26{fill:url(#_ÂÁ_Ï_ÌÌ_È_ËÂÌÚ_13-3);}.cls-27{fill:url(#_ÂÁ_Ï_ÌÌ_È_ËÂÌÚ_13-4);}.cls-28{fill:url(#_ÂÁ_Ï_ÌÌ_È_ËÂÌÚ_13-5);}.cls-29{fill:url(#_ÂÁ_Ï_ÌÌ_È_ËÂÌÚ_13-6);}.cls-30{fill:#efffe8;}.cls-31{fill:url(#_ÂÁ_Ï_ÌÌ_È_ËÂÌÚ_52-3);}.cls-32{fill:url(#_ÂÁ_Ï_ÌÌ_È_ËÂÌÚ_16-2);}.cls-33{fill:url(#_ÂÁ_Ï_ÌÌ_È_ËÂÌÚ_52-4);}.cls-34{fill:url(#_ÂÁ_Ï_ÌÌ_È_ËÂÌÚ_5-20);}.cls-35{fill:url(#_ÂÁ_Ï_ÌÌ_È_ËÂÌÚ_5-21);}.cls-36{fill:url(#_ÂÁ_Ï_ÌÌ_È_ËÂÌÚ_5-22);}.cls-37{fill:url(#_ÂÁ_Ï_ÌÌ_È_ËÂÌÚ_5-23);}.cls-38{fill:url(#_ÂÁ_Ï_ÌÌ_È_ËÂÌÚ_5-24);}.cls-39{fill:url(#_ÂÁ_Ï_ÌÌ_È_ËÂÌÚ_13-7);}.cls-40{fill:url(#_ÂÁ_Ï_ÌÌ_È_ËÂÌÚ_13-8);}.cls-41{fill:url(#_ÂÁ_Ï_ÌÌ_È_ËÂÌÚ_13-9);}.cls-42{fill:url(#_ÂÁ_Ï_ÌÌ_È_ËÂÌÚ_13-10);}.cls-43{fill:url(#_ÂÁ_Ï_ÌÌ_È_ËÂÌÚ_13-11);}.cls-44{fill:url(#_ÂÁ_Ï_ÌÌ_È_ËÂÌÚ_13-12);}.cls-45{fill:#aae0f2;}</style><linearGradient id="_ÂÁ_Ï_ÌÌ_È_ËÂÌÚ_5" x1="195" y1="62.73" x2="195" y2="247.91" gradientUnits="userSpaceOnUse"><stop offset="0" stop-color="#aae0f2"/><stop offset="1" stop-color="#425985"/></linearGradient><linearGradient id="_ÂÁ_Ï_ÌÌ_È_ËÂÌÚ_5-2" x1="185.81" y1="56.85" x2="185.81" y2="224.03" xlink:href="#_ÂÁ_Ï_ÌÌ_È_ËÂÌÚ_5"/><linearGradient id="_ÂÁ_Ï_ÌÌ_È_ËÂÌÚ_5-3" x1="219.78" y1="58.06" x2="219.78" y2="222.56" xlink:href="#_ÂÁ_Ï_ÌÌ_È_ËÂÌÚ_5"/><linearGradient id="_ÂÁ_Ï_ÌÌ_È_ËÂÌÚ_5-4" x1="136.79" y1="60.43" x2="136.79" y2="218.33" xlink:href="#_ÂÁ_Ï_ÌÌ_È_ËÂÌÚ_5"/><linearGradient id="_ÂÁ_Ï_ÌÌ_È_ËÂÌÚ_5-5" x1="146.75" y1="58.84" x2="146.75" y2="221.24" xlink:href="#_ÂÁ_Ï_ÌÌ_È_ËÂÌÚ_5"/><linearGradient id="_ÂÁ_Ï_ÌÌ_È_ËÂÌÚ_5-6" x1="160.89" y1="57.47" x2="160.89" y2="223.33" xlink:href="#_ÂÁ_Ï_ÌÌ_È_ËÂÌÚ_5"/><linearGradient id="_ÂÁ_Ï_ÌÌ_È_ËÂÌÚ_5-7" x1="246.61" y1="57.87" x2="246.61" y2="222.42" xlink:href="#_ÂÁ_Ï_ÌÌ_È_ËÂÌÚ_5"/><linearGradient id="_ÂÁ_Ï_ÌÌ_È_ËÂÌÚ_5-8" x1="343.18" y1="58.59" x2="343.18" y2="220.73" xlink:href="#_ÂÁ_Ï_ÌÌ_È_ËÂÌÚ_5"/><linearGradient id="_ÂÁ_Ï_ÌÌ_È_ËÂÌÚ_5-9" x1="234.86" y1="56.81" x2="234.86" y2="223.99" xlink:href="#_ÂÁ_Ï_ÌÌ_È_ËÂÌÚ_5"/><linearGradient id="_ÂÁ_Ï_ÌÌ_È_ËÂÌÚ_5-10" x1="296.81" y1="58.82" x2="296.81" y2="222.45" xlink:href="#_ÂÁ_Ï_ÌÌ_È_ËÂÌÚ_5"/><linearGradient id="_ÂÁ_Ï_ÌÌ_È_ËÂÌÚ_5-11" x1="170.83" y1="57.97" x2="170.83" y2="223.02" xlink:href="#_ÂÁ_Ï_ÌÌ_È_ËÂÌÚ_5"/><linearGradient id="_ÂÁ_Ï_ÌÌ_È_ËÂÌÚ_5-12" x1="34.57" y1="53.85" x2="34.57" y2="227.36" xlink:href="#_ÂÁ_Ï_ÌÌ_È_ËÂÌÚ_5"/><linearGradient id="_ÂÁ_Ï_ÌÌ_È_ËÂÌÚ_5-13" x1="44.08" y1="57.27" x2="44.08" y2="223.66" xlink:href="#_ÂÁ_Ï_ÌÌ_È_ËÂÌÚ_5"/><linearGradient id="_ÂÁ_Ï_ÌÌ_È_ËÂÌÚ_5-14" x1="29.27" y1="57.91" x2="29.27" y2="222.99" xlink:href="#_ÂÁ_Ï_ÌÌ_È_ËÂÌÚ_5"/><linearGradient id="_ÂÁ_Ï_ÌÌ_È_ËÂÌÚ_52" x1="83.94" y1="-24.52" x2="41.07" y2="64.96" gradientTransform="translate(52.08 85.68) rotate(9.72)" gradientUnits="userSpaceOnUse"><stop offset="0" stop-color="#54719c"/><stop offset="1" stop-color="#132547"/></linearGradient><linearGradient id="_ÂÁ_Ï_ÌÌ_È_ËÂÌÚ_16" x1="105.09" y1="-80.08" x2="43.35" y2="19.35" gradientTransform="translate(52.08 85.68) rotate(9.72)" gradientUnits="userSpaceOnUse"><stop offset="0" stop-color="#445b91"/><stop offset="1"/></linearGradient><linearGradient id="_ÂÁ_Ï_ÌÌ_È_ËÂÌÚ_52-2" x1="102.63" y1="-38.5" x2="26.13" y2="49.78" xlink:href="#_ÂÁ_Ï_ÌÌ_È_ËÂÌÚ_52"/><linearGradient id="_ÂÁ_Ï_ÌÌ_È_ËÂÌÚ_5-15" x1="102.93" y1="-44.71" x2="55.01" y2="47.65" gradientTransform="translate(52.08 85.68) rotate(9.72)" xlink:href="#_ÂÁ_Ï_ÌÌ_È_ËÂÌÚ_5"/><linearGradient id="_ÂÁ_Ï_ÌÌ_È_ËÂÌÚ_5-16" x1="126.1" y1="-52.91" x2="52.98" y2="34.42" gradientTransform="translate(52.08 85.68) rotate(9.72)" xlink:href="#_ÂÁ_Ï_ÌÌ_È_ËÂÌÚ_5"/><linearGradient id="_ÂÁ_Ï_ÌÌ_È_ËÂÌÚ_5-17" x1="121.34" y1="-59.09" x2="47.13" y2="29.55" gradientTransform="translate(52.08 85.68) rotate(9.72)" xlink:href="#_ÂÁ_Ï_ÌÌ_È_ËÂÌÚ_5"/><linearGradient id="_ÂÁ_Ï_ÌÌ_È_ËÂÌÚ_5-18" x1="135.82" y1="-46.46" x2="61.12" y2="42.76" gradientTransform="translate(52.08 85.68) rotate(9.72)" xlink:href="#_ÂÁ_Ï_ÌÌ_È_ËÂÌÚ_5"/><linearGradient id="_ÂÁ_Ï_ÌÌ_È_ËÂÌÚ_5-19" x1="118.85" y1="-62.66" x2="98.9" y2="-32.61" gradientTransform="translate(52.08 85.68) rotate(9.72)" xlink:href="#_ÂÁ_Ï_ÌÌ_È_ËÂÌÚ_5"/><linearGradient id="_ÂÁ_Ï_ÌÌ_È_ËÂÌÚ_13" x1="110.54" y1="-48.13" x2="91.86" y2="-3.66" gradientTransform="translate(52.08 85.68) rotate(9.72)" gradientUnits="userSpaceOnUse"><stop offset="0" stop-color="#9fafd6"/><stop offset="1"/></linearGradient><linearGradient id="_ÂÁ_Ï_ÌÌ_È_ËÂÌÚ_13-2" x1="88.23" y1="-39.77" x2="72.09" y2="3.1" xlink:href="#_ÂÁ_Ï_ÌÌ_È_ËÂÌÚ_13"/><linearGradient id="_ÂÁ_Ï_ÌÌ_È_ËÂÌÚ_13-3" x1="72.51" y1="-34.73" x2="57.45" y2="2.91" xlink:href="#_ÂÁ_Ï_ÌÌ_È_ËÂÌÚ_13"/><linearGradient id="_ÂÁ_Ï_ÌÌ_È_ËÂÌÚ_13-4" x1="111.03" y1="-42.75" x2="89.1" y2="21.06" xlink:href="#_ÂÁ_Ï_ÌÌ_È_ËÂÌÚ_13"/><linearGradient id="_ÂÁ_Ï_ÌÌ_È_ËÂÌÚ_13-5" x1="94.6" y1="-45.69" x2="74" y2="14.24" xlink:href="#_ÂÁ_Ï_ÌÌ_È_ËÂÌÚ_13"/><linearGradient id="_ÂÁ_Ï_ÌÌ_È_ËÂÌÚ_13-6" x1="86.79" y1="-56.86" x2="62.74" y2="13.15" xlink:href="#_ÂÁ_Ï_ÌÌ_È_ËÂÌÚ_13"/><linearGradient id="_ÂÁ_Ï_ÌÌ_È_ËÂÌÚ_52-3" x1="-1638.21" y1="285.88" x2="-1670.38" y2="353.03" gradientTransform="matrix(-0.99, 0.17, 0.17, 0.99, -1599.41, 85.68)" xlink:href="#_ÂÁ_Ï_ÌÌ_È_ËÂÌÚ_52"/><linearGradient id="_ÂÁ_Ï_ÌÌ_È_ËÂÌÚ_16-2" x1="-1622.35" y1="244.21" x2="-1668.65" y2="318.77" gradientTransform="matrix(-0.99, 0.17, 0.17, 0.99, -1599.41, 85.68)" xlink:href="#_ÂÁ_Ï_ÌÌ_È_ËÂÌÚ_16"/><linearGradient id="_ÂÁ_Ï_ÌÌ_È_ËÂÌÚ_52-4" x1="-1624.18" y1="275.38" x2="-1681.58" y2="341.62" gradientTransform="matrix(-0.99, 0.17, 0.17, 0.99, -1599.41, 85.68)" xlink:href="#_ÂÁ_Ï_ÌÌ_È_ËÂÌÚ_52"/><linearGradient id="_ÂÁ_Ï_ÌÌ_È_ËÂÌÚ_5-20" x1="-1623.95" y1="270.7" x2="-1659.92" y2="340.03" gradientTransform="matrix(-0.99, 0.17, 0.17, 0.99, -1599.41, 85.68)" xlink:href="#_ÂÁ_Ï_ÌÌ_È_ËÂÌÚ_5"/><linearGradient id="_ÂÁ_Ï_ÌÌ_È_ËÂÌÚ_5-21" x1="-1606.58" y1="264.57" x2="-1661.44" y2="330.09" gradientTransform="matrix(-0.99, 0.17, 0.17, 0.99, -1599.41, 85.68)" xlink:href="#_ÂÁ_Ï_ÌÌ_È_ËÂÌÚ_5"/><linearGradient id="_ÂÁ_Ï_ÌÌ_È_ËÂÌÚ_5-22" x1="-1610.15" y1="259.94" x2="-1665.82" y2="326.44" gradientTransform="matrix(-0.99, 0.17, 0.17, 0.99, -1599.41, 85.68)" xlink:href="#_ÂÁ_Ï_ÌÌ_È_ËÂÌÚ_5"/><linearGradient id="_ÂÁ_Ï_ÌÌ_È_ËÂÌÚ_5-23" x1="-1599.29" y1="269.42" x2="-1655.33" y2="336.35" gradientTransform="matrix(-0.99, 0.17, 0.17, 0.99, -1599.41, 85.68)" xlink:href="#_ÂÁ_Ï_ÌÌ_È_ËÂÌÚ_5"/><linearGradient id="_ÂÁ_Ï_ÌÌ_È_ËÂÌÚ_5-24" x1="-1612.03" y1="257.25" x2="-1626.99" y2="279.8" gradientTransform="matrix(-0.99, 0.17, 0.17, 0.99, -1599.41, 85.68)" xlink:href="#_ÂÁ_Ï_ÌÌ_È_ËÂÌÚ_5"/><linearGradient id="_ÂÁ_Ï_ÌÌ_È_ËÂÌÚ_13-7" x1="-1618.27" y1="268.15" x2="-1632.29" y2="301.52" gradientTransform="matrix(-0.99, 0.17, 0.17, 0.99, -1599.41, 85.68)" xlink:href="#_ÂÁ_Ï_ÌÌ_È_ËÂÌÚ_13"/><linearGradient id="_ÂÁ_Ï_ÌÌ_È_ËÂÌÚ_13-8" x1="-1635.12" y1="274.69" x2="-1647" y2="306.23" gradientTransform="matrix(-0.99, 0.17, 0.17, 0.99, -1599.41, 85.68)" xlink:href="#_ÂÁ_Ï_ÌÌ_È_ËÂÌÚ_13"/><linearGradient id="_ÂÁ_Ï_ÌÌ_È_ËÂÌÚ_13-9" x1="-1646.79" y1="278.24" x2="-1658.08" y2="306.44" gradientTransform="matrix(-0.99, 0.17, 0.17, 0.99, -1599.41, 85.68)" xlink:href="#_ÂÁ_Ï_ÌÌ_È_ËÂÌÚ_13"/><linearGradient id="_ÂÁ_Ï_ÌÌ_È_ËÂÌÚ_13-10" x1="-1617.89" y1="272.19" x2="-1634.33" y2="320.07" gradientTransform="matrix(-0.99, 0.17, 0.17, 0.99, -1599.41, 85.68)" xlink:href="#_ÂÁ_Ï_ÌÌ_È_ËÂÌÚ_13"/><linearGradient id="_ÂÁ_Ï_ÌÌ_È_ËÂÌÚ_13-11" x1="-1630.21" y1="270" x2="-1645.65" y2="314.95" gradientTransform="matrix(-0.99, 0.17, 0.17, 0.99, -1599.41, 85.68)" xlink:href="#_ÂÁ_Ï_ÌÌ_È_ËÂÌÚ_13"/><linearGradient id="_ÂÁ_Ï_ÌÌ_È_ËÂÌÚ_13-12" x1="-1636.07" y1="261.61" x2="-1654.12" y2="314.13" gradientTransform="matrix(-0.99, 0.17, 0.17, 0.99, -1599.41, 85.68)" xlink:href="#_ÂÁ_Ï_ÌÌ_È_ËÂÌÚ_13"/></defs><g class="cls-1"><g id="Layer_2" data-name="Layer 2"><g id="Layer_1-2" data-name="Layer 1"><path class="cls-2" d="M390,81.54c-3.68-.77-9.57-.68-18.78-.59-10.48-.7-20.72,4.6-31.14,6.65-12.32,2.43-24.83.31-37.2,2-15.05,2.2-29.69,9-44.78,11.33-32.93,5.85-66.43,3.11-99.23-.84a109.07,109.07,0,0,1-33.5-3.27c-30.14-6.9-60.61-5.14-90.85-4C23.45,84.32,11.63,86,0,93.56l0,0v64H390Z"/><path class="cls-3" d="M371.37,140.7c-33.63-5.61-67.91-5.22-101.81-4.28,25.37-3.55,50.67-9.26,76.25-9.1,7.06-.19,14.07,1.53,21.08,1.81,6.09-6.56-17.45-6.3-20.13-6.69-.13-3.7-6.14-4.13-8.49-4.61-1.72-.89-6.4,2.77-3.71,4.56-19.42.62-38.65,4.81-57.94,7.56-25.65.65-51.31,1-77,1.2,2.53-3.3-6.83-2.42-7.13,0-88.79,1.13,39.12,3,61.27,1.79-39.21,4.65-78.6,5.56-118,4.5,3.71-2.52-7.3-3.16-4-.08-44.22-.73-87.7-3.79-131.83-7.23,32.43,6.38,69.32,7.16,103.55,9.34-1.82.54-5.93-.15-6.41,2.22,3.6,5.82,11.19,2.14,15.65,1.35,2-1.49-1.55-3-2.54-3.31,43.84.29,87.62,5,131.36.05,17,.43,34.2-1.65,51.27-1.3.76,3.31,7.43,1.68,9.41,0q27.23.3,54.4,2.88C358.66,141.2,373.52,144.7,371.37,140.7Z"/><path class="cls-4" d="M221.12,128.64c-.79-.76-4.06-.39-2.4,1.15C219.38,130,222,130.05,221.12,128.64Z"/><path class="cls-5" d="M142.19,119c-1.08-.73-13.19-1.08-10.72,1.74C133.15,122.14,144.23,123.57,142.19,119Z"/><path class="cls-6" d="M148.51,122.8a26.32,26.32,0,0,1-3.17-.46C142.51,124,150.32,125.58,148.51,122.8Z"/><path class="cls-7" d="M272.4,115.14c-11.51,1.11-23,3.58-34.49,4.7,7.72-4.34-12.28-3.5-4.19.47a209.38,209.38,0,0,1-92.24-8.37c-30.35-6.71-61.32-8.29-92-6.72-.53,0-.54,1.25,0,1.25,44.19-1.89,87.83,6.45,131.16,16.44,22.64,2.66,45.4.74,68-2.31C251.48,119.57,275.87,118.72,272.4,115.14Z"/><path class="cls-8" d="M248.26,112.68c-.92,0-4.38.43-3.3,2.2C245.7,115.1,249.32,113.84,248.26,112.68Z"/><path class="cls-9" d="M344.35,107.89c-.64-1.51-3.43-1.25-1.92.68C343,108.91,344.61,109.22,344.35,107.89Z"/><path class="cls-10" d="M282.53,152.68c-7.09-5.31-16-4-23.88-5.27-8.09-.78-16.19-1.63-24.3-1.95-6.46-.88-46.44,4.09-47.23,10.77,15.74,2.2,31.76-4.49,47.7-2.36C241.24,152.78,284.72,162.44,282.53,152.68Z"/><path class="cls-11" d="M298.19,148.69c-.59-.87-3.79-1.8-2.6.16C296.21,149.29,298.82,150.53,298.19,148.69Z"/><path class="cls-12" d="M172.69,150.06c-1.25.39-4.12-1.95-4.16.73C168.86,155.36,174.77,152.29,172.69,150.06Z"/><path class="cls-13" d="M38.14,136.9c-1.33-1.47-8.41-2.41-7.22,1.22C31.82,139.25,39.73,139.79,38.14,136.9Z"/><path class="cls-14" d="M45.58,144.18a2.91,2.91,0,0,0-2.94-.22C41.29,146.17,46.7,146.87,45.58,144.18Z"/><path class="cls-15" d="M31.14,138.92c-.91-1.18-5.15-.8-3.57,1.42C28.49,141.09,32.12,141.09,31.14,138.92Z"/><path class="cls-16" d="M164.8,90.78c-13.79,15.57-31.55,39-52.71,28.5-4.28-2.27-31.18-11-26.8-17.79C93.88,86.1,105,71.17,119.5,63.36c11.76-2.61,23.83,4.23,35.29,7C160,75.22,163.8,83,164.8,90.78Z"/><path class="cls-17" d="M111.73,72.38c-2,4.77,5,6.27,8,6.12a44,44,0,0,0,24.76-7.88c-2.95-6.26-11.1-5.77-16.49-7.17C120.9,61.65,115.18,65.08,111.73,72.38Z"/><path class="cls-18" d="M146.89,75.68A68.14,68.14,0,0,0,126,68.24c2.78,1.28,19.28,5.81,15.4,10.63-9.08,4.16-14-1.08-19.18-8.81,2.19,6.52,4.88,18.27-3.42,20.12-4.46,1.84-4.15-9.31-5.46-12.52a46.58,46.58,0,0,1-4,12.54c-6.53,1.71-11.45.39-8.3-8.59C95.46,88,89.4,94.52,85.4,102.25c4.6,6.4,11.94,10.16,19,11.62,2.86-12.71,13.15-14.26,10.41,1.38,4.25-12.63,26.62-20.12,14.25,1.11,7-14.1,26.41-20.78,15.58-7.27C159.91,93.78,171.45,90.14,146.89,75.68Z"/><path class="cls-19" d="M166.49,91.36a3.59,3.59,0,0,1-2.36,1.51h0c-1.54.18-3-.89-4.6-1.37-5.06.57-9.15,6-14,8-5.48,2.94-11.58-5.25-16.57-.61-11.07,9.73-9.89-2.25-18.84,1-2.09,1.26-8.24,2.2-3.69-2.3-1.13-.67-2.71-1.19-1.5-3,1.79-3.22,4-7.89,7.5-7.88,2.17,0,4.28.95,6.32,1.62.79-.25,1.35-1.12,2-1.71,11.15-12.67,7.08-8.73,20.82-5.9,4.76-2,6.75-9.52,11.79-11.55,4.5-1,11,5.2,12.62,9.78a7.6,7.6,0,0,1-1.38,5.48C165.42,86.4,168.19,89,166.49,91.36Z"/><path class="cls-20" d="M141,99.71l.53.36c-3.13-.72-6.17-2.29-9.34-2.72-4.45.5-7.67,7.43-12.51,5.06C130,102.74,125.43,89.64,141,99.71Z"/><path class="cls-21" d="M151.71,81.83c-9.63,10.4-5.24,13.34-19.34,8.41-5-1.72-7.3,1.09-10.77,4.34C116.67,96,111,92,107.48,98.87c7.28-.09,5.19-3.06,11.71,3.29-3-1.86-5.66-4.19-9-2.26-2.16,1.28-8.21,2.18-3.69-2.3-2.43-1.08-2.27-1.86-.85-4.16,0,2.41,1.57,2.63,2.6.65a4.38,4.38,0,0,1,3.86-1.62c2.46-.1,4.77,2.68,7.17,1.82,11.24-13.56,10.41-3.49,21.64-2.81,8-3.85,9.26-22.22,21.19-7.82C158.82,83.06,154.66,79,151.71,81.83Z"/><path class="cls-22" d="M164.12,92.87c-1.54.18-3-.89-4.6-1.37-5.06.57-9.15,6-14,8C152.07,93.88,155.46,87.29,164.12,92.87Z"/><path class="cls-23" d="M114.26,93.92c-2.43-.51-4.31,1.8-6.34,3,4.17-5,6.11-4.93,11.34-1.87A36,36,0,0,0,114.26,93.92Zm42.05-12.58c2.62.64,5.42,2.53,7.48,3.11-11.11-7.45-11.78-5.67-19,5.61-1.32,1.67-2.86,2.84-4.87,2.16-6.14-4.15-12-5.39-17.07,1.67,9.06-9.93,15.62,2.11,21.09-2,2.76-2.82,4.95-6.44,7.66-9.37A4.47,4.47,0,0,1,156.31,81.34Z"/><path class="cls-24" d="M154.66,69.51c-2.49,0-4.89,2.23-5.49,5.17-.18,1.24,1.5.89,2.08.74,4-.84,7.76,2.86,11.72,3.62C169.48,78.9,156.86,68.77,154.66,69.51Z"/><path class="cls-25" d="M128.83,82.24c1.32,2,13.87,3.59,9.77-1.07C136.36,79.62,126.72,75.71,128.83,82.24Z"/><path class="cls-26" d="M109.54,89.35c-.06,1.94,7,3.49,7.64,1.1C117.86,86.53,110.41,86.09,109.54,89.35Z"/><path class="cls-27" d="M150.44,88.72a15.07,15.07,0,0,1,8.88-1.82c7.57-1.08-3.3-5.74-5.76-4.68C151.89,82.27,147.2,88,150.44,88.72Z"/><path class="cls-28" d="M129.05,92.43c2.53,1.57,6.09,2.31,8.73,1.21C137.21,91.32,127.83,88.66,129.05,92.43Z"/><path class="cls-29" d="M117,95.8c.89-1.37,3,.36,3.23,1.7C119.53,98.82,116.52,97.31,117,95.8Z"/><path class="cls-30" d="M156,70.19c-.59-.49-2.19-.58-1.89.67C154.54,72.61,157.75,71.69,156,70.19Z"/><path class="cls-30" d="M156.77,83c-.12-.57-1.4-1-1.22-.13C155.72,83.31,156.77,83.67,156.77,83Z"/><path class="cls-30" d="M133.05,79.62c-.23-.35-1-.59-1.12,0S133.32,80.37,133.05,79.62Z"/><path class="cls-30" d="M132.09,90.77c-.29-.37-1,.09-.54.46C131.78,91.35,132.32,91.12,132.09,90.77Z"/><path class="cls-30" d="M112.65,87.24a.27.27,0,0,0-.18-.12s-.24-.07-.33,0h0C111.15,87.7,113.12,88.42,112.65,87.24Z"/><path class="cls-30" d="M126.92,64.48c-.37-1.42-4.25-1.35-3.11,0C124.51,64.27,127,65.55,126.92,64.48Z"/><path class="cls-31" d="M44.1,102.07c10.34,11.67,23.67,29.23,39.54,21.37,3.4-1.85,23.14-8,20.11-13.34C97.3,98.55,89,87.35,78.08,81.49c-8.82-1.95-17.87,3.18-26.47,5.23A26.19,26.19,0,0,0,44.1,102.07Z"/><path class="cls-32" d="M83.92,88.26c1.42,9.48-21.19,2.21-24.59-1.32,2.22-4.7,8.33-4.33,12.37-5.38C76.89,80.17,81.45,82.87,83.92,88.26Z"/><path class="cls-33" d="M57.54,90.73a51.34,51.34,0,0,1,15.69-5.58c-2.2,1.07-14.31,4.19-11.55,8,6.51,3.18,10.72-.95,14.39-6.61-1.65,4.89-3.67,13.7,2.57,15.09,3.43,1.25,3-6.9,4.09-9.39a35.13,35.13,0,0,0,3,9.41c4.82,1.34,8.64.16,6.23-6.44,4.19,4.75,8.74,9.68,11.74,15.48-3.45,4.8-9,7.62-14.22,8.71-2.15-9.53-9.87-10.69-7.81,1-3.17-9.55-19.94-14.92-10.7.83-4.57-9.79-20-16.08-11.68-5.45C47.83,104.65,39.31,101.17,57.54,90.73Z"/><path class="cls-34" d="M42.83,102.5a2.71,2.71,0,0,0,1.78,1.13h0c1.94.12,4-2.21,5.85-.26,4.9,3.48,9.76,7.71,15.58,4.26,1.71-.73,3.49-1,4.93.54,8.08,7.25,7.5-1.63,14.14.74,1.57.94,6.18,1.65,2.77-1.73.83-.46,2-1,1.12-2.22-1.34-2.41-3-5.92-5.63-5.91-2.19-.31-4.62,2.51-6.21-.07C69,89.59,71.69,92.4,61.54,94.56c-3.57-1.49-5.06-7.14-8.84-8.67-3.63-.59-8.08,3.71-9.47,7.34a5.73,5.73,0,0,0,1,4.11C43.64,98.78,41.55,100.72,42.83,102.5Z"/><path class="cls-35" d="M61.93,108.76l-.4.27c2.34-.54,4.62-1.72,7-2,3.34.38,5.76,5.57,9.39,3.8C70.18,110.86,73.32,101.26,61.93,108.76Z"/><path class="cls-36" d="M53.92,95.35c2.58,2.41,4.18,6.22,7,8.23,4.05.06,8.59-4,12.6-1.47,4.58,6.71,9.47-.93,13.57,6C81.84,108,83,106,78.32,110.6c2.24-1.4,4.24-3.14,6.79-1.69,1.62,1,6.16,1.63,2.77-1.73,1.82-.81,1.7-1.4.63-3.12,0,1.81-1.17,2-2,.49a3.29,3.29,0,0,0-2.89-1.22c-1.85-.08-3.58,2-5.38,1.37-8-9.93-8-2.76-16.24-2.11-6.22-3.34-7.08-16.52-15.9-5.87C48.59,96.27,51.71,93.24,53.92,95.35Z"/><path class="cls-37" d="M44.61,103.63c1.16.14,2.27-.67,3.45-1,3.8.43,6.87,4.52,10.48,6C53.89,104.48,50.79,99.43,44.61,103.63Z"/><path class="cls-38" d="M78.26,105.24c3.68-2.29,5.63-2.21,8.51,1.4C84.23,104.19,81.31,104,78.26,105.24ZM54,95.83c2,2.2,3.67,4.91,5.74,7,4.2,3,9.2-5.86,15.82,1.54-3.66-5.25-8.33-4.36-12.81-1.25-1.5.51-2.66-.38-3.64-1.63-5.26-8.38-6.14-9.77-14.26-4.2C47.34,96.68,51.39,93.12,54,95.83Z"/><path class="cls-39" d="M51.7,86.11c1.88,0,3.67,1.67,4.13,3.87.13.94-1.13.67-1.56.56-3-.63-5.83,2.15-8.79,2.72C40.67,93,50,85.63,51.7,86.11Z"/><path class="cls-40" d="M71.08,95.66c-1.9,1.31-6.55,2.64-8,.32C63.52,93.58,73.1,90.71,71.08,95.66Z"/><path class="cls-41" d="M85.56,101c-.06,1.49-5.18,2.62-5.73.83C79.43,98.84,84.81,98.52,85.56,101Z"/><path class="cls-42" d="M54.87,100.51a11.37,11.37,0,0,0-6.66-1.36c-5.67-.8,2.48-4.3,4.32-3.5C53.79,95.68,57.3,100,54.87,100.51Z"/><path class="cls-43" d="M70.92,103.3a7.68,7.68,0,0,1-6.55.91C64.86,102.47,71.74,100.45,70.92,103.3Z"/><path class="cls-44" d="M80,105.83c-.66-1-2.27.27-2.43,1.27C78.06,108.09,80.32,107,80,105.83Z"/><path class="cls-30" d="M50.71,86.62c.76-.72,2.14.16,1,1C51,88.31,49.64,87.38,50.71,86.62Z"/><path class="cls-30" d="M50.12,96.21c.09-.43,1.06-.73.92-.09C50.91,96.46,50.13,96.73,50.12,96.21Z"/><path class="cls-30" d="M67.92,93.69c.28-.56,1.3-.08.62.35C68.31,94.13,67.76,94.12,67.92,93.69Z"/><path class="cls-30" d="M68.64,102.06c.22-.28.75.06.4.34C68.87,102.49,68.47,102.32,68.64,102.06Z"/><path class="cls-30" d="M83.22,99.77c.29.44.9-.29.39-.46-.06,0-.21,0-.25,0A.3.3,0,0,0,83.22,99.77Z"/><path class="cls-30" d="M72.52,82.34c.28-1,3.12-1.07,2.33,0C74.28,82.16,72.53,83.15,72.52,82.34Z"/><path class="cls-45" d="M143,35.22a6.31,6.31,0,0,0-6.26,2.19,5.4,5.4,0,0,0-1.27,4.83,7.83,7.83,0,0,0,1.14,3.55c.88,1.38,2.86,2.48,4.53,1.84a7.49,7.49,0,0,0,3.2-2.16A6,6,0,0,0,147,42,5.52,5.52,0,0,0,143,35.22Z"/><path class="cls-45" d="M359.84,38.83l-.41.23a1.35,1.35,0,0,0-.44.51,1.46,1.46,0,0,0-.24.65l0,.16a.25.25,0,0,1,0,.08s0,0,0,0v.07c0,.14,0,.28,0,.43a1.68,1.68,0,0,0,.06.24,3.12,3.12,0,0,0-1.26-.41,3.66,3.66,0,0,0-.57,0,4.12,4.12,0,0,0-2.1-.32,4.9,4.9,0,0,0-4.21,6,5.26,5.26,0,0,0,5.89,3.64c2.93-.39,5.61-3.21,4.45-6.3a4.89,4.89,0,0,0-.65-1.18h0a1.36,1.36,0,0,0,.45,0,1.29,1.29,0,0,0,.44-.11,1.19,1.19,0,0,0,.25-.13h0a1.32,1.32,0,0,0,.2-.12l0,0a1.79,1.79,0,0,0,.55-.72h0a2,2,0,0,0,.14-.47h0a2.17,2.17,0,0,0,0-.51,2.68,2.68,0,0,0-.07-.27.14.14,0,0,0,0-.06.8.8,0,0,0,0-.15v0a.06.06,0,0,1,0,0,.43.43,0,0,1,0-.07s-.05-.09-.07-.14l-.23-.4a1.41,1.41,0,0,0-.52-.45,1,1,0,0,0-.42-.18,1.38,1.38,0,0,0-.7-.06Z"/><path class="cls-45" d="M210.75,99a2.06,2.06,0,0,0-1.38-.56A2,2,0,0,0,208,99a1.42,1.42,0,0,0-.4.63,1.38,1.38,0,0,0-.17.75,2,2,0,0,0,.57,1.37,2,2,0,0,0,1.37.57,2,2,0,0,0,1.38-.57,1.42,1.42,0,0,0,.4-.62,1.48,1.48,0,0,0,.17-.75A2,2,0,0,0,210.75,99Z"/><path class="cls-45" d="M233.53,87.52a2.58,2.58,0,0,0-.66-1.14l-.16-.15-.57-.43-.67-.29a2.2,2.2,0,0,0-1.11-.05,1.46,1.46,0,0,0-.71.2A1.3,1.3,0,0,0,229,86a1.41,1.41,0,0,0-.5.5,1.46,1.46,0,0,0-.36.61,2.25,2.25,0,0,0-.24,1.08c0,.25.07.5.1.75s.19.44.28.67l.44.56.57.44.66.28a2.14,2.14,0,0,0,1.12,0,1.38,1.38,0,0,0,.71-.19,2.18,2.18,0,0,0,.9-.58,1.07,1.07,0,0,1,.16-.14,2,2,0,0,0,.53-.84,1.92,1.92,0,0,0,.23-1C233.6,88,233.57,87.75,233.53,87.52Z"/><path class="cls-45" d="M178.75,53.71a1.84,1.84,0,0,0-.92-.84,1.29,1.29,0,0,1-.17-.16,2.5,2.5,0,0,0-1.35-.89,2.65,2.65,0,0,0-1.69.13,1.28,1.28,0,0,0-.57.34,2,2,0,0,0-.67.72,2.75,2.75,0,0,0-.26,2.22,4.44,4.44,0,0,0,.4,1,3,3,0,0,0,1.78,1.38,3.29,3.29,0,0,0,1.62,0,3,3,0,0,0,1.81-1.34,2.53,2.53,0,0,0,.34-1.26A2.44,2.44,0,0,0,178.75,53.71Z"/><path class="cls-45" d="M134.83,23.46a3.64,3.64,0,0,0-2.16-1.67h0a3.56,3.56,0,0,0-2-.64,3.47,3.47,0,0,0-3,1.74,4.38,4.38,0,0,0-.43,3.09,4.14,4.14,0,0,0,1.53,2.16,4.23,4.23,0,0,0,4.82.26,3.74,3.74,0,0,0,1.66-2.16A3.69,3.69,0,0,0,134.83,23.46Z"/><path class="cls-45" d="M160,48.42a1.46,1.46,0,0,0,0,2.91A1.46,1.46,0,0,0,160,48.42Z"/><path class="cls-45" d="M179.34,84c0-.18-.06-.35-.1-.52l-.12-.29a.8.8,0,0,0-.3-.33,1.14,1.14,0,0,0-.73-.26,1.41,1.41,0,0,0-.6.16,1.2,1.2,0,0,0-.55.72l-.1.52a1.34,1.34,0,0,0,0,.69,1.38,1.38,0,0,0,.34.57,1.34,1.34,0,0,0,.91.38,1.38,1.38,0,0,0,.92-.38,1.26,1.26,0,0,0,.33-.57A1.35,1.35,0,0,0,179.34,84Z"/><path class="cls-45" d="M86.6,28.53a1.8,1.8,0,0,0-.17-.34,4.48,4.48,0,0,0-2.5-2,4.64,4.64,0,0,0-2.56,0,5.56,5.56,0,0,0-2.94,8,4.27,4.27,0,0,0,4.77,2,5.33,5.33,0,0,0,1.67-.75,5.48,5.48,0,0,0,2.61-4.2A4.41,4.41,0,0,0,86.6,28.53Z"/><path class="cls-45" d="M94.83,33.16A1.83,1.83,0,0,0,94.36,32a1.65,1.65,0,0,0-1.15-.47,1.61,1.61,0,0,0-1.14.47l-.26.33a1.68,1.68,0,0,0-.22.82l0,.59a1.22,1.22,0,0,0,.15.65,1.24,1.24,0,0,0,.34.54,1.69,1.69,0,0,0,1.18.48,1.67,1.67,0,0,0,1.18-.48,1.64,1.64,0,0,0,.49-1.19Z"/><path class="cls-45" d="M35.54,33.5a4,4,0,0,0-1.93-1.33,7.3,7.3,0,0,0-6.79,1A6,6,0,0,0,25,40.06a5.14,5.14,0,0,0,5.93,3.11,4.47,4.47,0,0,0,3-2.52,6.53,6.53,0,0,0,1.36-1.5,7.64,7.64,0,0,0,1.08-3.41A3.39,3.39,0,0,0,35.54,33.5Z"/><path class="cls-45" d="M41.74,22.43a1.51,1.51,0,0,0,0,3A1.51,1.51,0,0,0,41.74,22.43Z"/><path class="cls-45" d="M33.18,18.09A2.59,2.59,0,0,0,32.53,17a2.62,2.62,0,0,0-1.79-.74,1.84,1.84,0,0,0-1,.22,1.83,1.83,0,0,0-.82.52,1.92,1.92,0,0,0-.52.82,1.9,1.9,0,0,0-.22,1l.09.68a2.59,2.59,0,0,0,.65,1.12,2.68,2.68,0,0,0,1.8.74,1.9,1.9,0,0,0,1-.22,1.83,1.83,0,0,0,.82-.52,1.94,1.94,0,0,0,.53-.82,1.93,1.93,0,0,0,.21-1Z"/><path class="cls-45" d="M312.79.11a4.92,4.92,0,0,0-3.06,2.38,4.25,4.25,0,0,0-.48,1.74,2.9,2.9,0,0,0-.16.41,3.77,3.77,0,0,0,.51,3.1,3.26,3.26,0,0,0,5.95-.66,11,11,0,0,0,.56-2.48c0-.62,0-1.26,0-1.89A2.67,2.67,0,0,0,312.79.11Z"/><path class="cls-45" d="M328.27,35.3a2.15,2.15,0,0,0-.79.42,1.66,1.66,0,0,0-.46.76,1.75,1.75,0,0,0,0,.88l.16.41.28.38a1.77,1.77,0,0,0,.77.47,1.72,1.72,0,0,0,.9,0l.43-.06a1.52,1.52,0,0,0,.67-.37,1.41,1.41,0,0,0,.41-.68,1.51,1.51,0,0,0,0-.79,1.58,1.58,0,0,0-.37-.67l-.33-.28a1.66,1.66,0,0,0-.77-.47A1.72,1.72,0,0,0,328.27,35.3Z"/><path class="cls-45" d="M363.1,11.93a1.32,1.32,0,0,0-.51,1.76,1.36,1.36,0,0,0,1.12.67l.53,0,.31,0a.91.91,0,0,0,.4-.21,1.06,1.06,0,0,0,.45-.62,1.44,1.44,0,0,0,0-.62,1.24,1.24,0,0,0-.53-.72l-.47-.24A1.33,1.33,0,0,0,363.1,11.93Z"/></g></g></g></svg>